<svg version="1.1" id="download" xmlns="http://www.w3.org/2000/svg" x="0" y="0" viewBox="0 0 250 250" xml:space="preserve">
    <path d="M146.8 16.5c-.7-.7-1.4-1.3-2.2-1.8-.2-.2-.5-.3-.7-.5-.6-.4-1.2-.7-1.8-1-.2-.1-.5-.2-.8-.3l-1.8-.6-.3-.1-.7-.1c-.7-.1-1.5-.2-2.3-.3H59c-8.8 0-16 7.2-16 16v151.6c0 7 4.5 13 10.9 15.1 1.6 4.7 5.3 8.4 10 10 2.1 6.3 8.1 10.9 15.1 10.9h44.3c4.7 6 10.5 11.1 17 14.9 8.9 5.2 19.1 7.9 29.4 7.9 32.4 0 58.8-26.4 58.8-58.8 0-10.3-2.7-20.5-7.9-29.4-3.8-6.6-8.9-12.4-14.9-17V47.8c0-7-4.5-13-10.9-15.1-1.6-.6-3.4-.9-5.2-.9H162l-15.2-15.3z" fill="#fff"/>
    <path fill="#333" d="M193.7 139.2V47.8c0-2.2-1.8-4-4-4h-41.3L129.6 25s-.1 0-.1-.1c-.2-.2-.3-.3-.5-.4-.1 0-.1-.1-.2-.1-.2-.1-.3-.2-.5-.3-.1 0-.2-.1-.3-.1-.2-.1-.3-.1-.5-.1-.3-.1-.5-.1-.8-.1H59c-2.2 0-4 1.8-4 4v151.6c0 2.2 1.8 4 4 4h16v16c0 2.2 1.8 4 4 4h50.6c8.2 13.7 23.1 22.8 40.2 22.8 25.8 0 46.8-21 46.8-46.8 0-17.1-9.2-32-22.9-40.2zm-8-87.4v83.6c-3.8-1.4-7.8-2.3-12-2.6v-62c0-.3 0-.5-.1-.8 0-.1-.1-.2-.1-.3 0-.1-.1-.3-.1-.4-.1-.1-.1-.2-.2-.4-.1-.1-.1-.2-.2-.3-.1-.2-.3-.4-.5-.6v-.1l-16.1-16.1h29.3zm-54.9-14.3l29.3 29.3h-29.3V37.5zM63 175.4V31.8h59.9v38.9c0 2.2 1.8 4 4 4h38.9v58c-22.6 1.9-40.7 20-42.6 42.6H63zm20 20v-12h40.1c.4 4.2 1.3 8.2 2.6 12H83zm86.7 22.8c-21.4 0-38.8-17.4-38.8-38.8s17.4-38.8 38.8-38.8 38.8 17.4 38.8 38.8-17.4 38.8-38.8 38.8z"/>
    <path fill="#333" d="M185.2 181.5L173.7 193v-36.9c0-2.2-1.8-4-4-4s-4 1.8-4 4V193l-11.5-11.5c-1.6-1.6-4.1-1.6-5.7 0-1.6 1.6-1.6 4.1 0 5.7l18.3 18.3c.2.2.4.4.6.5.1.1.2.1.3.2.1.1.2.1.4.2.1.1.3.1.4.1.1 0 .2.1.3.1.3.1.5.1.8.1s.5 0 .8-.1c.1 0 .2-.1.3-.1.1 0 .3-.1.4-.1.1-.1.3-.1.4-.2.1-.1.2-.1.3-.2.2-.1.4-.3.6-.5l18.3-18.3c1.6-1.6 1.6-4.1 0-5.7-1.4-1.6-3.9-1.6-5.5 0z"/>
</svg>
