<svg version="1.1" id="download" xmlns="http://www.w3.org/2000/svg" x="0" y="0" viewBox="0 0 250 250" xml:space="preserve">
    <path fill="#fff" d="M135.5 11.8H59c-8.8 0-16 7.2-16 16v151.6c0 7 4.5 13 10.9 15.1 1.6 4.7 5.3 8.4 10 10 2.1 6.3 8.1 10.9 15.1 10.9h44.3c4.7 6 10.5 11.1 17 14.9 8.9 5.2 19.1 7.9 29.4 7.9 32.4 0 58.8-26.4 58.8-58.8 0-10.3-2.7-20.5-7.9-29.4-3.8-6.6-8.9-12.4-14.9-17V47.8c0-7-4.5-13-10.9-15.1-2.1-6.3-8.1-10.9-15.1-10.9h-27.6l-5.3-5.3c-.7-.7-1.4-1.3-2.2-1.8-.2-.2-.5-.3-.7-.5-.6-.4-1.2-.7-1.8-1-.2-.1-.5-.2-.8-.3l-1.8-.6-.3-.1-.7-.1c-.7-.1-1.5-.2-2.3-.3h-.7z" />
    <path fill="#333" d="M193.7 139.2V47.8c0-2.2-1.8-4-4-4h-6v-6c0-2.2-1.8-4-4-4h-32.6l-8.8-8.8c-.2-.2-.4-.3-.6-.5-.1 0-.1-.1-.2-.1-.1-.1-.3-.2-.5-.2-.1 0-.1-.1-.2-.1-.2-.1-.4-.2-.7-.2-.2 0-.5-.1-.7-.1H59c-2.2 0-4 1.8-4 4v151.6c0 2.2 1.8 4 4 4h6v6c0 2.2 1.8 4 4 4h6v6c0 2.2 1.8 4 4 4h50.6c8.2 13.7 23.1 22.8 40.2 22.8 25.8 0 46.8-21 46.8-46.8 0-17.1-9.2-32-22.9-40.2zm-8-87.4v83.6c-.7-.2-1.3-.5-2-.7V51.8h2zm-10-10v91.1c-.7-.1-1.3-.2-2-.2V61.9c0-.2 0-.5-.1-.7 0-.2-.1-.4-.2-.7 0-.1-.1-.1-.1-.2-.1-.2-.2-.3-.2-.5 0-.1-.1-.1-.1-.2-.1-.2-.3-.4-.5-.6l-17.4-17.4h20.6zM160.1 58h-20.6V37.5L160.1 58zM63 31.8h68.5V62c0 2.2 1.8 4 4 4h30.2v66.7c-22.6 1.9-40.7 20-42.6 42.6H63V31.8zm60.1 151.6c.1.7.1 1.3.2 2H73v-2h50.1zm-40.1 12v-2h42.1c.2.7.4 1.3.7 2H83zm86.7 22.8c-12.6 0-23.8-6-30.9-15.4-.2-.2-.4-.5-.5-.7-.2-.3-.4-.6-.7-.9-.2-.4-.5-.7-.7-1.1-.2-.4-.5-.7-.7-1.1-.2-.4-.5-.8-.7-1.3-.1-.2-.2-.5-.4-.7-.2-.4-.4-.8-.6-1.3-1-2.2-1.8-4.5-2.5-6.9 0-.2-.1-.4-.1-.6-.4-1.6-.7-3.2-.8-4.8 0-.4-.1-.9-.1-1.3v-.6c0-.7-.1-1.3-.1-2s0-1.3.1-2v-.6c0-.5.1-.9.1-1.4 1.9-18.2 16.4-32.8 34.6-34.6.4 0 .8-.1 1.2-.1.3 0 .5 0 .8-.1h4c.3 0 .5 0 .8.1.4 0 .8.1 1.2.1 19.5 2 34.8 18.6 34.8 38.6.1 21.3-17.4 38.7-38.8 38.7z"/>
    <path fill="#333" d="M185.2 181.5L173.7 193v-36.9c0-2.2-1.8-4-4-4s-4 1.8-4 4V193l-11.5-11.5c-1.6-1.6-4.1-1.6-5.7 0-1.6 1.6-1.6 4.1 0 5.7l18.3 18.3c.2.2.4.4.6.5.1.1.2.1.3.2.1.1.2.1.4.2.1.1.3.1.4.1.1 0 .2.1.3.1.3.1.5.1.8.1s.5 0 .8-.1c.1 0 .2-.1.3-.1.1 0 .3-.1.4-.1.1-.1.3-.1.4-.2.1-.1.2-.1.3-.2.2-.1.4-.3.6-.5l18.3-18.3c1.6-1.6 1.6-4.1 0-5.7-1.4-1.6-3.9-1.6-5.5 0z"/>
</svg>
