<svg xmlns="http://www.w3.org/2000/svg" viewBox="0 0 250 250">
    <path fill="#fff" d="M222.9 86.6c0-.8-.1-1.6-.3-2.4V84c-.2-.8-.4-1.6-.8-2.5-.1-.3-.2-.5-.3-.8-.3-.6-.6-1.2-1-1.8-.1-.2-.3-.5-.5-.7-.6-.8-1.2-1.5-1.8-2.2L184 41.8c-.7-.7-1.4-1.3-2.2-1.8-.2-.2-.5-.3-.7-.5-.6-.4-1.2-.7-1.8-1-.2-.1-.5-.2-.7-.3-.8-.3-1.6-.6-2.4-.7-.1 0-.2 0-.3-.1-.8-.2-1.5-.2-2.3-.3h-29.9c.1-.3.1-.6.2-.9.1-.7.2-1.2.2-1.6 0-.5.1-1 .1-1.5 0-.7-.1-1.2-.1-1.6 0-.3-.1-.9-.2-1.5-.1-.5-.2-.9-.3-1.3-.1-.3-.2-.8-.4-1.3l-5.9-15c-2.4-6.2-8.3-10.2-14.9-10.2-2 0-4 .4-5.8 1.1-3.7 1.4-6.5 4.1-8.2 7.3-1.3-.1-2.7-.1-4-.1-5 0-10.1.6-15.1 1.8-16.2 4-29.8 14.1-38.5 28.4-2.2 3.7-2.9 8-1.8 12.1 1 4.1 3.6 7.6 7.3 9.9.1.1.3.1.4.2H43.1c-8.8 0-16 7.2-16 16v151.6c0 8.8 7.2 16 16 16h110.8c8.8 0 16-7.2 16-16v-9.9h37c8.8 0 16-7.2 16-16v-118z"/>
    <path fill="#333" d="M210.9 87.3c0-.2 0-.5-.1-.7 0-.2-.1-.4-.2-.7 0-.1-.1-.1-.1-.2-.1-.2-.2-.3-.2-.5 0-.1-.1-.1-.1-.2-.1-.2-.3-.4-.5-.6l-34.2-34.2c-.2-.2-.4-.3-.6-.5-.1 0-.1-.1-.2-.1-.2-.1-.3-.2-.5-.2-.1 0-.1-.1-.2-.1-.2-.1-.4-.2-.7-.2-.2 0-.5-.1-.7-.1H96.1c-2.2 0-4 1.8-4 4v21.9h-49c-2.2 0-4 1.8-4 4v151.6c0 2.2 1.8 4 4 4h110.8c2.2 0 4-1.8 4-4v-21.9h49c2.2 0 4-1.8 4-4V87.3c0 .1 0 0 0 0zm-13.7-3.9h-20.6V62.8L187 73.1l10.2 10.3zm-47.3 143.2H47.1V83.1h45v121.6c0 2.2 1.8 4 4 4h53.8v17.9zm-49.8-25.9V57.2h68.5v30.2c0 2.2 1.8 4 4 4h30.2v109.3H100.1zM62.2 52.6c.6.4 1.4.6 2.1.6 1.4 0 2.7-.7 3.4-1.9 5.9-9.7 15.1-16.6 26.1-19.3 8.1-2 16.4-1.6 24.1 1.1l-6.3 2.5c-2.1.8-3.1 3.1-2.3 5.2.6 1.6 2.1 2.5 3.7 2.5.5 0 1-.1 1.5-.3l15-5.9s.1 0 .1-.1c.1-.1.2-.1.4-.2.1-.1.2-.1.3-.2.1-.1.2-.2.3-.2l.3-.3c.1-.1.2-.2.2-.3.1-.1.2-.2.3-.4 0 0 0-.1.1-.1 0-.1.1-.1.1-.2.1-.1.1-.3.2-.4 0-.1.1-.2.1-.4 0-.1.1-.2.1-.4v-1.2c0-.1 0-.3-.1-.4 0-.1-.1-.3-.1-.4 0-.1 0-.2-.1-.2l-5.9-15c-.8-2.1-3.1-3.1-5.2-2.3-2.1.8-3.1 3.1-2.3 5.2l2.2 5.6c-9.2-3.2-19.1-3.7-28.7-1.3-13.1 3.2-24.1 11.4-31.1 22.9-1 2.2-.4 4.6 1.5 5.8z"/>
</svg>
