<svg xmlns="http://www.w3.org/2000/svg" viewBox="0 0 250 250">
    <path fill="#fff" d="M78.4 81.1H28.2c-12.7 0-23 10.3-23 22.9v124.1c0 8.8 7.2 16 16 16h164.5c6.1 0 11.7-3.5 14.4-9l43-88c2.4-5 2.1-10.8-.8-15.5-2.9-4.7-8-7.5-13.6-7.5h-28.5v-9.8c0-8.8-7.2-16-16-16h-83.7c-2.4-9.9-11.4-17.2-22.1-17.2z"/>
    <path fill="#333" d="M232.2 138c-.7-1.2-2-1.9-3.4-1.9h-40.5v-21.8c0-2.2-1.8-4-4-4H89.4V104c0-6-4.9-10.9-11-10.9H28.2c-6.1 0-11 4.9-11 10.9v124.1c0 2.2 1.8 4 4 4h164.5c1.5 0 2.9-.9 3.6-2.2l43-88c.7-1.3.6-2.7-.1-3.9zm-204-36.9h50.2c1.7 0 3 1.3 3 2.9v10.3c0 2.2 1.8 4 4 4h94.9v17.8H67.2c-1.5 0-2.9.9-3.6 2.2L25.2 217V104c0-1.6 1.3-2.9 3-2.9z"/>
</svg>
