<svg xmlns="http://www.w3.org/2000/svg" viewBox="0 0 250 250">
    <path fill="#fff" d="M157.4 16.3c-11.5 0-22.2 5-29.6 13.7L83.2 82.9c-6 7.1-9.3 16.2-9.1 25.6.1 5.6 1.4 11.1 3.8 16.1l-28.6 33.8c-6.7 7.9-9.9 17.9-9 28.2.9 10.4 5.7 19.7 13.6 26.4l13.7 11.6c7 5.9 15.8 9.1 24.9 9.1 1.1 0 2.2 0 3.3-.1 10.3-.9 19.7-5.7 26.3-13.6l44.6-52.9c10.1-12 11.7-28.4 5.3-41.8.3-.3.6-.6.8-.9l27.7-32.8c6.7-7.9 9.9-17.9 9-28.2-.7-10.4-5.5-19.7-13.4-26.4l-13.7-11.6c-7-5.9-15.8-9.1-25-9.1z"/>
    <path fill="#333" d="M157.7 111.5c-1.4 1.7-1.2 4.2.5 5.6s4.2 1.2 5.6-.5l27.7-32.9c9.5-11.3 8.1-28.2-3.2-37.7l-13.7-11.6c-11.3-9.5-28.2-8.1-37.7 3.2l-44.5 53c-8.7 10.2-8.2 25.2.4 34.9l-34.3 40.6c-9.5 11.3-8.1 28.2 3.2 37.7l13.7 11.6c4.9 4.1 10.9 6.3 17.2 6.3.8 0 1.5 0 2.3-.1 7.1-.6 13.6-3.9 18.2-9.4l44.6-52.9c9.5-11.3 8.1-28.2-3.2-37.7l-.1-.1-13.6-11.5c-11.3-9.5-28.2-8.1-37.7 3.2-1.4 1.7-1.2 4.2.5 5.6 1.7 1.4 4.2 1.2 5.6-.5 3.2-3.8 7.8-6.2 12.7-6.6 5-.4 9.8 1.1 13.7 4.4l10.6 8.9-5.4 6.4c-6.7 7.9-18.5 8.9-26.4 2.2l-13.6-11.5-.1-.1c-7.9-6.7-8.9-18.5-2.2-26.4l44.6-52.9c6.7-7.9 18.5-8.9 26.4-2.2l13.7 11.6c7.9 6.7 8.9 18.5 2.2 26.4l-27.7 33zm-31.3 34.7c.8 0 1.5 0 2.3-.1 7.1-.6 13.6-3.9 18.2-9.4l5.1-6c5.3 6.8 5.3 16.7-.5 23.6l-44.6 52.9c-6.7 7.9-18.5 8.9-26.4 2.2l-13.7-11.6c-7.9-6.7-8.9-18.5-2.2-26.4L98.7 131l10.6 8.9c4.8 4.1 10.8 6.3 17.1 6.3z"/>
</svg>
