<svg xmlns="http://www.w3.org/2000/svg" viewBox="0 0 250 250">
    <path fill="#333" d="M163 142.1V71.3c0-.2 0-.5-.1-.7 0-.2-.1-.4-.2-.7 0-.1-.1-.1-.1-.2-.1-.2-.2-.3-.2-.5 0-.1-.1-.1-.1-.2-.1-.2-.3-.4-.5-.6l-34.2-34.2c-.2-.2-.4-.3-.6-.5-.1 0-.1-.1-.2-.1-.2-.1-.3-.2-.5-.2-.1 0-.1-.1-.2-.1-.2-.1-.4-.2-.7-.2-.2 0-.5-.1-.7-.1H48.2c-2.2 0-4 1.8-4 4v151.6c0 2.2 1.8 4 4 4h64.1c2 23.9 22.2 42.8 46.6 42.8 25.8 0 46.8-21 46.8-46.8.1-24.3-18.8-44.4-42.7-46.5zm-13.7-74.7h-20.6V46.9L139 57.2l10.3 10.2zM52.2 41.2h68.5v30.2c0 2.2 1.8 4 4 4H155v66.7c-22.6 1.9-40.7 20-42.6 42.6H52.2V41.2zM159 227.6c-21.4 0-38.8-17.4-38.8-38.8S137.6 150 159 150s38.8 17.4 38.8 38.8-17.4 38.8-38.8 38.8z"/>
    <path fill="#fff" d="M124.8 33.2c.3 0 .6 0 .8.1.2 0 .4.1.7.2.1 0 .1.1.2.1.2.1.3.2.5.2.1 0 .1.1.2.1.2.1.4.3.6.5L162 68.6c.2.2.3.4.5.6 0 .1.1.1.1.2.1.2.2.3.2.5 0 .1.1.1.1.2.1.2.2.4.2.7 0 .2.1.5.1.7v70.8c23.9 2 42.8 22.2 42.8 46.6 0 25.8-21 46.8-46.8 46.8-24.5 0-44.6-18.9-46.6-42.8H48.2c-2.2 0-4-1.8-4-4V37.2c0-2.2 1.8-4 4-4h76.6M52.2 184.8h60.1c1.9-22.6 20-40.7 42.6-42.6V75.4h-30.2c-2.2 0-4-1.8-4-4V41.2H52.2v143.6m76.6-117.4h20.6L139 57.2l-10.3-10.3v20.5M159 227.6c21.4 0 38.8-17.4 38.8-38.8S180.4 150 159 150s-38.8 17.4-38.8 38.8 17.4 38.8 38.8 38.8M124.8 21.2H48.2c-8.8 0-16 7.2-16 16v151.6c0 8.8 7.2 16 16 16h54.2c2.9 10.4 8.7 19.8 16.7 27.2 10.9 10.1 25.1 15.6 39.9 15.6 32.4 0 58.8-26.4 58.8-58.8 0-14.8-5.5-29-15.6-39.9-7.4-8.1-16.9-13.8-27.2-16.7V70.6c0-.8-.1-1.6-.3-2.4 0-.1 0-.2-.1-.3-.2-.8-.4-1.6-.7-2.4-.1-.3-.2-.5-.3-.8-.3-.6-.6-1.2-1-1.8-.1-.2-.3-.5-.5-.7-.6-.8-1.2-1.5-1.8-2.2l-34.2-34.2c-.7-.7-1.4-1.3-2.2-1.8-.2-.2-.5-.3-.7-.5-.6-.4-1.2-.7-1.8-1-.2-.1-.5-.2-.8-.3-.8-.3-1.7-.6-2.5-.8h-.2c-.8-.2-1.5-.2-2.3-.3-.3.1-.6.1-.8.1z"/>
    <path fill="#333" d="M182.2 184.8H163v-19.3c0-2.2-1.8-4-4-4s-4 1.8-4 4v19.3h-19.3c-2.2 0-4 1.8-4 4s1.8 4 4 4H155V212c0 2.2 1.8 4 4 4s4-1.8 4-4v-19.3h19.3c2.2 0 4-1.8 4-4s-1.8-3.9-4.1-3.9z"/>
</svg>
