<svg xmlns="http://www.w3.org/2000/svg" viewBox="0 0 250 250">
    <path fill="#fff" d="M245.3 131.5c-2.9-4.7-8-7.5-13.6-7.5h-25.4v-10.8c0-.8-.1-1.6-.3-2.4 0-.1 0-.2-.1-.3-.2-.8-.4-1.6-.7-2.4-.1-.3-.2-.5-.3-.8-.3-.6-.6-1.2-1-1.8-.1-.2-.3-.5-.5-.7-.6-.8-1.2-1.5-1.8-2.2l-34.2-34.2c-.7-.7-1.4-1.3-2.2-1.8-.2-.2-.5-.3-.7-.5-.6-.4-1.2-.7-1.8-1-.2-.1-.5-.2-.8-.3-.9-.3-1.7-.6-2.6-.8h-.1c-.8-.2-1.5-.2-2.3-.3h-14.4V52.9c1.1.2 2.2.4 3.4.4 4.3 0 8.3-1.7 11.3-4.7 6.2-6.2 6.2-16.4 0-22.6L137.7 6.6l-.5-.5c-.6-.6-1.2-1.1-1.9-1.5-.5-.3-1-.6-1.3-.8-.4-.2-.8-.5-1.4-.7-.6-.3-1.1-.4-1.6-.5-.4-.1-.9-.3-1.4-.4-1-.2-2.1-.3-3.1-.3s-2.1.1-3.1.3c-.6.1-1.1.3-1.5.4-.4.1-.9.3-1.5.5-.6.3-1.1.5-1.5.7-.3.2-.8.4-1.3.8-.8.5-1.6 1.1-2.2 1.8l-.2.2L95.7 26c-3 3-4.7 7-4.7 11.3 0 4.3 1.7 8.3 4.7 11.3s7 4.7 11.3 4.7c1.1 0 2.3-.1 3.4-.4v10.8H79.5c-8.8 0-16 7.2-16 16V81H31C18.4 81 8.1 91.2 8.1 103.9V228c0 8.8 7.2 16 16 16h164.6c6.1 0 11.7-3.5 14.4-9l43-88c2.4-5 2.1-10.8-.8-15.5z"/>
    <path fill="#333" d="M235.1 137.9c-.7-1.2-2-1.9-3.4-1.9h-37.4v-22.1c0-.2 0-.5-.1-.7 0-.2-.1-.4-.2-.7 0-.1-.1-.1-.1-.2-.1-.2-.2-.3-.2-.5 0-.1-.1-.1-.1-.2-.1-.2-.3-.4-.5-.6l-34.2-34.2c-.2-.2-.4-.3-.6-.5-.1 0-.1-.1-.2-.1-.1-.1-.3-.2-.5-.2-.1 0-.1-.1-.2-.1-.2-.1-.4-.2-.7-.2-.2 0-.5-.1-.7-.1H79.5c-2.2 0-4 1.8-4 4V136h-5.4c-1.5 0-2.9.9-3.6 2.2l-38.4 78.6V103.9c0-1.6 1.3-2.9 2.9-2.9h34.9c2.2 0 4-1.8 4-4s-1.8-4-4-4H31c-6 0-10.9 4.9-10.9 10.9V228c0 2.2 1.8 4 4 4h164.6c1.5 0 2.9-.9 3.6-2.2l43-88c.6-1.3.5-2.8-.2-3.9zM180.6 110H160V89.4l10.3 10.3 10.3 10.3zM83.5 83.8H152V114c0 2.2 1.8 4 4 4h30.2v18H83.5V83.8zm45.7-68.7c-.2-.2-.4-.4-.6-.5-.1-.1-.2-.1-.3-.2-.1-.1-.2-.1-.4-.2-.1-.1-.3-.1-.4-.1-.1 0-.2-.1-.3-.1-.3-.1-.5-.1-.8-.1-.3 0-.5 0-.8.1-.1 0-.2.1-.3.1-.1 0-.3.1-.4.1-.1.1-.2.1-.4.2-.1.1-.2.1-.3.2-.2.1-.4.3-.6.5l-19.4 19.4c-1.6 1.6-1.6 4.1 0 5.7 1.6 1.6 4.1 1.6 5.7 0l12.5-12.5V67c0 2.2 1.8 4 4 4s4-1.8 4-4V27.6l12.5 12.5c1.6 1.6 4.1 1.6 5.7 0 1.6-1.6 1.6-4.1 0-5.7l-19.4-19.3z"/>
</svg>
