<svg xmlns="http://www.w3.org/2000/svg" viewBox="0 0 250 250">
    <path fill="#fff" d="M143.3 1.2h-36.6C96.6 1.2 88 8 85.3 17.3h-28c-18 0-32.6 14.6-32.6 32.6v9.9c0 8.8 7.2 16 16 16h.9v133c0 22.1 18 40 40 40h86.6c22.1 0 40-18 40-40v-133h.9c8.8 0 16-7.2 16-16v-9.9c0-18-14.6-32.6-32.6-32.6h-27.9C162 8 153.4 1.2 143.3 1.2z"/>
    <path fill="#333" d="M125 202.6c2.2 0 4-1.8 4-4V98.5c0-2.2-1.8-4-4-4s-4 1.8-4 4v100.1c0 2.2 1.8 4 4 4zm-33.9 0c2.2 0 4-1.8 4-4V98.5c0-2.2-1.8-4-4-4s-4 1.8-4 4v100.1c0 2.2 1.8 4 4 4zm67.8 0c2.2 0 4-1.8 4-4V98.5c0-2.2-1.8-4-4-4s-4 1.8-4 4v100.1c0 2.2 1.8 4 4 4z"/>
    <path fill="#333" d="M192.7 29.3h-39.1v-5.8c0-5.7-4.6-10.3-10.3-10.3h-36.6c-5.7 0-10.3 4.6-10.3 10.3v5.8H57.3c-11.4 0-20.6 9.2-20.6 20.6v9.9c0 2.2 1.8 4 4 4h12.9v145c0 15.5 12.6 28 28 28h86.6c15.5 0 28-12.6 28-28v-145h12.9c2.2 0 4-1.8 4-4v-9.9c.2-11.4-9.1-20.6-20.4-20.6zm-88.3-5.9c0-1.2 1-2.3 2.3-2.3h36.6c1.2 0 2.3 1 2.3 2.3v5.8h-41.2v-5.8zm83.9 185.4c0 11.1-9 20-20 20H81.7c-11.1 0-20-9-20-20v-145h126.7v145zm17-153H44.7v-5.9c0-7 5.7-12.6 12.6-12.6h135.4c7 0 12.6 5.7 12.6 12.6v5.9z"/>
</svg>
