<svg xmlns="http://www.w3.org/2000/svg" viewBox="0 0 250 250">
    <path fill="#fff" d="M242.4 131.5c-2.9-4.7-8-7.5-13.6-7.5h-25.4v-10.8c0-.8-.1-1.6-.3-2.4 0-.1 0-.2-.1-.3-.2-.8-.4-1.6-.7-2.4-.1-.3-.2-.5-.3-.8-.3-.6-.6-1.2-1-1.8-.1-.2-.3-.5-.5-.7-.6-.8-1.2-1.5-1.8-2.2l-34.2-34.2c-.7-.7-1.4-1.3-2.2-1.8-.2-.2-.5-.3-.7-.5-.6-.4-1.2-.7-1.8-1-.2-.1-.5-.2-.8-.3-.9-.3-1.7-.6-2.6-.8h-.1c-.8-.2-1.5-.2-2.3-.3h-4.6l4.9-4.9c3-3 4.7-7 4.7-11.3 0-4.3-1.7-8.3-4.7-11.3s-7-4.7-11.3-4.7c-1.1 0-2.3.1-3.4.4v-14c0-8.8-7.2-16-16-16s-16 7.2-16 16v14c-1.1-.2-2.2-.4-3.4-.4-4.3 0-8.3 1.7-11.3 4.7-6.2 6.2-6.2 16.4 0 22.6l4.9 4.9H76.6c-8.8 0-16 7.2-16 16V81H28.1C15.5 81 5.2 91.2 5.2 103.9V228c0 8.8 7.2 16 16 16h164.6c6.1 0 11.7-3.5 14.4-9l43-88c2.4-5 2.1-10.8-.8-15.5z"/>
    <path fill="#333" d="M232.2 137.9c-.7-1.2-2-1.9-3.4-1.9h-37.4v-22.1c0-.2 0-.5-.1-.7 0-.2-.1-.4-.2-.7 0-.1-.1-.1-.1-.2-.1-.2-.2-.3-.2-.5 0-.1-.1-.1-.1-.2-.1-.2-.3-.4-.5-.6L156 76.8c-.2-.2-.4-.3-.6-.5-.1 0-.1-.1-.2-.1-.1-.1-.3-.2-.5-.2-.1 0-.1-.1-.2-.1-.2-.1-.4-.2-.7-.2-.2 0-.5-.1-.7-.1H76.6c-2.2 0-4 1.8-4 4V136h-5.4c-1.5 0-2.9.9-3.6 2.2l-38.4 78.6V103.9c0-1.6 1.3-2.9 2.9-2.9H63c2.2 0 4-1.8 4-4s-1.8-4-4-4H28.1c-6 0-10.9 4.9-10.9 10.9V228c0 2.2 1.8 4 4 4h164.6c1.5 0 2.9-.9 3.6-2.2l43-88c.6-1.3.5-2.8-.2-3.9zM177.7 110h-20.6V89.4l10.3 10.3 10.3 10.3zM80.6 83.8h68.5V114c0 2.2 1.8 4 4 4h30.2v18H80.6V83.8zm40-14c.1 0 .1 0 0 0 .2.2.4.4.6.5.1.1.2.1.3.2.1.1.2.1.4.2.1.1.3.1.4.1.1 0 .2.1.3.1.3.1.5.1.8.1.3 0 .5 0 .8-.1.1 0 .2-.1.3-.1.1 0 .3-.1.4-.1.1-.1.2-.1.4-.2.1-.1.2-.1.3-.2.2-.1.4-.3.6-.5l19.4-19.4c1.6-1.6 1.6-4.1 0-5.7-1.6-1.6-4.1-1.6-5.7 0l-12.5 12.5V17.9c0-2.2-1.8-4-4-4s-4 1.8-4 4v39.4l-12.5-12.5c-1.6-1.6-4.1-1.6-5.7 0-1.6 1.6-1.6 4.1 0 5.7l19.4 19.3z"/>
</svg>
