<svg id="Layer_1" xmlns="http://www.w3.org/2000/svg" viewBox="0 0 250 250">
    <path fill="#fff" d="M193.6 148.1c-7.7 0-15.2 2.5-21.2 7.1l-9-4.5c.1-.9.2-1.7.2-2.6v-17.9c0-1.1-.1-2.1-.3-3.1l9.1-4.6c6.1 4.5 13.5 7.1 21.2 7.1 20.5 0 37-17.4 35.5-38.3-1.3-17.1-14.9-31.1-32-32.8-14.6-1.4-27.6 6-34.4 17.6-.1-.2-.1-.4-.2-.6-.1-.2-.1-.4-.2-.5-.7-1.8-1.8-3.4-3.1-4.8l-1.5-1.5-33.2-33.2c-.7-.7-1.4-1.3-2.2-1.8-.2-.1-.5-.3-.7-.5-.6-.4-1.2-.7-1.8-1-.2-.1-.5-.2-.8-.3-.6-.2-1.2-.4-1.9-.6l-.2-.1-.6-.1c-.8-.2-1.5-.2-2.3-.3H36.8c-8.8 0-16 7.2-16 16v151.6c0 8.8 7.2 16 16 16h110.8c7.5 0 13.8-5.2 15.5-12.2 6.8 11.3 19.8 18.6 34.3 17.1 17-1.8 30.5-15.7 31.7-32.7 1.5-21-15-38.5-35.5-38.5z"/>
    <path fill="#333" d="M193.6 160.1c-7.8 0-14.7 3.8-19 9.6l-48-24.1c.7-2.2 1-4.5 1-6.9s-.4-4.7-1-6.9l48-24.1c4.3 5.8 11.2 9.6 19 9.6 13 0 23.6-10.6 23.6-23.6s-10.6-23.6-23.6-23.6S170 80.7 170 93.7c0 2.4.4 4.7 1 6.9l-48 24.1c-4.3-5.8-11.2-9.6-19-9.6-13 0-23.6 10.6-23.6 23.6 0 13 10.6 23.7 23.6 23.7 7.8 0 14.7-3.8 19-9.6l48 24.1c-.7 2.2-1 4.5-1 6.9 0 13 10.6 23.6 23.6 23.6s23.6-10.6 23.6-23.6-10.6-23.7-23.6-23.7zm0-81.8c8.6 0 15.6 7 15.6 15.6s-7 15.6-15.6 15.6-15.6-7-15.6-15.6 7-15.6 15.6-15.6zM104 154.4c-8.6 0-15.6-7-15.6-15.6s7-15.6 15.6-15.6 15.6 7 15.6 15.6-7 15.6-15.6 15.6zm89.6 44.9c-8.6 0-15.6-7-15.6-15.6s7-15.6 15.6-15.6 15.6 7 15.6 15.6-7 15.6-15.6 15.6z"/>
    <path fill="#333" d="M147.6 169.9c-2.2 0-4 1.8-4 4v20.3H40.8V50.7h68.5v30.2c0 2.2 1.8 4 4 4h30.2v17.5c0 2.2 1.8 4 4 4s4-1.8 4-4V80.8c0-.2 0-.4-.1-.6V80c0-.2-.1-.4-.2-.5v-.1c0-.1 0-.1-.1-.1-.1-.1-.1-.3-.2-.4 0 0 0-.1-.1-.1l-.1-.1c-.1-.2-.3-.4-.4-.5L116.1 44c-.2-.2-.4-.3-.6-.5-.1 0-.1-.1-.2-.1-.1-.1-.3-.2-.5-.2-.1 0-.1-.1-.2-.1-.2-.1-.4-.2-.7-.2-.2 0-.5-.1-.7-.1H36.8c-2.2 0-4 1.8-4 4v151.6c0 2.2 1.8 4 4 4h110.8c2.2 0 4-1.8 4-4v-24.3c0-2.4-1.8-4.2-4-4.2zm-30.3-93V56.3l10.5 10.5 10.1 10.1h-20.6z"/>
    <path fill="#fff" d="M116.2 43.8L150.4 78"/>
    <path fill="#333" d="M143.6 130.2V148c0 2.2 1.8 4 4 4s4-1.8 4-4v-17.9c0-2.2-1.8-4-4-4s-4 1.9-4 4.1z"/>
</svg>
