<svg xmlns="http://www.w3.org/2000/svg" viewBox="0 0 250 250">
    <path fill="#fff" d="M125 5.8c-8.2 0-15.9 3.2-21.6 9-5.6 5.7-8.7 13.4-8.7 21.7v20.7c-15.5.1-28.7 10.2-33.6 24.1l-19.7-6.4c-3.1-1-6.3-1.5-9.5-1.5-4.8 0-9.6 1.2-13.9 3.4-7.3 3.7-12.8 10-15.3 17.8-5.2 16.1 3.6 33.4 19.7 38.7l3.3 1.1c-5 2.7-8.4 8-8.4 14.1 0 8.8 7.2 16 16 16h19.9c1.4 3.4 3 6.6 4.9 9.7l-15.5 21.3c-4.8 6.6-6.8 14.7-5.5 22.8 1.3 8.1 5.6 15.2 12.3 20 5.3 3.8 11.5 5.9 18 5.9 9.8 0 19.1-4.7 24.8-12.7l15.5-21.3c5.6 1.3 11.4 1.9 17.2 1.9 5.8 0 11.6-.6 17.2-1.9l15.5 21.3c5.8 7.9 15 12.7 24.8 12.7 6.5 0 12.8-2 18-5.9 6.6-4.8 11-11.9 12.3-20 1.3-8.1-.7-16.2-5.5-22.8l-15.5-21.3c5.9-10 9.6-21.2 10.7-32.8l25-8.1c16.1-5.2 24.9-22.6 19.7-38.7-2.5-7.8-8-14.1-15.3-17.9-4.3-2.2-9.1-3.4-13.9-3.4-3.2 0-6.4.5-9.5 1.5L189 81.3c-4.9-13.9-18.1-24-33.6-24.2V36.5c0-8.2-3.1-15.9-8.7-21.7-5.8-5.8-13.4-9-21.7-9z"/>
    <path fill="#333" d="M235.9 98.3c-1.5-4.8-4.8-8.6-9.3-10.9-4.4-2.3-9.5-2.7-14.3-1.1L179.2 97c-.2-.2-.3-.5-.5-.7.1-1.1.2-2.1.2-3.2 0-13.3-10.8-24.1-24.1-24.1-3.6 0-7.3.8-10.5 2.4-.3-.1-.7-.2-1-.3V36.5c0-10.5-8-18.7-18.3-18.7s-18.3 8.2-18.3 18.7v34.7c-.3.1-.7.2-1 .3-3.2-1.5-6.8-2.4-10.5-2.4-13.3 0-24.1 10.8-24.1 24.1 0 1.1.1 2.1.2 3.2-.2.2-.3.5-.5.7L37.7 86.3c-4.8-1.5-9.8-1.1-14.3 1.1-4.5 2.3-7.8 6.1-9.3 10.9-3.2 9.8 2.2 20.4 12 23.6l33 10.7v1.7c0 3.4.3 6.8.8 10.1H33.3c-2.2 0-4 1.8-4 4s1.8 4 4 4h28.4c2.3 7.9 6 15.4 11.1 22l-20.4 28.1c-2.9 4-4.1 9-3.3 13.9.8 4.9 3.4 9.3 7.5 12.2 3.2 2.3 7 3.6 11 3.6 6 0 11.6-2.9 15.1-7.7l20.4-28.1c7.1 2.5 14.5 3.8 22 3.8s14.9-1.3 22-3.8l20.4 28.1c3.5 4.8 9.2 7.7 15.1 7.7 4 0 7.8-1.2 11-3.6 4-2.9 6.7-7.3 7.5-12.2.8-4.9-.4-9.9-3.3-13.9l-20.4-28.1c8.8-11.5 13.7-25.6 13.7-40.1v-1.7l33-10.7c9.6-3.2 15-13.8 11.8-23.6zM78.7 99.8c.7-.9.9-2.1.7-3.2-.2-1-.3-2.1-.3-3.3 0-8.9 7.2-16.1 16.1-16.1 2.9 0 5.7.7 8.1 2.1 1 .6 2.2.7 3.3.3 1.7-.6 3.3-1 5-1.4 1.8-.4 3.1-2 3.1-3.9V36.5c0-6 4.5-10.7 10.3-10.7 5.8 0 10.3 4.7 10.3 10.7v37.8c0 1.9 1.3 3.5 3.1 3.9 1.6.4 3.2.8 5 1.4 1.1.4 2.3.3 3.3-.3 2.4-1.4 5.3-2.1 8.2-2.1 8.9 0 16.1 7.2 16.1 16.1 0 1.1-.1 2.2-.4 3.3-.2 1.1 0 2.3.7 3.2 1.1 1.4 2 2.8 2.8 4.1 1 1.6 2.9 2.3 4.6 1.7l36-11.7c2.7-.9 5.6-.7 8.2.6 2.5 1.3 4.4 3.5 5.3 6.2 1.8 5.6-1.3 11.7-6.9 13.5l-36 11.7c-1.8.6-2.9 2.3-2.8 4.1.1 1.6.2 3 .2 4.3 0 13.7-4.9 26.9-13.7 37.4-1.2 1.4-1.3 3.4-.2 4.9l22.2 30.6c1.7 2.3 2.4 5.1 1.9 8-.4 2.8-2 5.3-4.3 7-1.8 1.3-4 2-6.3 2-3.4 0-6.7-1.6-8.7-4.4l-22.2-30.6c-.8-1.1-2-1.6-3.2-1.6-.5 0-1 .1-1.5.3-7 2.9-14.4 4.3-21.9 4.3-7.6 0-14.9-1.5-21.9-4.3-1.7-.7-3.7-.1-4.8 1.3l-22.2 30.6c-2 2.8-5.2 4.4-8.7 4.4-2.3 0-4.4-.7-6.3-2-2.3-1.7-3.8-4.2-4.3-7-.4-2.8.2-5.6 1.9-8L81 176.7c1.1-1.5 1-3.5-.2-4.9-4.8-5.7-8.5-12.3-10.8-19.3h41.3L95 168.8c-1.6 1.6-1.6 4.1 0 5.7.8.8 1.8 1.2 2.8 1.2 1 0 2-.4 2.8-1.2l23.1-23.1c.2-.2.4-.4.5-.6.1-.1.1-.2.2-.3.1-.1.2-.3.2-.4.1-.1.1-.3.1-.4 0-.1.1-.2.1-.4s.1-.5.1-.7v-.2c0-.2 0-.5-.1-.7 0-.1-.1-.2-.1-.4 0-.1-.1-.3-.1-.4-.1-.1-.1-.3-.2-.4-.1-.1-.1-.2-.2-.3-.1-.2-.3-.4-.5-.6l-23.1-23.1c-1.6-1.6-4.1-1.6-5.7 0-1.6 1.6-1.6 4.1 0 5.7l16.3 16.3H68c-.6-3.3-.9-6.7-.9-10.1 0-1.3.1-2.7.2-4.3.1-1.8-1-3.5-2.8-4.1l-36-11.7c-5.6-1.8-8.7-7.9-6.9-13.5.9-2.7 2.8-4.9 5.3-6.2 2.5-1.3 5.4-1.5 8.2-.6l36 11.7"/>
</svg>
