<svg xmlns="http://www.w3.org/2000/svg" viewBox="0 0 250 250">
	<g id="comparison-diff">
		<path fill="#333" d="M195 106.2h-91.2c-2.2 0-4-1.8-4-4s1.8-4 4-4H195c2.2 0 4 1.8 4 4s-1.8 4-4 4z"/>
		<path fill="#FFF" d="M195 98.2c2.2 0 4 1.8 4 4s-1.8 4-4 4h-91.2c-2.2 0-4-1.8-4-4s1.8-4 4-4H195m0-12h-91.2c-8.8 0-16 7.2-16 16s7.2 16 16 16H195c8.8 0 16-7.2 16-16s-7.2-16-16-16z"/>
		<path fill="#333" d="M195 151.8h-91.2c-2.2 0-4-1.8-4-4s1.8-4 4-4H195c2.2 0 4 1.8 4 4s-1.8 4-4 4z"/>
		<path fill="#FFF" d="M195 143.8c2.2 0 4 1.8 4 4s-1.8 4-4 4h-91.2c-2.2 0-4-1.8-4-4s1.8-4 4-4H195m0-12h-91.2c-8.8 0-16 7.2-16 16s7.2 16 16 16H195c8.8 0 16-7.2 16-16s-7.2-16-16-16z"/>
		<path fill="#333" d="M58.9 159.9c-2.2 0-4-1.8-4-4V64.2c0-2.2 1.8-4 4-4s4 1.8 4 4v91.7c0 2.2-1.8 4-4 4z"/>
		<path fill="#FFF" d="M58.9 60.2c2.2 0 4 1.8 4 4v91.7c0 2.2-1.8 4-4 4s-4-1.8-4-4V64.2c0-2.3 1.8-4 4-4m0-12c-8.8 0-16 7.2-16 16v91.7c0 8.8 7.2 16 16 16s16-7.2 16-16V64.2c0-8.9-7.2-16-16-16z"/>
		<path fill="#333" d="M58.9 189.8c-4.4 0-7.9-3.6-7.9-7.9 0-4.4 3.6-7.9 7.9-7.9s7.9 3.6 7.9 7.9c.1 4.4-3.5 7.9-7.9 7.9z"/>
		<path fill="#FFF" d="M58.9 174c4.4 0 7.9 3.6 7.9 7.9 0 4.4-3.6 7.9-7.9 7.9s-7.9-3.6-7.9-7.9c0-4.4 3.5-7.9 7.9-7.9m0-12c-11 0-19.9 8.9-19.9 19.9 0 11 8.9 19.9 19.9 19.9s19.9-8.9 19.9-19.9c.1-11-8.9-19.9-19.9-19.9z"/>
	</g>
</svg>
