<svg xmlns="http://www.w3.org/2000/svg" viewBox="0 0 250 250">
	<g id="comparison-equal">
		<path fill="#333" d="M110.5 106.2H19.3c-2.2 0-4-1.8-4-4s1.8-4 4-4h91.2c2.2 0 4 1.8 4 4s-1.8 4-4 4z"/>
		<path fill="#FFF" d="M110.5 98.2c2.2 0 4 1.8 4 4s-1.8 4-4 4H19.3c-2.2 0-4-1.8-4-4s1.8-4 4-4h91.2m0-12H19.3c-8.8 0-16 7.2-16 16s7.2 16 16 16h91.2c8.8 0 16-7.2 16-16s-7.2-16-16-16z"/>
		<path fill="#333" d="M110.5 151.8H19.3c-2.2 0-4-1.8-4-4s1.8-4 4-4h91.2c2.2 0 4 1.8 4 4s-1.8 4-4 4z"/>
		<path fill="#FFF" d="M110.5 143.8c2.2 0 4 1.8 4 4s-1.8 4-4 4H19.3c-2.2 0-4-1.8-4-4s1.8-4 4-4h91.2m0-12H19.3c-8.8 0-16 7.2-16 16s7.2 16 16 16h91.2c8.8 0 16-7.2 16-16s-7.2-16-16-16z"/>
		<path fill="#333" d="M230.7 106.2h-91.2c-2.2 0-4-1.8-4-4s1.8-4 4-4h91.2c2.2 0 4 1.8 4 4s-1.8 4-4 4z"/>
		<path fill="#FFF" d="M230.7 98.2c2.2 0 4 1.8 4 4s-1.8 4-4 4h-91.2c-2.2 0-4-1.8-4-4s1.8-4 4-4h91.2m0-12h-91.2c-8.8 0-16 7.2-16 16s7.2 16 16 16h91.2c8.8 0 16-7.2 16-16s-7.2-16-16-16z"/>
		<path fill="#333" d="M230.7 151.8h-91.2c-2.2 0-4-1.8-4-4s1.8-4 4-4h91.2c2.2 0 4 1.8 4 4s-1.8 4-4 4z"/>
		<path fill="#FFF" d="M230.7 143.8c2.2 0 4 1.8 4 4s-1.8 4-4 4h-91.2c-2.2 0-4-1.8-4-4s1.8-4 4-4h91.2m0-12h-91.2c-8.8 0-16 7.2-16 16s7.2 16 16 16h91.2c8.8 0 16-7.2 16-16s-7.2-16-16-16z"/>
	</g>
</svg>
