<svg xmlns="http://www.w3.org/2000/svg" viewBox="0 0 250 250">
	<g id="direction-counter-clockwise">
		<path fill="#FFF" d="m 64.487015,41.829754 c -7.31738,0.10741 -13.35234,6.195175 -13.24982,13.367452 v 32.068152 l 0.11676,-1.419147 c -0.69179,4.144138 0.69202,8.378943 3.69413,11.370344 3.05259,3.077665 7.46722,4.520035 11.79318,3.832555 l -1.43474,0.11302 h 33.93608 c 7.391875,0.10246 13.641025,-5.93846 13.641025,-13.184338 0,-7.245877 -6.24915,-13.28537 -13.641025,-13.182905 l 0.12698,-0.0015 h -0.90491 c 16.807675,-8.5004 37.290465,-8.627404 54.718655,0.958531 24.50439,13.477995 35.53329,41.998622 26.3026,68.011772 -9.23068,26.01317 -35.93431,41.66806 -63.68319,37.33274 -27.748735,-4.3353 -48.167125,-27.35368 -48.689275,-54.8904 l 0.002,0.11588 c -0.0405,-7.24138 -6.31548,-13.24691 -13.70229,-13.11137 -7.37485,0.13532 -13.40537,6.34775 -13.18998,13.5706 0.80211,40.09828 30.92896,74.04062 71.344455,80.35492 40.44394,6.31878 79.87559,-16.79577 93.32938,-54.71013 13.45379,-37.91448 -2.83402,-80.024817 -38.54977,-99.669314 -13.39327,-7.366621 -28.13796,-10.817588 -42.67,-10.602119 -16.13535,0.239244 -32.002995,5.079905 -45.637355,13.961149 v -1.041472 l -0.002,0.123032 c 0.10457,-7.316833 -6.18636,-13.477001 -13.65121,-13.367452 z" />
		<path fill="#333" d="m 64.620605,50.618284 a 4.4841965,4.3952183 0 0 0 -4.41661,4.456295 v 32.191182 a 4.4841965,4.3952183 0 0 0 1.24938,3.812528 4.4841965,4.3952183 0 0 0 3.95247,1.294686 h 34.06305 a 4.4841965,4.3952183 0 1 0 0,-8.789558 H 73.439225 C 94.000135,59.083749 129.44433,52.561625 157.6715,68.087244 c 28.23384,15.529277 41.02045,48.591866 30.38499,78.563826 -10.63545,29.97197 -41.59401,48.12029 -73.56587,43.1252 -31.971855,-4.9951 -55.640805,-31.67912 -56.242415,-63.4067 a 4.4841965,4.3952183 0 1 0 -8.96605,0.16452 c 0.68127,35.92741 27.59307,66.26526 63.797085,71.92158 36.20403,5.65631 71.40375,-14.97826 83.44703,-48.91766 12.04328,-33.9394 -2.49614,-71.530966 -34.46735,-89.115879 -11.98919,-6.594342 -25.15015,-9.671808 -38.14687,-9.479102 -20.3701,0.302031 -40.332585,8.640195 -54.740555,24.061128 V 55.074579 a 4.4841965,4.3952183 0 0 0 -4.55089,-4.456295 z"/>
	</g>
</svg>
