<svg xmlns="http://www.w3.org/2000/svg" viewBox="0 0 250 250">
	<g id="logic-and">
		<path fill="#333" d="M25 147c-2.2 0-4 1.8-4 4s1.8 4 4 4h45v20.3c0 2.2 2.8 4.7 5 4.7h50c28.4 0 51.8-22 53.9-50H225c2.2 0 4-1.8 4-4s-1.8-4-4-4h-46.2c-2.1-28-25.4-50-53.9-50H75c-2.2 0-5 1-5 3.2V97H25c-2.2 0-4 1.8-4 4s1.8 4 4 4h45v42H25zm53-67h47c25.4 0 46 20.6 46 46s-20.6 46-46 46H78V80z"/>
		<path fill="#FFF" d="M125 72c28.4 0 51.8 22 53.9 50H225c2.2 0 4 1.8 4 4s-1.8 4-4 4h-46.2c-2.1 28-25.4 50-53.9 50H75c-2.2 0-5-2.5-5-4.7V155H25c-2.2 0-4-1.8-4-4s1.8-4 4-4h45v-42H25c-2.2 0-4-1.8-4-4s1.8-4 4-4h45V75.2c0-2.2 2.8-3.2 5-3.2h50M78 172h47c25.4 0 46-20.6 46-46s-20.6-46-46-46H78v92m47-112H75c-9.5 0-17 6.7-17 15.2V85H25c-8.8 0-16 7.2-16 16s7.2 16 16 16h33v18H25c-8.8 0-16 7.2-16 16s7.2 16 16 16h33v8.3c0 8.8 8.1 16.7 17 16.7h50c16.8 0 32.7-6.3 45-17.7 9.4-8.8 16-20 19-32.3h36c8.8 0 16-7.2 16-16s-7.2-16-16-16h-36c-3.1-12.3-9.6-23.5-19-32.3C157.7 66.3 141.8 60 125 60zM90 92h35c18.8 0 34 15.3 34 34s-15.3 34-34 34H90V92z"/>
	</g>
</svg>
