<svg xmlns="http://www.w3.org/2000/svg" viewBox="0 0 250 250">
	<g id="logic-or">
		<path fill="#333" d="M225 122h-48.4l-13.5-13.5C139.6 85 108.3 72 75 72H50c-1.6 0-3.1.4-3.7 1.9s-.3 2.9.8 4.1c1.1 1.1 2.2 2.6 3.3 3.7 5.2 5 9.8 10.3 13.2 15.3H25c-2.2 0-4 1.8-4 4s1.8 4 4 4h42.7c2.1 5 3.3 12.2 3.3 21s-1.2 15-3.3 21H25c-2.2 0-4 1.8-4 4s1.8 4 4 4h38.7c-3.5 5-8 9.3-13.2 14.4-1.1 1.1-2.2 1.9-3.3 3-1.1 1.1-1.5 3.3-.9 4.8s2.1 2.9 3.7 2.9h25c33.3 0 64.6-13 88.2-36.5l13.5-13.5H225c2.2 0 4-1.8 4-4s-1.8-4.1-4-4.1zm-67.5 15.3c-22 22-51.3 34.7-82.5 34.7H59.7c5.7-6 10.8-12.1 14.3-19.9 0 0 0-.4.1-.4 3-6.8 4.9-15.4 4.9-26.6 0-11.3-1.8-19.7-4.9-26.6 0 0 0 .5-.1.4C70.5 91 65.4 86 59.7 80H75c31.2 0 60.5 11.6 82.6 33.6l11.8 11.8-11.9 11.9z"/>
		<path fill="#FFF" d="M75 72c33.3 0 64.6 13 88.2 36.5l13.5 13.5H225c2.2 0 4 1.8 4 4s-1.8 4-4 4h-48.4l-13.5 13.5C139.6 167 108.3 180 75 180H50c-1.6 0-3.1-1.4-3.7-2.9-.6-1.5-.3-3.6.9-4.8 1.1-1.1 2.2-1.9 3.3-3 5.2-5.1 9.7-9.4 13.2-14.4H25c-2.2 0-4-1.8-4-4s1.8-4 4-4h42.7c2.1-6 3.3-12.2 3.3-21s-1.2-16-3.3-21H25c-2.2 0-4-1.8-4-4s1.8-4 4-4h38.7c-3.5-5-8-10.3-13.2-15.3-1.1-1.1-2.2-2.6-3.3-3.7-1.1-1.1-1.5-2.6-.9-4.1.6-1.5 2.1-1.9 3.7-1.9h25m-1 27v-.4c3 6.8 4.9 15.3 4.9 26.6s-1.8 19.8-4.9 26.6c0 0 0 .4-.1.4-3.5 7.9-8.6 13.9-14.3 19.9H75c31.2 0 60.5-12.7 82.6-34.7l11.8-11.8-11.8-11.8C135.5 91.6 106.2 80 75 80H59.7c5.7 6 10.8 11 14.3 18.9M75 60H50c-6.8 0-12.4 3.5-14.8 9.3-2.2 5.4-1.4 11.2 2.2 15.7H25c-8.8 0-16 7.2-16 16s7.2 16 16 16h33.5c.3 2.4.6 5.4.6 9 0 3.4-.2 6.3-.6 9H25c-8.8 0-16 7.2-16 16s7.2 16 16 16h11.3c-2.5 4.4-3 10-1.1 14.7 2.5 6.2 8.5 10.3 14.8 10.3h25c36.5 0 70.9-14.2 96.7-40l10-10H225c8.8 0 16-7.2 16-16s-7.2-16-16-16h-43.4l-10-10C145.9 74.2 111.5 60 75 60zm10.1 33.6l-.6-1.2c24.7 2.1 47.4 12.5 64.6 29.7l3.3 3.3-3.3 3.3c-18 18-40.9 28.8-65.3 30.9.4-.9.9-1.7 1.3-2.7.3-.6.4-1.1.6-1.6 3.6-8.7 5.4-18.6 5.4-30.3-.1-12.2-2.1-22.5-6-31.4z"/>
	</g>
</svg>
