<svg xmlns="http://www.w3.org/2000/svg" viewBox="0 0 250 250">
	<g id="math-modulo">
		<path fill="#fff" d="M172 108.8c-3.3 0-6.6.3-9.8.8l64-64c3-3 4.7-7 4.7-11.3 0-4.3-1.7-8.3-4.7-11.3s-7-4.7-11.3-4.7c-4.3 0-8.3 1.7-11.3 4.7L139 87.6c.4-2.7.6-5.5.6-8.3 0-33.9-27.6-61.5-61.5-61.5S16.5 45.4 16.5 79.3s27.6 61.5 61.5 61.5c2.8 0 5.6-.2 8.3-.6l-64.7 64.7c-3 3-4.7 7-4.7 11.3 0 4.3 1.7 8.3 4.7 11.3s7 4.7 11.3 4.7c4.3 0 8.3-1.7 11.3-4.7l67.1-67.1c-.5 3.2-.8 6.5-.8 9.8 0 33.9 27.6 61.5 61.5 61.5s61.5-27.6 61.5-61.5c0-33.8-27.6-61.4-61.5-61.4z"/>
		<path fill="#333" d="M172 219.8c-27.3 0-49.5-22.2-49.5-49.5s22.2-49.5 49.5-49.5 49.5 22.2 49.5 49.5-22.2 49.5-49.5 49.5zm0-91c-22.9 0-41.5 18.6-41.5 41.5s18.6 41.5 41.5 41.5 41.5-18.6 41.5-41.5-18.6-41.5-41.5-41.5zM78 128.8c-27.3 0-49.5-22.2-49.5-49.5S50.7 29.8 78 29.8s49.5 22.2 49.5 49.5-22.2 49.5-49.5 49.5zm0-91c-22.9 0-41.5 18.6-41.5 41.5s18.6 41.5 41.5 41.5 41.5-18.6 41.5-41.5S100.9 37.8 78 37.8zM32.9 220.2c-1 0-2-.4-2.8-1.2-1.6-1.6-1.6-4.1 0-5.7L212 31.5c1.6-1.6 4.1-1.6 5.7 0 1.6 1.6 1.6 4.1 0 5.7l-182 181.9c-.8.7-1.8 1.1-2.8 1.1z"/>
	</g>
</svg>
