<svg xmlns="http://www.w3.org/2000/svg" viewBox="0 0 250 250">
	<g id="math-divide">
		<path fill="#333" d="M34 220c-1 0-2-.4-2.8-1.2-1.6-1.6-1.6-4.1 0-5.7L213.1 31.2c1.6-1.6 4.1-1.6 5.7 0 1.6 1.6 1.6 4.1 0 5.7L36.9 218.8c-.8.8-1.8 1.2-2.9 1.2z"/>
		<path fill="#FFF" d="M216 30c1 0 2 .4 2.8 1.2 1.6 1.6 1.6 4.1 0 5.7L36.9 218.8c-.8.8-1.8 1.2-2.8 1.2-1 0-2-.4-2.8-1.2-1.6-1.6-1.6-4.1 0-5.7L213.1 31.2c.8-.8 1.8-1.2 2.9-1.2m0-12c-4.3 0-8.3 1.7-11.3 4.7l-182 182c-3 3-4.7 7-4.7 11.3 0 4.3 1.7 8.3 4.7 11.3s7 4.7 11.3 4.7c4.3 0 8.3-1.7 11.3-4.7l182-182c6.2-6.2 6.2-16.4 0-22.6-3-3-7.1-4.7-11.3-4.7z"/>
	</g>
</svg>
