<svg width="28" height="27" fill="none" xmlns="http://www.w3.org/2000/svg">
    <g clip-path="url(#clip0)">
        <path d="M13.6 8.61a1 1 0 01-1-1v-4a1 1 0 112 0v4a1 1 0 01-1 1z" fill="#fff"/>
        <path d="M25.13 10.37a1.578 1.578 0 00-2-1l-3.87 1.26a5.442 5.442 0 00-.33-.48c.015-.15.015-.3 0-.45a2.17 2.17 0 00-2.17-2.16 2.14 2.14 0 00-1.09.29 4.407 4.407 0 00-.58-.17V3.58a1.54 1.54 0 10-3.08 0v4.07c-.2.045-.397.101-.59.17a2.08 2.08 0 00-1.08-.29 2.17 2.17 0 00-2.11 2.16c-.015.15-.015.3 0 .45l-.33.48-3.83-1.26a1.581 1.581 0 10-1 3L7 13.63v.49a6.65 6.65 0 001.58 4.3l-2.39 3.3a1.57 1.57 0 00.35 2.2 1.55 1.55 0 001.65.135 1.57 1.57 0 00.56-.485l2.39-3.29a6.63 6.63 0 005 0l2.39 3.29a1.57 1.57 0 001.28.66c.335 0 .662-.109.93-.31a1.58 1.58 0 00.35-2.2l-2.4-3.3a6.6 6.6 0 001.59-4.3v-.49l3.86-1.26a1.58 1.58 0 00.99-2z" fill="#fff"/>
        <path d="M13.61 0a3.56 3.56 0 00-3.54 3.58v2a4.17 4.17 0 00-3.51 2.48l-1.87-.6a3.49 3.49 0 00-1.11-.18 3.58 3.58 0 00-1.11 7l2.53.81a8.72 8.72 0 001.07 3.3l-1.56 2.15a3.583 3.583 0 105.8 4.21l1.56-2.15c.569.12 1.149.18 1.73.18a9.165 9.165 0 001.74-.17l1.56 2.14a3.61 3.61 0 002.9 1.48 3.52 3.52 0 002.1-.69 3.58 3.58 0 00.8-5l-1.57-2.15a8.56 8.56 0 001.08-3.3l2.52-.82a3.58 3.58 0 00-1.1-7c-.377 0-.752.06-1.11.18l-1.87.6a4.15 4.15 0 00-3.5-2.52v-2A3.57 3.57 0 0013.61 0z" fill="#F3F3F3"/>
        <path d="M19.7 12.68a.505.505 0 11-.15-1l3.83-1.24a.49.49 0 01.63.32.51.51 0 01-.32.63l-3.83 1.24a.447.447 0 01-.16.05z" fill="#424242"/>
        <path d="M19.8 24.73a2.08 2.08 0 01-1.69-.86l-2.16-3a7.25 7.25 0 01-4.69 0l-2.17 3a2.14 2.14 0 01-2.9.46 2.08 2.08 0 01-.46-2.91l2.17-3a7.19 7.19 0 01-1.46-4.32.66.66 0 010-.14l-3.5-1.12a2.06 2.06 0 01-1.21-1 2.09 2.09 0 01-.13-1.59A2 2 0 012.64 9a2.09 2.09 0 011.59-.13L7.74 10a1.67 1.67 0 010-.32A2.67 2.67 0 0110.4 7a2.59 2.59 0 011.13.25V3.58a2.04 2.04 0 114.08 0v3.69A2.59 2.59 0 0116.82 7a2.67 2.67 0 012.67 2.66v.32L23 8.88a2.08 2.08 0 012.5 2.93c-.256.48-.69.84-1.21 1L20.76 14v.14a7.17 7.17 0 01-1.46 4.32l2.17 3a2.09 2.09 0 01-1.68 3.31l.01-.04zm-3.67-4.95a.5.5 0 01.4.21l2.39 3.29a1.1 1.1 0 001.51.24 1.082 1.082 0 00.24-1.52l-2.39-3.29a.5.5 0 010-.62 6.14 6.14 0 001.47-4v-.46a.49.49 0 01.34-.51L24 11.89a1.072 1.072 0 00.69-1.36 1.09 1.09 0 00-1.36-.7l-3.87 1.26a.49.49 0 01-.58-.21 4.27 4.27 0 00-.3-.44.481.481 0 01-.09-.4c.01-.116.01-.234 0-.35A1.66 1.66 0 0016.82 8a1.75 1.75 0 00-.84.22.54.54 0 01-.41 0 4.1 4.1 0 00-.57-.08.5.5 0 01-.39-.49V3.58a1.04 1.04 0 00-2.08 0v4.07a.51.51 0 01-.39.49c-.18.037-.357.087-.53.15a.52.52 0 01-.42 0A1.69 1.69 0 0010.4 8a1.66 1.66 0 00-1.67 1.69 1.72 1.72 0 000 .34.5.5 0 01-.09.41c-.1.14-.21.29-.3.44a.49.49 0 01-.58.21L3.92 9.83a1.09 1.09 0 00-.83.07 1.05 1.05 0 00-.54.63 1.08 1.08 0 00.7 1.36l3.87 1.26a.49.49 0 01.34.51v.46a6.14 6.14 0 001.47 4 .51.51 0 010 .61L6.53 22a1.09 1.09 0 00.24 1.51 1.1 1.1 0 001.51-.24l2.4-3.27a.49.49 0 01.59-.17 6.19 6.19 0 004.67 0 .578.578 0 01.19-.05z" fill="#424242"/>
    </g>
    <defs>
        <clipPath id="clip0">
            <path fill="#fff" d="M0 0h27.21v26.23H0z"/>
        </clipPath>
    </defs>
</svg>
