<svg width="20" height="21" fill="none" xmlns="http://www.w3.org/2000/svg">
    <g clip-path="url(#clip0)">
        <path d="M17.87 14.37a9.58 9.58 0 10-16.58 0l-.75 1A2 2 0 001 18.18l2.94 2.17a2 2 0 002.23.102c.227-.137.424-.318.58-.532l.72-1a9.62 9.62 0 004.27 0l.73 1a2 2 0 001.31.8h.31a2 2 0 001.19-.39l2.93-2.17a2 2 0 00.44-2.78l-.78-1.01z" fill="#F3F3F3"/>
        <path d="M14.06 19.24H14a.54.54 0 01-.33-.2l-1.34-1.86a8.12 8.12 0 01-5.46 0L5.5 19a.52.52 0 01-.33.2.499.499 0 01-.37-.1L1.86 17a.51.51 0 01-.11-.7l1.36-1.86a8.08 8.08 0 1114.55-4.86 8.13 8.13 0 01-1.61 4.84l1.35 1.86a.51.51 0 01-.11.7l-2.93 2.16a.47.47 0 01-.3.1zM2.85 16.46L5 18l1.2-1.63a.49.49 0 01.62-.22 7.13 7.13 0 005.48 0 .49.49 0 01.62.21.31.31 0 01.05.1l1.2 1.54 2.13-1.57-1.3-1.7a.5.5 0 01-.09-.24.57.57 0 01.1-.42 7.08 7.08 0 10-10.93 0 .5.5 0 010 .57l-1.23 1.82z" fill="#424242"/>
        <path d="M6 10.79h-.7a.13.13 0 01-.12-.14v-.46a.13.13 0 010-.1l.94-.74a.44.44 0 01.25-.08H7a.13.13 0 01.13.13V14a.13.13 0 01-.13.14h-.8A.13.13 0 016 14v-3.21z" fill="#424242"/>
    </g>
    <defs>
        <clipPath id="clip0">
            <path fill="#fff" d="M0 0h19.16v20.74H0z"/>
        </clipPath>
    </defs>
</svg>
