<svg xmlns="http://www.w3.org/2000/svg" viewBox="0 0 250 250">
	<g id="statistics-max">
		<path fill="#FFF" d="M232.8 48.3H17.2c-8.8 0-16 7.2-16 16s7.2 16 16 16H82v42c-2.9-2.7-6.7-4.4-11-4.4-4.2 0-8.1 1.7-11 4.4V99.7c0-8.8-7.2-16-16-16s-16 7.2-16 16v86c0 8.8 7.2 16 16 16 5.7 0 10.6-3 13.5-7.4 2.8 4.4 7.8 7.4 13.5 7.4s10.6-3 13.5-7.4c2.8 4.4 7.8 7.4 13.5 7.4s10.6-3 13.5-7.4c2.8 4.4 7.8 7.4 13.5 7.4s10.6-3 13.5-7.4c2.8 4.4 7.8 7.4 13.5 7.4s10.6-3 13.5-7.4c2.8 4.4 7.8 7.4 13.5 7.4s10.6-3 13.5-7.4c2.8 4.4 7.8 7.4 13.5 7.4 8.8 0 16-7.2 16-16v-73.8c0-8.8-7.2-16-16-16s-16 7.2-16 16v35.9c-2.9-2.7-6.7-4.4-11-4.4-4.2 0-8.1 1.7-11 4.4v-19.9c0-8.8-7.2-16-16-16-4.2 0-8.1 1.7-11 4.4V82c0-.6 0-1.2-.1-1.7h91.9c8.8 0 16-7.2 16-16s-7.2-16-16-16zM48.1 185.7c0 2.2-1.8 4-4 4s-4-1.8-4-4v-86c0-2.2 1.8-4 4-4s4 1.8 4 4v86zm27 0c0 2.2-1.8 4-4 4s-4-1.8-4-4v-51.9c0-2.2 1.8-4 4-4s4 1.8 4 4v51.9zm126.8-73.8c0-2.2 1.8-4 4-4s4 1.8 4 4v73.8c0 2.2-1.8 4-4 4s-4-1.8-4-4v-73.8zm-27 47.5c0-2.2 1.8-4 4-4s4 1.8 4 4v26.3c0 2.2-1.8 4-4 4s-4-1.8-4-4v-26.3zM129 185.7c0 2.2-1.8 4-4 4s-4-1.8-4-4V82c0-.6.2-1.2.4-1.7h7.2c.3.5.4 1.1.4 1.7v103.7zm19-57.8c0-2.2 1.8-4 4-4s4 1.8 4 4v57.8c0 2.2-1.8 4-4 4s-4-1.8-4-4v-57.8zm84.8-59.6h-99.7c-2.4-1.4-5.2-2.3-8.2-2.3s-5.8.8-8.2 2.3H102v117.4c0 2.2-1.8 4-4 4s-4-1.8-4-4V68.3H17.2c-2.2 0-4-1.8-4-4s1.8-4 4-4h215.6c2.2 0 4 1.8 4 4s-1.8 4-4 4z"/>
		<path fill="#333" d="M178.9 155.4c-2.2 0-4 1.8-4 4v26.3c0 2.2 1.8 4 4 4s4-1.8 4-4v-26.3c0-2.2-1.8-4-4-4zM125 78c-2.2 0-4 1.8-4 4v103.7c0 2.2 1.8 4 4 4s4-1.8 4-4V82c0-2.2-1.8-4-4-4zM152 123.9c-2.2 0-4 1.8-4 4v57.8c0 2.2 1.8 4 4 4s4-1.8 4-4v-57.8c0-2.2-1.8-4-4-4zM205.9 107.9c-2.2 0-4 1.8-4 4v73.8c0 2.2 1.8 4 4 4s4-1.8 4-4v-73.8c0-2.2-1.8-4-4-4zM71.1 129.9c-2.2 0-4 1.8-4 4v51.9c0 2.2 1.8 4 4 4s4-1.8 4-4v-51.9c0-2.2-1.8-4-4-4zM44.1 95.7c-2.2 0-4 1.8-4 4v86c0 2.2 1.8 4 4 4s4-1.8 4-4v-86c0-2.2-1.8-4-4-4z"/>
		<path fill="#333" d="M232.8 60.3H17.2c-2.2 0-4 1.8-4 4s1.8 4 4 4H94v117.4c0 2.2 1.8 4 4 4s4-1.8 4-4V68.3h130.8c2.2 0 4-1.8 4-4s-1.8-4-4-4z"/>
	</g>
</svg>
