<svg xmlns="http://www.w3.org/2000/svg" viewBox="0 0 250 250">
	<g id="statistics-min">
		<path fill="#333" d="M232.8 155.4h-23v-43.5c0-2.2-1.8-4-4-4s-4 1.8-4 4v43.5H156v-27.5c0-2.2-1.8-4-4-4s-4 1.8-4 4v27.5h-19V82c0-2.2-1.8-4-4-4s-4 1.8-4 4v73.4h-19V64.3c0-2.2-1.8-4-4-4s-4 1.8-4 4v91.1H75v-21.5c0-2.2-1.8-4-4-4s-4 1.8-4 4v21.5H48V99.7c0-2.2-1.8-4-4-4s-4 1.8-4 4v55.7H17c-2.2 0-4 1.8-4 4s1.8 4 4 4h23v22.3c0 2.2 1.8 4 4 4s4-1.8 4-4v-22.3h19v22.3c0 2.2 1.8 4 4 4s4-1.8 4-4v-22.3h19v22.3c0 2.2 1.8 4 4 4s4-1.8 4-4v-22.3h19v22.3c0 2.2 1.8 4 4 4s4-1.8 4-4v-22.3h19v22.3c0 2.2 1.8 4 4 4s4-1.8 4-4v-22.3h19v22.3c0 2.2 1.8 4 4 4s4-1.8 4-4v-22.3h19v22.3c0 2.2 1.8 4 4 4s4-1.8 4-4v-22.3h23c2.2 0 4-1.8 4-4s-2-4-4.2-4z"/>
		<path fill="#FFF" d="M98 60.3c2.2 0 4 1.8 4 4v91.1h19V82c0-2.2 1.8-4 4-4s4 1.8 4 4v73.4h19v-27.5c0-2.2 1.8-4 4-4s4 1.8 4 4v27.5h45.9v-43.5c0-2.2 1.8-4 4-4s4 1.8 4 4v43.5h23c2.2 0 4 1.8 4 4s-1.8 4-4 4h-23v22.3c0 2.2-1.8 4-4 4s-4-1.8-4-4v-22.3h-19v22.3c0 2.2-1.8 4-4 4s-4-1.8-4-4v-22.3h-19v22.3c0 2.2-1.8 4-4 4s-4-1.8-4-4v-22.3h-19v22.3c0 2.2-1.8 4-4 4s-4-1.8-4-4v-22.3h-19v22.3c0 2.2-1.8 4-4 4s-4-1.8-4-4v-22.3h-19v22.3c0 2.2-1.8 4-4 4s-4-1.8-4-4v-22.3h-19v22.3c0 2.2-1.8 4-4 4s-4-1.8-4-4v-22.3h-23c-2.2 0-4-1.8-4-4s1.8-4 4-4h23V99.7c0-2.2 1.8-4 4-4s4 1.8 4 4v55.7h19v-21.5c0-2.2 1.8-4 4-4s4 1.8 4 4v21.5h19V64.3c.1-2.2 1.9-4 4.1-4m0-12c-8.8 0-16 7.2-16 16v57.9c-2.9-2.7-6.7-4.3-11-4.3-4.2 0-8.1 1.7-11 4.4V99.7c0-8.8-7.2-16-16-16s-16 7.2-16 16v43.7H17c-8.8 0-16 7.2-16 16s7.2 16 16 16h11v10.3c0 8.8 7.2 16 16 16 5.7 0 10.6-2.9 13.5-7.4 2.8 4.4 7.8 7.4 13.5 7.4s10.6-2.9 13.5-7.4c2.8 4.4 7.8 7.4 13.5 7.4s10.6-2.9 13.5-7.4c2.8 4.4 7.8 7.4 13.5 7.4s10.6-2.9 13.5-7.4c2.8 4.4 7.8 7.4 13.5 7.4s10.6-2.9 13.5-7.4c2.8 4.4 7.8 7.4 13.5 7.4s10.6-2.9 13.5-7.4c2.8 4.4 7.8 7.4 13.5 7.4 8.8 0 16-7.2 16-16v-10.3h11c8.8 0 16-7.2 16-16s-7.2-16-16-16h-11v-31.5c0-8.8-7.2-16-16-16s-16 7.2-16 16v31.5h-22v-15.5c0-8.8-7.2-16-16-16-4.2 0-8.1 1.7-11 4.4V82c0-8.8-7.2-16-16-16-4.2 0-8.1 1.7-11 4.3v-6.1c0-8.7-7.1-15.9-16-15.9z"/>
	</g>
</svg>
