<svg xmlns="http://www.w3.org/2000/svg" viewBox="0 0 250 250">
	<g id="statistics-avg">
		<path fill="#333" d="M178.9 155.4c-2.2 0-4 1.8-4 4v26.3c0 2.2 1.8 4 4 4s4-1.8 4-4v-26.3c0-2.2-1.8-4-4-4z"/>
		<path fill="#FFF" d="M178.9 155.4c2.2 0 4 1.8 4 4v26.3c0 2.2-1.8 4-4 4s-4-1.8-4-4v-26.3c0-2.2 1.8-4 4-4m0-12c-8.8 0-16 7.2-16 16v26.3c0 8.8 7.2 16 16 16s16-7.2 16-16v-26.3c0-8.8-7.2-16-16-16z"/>
		<path fill="#333" d="M232.8 129.9h-23v-18c0-2.2-1.8-4-4-4s-4 1.8-4 4v18H156v-2c0-2.2-1.8-4-4-4s-4 1.8-4 4v2h-19V82c0-2.2-1.8-4-4-4s-4 1.8-4 4v47.9h-19V64.3c0-2.2-1.8-4-4-4s-4 1.8-4 4v65.6H48.1V99.7c0-2.2-1.8-4-4-4s-4 1.8-4 4v30.1h-23c-2.2 0-4 1.8-4 4s1.8 4 4 4h23v47.9c0 2.2 1.8 4 4 4s4-1.8 4-4v-47.9h19v47.9c0 2.2 1.8 4 4 4s4-1.8 4-4v-47.9h19v47.9c0 2.2 1.8 4 4 4s4-1.8 4-4v-47.9h19v47.9c0 2.2 1.8 4 4 4s4-1.8 4-4v-47.9h19v47.9c0 2.2 1.8 4 4 4s4-1.8 4-4v-47.9H202v47.9c0 2.2 1.8 4 4 4s4-1.8 4-4v-47.9h23c2.2 0 4-1.8 4-4s-2-3.9-4.2-3.9z"/>
		<path fill="#FFF" d="M98 60.3c2.2 0 4 1.8 4 4v65.6h19V82c0-2.2 1.8-4 4-4s4 1.8 4 4v47.9h19v-2c0-2.2 1.8-4 4-4s4 1.8 4 4v2h45.9v-18c0-2.2 1.8-4 4-4s4 1.8 4 4v18h23c2.2 0 4 1.8 4 4s-1.8 4-4 4h-23v47.9c0 2.2-1.8 4-4 4s-4-1.8-4-4v-47.9H156v47.9c0 2.2-1.8 4-4 4s-4-1.8-4-4v-47.9h-19v47.9c0 2.2-1.8 4-4 4s-4-1.8-4-4v-47.9h-19v47.9c0 2.2-1.8 4-4 4s-4-1.8-4-4v-47.9H75v47.9c0 2.2-1.8 4-4 4s-4-1.8-4-4v-47.9H48v47.9c0 2.2-1.8 4-4 4s-4-1.8-4-4v-47.9H17c-2.2 0-4-1.8-4-4s1.8-4 4-4h23V99.7c0-2.2 1.8-4 4-4s4 1.8 4 4v30.1h46V64.3c0-2.2 1.8-4 4-4m0-12c-8.8 0-16 7.2-16 16v53.6H60.1V99.7c0-8.8-7.2-16-16-16s-16 7.2-16 16v18.1h-11c-8.8 0-16 7.2-16 16s7.2 16 16 16h11v35.9c0 8.8 7.2 16 16 16 5.7 0 10.6-2.9 13.5-7.4 2.8 4.4 7.8 7.4 13.5 7.4s10.6-2.9 13.5-7.4c2.8 4.4 7.8 7.4 13.5 7.4s10.6-2.9 13.5-7.4c2.8 4.4 7.8 7.4 13.5 7.4s10.6-2.9 13.5-7.4c2.8 4.4 7.8 7.4 13.5 7.4 8.8 0 16-7.2 16-16v-35.9H190v35.9c0 8.8 7.2 16 16 16s16-7.2 16-16v-35.9h11c8.8 0 16-7.2 16-16s-7.2-16-16-16h-11v-6c0-8.8-7.2-16-16-16s-16 7.2-16 16v6h-25.4c-2.9-3.6-7.4-6-12.5-6-4.2 0-8.1 1.7-11 4.4V82c0-8.8-7.2-16-16-16-4.2 0-8.1 1.7-11 4.3v-6.1c-.1-8.7-7.2-15.9-16.1-15.9z"/>
	</g>
</svg>
