<svg xmlns="http://www.w3.org/2000/svg" viewBox="0 0 250 250">
	<g id="square-wave">
		<path fill="#fff" d="M177.1,27.8H72.9c-8.8,0-16,7.2-16,16v146.4H17.1c-8.8,0-16,7.2-16,16c0,8.8,7.2,16,16,16h55.9
			c8.8,0,16-7.2,16-16V59.8h72.1v146.4c0,8.8,7.2,16,16,16h55.9c8.8,0,16-7.2,16-16c0-8.8-7.2-16-16-16h-39.9V43.8
			C193.1,35,185.9,27.8,177.1,27.8L177.1,27.8z"/>
		<path fill="#333" d="M232.9,210.2h-55.9c-2.2,0-4-1.8-4-4V47.8H76.9v158.4c0,2.2-1.8,4-4,4H17.1c-2.2,0-4-1.8-4-4s1.8-4,4-4h51.9
			V43.8c0-2.2,1.8-4,4-4h104.1c2.2,0,4,1.8,4,4v158.4h51.9c2.2,0,4,1.8,4,4S235.1,210.2,232.9,210.2z"/>
	</g>
</svg>
