<svg xmlns="http://www.w3.org/2000/svg" viewBox="0 0 250 250">
	<g id="pulse-wave">
		<path fill="#fff" d="M137.7,27.3h-25.4c-8.8,0-16,7.2-16,16v147.3H17.1c-8.8,0-16,7.2-16,16c0,8.8,7.2,16,16,16h95.2
			c5.2,0,9.8-2.5,12.7-6.3c2.9,3.8,7.5,6.3,12.7,6.3h95.2c8.8,0,16-7.2,16-16c0-8.8-7.2-16-16-16h-79.2V43.3
			C153.7,34.5,146.5,27.3,137.7,27.3L137.7,27.3z"/>
		<path fill="#333" d="M232.9,210.7h-95.2c-2.2,0-4-1.8-4-4V47.3h-17.4v159.3c0,2.2-1.8,4-4,4H17.1c-2.2,0-4-1.8-4-4s1.8-4,4-4h91.2
			V43.3c0-2.2,1.8-4,4-4h25.4c2.2,0,4,1.8,4,4v159.3h91.2c2.2,0,4,1.8,4,4S235.1,210.7,232.9,210.7z"/>
	</g>
</svg>
