<svg xmlns="http://www.w3.org/2000/svg" viewBox="0 0 250 250">
	<g id="sine-wave">
		<path fill="#fff" d="M125,27.4c-9.9,0-19.1,3.4-27.3,10c-6.6,5.4-12.5,12.8-18.1,22.7C70,77,62.8,98.9,55.8,120
			c-6.2,18.7-12.6,38.1-20,52.1c-6.6,12.3-12.9,18.5-18.7,18.5c-8.8,0-16,7.2-16,16s7.2,16,16,16c9.9,0,19.1-3.4,27.3-10
			c6.6-5.4,12.5-12.8,18.1-22.7C72,173,79.2,151.1,86.2,130c6.2-18.7,12.6-38.1,20.1-52.1c6.6-12.3,12.9-18.5,18.7-18.5
			c5.9,0,12.2,6.2,18.7,18.5c7.4,14,13.9,33.4,20.1,52.1c7,21.1,14.2,42.9,23.8,59.9c5.6,9.9,11.5,17.3,18.1,22.7
			c8.2,6.7,17.4,10,27.3,10c8.8,0,16-7.2,16-16s-7.2-16-16-16c-5.9,0-12.2-6.2-18.7-18.5c-7.4-14-13.9-33.4-20.1-52.1
			c-7-21.1-14.2-42.9-23.8-59.9c-5.6-9.9-11.5-17.3-18.1-22.7C144.1,30.8,134.9,27.4,125,27.4L125,27.4z"/>
		<path fill="#333" d="M232.9,210.6c-29.9,0-44.1-42.9-57.8-84.4c-12.8-38.8-26.1-78.9-50.2-78.9s-37.3,40.1-50.2,78.9
			c-13.7,41.5-27.9,84.4-57.8,84.4c-2.2,0-4-1.8-4-4s1.8-4,4-4c24.1,0,37.3-40.1,50.2-78.9C80.9,82.3,95.1,39.4,125,39.4
			s44.1,42.9,57.8,84.4c12.8,38.8,26.1,78.9,50.2,78.9c2.2,0,4,1.8,4,4S235.1,210.6,232.9,210.6z"/>
	</g>
</svg>
