<svg xmlns="http://www.w3.org/2000/svg" viewBox="0 0 500 500">
	<g id="globe">
		<path d="M237.07 445.07A195.09 195.09 0 0 1 65.35 157.21c51.16-94.64 169.77-130 264.41-78.86A195.12 195.12 0 0 1 423 308.8l33.67 54.71a8 8 0 0 1-6.59 12.19l-65.43 1.84a195.14 195.14 0 0 1-147.56 67.54zm.21-374.16a179.08 179.08 0 0 0-85.47 336.62c74.87 40.47 168.6 22.38 222.87-43a8 8 0 0 1 5.93-2.89l55.15-1.55L407.41 314a8 8 0 0 1-.76-6.76A179 179 0 0 0 237.28 70.91z"/>
		<path d="M378.92 244.61h-49.33a293.29 293.29 0 0 0-6.08-53.12h32.78a8 8 0 0 0 0-16h-36.6a258.7 258.7 0 0 0-25.75-62.56 8 8 0 0 0-13.83 8A238 238 0 0 1 303 175.49h-59.34V110a8 8 0 0 0-16 0v65.46h-56.79A238 238 0 0 1 193.74 121a8 8 0 0 0-13.83-8 258.7 258.7 0 0 0-25.75 62.56h-37.61a8 8 0 0 0 0 16h33.79a293.29 293.29 0 0 0-6.08 53.12H93.92a8 8 0 0 0 0 16h50.41a278.36 278.36 0 0 0 6.79 53.12h-34.57a8 8 0 0 0 0 16h38.78a217.35 217.35 0 0 0 24.76 55 8 8 0 1 0 13.47-8.63 196.79 196.79 0 0 1-21.44-46.37h55.53V395a8 8 0 0 0 16 0v-65.26h58.07a196.79 196.79 0 0 1-21.44 46.37 8 8 0 1 0 13.47 8.63 217.35 217.35 0 0 0 24.76-55h37.77a8 8 0 0 0 0-16h-33.54a278.36 278.36 0 0 0 6.79-53.12h49.39a8 8 0 1 0 0-16zM307 191.49a281.29 281.29 0 0 1 6.35 53.12h-69.69v-53.12zm-140.15 0h60.81v53.12H160.5a281.29 281.29 0 0 1 6.35-53.12zm.8 122.25a263.14 263.14 0 0 1-7.09-53.12h67.09v53.12zm138.55 0h-62.54v-53.13h69.63a263.14 263.14 0 0 1-7.09 53.13z"/>
	</g>
</svg>
