<svg xmlns="http://www.w3.org/2000/svg" viewBox="0 0 250 250">
    <path d="M124.3 21.5c-38.1 0-73.1 20.8-91.2 54.3-13.1 24.3-16 52.3-8.1 78.8s25.6 48.3 50 61.4c15 8.1 32 12.4 49.1 12.4 28.4 0 55.3-11.5 74.7-31.7l25.4-.7c5.7-.2 10.9-3.4 13.6-8.4 2.7-5 2.5-11.1-.5-16l-12.9-21c5.5-21.4 4-44-4.2-64.5-9-22.2-25.6-40.7-46.8-52.2-15.1-8.1-32-12.4-49.1-12.4z" fill="#fff"/>
    <path fill="#333" d="M227.1 177.9l-15.7-25.5c13.2-41.8-5-87-43.7-107.9-44.4-24-100-7.4-124 37-11.6 21.5-14.2 46.2-7.2 69.6s22.7 42.7 44.2 54.3c13.7 7.4 28.6 11 43.4 11 26 0 51.5-11 69.3-31.5l30.5-.9c1.4 0 2.7-.8 3.4-2.1.6-1.2.6-2.7-.2-4zm-35.8-1c-1.2 0-2.2.6-3 1.4-25.3 30.5-69 38.9-103.9 20-19.6-10.6-33.9-28.2-40.3-49.6-6.4-21.4-4-43.9 6.6-63.5 15.1-27.9 43.9-43.8 73.6-43.8 13.4 0 27 3.2 39.5 10 35.9 19.4 52.5 61.5 39.4 100.1-.4 1.1-.2 2.4.4 3.4l13 21.2-25.3.8z"/>
    <path fill="#333" d="M190.5 122.2h-22.7c-.2-8.1-1.1-16.3-2.8-24.3h15c2.2 0 4-1.8 4-4s-1.8-4-4-4h-16.9c-2.8-10.2-6.8-20.1-12-29.1-1.1-1.9-3.6-2.6-5.5-1.4-1.9 1.1-2.6 3.6-1.4 5.5 4.5 7.7 8 16.1 10.6 25.1h-27.2V59.6c0-2.2-1.8-4-4-4s-4 1.8-4 4v30.3h-26c2.6-9 6.2-17.4 10.6-25.1 1.1-1.9.5-4.4-1.4-5.5-1.9-1.1-4.4-.5-5.5 1.4-5.3 9-9.3 18.9-12 29.1H67.9c-2.2 0-4 1.8-4 4s1.8 4 4 4h15.4c-1.7 8-2.6 16.2-2.8 24.3H57.3c-2.2 0-4 1.8-4 4s1.8 4 4 4h23.2c.3 8.3 1.3 16.4 3.1 24.3H67.9c-2.2 0-4 1.8-4 4s1.8 4 4 4h17.9c2.8 9.2 6.6 17.8 11.6 25.6.8 1.2 2.1 1.8 3.4 1.8.7 0 1.5-.2 2.2-.6 1.9-1.2 2.4-3.7 1.2-5.5-4.1-6.3-7.4-13.5-9.9-21.3h25.4v30.3c0 2.2 1.8 4 4 4s4-1.8 4-4v-30.3h26.5c-2.5 7.7-5.8 14.9-9.9 21.3-1.2 1.9-.6 4.3 1.2 5.5.7.4 1.4.6 2.2.6 1.3 0 2.6-.7 3.4-1.8 5-7.8 8.8-16.4 11.6-25.6H180c2.2 0 4-1.8 4-4s-1.8-4-4-4h-15.3c1.8-7.9 2.8-16 3.1-24.3h22.8c2.2 0 4-1.8 4-4s-1.8-3.9-4.1-3.9zm-33.7-24.3c1.7 7.9 2.7 16.1 3 24.3h-32.2V97.9h29.2zm-65.3 0h28v24.3h-31c.3-8.2 1.3-16.4 3-24.3zm.4 56.6c-1.9-7.7-3-15.9-3.3-24.3h30.9v24.3H91.9zm64.5 0h-28.8v-24.3h32.1c-.3 8.4-1.4 16.6-3.3 24.3z"/>
</svg>
