<svg xmlns="http://www.w3.org/2000/svg" viewBox="0 0 250 250">
    <path d="M139.6 21.5h-28.1c-9.8 0-17.6 7.9-17.6 18.1v4c-.8.3-1.6.7-2.4 1l-3-2.9c-3.4-3.4-8-5.3-12.8-5.3-4.9 0-9.5 1.9-12.9 5.3L42.9 61.5c-7 7.1-6.9 18.5.1 25.6l3 3c-.3.7-.6 1.3-.8 2h-4.8c-10.2 0-18.7 8.3-18.7 18.1v28.1c0 10 8.5 17.8 19.3 17.8h4c.3.8.6 1.5 1 2.3l-2.9 3c-7 7-7 18.5 0 25.6l19.8 19.8c3.4 3.4 8 5.4 12.8 5.4 4.8 0 9.3-1.8 12.7-5.2l3.1-3.1c.8.4 1.7.7 2.5 1.1v4c0 11.1 7.5 19.5 17.6 19.5h28.1c10 0 19.5-9.5 19.5-19.5v-4.6c.3-.1.7-.3 1-.4l2.8 2.9c3.4 3.5 8 5.4 12.8 5.4 4.8 0 9.4-1.9 12.8-5.3l19.8-19.9c6.9-7 6.9-18.5-.1-25.5l-3-3c.3-.8.7-1.6 1-2.3h4c10.2 0 18.3-7.8 18.3-17.8v-28.1c0-4.2-1.5-8.5-4.1-12-3.5-4.7-8.7-7.3-14.2-7.3h-4.6c-.2-.4-.3-.8-.5-1.1l2.9-2.8.1-.1.1-.1c7-7 7-18.4 0-25.5l-19.9-19.8c-3.4-3.4-7.9-5.3-12.8-5.3h-.3c-4.7.1-9.2 2-12.6 5.3l-.1.1-.1.1-.2.2-2.4 2.6c-.3-.1-.5-.2-.8-.3v-4.6c0-11.4-10.1-18.3-19.5-18.3z" fill="#fff"/>
    <path fill="#333" d="M210.3 102.9h-13c-1.4-4.3-3.6-10.2-6.6-15.7l9.1-8.8c2.4-2.4 2.4-6.1 0-8.5l-20-19.9c-1.2-1.2-2.7-1.8-4.4-1.8-1.6 0-3.1.7-4.3 1.8l-.1.1-8.4 9c-5.5-3-11.3-5.2-15.6-6.6v-13c0-4.3-4.9-6.1-7.5-6.1h-28.1c-2.7 0-5.6 1.9-5.6 6.1v12.7c-6.6 1.6-11.6 3.9-16.7 6.9l-9.1-9c-1.1-1.1-2.7-1.8-4.4-1.8-1.7 0-3.2.6-4.3 1.8L51.3 70c-2.4 2.4-2.4 6.3 0 8.7l9.1 9.1c-2.9 5.2-5.2 10.7-6.8 16.4H40.2c-3.2 0-6.7 2.5-6.7 6.1v28.1c0 3.7 3.8 5.8 7.3 5.8h12.7c1.6 6.5 3.9 11.4 6.9 16.6l-9.1 9.2c-2.4 2.4-2.4 6.3 0 8.7l19.9 19.9c1.2 1.2 2.7 1.8 4.3 1.8 1.6 0 3.2-.6 4.3-1.8l9.4-9.1c5.2 3 10.2 5.3 16.7 6.9V209c0 4.5 2.2 7.5 5.6 7.5h28.1c3.4 0 7.5-4.1 7.5-7.5v-13c3.9-1.3 9.9-3.5 15.6-6.6l8.8 9c1.2 1.2 2.7 1.8 4.2 1.8 1.6 0 3.1-.6 4.3-1.8l19.8-19.9c2.3-2.4 2.3-6.3 0-8.6l-9.1-9.2c3-5.1 5.3-10.1 6.9-16.6h12.7c3.6 0 6.3-2.5 6.3-5.8v-28.1c-.1-3-2.5-7.3-6.3-7.3zm-1.8 33.2h-14.2c-1.9 0-3.6 1.4-3.9 3.2-1.6 8.2-4.2 13.5-8.2 19.9-1 1.6-.7 3.6.6 4.9l10 10.2-17 17.1-9.5-9.8c-1.3-1.3-3.4-1.6-5-.6-7.2 4.5-15.9 7.3-19.3 8.3-1.7.5-2.9 2.1-2.9 3.8v15.2l-.3.3h-24.9v-15.4c0-1.9-1.4-3.6-3.2-3.9-8.3-1.6-13.6-4.2-20-8.2-1.6-1-3.6-.7-4.9.5l-10.3 10-17.3-17.3 10-10.1c1.3-1.3 1.5-3.4.6-4.9-4-6.4-6.6-11.7-8.2-19.9-.4-1.9-2-3.2-3.9-3.2H41.5v-24h15.2c1.9 0 3.5-1.3 3.9-3.1 1.6-7 4.4-13.7 8.2-19.8 1-1.6.7-3.6-.6-4.9l-9.9-9.9L75.7 57l10.1 10c1.3 1.3 3.3 1.5 4.9.6 6.4-3.9 11.7-6.5 20-8.2 1.9-.4 3.2-2 3.2-3.9v-14h25.2v14c0 1.8 1.2 3.3 2.9 3.8 4.3 1.3 12.5 4 19.3 8.2 1.6 1 3.7.7 5-.7l9.2-9.8 17.1 17-9.8 9.6c-1.3 1.3-1.6 3.4-.6 5 3.1 5 6.1 12.1 8.3 19.4.5 1.7 2.1 2.9 3.8 2.9h14.2v25.2z"/>
    <path fill="#333" d="M126 78.4c-25.7 0-46.6 20.9-46.6 46.6s20.9 46.6 46.6 46.6 46.6-20.9 46.6-46.6-20.9-46.6-46.6-46.6zm0 85.2c-21.3 0-38.6-17.3-38.6-38.6s17.3-38.6 38.6-38.6 38.6 17.3 38.6 38.6-17.3 38.6-38.6 38.6z"/>
</svg>
