<svg xmlns="http://www.w3.org/2000/svg" viewBox="0 0 95 95">
    <path d="M70.2 41.5C67 29 54.1 21.5 41.5 24.8c-1.9.5-3.7 1.3-5.4 2.2l-2.2-2.7c-.5-.6-1.3-.9-2.1-.7s-1.3.9-1.4 1.7l-.9 7.7v.7c0 .1 0 .1.1.2 0 .1 0 .1.1.2 0 .1.1.1.1.2s.1.1.1.2.1.1.2.2l.1.1c.1.1.1.1.2.1l.1.1c.1 0 .1 0 .2.1.1 0 .1.1.2.1h.1c.1 0 .2 0 .3.1l7.7.7h.2c.7 0 1.4-.4 1.8-1 .4-.7.3-1.6-.2-2.2l-2.1-2.6c1.2-.6 2.5-1.1 3.9-1.5 10.5-2.7 21.2 3.5 23.9 13.9 1 3.7.9 7.5-.4 11.2-.3 1 .2 2.2 1.3 2.5.2.1.4.1.6.1.8 0 1.6-.5 1.9-1.4 1.3-4.4 1.5-9.1.3-13.5zm-4.7 20.1v-.4c0-.1 0-.1-.1-.2 0-.1 0-.1-.1-.2 0-.1-.1-.1-.1-.2s-.1-.1-.1-.2-.1-.1-.2-.2l-.1-.1-.2-.2s-.1 0-.1-.1c-.1 0-.1-.1-.2-.1s-.1-.1-.2-.1H64c-.1 0-.2 0-.3-.1L56 59c-.8-.1-1.6.3-2 1s-.3 1.6.2 2.2l2.1 2.6c-1.2.6-2.5 1.1-3.9 1.5-10.4 2.8-21.1-3.4-23.8-13.8-1-3.7-.9-7.5.4-11.2.3-1-.2-2.2-1.3-2.5-1-.3-2.2.2-2.5 1.3-1.4 4.3-1.6 9-.4 13.4C27.5 64 37.1 71 47.5 71c2 0 4-.2 6-.8 1.9-.5 3.8-1.3 5.5-2.2l2.3 2.8c.4.5 1 .7 1.5.7.2 0 .4 0 .6-.1.8-.2 1.3-.9 1.4-1.7l.7-7.7v-.4z"/>
</svg>
