<svg xmlns="http://www.w3.org/2000/svg" viewBox="0 0 250 250">
    <path d="M212.9 178.9L141.2 54.7c-3.4-5.9-9.4-9.4-16.2-9.4s-12.8 3.5-16.2 9.4L37.1 178.9c-3.4 5.9-3.4 12.9 0 18.7 3.4 5.9 9.4 9.4 16.2 9.4h143.4c6.8 0 12.8-3.5 16.2-9.4 3.4-5.9 3.4-12.9 0-18.7z" fill="#fff"/>
    <path d="M125 153.3c-2.2 0-4-1.8-4-4V81.6c0-2.2 1.8-4 4-4s4 1.8 4 4v67.7c0 2.2-1.8 4-4 4zm0 29.9c-4.4 0-7.9-3.6-7.9-7.9 0-4.4 3.6-7.9 7.9-7.9 4.4 0 7.9 3.6 7.9 7.9 0 4.4-3.5 7.9-7.9 7.9zm-.1-7.9s.1.1 0 0c.1.1.1 0 0 0zm4 0z" fill="#333"/>
</svg>
