<svg version="1.1" xmlns="http://www.w3.org/2000/svg" x="0" y="0" viewBox="0 0 250 250" xml:space="preserve">
    <path fill="#fff" d="M125 33.3c-11.1 0-21.1 5.7-26.6 15.4L26.7 172.9c-5.6 9.6-5.6 21.1 0 30.7 5.6 9.6 15.5 15.4 26.6 15.4h143.4c11.1 0 21.1-5.7 26.6-15.4 5.6-9.6 5.6-21.1 0-30.7L151.6 48.7c-5.5-9.6-15.5-15.4-26.6-15.4z"/>
    <path fill="#333" d="M196.7 206.9H53.3c-6.8 0-12.8-3.5-16.2-9.4-3.4-5.9-3.4-12.9 0-18.7l71.7-124.2c3.4-5.9 9.4-9.4 16.2-9.4 6.8 0 12.8 3.5 16.2 9.4l71.7 124.2c3.4 5.9 3.4 12.9 0 18.7-3.4 5.9-9.4 9.4-16.2 9.4zM125 53.3c-3.9 0-7.3 2-9.3 5.4L44 182.9c-1.9 3.4-1.9 7.4 0 10.7 1.9 3.4 5.4 5.4 9.3 5.4h143.4c3.9 0 7.3-2 9.3-5.4 1.9-3.4 1.9-7.4 0-10.7L134.3 58.7c-2-3.4-5.4-5.4-9.3-5.4z"/>
    <path fill="#333" d="M125 153.3c-2.2 0-4-1.8-4-4V81.6c0-2.2 1.8-4 4-4s4 1.8 4 4v67.7c0 2.2-1.8 4-4 4zm0 29.9c-4.4 0-7.9-3.6-7.9-7.9 0-4.4 3.6-7.9 7.9-7.9s7.9 3.6 7.9 7.9c0 4.4-3.5 7.9-7.9 7.9zm3.9-7.9z"/>
</svg>
