<svg version="1.1" id="warning_solid_dark" xmlns="http://www.w3.org/2000/svg" x="0" y="0" viewBox="0 0 250 250" xml:space="preserve">
    <path fill="#fff" d="M125 33.3c-11.1 0-21.1 5.7-26.6 15.4L26.7 172.9c-5.6 9.6-5.6 21.1 0 30.7 5.6 9.6 15.5 15.4 26.6 15.4h143.4c11.1 0 21.1-5.7 26.6-15.4 5.6-9.6 5.6-21.1 0-30.7L151.6 48.7c-5.5-9.6-15.5-15.4-26.6-15.4z"/>
    <path fill="#333" d="M213.1 178.9L141.5 54.7c-3.4-5.9-9.4-9.4-16.2-9.4-6.8 0-12.8 3.5-16.2 9.4L37.3 178.9c-3.4 5.9-3.4 12.9 0 18.7 3.4 5.9 9.4 9.4 16.2 9.4h143.4c6.8 0 12.8-3.5 16.2-9.4s3.4-12.9 0-18.7z"/>
    <path fill="#fff" d="M125.2 153.3c-2.2 0-4-1.8-4-4V81.6c0-2.2 1.8-4 4-4s4 1.8 4 4v67.7c0 2.2-1.7 4-4 4zm0 29.9c-4.4 0-7.9-3.6-7.9-7.9 0-4.4 3.6-7.9 7.9-7.9 4.4 0 7.9 3.6 7.9 7.9.1 4.4-3.5 7.9-7.9 7.9zm4-7.9z"/>
</svg>
