<svg xmlns="http://www.w3.org/2000/svg" viewBox="0 0 250 250">
	<g id="direction-clockwise">
		<path fill="#FFF" d="m 185.519,41.829754 c 7.31738,0.10741 13.35234,6.195175 13.24982,13.367452 v 32.068152 l -0.11676,-1.419147 c 0.69179,4.144138 -0.69202,8.378943 -3.69413,11.370344 -3.05259,3.077665 -7.46722,4.520035 -11.79318,3.832555 l 1.43474,0.11302 h -33.93608 c -7.39187,0.10246 -13.64102,-5.93846 -13.64102,-13.184338 0,-7.245877 6.24915,-13.28537 13.64102,-13.182905 l -0.12698,-0.0015 h 0.90491 c -16.80767,-8.5004 -37.29046,-8.627404 -54.718654,0.958531 -24.50439,13.477995 -35.53329,41.998622 -26.3026,68.011772 9.23068,26.01317 35.934314,41.66806 63.683194,37.33274 27.74873,-4.3353 48.16712,-27.35368 48.68927,-54.8904 l -0.002,0.11588 c 0.0405,-7.24138 6.31548,-13.24691 13.70229,-13.11137 7.37485,0.13532 13.40537,6.34775 13.18998,13.5706 -0.80211,40.09828 -30.92896,74.04062 -71.34445,80.35492 -40.443944,6.31878 -79.875594,-16.79577 -93.329384,-54.71013 -13.45379,-37.91448 2.83402,-80.024817 38.54977,-99.669314 13.39327,-7.366621 28.137964,-10.817588 42.670004,-10.602119 16.13535,0.239244 32.00299,5.079905 45.63735,13.961149 v -1.041472 l 0.002,0.123032 c -0.10457,-7.316833 6.18636,-13.477001 13.65121,-13.367452 z"/>
		<path fill="#333" d="m 185.38541,50.618284 a 4.4841965,4.3952183 0 0 1 4.41661,4.456295 v 32.191182 a 4.4841965,4.3952183 0 0 1 -1.24938,3.812528 4.4841965,4.3952183 0 0 1 -3.95247,1.294686 h -34.06305 a 4.4841965,4.3952183 0 1 1 0,-8.789558 h 26.02967 C 156.00588,59.083749 120.56169,52.561625 92.334513,68.087244 64.100673,83.616521 51.314069,116.67911 61.949527,146.65107 c 10.635451,29.97197 41.594013,48.12029 73.565873,43.1252 31.97185,-4.9951 55.6408,-31.67912 56.24241,-63.4067 a 4.4841965,4.3952183 0 1 1 8.96605,0.16452 c -0.68127,35.92741 -27.59307,66.26526 -63.79708,71.92158 -36.20403,5.65631 -71.403758,-14.97826 -83.447038,-48.91766 -12.04328,-33.9394 2.496148,-71.530966 34.467349,-89.115879 11.989198,-6.594342 25.150159,-9.671808 38.146879,-9.479102 20.3701,0.302031 40.33258,8.640195 54.74055,24.061128 V 55.074579 a 4.4841965,4.3952183 0 0 1 4.55089,-4.456295 z"/>
	</g>
</svg>
