<svg id="Layer_1" xmlns="http://www.w3.org/2000/svg" viewBox="0 0 100 100">
    <style>
        .st1{fill:#007ee5}
    </style>
    <g id="g2995_3_" transform="translate(76.116 130.978)">
        <path id="path2997_3_" class="st1" d="M-39.223-110.592l-18.732 12.23 12.952 10.372 18.887-11.662-13.107-10.94z"/>
    </g>
    <g id="g2999_3_" transform="translate(46.486 78.82)">
        <path id="path3001_3_" class="st1" d="M-28.325-25.459l18.732 12.23 13.107-10.94-18.887-11.662-12.952 10.372z"/>
    </g>
    <g id="g3003_3_" transform="translate(96.849 76.78)">
        <path id="path3005_3_" class="st1" d="M-46.849-22.129l13.107 10.941 18.731-12.23-12.952-10.372-18.886 11.661z"/>
    </g>
    <g id="g3007_3_" transform="translate(147.21 111.633)">
        <path id="path3009_3_" class="st1" d="M-65.372-79.016l-18.731-12.23-13.107 10.94 18.887 11.662 12.951-10.372z"/>
    </g>
    <g id="g3011_3_" transform="translate(96.91 73.057)">
        <path id="path3013_3_" class="st1" d="M-46.871-16.052L-60.016-5.144l-5.625-3.672v4.117l18.77 11.256 18.77-11.256v-4.117l-5.624 3.672-13.146-10.908z"/>
    </g>
</svg>
