<svg xmlns="http://www.w3.org/2000/svg" viewBox="0 0 100 100">
    <path d="M49.998 20.387c-16.766 0-30.361 13.594-30.361 30.365 0 13.414 8.699 24.794 20.766 28.809 1.518.278 2.072-.659 2.072-1.464 0-.721-.026-2.63-.041-5.164-8.446 1.835-10.228-4.07-10.228-4.07-1.381-3.508-3.371-4.441-3.371-4.441-2.757-1.884.209-1.846.209-1.846 3.047.215 4.651 3.129 4.651 3.129 2.709 4.64 7.106 3.3 8.836 2.523.276-1.962 1.06-3.3 1.928-4.059-6.742-.766-13.83-3.371-13.83-15.006 0-3.315 1.183-6.025 3.125-8.148-.312-.768-1.354-3.855.298-8.035 0 0 2.549-.816 8.35 3.113 2.422-.673 5.019-1.01 7.601-1.022 2.578.012 5.176.349 7.601 1.022 5.797-3.929 8.341-3.113 8.341-3.113 1.656 4.18.614 7.267.302 8.035 1.946 2.122 3.121 4.833 3.121 8.148 0 11.664-7.099 14.231-13.863 14.983 1.09.937 2.061 2.791 2.061 5.623 0 4.059-.037 7.334-.037 8.329 0 .812.547 1.757 2.088 1.46 12.055-4.023 20.747-15.396 20.747-28.806-.001-16.771-13.597-30.365-30.366-30.365z" fill-rule="evenodd" clip-rule="evenodd" fill="#181616"/>
</svg>
