<svg id="Layer_1" xmlns="http://www.w3.org/2000/svg" viewBox="0 0 100 100">
    <style>
        .st3{fill:#333}
    </style>
    <path id="XMLID_7_" d="M42.987 77.53H15.339l-.011-.065c-7.583 0-13.73-6.148-13.73-13.729 0-7.583 6.147-13.73 13.73-13.73 2.031 0 3.959.441 5.694 1.233l-.075-.625c0-15.545 12.6-28.145 28.144-28.145 12.832 0 23.658 8.588 27.046 20.33a14.546 14.546 0 0 1 1.969-.114c9.604 0 17.39 7.786 17.39 17.389 0 1.7-.244 3.342-.698 4.894l.033-.007a6.623 6.623 0 0 1-3.051 12.504l-.293.065h-48.5" fill="#f3f4f4"/>
    <path id="XMLID_2_" d="M64.58 58.721a1.189 1.189 0 0 0-.347-.793l.026.026-9.354-9.359a12.038 12.038 0 1 0-6.796 6.828l9.33 9.33c.212.212.495.334.794.344l.08.03a2.411 2.411 0 0 1 2.322 2.309l-.023.027c.014.301.136.582.348.794l-.027-.027.815.808.027.027.149.127 4.533 3.238.041.004a1.794 1.794 0 0 0 2.308-.2l.026-.026 2.913-2.926.026-.026a1.798 1.798 0 0 0 .188-2.313l-.005-.04-3.259-4.514-.131-.15-.026-.026-.787-.783a1.173 1.173 0 0 0-.793-.343l-.028.02a2.4 2.4 0 0 1-2.319-2.307l-.031-.079zM46.693 47.22a4.238 4.238 0 0 1-5.996.015 4.24 4.24 0 1 1 5.996-.015" fill="#56c2f1"/>
    <path class="st3" d="M67.528 74.268a3.252 3.252 0 0 1-1.523-.378l-.062-.007-.356-.229-4.89-3.545-.797-.791-.001.001a2.695 2.695 0 0 1-.782-1.784l-.012-.242a.914.914 0 0 0-.843-.663l-.381-.059a2.665 2.665 0 0 1-1.5-.754l-8.664-8.664c-5.696 1.773-12.019-.437-15.337-5.482-3.506-5.327-2.785-12.473 1.713-16.991 4.494-4.518 11.636-5.274 16.982-1.795 5.063 3.298 7.302 9.609 5.554 15.315l8.69 8.695c.393.403.646.915.729 1.466l.052.13.01.253c.017.419.32.767.718.849l.175-.001c.683.02 1.325.297 1.809.781l1.1 1.142 3.488 4.912a3.293 3.293 0 0 1-.563 3.891l-2.941 2.953a3.337 3.337 0 0 1-2.368.997zm-.491-3.265l.33.211a.29.29 0 0 0 .376-.034l2.941-2.953c.127-.129.14-.292.054-.412l-3.305-4.589-.629-.62a3.92 3.92 0 0 1-3.67-3.461l-.012-.029-.025-.201-9.945-9.951.355-.912c1.801-4.623.09-9.944-4.069-12.653-4.159-2.707-9.719-2.12-13.218 1.397-3.502 3.517-4.062 9.079-1.334 13.226 2.727 4.146 8.057 5.833 12.674 4.008l.916-.361 9.935 9.936.243.048a3.932 3.932 0 0 1 3.479 3.655l.714.701 4.19 2.994zm-.342-8.506l.003.003-.003-.003zm-3.614-3.718a.33.33 0 0 0 .007.055l-.007-.055zM43.686 49.97a5.693 5.693 0 0 1-4.048-1.673c-1.086-1.08-1.688-2.52-1.692-4.054s.589-2.978 1.67-4.065a5.708 5.708 0 0 1 4.057-1.692h.014c1.529 0 2.967.594 4.051 1.673a5.697 5.697 0 0 1 1.691 4.056 5.702 5.702 0 0 1-1.673 4.062 5.7 5.7 0 0 1-4.058 1.692l-.012.001zm.001-8.483h-.006c-.732.001-1.42.289-1.937.808s-.799 1.208-.797 1.94c.002.732.29 1.42.809 1.937a2.718 2.718 0 0 0 1.932.798h.006a2.728 2.728 0 0 0 1.938-.808c.517-.52.801-1.209.8-1.941s-.288-1.419-.807-1.935a2.74 2.74 0 0 0-1.938-.799z"/>
    <path class="st3" d="M96.531 64.251c.309-1.365.464-2.766.464-4.177 0-10.416-8.474-18.889-18.89-18.889-.329 0-.619.005-.896.018C73.2 29.229 61.811 20.969 49.091 20.969c-15.831 0-28.803 12.475-29.605 28.111a15.19 15.19 0 0 0-4.158-.574c-8.397 0-15.229 6.833-15.229 15.23 0 8.247 6.59 14.983 14.781 15.222.145.047.3.072.459.072h76.146c.109 0 .219-.012.326-.036l.141-.031c4.399-.093 7.95-3.7 7.95-8.122a8.098 8.098 0 0 0-3.371-6.59zm-4.752 11.714c-.109 0-.219.012-.326.036l-75.686.029a1.485 1.485 0 0 0-.439-.065c-6.743 0-12.229-5.485-12.229-12.229s5.486-12.229 12.229-12.229c1.769 0 3.475.369 5.071 1.097a12.309 12.309 0 0 1 2.897 1.854 1.502 1.502 0 0 0 2.116-.16 1.499 1.499 0 0 0-.161-2.115c-.861-.74-1.8-1.375-2.796-1.903.181-14.537 12.058-26.31 26.637-26.31 11.245 0 21.315 7.186 25.074 17.659-2.795.615-5.455 1.827-7.629 3.515a1.5 1.5 0 0 0 1.84 2.37c2.213-1.718 5.035-2.864 7.945-3.225a13.1 13.1 0 0 1 1.784-.103c8.762 0 15.89 7.127 15.89 15.889 0 .977-.098 1.946-.273 2.898a8.202 8.202 0 0 0-2.01-.254 1.5 1.5 0 0 0 0 3c.844 0 1.647.195 2.391.581.05.026.102.038.153.057a5.11 5.11 0 0 1 2.647 4.485 5.132 5.132 0 0 1-5.125 5.123z"/>
</svg>
