<svg width="33" height="60" fill="none" xmlns="http://www.w3.org/2000/svg">
    <g clip-path="url(#clip0)">
        <path d="M32.227 21.34l-4.36-13.39a4.64 4.64 0 00-.49-1l-3.48-5.37a1.73 1.73 0 00-1.45-.79h-12.12a1.74 1.74 0 00-1.44.79l-3.47 5.34a4.24 4.24 0 00-.49 1L.557 21.34a4.65 4.65 0 00-.23 1.45v21.13a16.06 16.06 0 0016.07 16.06 16.06 16.06 0 0016.06-16.06V22.79a4.37 4.37 0 00-.23-1.45zm-15.85 33.5a10.93 10.93 0 1110.12-6.74 10.92 10.92 0 01-10.12 6.74z" fill="#F06364"/>
        <path d="M16.397 32.99a10.93 10.93 0 1010.93 10.92 10.92 10.92 0 00-10.93-10.92v0z" stroke="#424242" stroke-width="2" stroke-linecap="round" stroke-linejoin="round"/>
    </g>
    <defs>
        <clipPath id="clip0">
            <path fill="#fff" transform="translate(.327 .79)" d="M0 0h32.13v59.19H0z"/>
        </clipPath>
    </defs>
</svg>
