<svg xmlns="http://www.w3.org/2000/svg" viewBox="0 0 250 250">
    <path d="M211.7 124.8c0 47.8-38.8 86.6-86.6 86.6s-86.6-38.8-86.6-86.6 38.8-86.6 86.6-86.6 86.6 38.8 86.6 86.6z" fill="#f5ff6c"/>
    <path d="M76.9 120.1c-.5 33.1 22.4 49.4 49 49.8s46.9-15.3 47.4-48.5c.4-33.1-21.2-58.2-47.9-58.6-26.6-.3-48.1 24.2-48.5 57.3z" fill="#fff"/>
    <path fill="#333" d="M126.8 172.6h-.9c-14.4-.2-27.3-4.9-36.5-13.3-10.2-9.4-15.5-22.9-15.2-39.2.2-16.6 5.6-31.8 15.1-43 9.4-11 22-17.1 35.6-17.1h.6c28.8.4 51 27.3 50.6 61.4-.5 31.7-19.3 51.2-49.3 51.2zm-2-107c-11.9 0-23 5.4-31.4 15.1-8.7 10.2-13.6 24.2-13.8 39.5-.2 14.7 4.5 26.8 13.5 35.1 8.1 7.5 19.8 11.7 32.8 11.9 27.5.4 44.2-16.7 44.6-45.7.4-30.9-19.4-55.5-45.2-55.8-.1-.1-.3-.1-.5-.1zm-47.9 54.5z"/>
    <path d="M87.5 179.6L85.8 202s20.5 10.9 45.1 9.4c13.3-.8 17.8-2.6 28.1-6.9l-1.6-19.9c-8.6-1-19.1-1.8-31-2.3-16.1-.8-30.9-1.8-38.9-2.7" fill="#f382c4"/>
    <path fill="#333" d="M126.2 214.3c-22.8 0-40.8-9.4-41.6-9.9-1-.5-1.5-1.5-1.5-2.6l1.7-22.4c.1-.7.4-1.4 1-1.9s1.3-.7 2.1-.6c8.6 1 23.8 2 38.7 2.7 11.3.5 22.1 1.3 31.2 2.3 1.3.1 2.3 1.2 2.4 2.5l1.6 19.9c.1 1.2-.6 2.3-1.7 2.8-10 4.2-15.1 6.2-28.9 7.1-1.8 0-3.4.1-5 .1zm-37.5-8.9c5.2 2.4 22.4 9.5 42.1 8.3 12.1-.7 16.6-2.3 25.3-5.9l-1.2-20.8c-8.5-.9-18.3-1.6-28.5-2.1-13.5-.6-27.3-1.5-36.2-2.4l-1.5 22.9z"/>
    <path fill="#333" d="M181 193.9c-.4 0-.7-.1-1.1-.2-8.6-3.7-16.4-5.9-22.7-6.3-15.3-1-36.5-2.6-55.2-3.9l-14.7-1.1c-7.8-.6-19.7 3.5-22.7 5.4-1.3.8-3 .4-3.8-.9-.8-1.3-.4-3 .9-3.8 4-2.5 17.2-6.8 26-6.2l14.7 1.1c18.7 1.4 39.8 2.9 55.1 3.9 6.9.4 15.4 2.8 24.5 6.8 1.4.6 2 2.2 1.4 3.6-.3 1-1.4 1.6-2.4 1.6z"/>
    <path fill="#333" d="M125.1 216.4c-50.5 0-91.5-41-91.5-91.5s41-91.5 91.5-91.5 91.5 41 91.5 91.5c0 50.4-41 91.5-91.5 91.5zm0-178c-47.7 0-86.5 38.8-86.5 86.5s38.8 86.5 86.5 86.5 86.5-38.8 86.5-86.5c0-47.8-38.8-86.5-86.5-86.5z"/>
    <path fill="#333" d="M191.3 157.3c-.2 0-.5 0-.7-.1-10.1-2.8-17.4-12.2-20.6-26.6-.3-1.5.6-3 2.1-3.3s3 .6 3.3 2.1c2.7 12.3 8.7 20.2 16.7 22.5 1.5.4 2.3 1.9 1.9 3.4-.4 1.2-1.5 2-2.7 2zm-10.9 8h-.2c-6.5-.4-13.7-8.6-14.5-16.6-.2-1.5.9-2.9 2.4-3 1.5-.2 2.9.9 3 2.4.7 6.1 6.2 11.5 9.4 11.7 1.5.1 2.7 1.4 2.6 2.9-.1 1.5-1.3 2.6-2.7 2.6zm-72.6-55.1c2.2 0 4-1.8 4-4 0-6.2 4.5-10.6 10.6-10.6s10.6 4.5 10.6 10.6c0 4.7-2.6 9-6.6 10.8-5 2.2-8 6.8-8 12v4.1c0 2.2 1.8 4 4 4s4-1.8 4-4V129c0-2 1.3-3.8 3.3-4.7 6.8-3.1 11.3-10.2 11.3-18.1 0-10.6-8-18.6-18.6-18.6s-18.6 8-18.6 18.6c0 2.2 1.8 4 4 4zm18.3 36.8c-.1-.2-.2-.5-.4-.7s-.3-.4-.5-.6c-.2-.2-.4-.4-.6-.5s-.5-.3-.7-.4c-.2-.1-.5-.2-.8-.2-.5-.1-1-.1-1.6 0-.3.1-.5.1-.8.2-.2.1-.5.2-.7.4-.2.1-.4.3-.6.5s-.4.4-.5.6c-.1.2-.3.5-.4.7s-.2.5-.2.8c0 .2-.1.5-.1.8s0 .5.1.8c.1.2.1.5.2.8.1.2.2.5.4.7.1.2.3.4.5.6.8.7 1.8 1.2 2.8 1.2.3 0 .5 0 .8-.1.3 0 .5-.1.8-.2.2-.1.5-.2.7-.4.2-.1.4-.3.6-.5s.3-.4.5-.6c.2-.2.3-.5.4-.7s.2-.5.2-.8.1-.5.1-.8 0-.5-.1-.8c.1-.3 0-.6-.1-.8z"/>
</svg>
