<svg version="1.1" xmlns="http://www.w3.org/2000/svg" x="0" y="0" viewBox="0 0 250 250" xml:space="preserve">
    <path fill="#fff" d="M225.7 181c10.1-18.2 15.1-38.9 14.4-60.1-1-29.2-13-56.7-33.6-77.4-10.9-10.9-23.7-19.4-38-25.2-13.9-5.6-28.6-8.5-43.7-8.5-22.5 0-44.2 6.5-62.9 18.7-3.6 2.3-6 5.9-6.9 10.1v.2H26c-8.8 0-16 7.2-16 16 0 7.9 5.8 14.5 13.4 15.8C13.8 88.6 9 109 9.9 129.8c1.2 29 13.1 56.2 33.6 76.6 10.9 10.9 23.7 19.4 38 25.2 13.9 5.6 28.6 8.5 43.7 8.5 22.5 0 44.2-6.5 62.9-18.7 3.4-2.2 5.7-5.6 6.7-9.3h26.1c8.8 0 16-7.2 16-16-.1-7-4.7-13-11.2-15.1z"/>
    <path fill="#333" d="M125 65.2c-20.8 0-37.7 16.9-37.7 37.7v8.1h-6.1c-1.1 0-2.1.4-2.8 1.2-.8.8-1.2 1.8-1.2 2.8v62.3c0 2.2 1.8 4 4 4h87.5c2.2 0 4-1.8 4-4V115c0-2.2-1.8-4-4-4h-6.1v-8.1c.1-20.8-16.8-37.7-37.6-37.7zm-29.7 37.7c0-16.4 13.3-29.7 29.7-29.7s29.7 13.3 29.7 29.7v8.1H95.3v-8.1zm69.5 70.4H85.2V119h79.5v54.3z"/>
    <path fill="#333" d="M220.8 192.2h-17.5c34.8-40.5 33-101.8-5.4-140.2C163.5 17.6 109 12 68.4 38.6c-1.8 1.2-2.4 3.7-1.2 5.5 1.2 1.8 3.7 2.4 5.5 1.2 37.5-24.5 87.7-19.3 119.4 12.4 35.9 35.9 37.1 93.4 3.7 130.8v-21c0-2.2-1.8-4-4-4s-4 1.8-4 4v28.8c0 2.2 1.8 4 4 4h28.8c2.2 0 4-1.8 4-4s-1.5-4.1-3.8-4.1zm-43.7 12.5c-37.5 24.5-87.7 19.3-119.4-12.4-34.7-34.7-37-89.7-6.8-127.1v18.4c0 2.2 1.8 4 4 4s4-1.8 4-4V54.8c0-.3 0-.5-.1-.8 0-.1-.1-.2-.1-.3 0-.1-.1-.3-.1-.4-.1-.1-.1-.2-.2-.4-.1-.1-.1-.2-.2-.3-.1-.2-.3-.4-.5-.6v-.1h-.1c-.2-.2-.4-.3-.6-.5-.1-.1-.2-.1-.3-.2-.1-.1-.2-.1-.4-.2-.1-.1-.3-.1-.4-.1-.1 0-.2-.1-.4-.1s-.4-.1-.7-.1H26c-2.2 0-4 1.8-4 4s1.8 4 4 4h19.7C11.9 99.3 13.9 160 52 198c19.9 19.9 46.5 30.2 73.2 30.2 19.5 0 39.1-5.5 56.3-16.7 1.8-1.2 2.4-3.7 1.2-5.5-1.3-1.9-3.7-2.5-5.6-1.3z"/>
    <path fill="#333" d="M125.6 132.8h-1.2c-4.2 0-7.7 3.4-7.7 7.7 0 3 1.7 5.6 4.3 6.8V160c0 2.2 1.8 4 4 4s4-1.8 4-4v-12.7c2.5-1.3 4.3-3.8 4.3-6.8 0-4.3-3.5-7.7-7.7-7.7z"/>
</svg>
