<svg xmlns="http://www.w3.org/2000/svg" viewBox="0 0 250 250">
    <path fill="#fff" d="M195.094 103h-19.39V37.517c0-8.822-7.178-16-16-16H54.016l-.399.059c-.47.038-.938.096-1.4.175-.218.035-.429.074-.641.119a16.016 16.016 0 0 0-3.214 1.055c-.839.376-1.603.795-2.329 1.279l-.052.035-.052.035-.012.008-.338.225-.043.035-.013.009-.153.124a16.368 16.368 0 0 0-3.657 3.797c-.131.19-.26.391-.385.598a16.035 16.035 0 0 0-.947 1.759c-.099.21-.192.42-.28.636a16.012 16.012 0 0 0-.93 3.212 15.767 15.767 0 0 0-.262 2.841v152.517a15.766 15.766 0 0 0 .456 3.747c.156.647.354 1.288.589 1.909.108.293.222.576.347.855.378.848.823 1.657 1.321 2.399l.333.496.193.235c.37.488.78.969 1.218 1.426.2.209.397.4.598.588.48.451.993.876 1.527 1.265.246.181.488.35.739.512.501.324 1.021.62 1.552.885l.166.094.513.23.142.064.144.06 53.781 22.45a15.909 15.909 0 0 0 6.163 1.235c3.17 0 6.239-.929 8.875-2.686a15.969 15.969 0 0 0 7.126-13.314v-6.45h35.019c8.822 0 16-7.178 16-16V135h19.39c8.822 0 16-7.178 16-16s-7.184-16-16.007-16z"/>
    <path fill="#333" d="M159.705 130a4 4 0 0 0-4 4v52.033h-43.019V59.967a4 4 0 0 0-2.459-3.691L74.872 41.517h80.833V104a4 4 0 0 0 8 0V37.517a4 4 0 0 0-4-4H54.906c-.025 0-.049.007-.074.008a4.008 4.008 0 0 0-.665.067c-.03.006-.062.008-.092.015a4.002 4.002 0 0 0-.801.267 4.03 4.03 0 0 0-.585.315l-.01.008-.038.029a3.955 3.955 0 0 0-.498.411c-.036.035-.072.068-.107.104-.156.161-.3.333-.426.517-.021.03-.038.063-.058.094a4.034 4.034 0 0 0-.285.525c-.02.045-.042.087-.061.133-.084.206-.149.42-.198.639-.011.051-.02.103-.029.154a3.969 3.969 0 0 0-.072.716v152.517c0 .245.029.485.073.72.013.073.032.144.049.216.04.167.091.329.151.488.026.067.048.135.078.2.093.21.2.413.327.603.013.02.031.037.044.057.119.171.252.33.397.481.048.05.1.097.151.145.122.115.252.222.389.321.058.042.114.085.175.124.172.111.353.21.544.295.026.012.05.028.077.039l.004.002 53.781 22.45a3.996 3.996 0 0 0 3.759-.362 4.001 4.001 0 0 0 1.782-3.329v-18.45h47.019a4 4 0 0 0 4-4V134a4.003 4.003 0 0 0-4.002-4zm-55.019 76.479l-45.781-19.111V43.521l45.781 19.11v143.848z"/>
    <path fill="#333" d="M87.208 129.015c-3.852 0-6.986 3.134-6.986 6.986s3.134 6.986 6.986 6.986 6.986-3.134 6.986-6.986-3.134-6.986-6.986-6.986zM195.094 115H132.69l11.299-11.299a4 4 0 0 0-5.657-5.657l-18.127 18.128-.004.005a3.976 3.976 0 0 0-.493.604c-.069.102-.116.213-.174.32-.066.122-.14.239-.194.368-.056.136-.089.279-.13.419-.032.11-.074.214-.097.328a4.017 4.017 0 0 0 0 1.568c.023.113.065.218.097.328.041.141.074.283.13.419.054.129.127.246.194.368.058.107.105.218.174.32.145.217.31.42.493.604l.004.005 18.127 18.127c.781.781 1.805 1.172 2.829 1.172s2.047-.391 2.829-1.172a4 4 0 0 0 0-5.656L132.691 123h62.404a4 4 0 1 0-.001-8z"/>
</svg>
