<svg xmlns="http://www.w3.org/2000/svg" viewBox="0 0 250 250">
    <path fill="#fff" d="M210.785 115.876a13.545 13.545 0 0 0-.375-1.451 13.883 13.883 0 0 0-.533-1.543 13.8 13.8 0 0 0-.716-1.472 13.35 13.35 0 0 0-.765-1.299 16.051 16.051 0 0 0-1.989-2.425L188.28 89.559a15.898 15.898 0 0 0-11.314-4.686c-.424 0-.843.029-1.262.061l.001-47.418c0-4.272-1.663-8.289-4.684-11.311a15.897 15.897 0 0 0-11.316-4.689H54.016l-.392.058c-.468.037-.939.096-1.404.175-.218.035-.431.074-.643.119a15.942 15.942 0 0 0-3.22 1.057c-.834.374-1.599.793-2.326 1.278l-.473.315-.204.165a16.579 16.579 0 0 0-1.942 1.709 16.184 16.184 0 0 0-1.7 2.074c-.127.185-.255.383-.378.585a16.002 16.002 0 0 0-.957 1.775c-.101.215-.197.431-.287.651a16.03 16.03 0 0 0-.927 3.206c-.173.949-.26 1.888-.26 2.833v152.516a15.766 15.766 0 0 0 .455 3.741c.158.654.356 1.296.591 1.917.108.292.222.574.346.853.377.846.822 1.655 1.32 2.398l.335.5.2.243c.371.489.778.965 1.211 1.417.2.208.397.401.601.59a16.07 16.07 0 0 0 1.56 1.288c.21.155.452.324.703.486a16 16 0 0 0 1.646.931l.155.085.429.193.142.064.144.06 53.781 22.45a15.912 15.912 0 0 0 6.163 1.235c3.17 0 6.238-.929 8.874-2.686a15.97 15.97 0 0 0 7.126-13.314v-6.45h35.019c8.822 0 16-7.178 16-16l-.001-36.967c.419.033.838.061 1.262.061a15.89 15.89 0 0 0 11.319-4.692l18.122-18.121a16.087 16.087 0 0 0 1.988-2.424c.345-.516.595-.97.769-1.306.209-.375.458-.854.708-1.455.258-.624.423-1.151.54-1.561.114-.359.254-.845.371-1.434.207-1.043.311-2.094.311-3.134a15.855 15.855 0 0 0-.308-3.124z"/>
    <path fill="#333" d="M199.016 118.216c-.023-.116-.067-.224-.1-.336-.04-.138-.072-.277-.127-.411-.055-.132-.13-.251-.198-.375-.057-.104-.103-.213-.17-.313a3.996 3.996 0 0 0-.498-.61l-18.128-18.127a4 4 0 1 0-5.656 5.657L185.438 115h-62.404a4 4 0 0 0 0 8h62.404l-11.299 11.3a4 4 0 1 0 5.656 5.656l18.128-18.127c.186-.186.352-.391.498-.61.067-.1.113-.209.17-.314.068-.124.143-.243.197-.374.055-.134.087-.273.128-.411.033-.112.076-.219.099-.336a3.978 3.978 0 0 0 .001-1.568z"/>
    <path fill="#333" d="M159.704 130a4 4 0 0 0-4 4l.001 52.033h-43.019V59.967a4 4 0 0 0-2.459-3.691L74.872 41.517h80.833L155.704 104a4 4 0 0 0 8 0l.001-66.483a4.004 4.004 0 0 0-4-4h-104.8c-.025 0-.049.007-.074.008a4.02 4.02 0 0 0-.666.067c-.03.006-.061.008-.09.014a4.056 4.056 0 0 0-.802.266c-.201.09-.399.191-.586.316l-.01.008-.038.029a3.938 3.938 0 0 0-.497.41 4.008 4.008 0 0 0-.534.621c-.021.031-.039.064-.059.096a3.992 3.992 0 0 0-.284.522c-.02.045-.043.088-.062.134a4.029 4.029 0 0 0-.227.793 3.969 3.969 0 0 0-.072.716v152.516c0 .245.029.485.073.72.013.073.032.144.049.216.04.167.091.329.151.488.026.067.048.135.078.2.093.21.2.413.327.603.013.02.031.037.044.057.119.171.252.33.397.481.048.05.1.097.151.145.122.115.252.222.389.321.058.042.114.085.175.124.172.111.353.21.544.295.026.012.05.028.077.039l.004.002 53.781 22.45a3.996 3.996 0 0 0 3.759-.362 4.001 4.001 0 0 0 1.782-3.329v-18.45h47.019a4 4 0 0 0 4-4V134a4 4 0 0 0-4-4zm-55.018 76.479l-45.781-19.111V43.521l45.781 19.11v143.848z"/>
    <path fill="#fff" d="M58.905 187.368l45.781 19.111V62.631l-45.781-19.11z"/>
    <circle fill="#333" cx="87.208" cy="136.001" r="6.986"/>
</svg>
