<svg xmlns="http://www.w3.org/2000/svg" viewBox="0 0 250 250">
    <path fill="#fff" d="M125 21.5C67.9 21.5 21.5 67.9 21.5 125c0 24.8 9 48.9 25.3 67.7.3.4.7.8 1 1.2 19.7 22 47.8 34.7 77.2 34.7 57.1 0 103.5-46.4 103.5-103.5S182.1 21.5 125 21.5z"/>
    <path fill="#333" d="M125 33.5c-50.4 0-91.5 41-91.5 91.5 0 23 8.5 44 22.5 60.1.1.2.3.4.5.5 16.8 18.9 41.3 30.9 68.5 30.9 50.4 0 91.5-41 91.5-91.5S175.4 33.5 125 33.5zm0 8c46 0 83.5 37.5 83.5 83.5 0 19-6.4 36.6-17.2 50.7-7-11-17.5-20.2-30.1-26.2 7-9 11.2-20.5 11.2-33.1C172.4 88 151.1 65 125 65s-47.4 23.1-47.4 51.4c0 12.6 4.2 24.2 11.2 33.1-12.6 6.1-23.1 15.2-30.1 26.2C47.9 161.6 41.5 144 41.5 125c0-46 37.5-83.5 83.5-83.5zm-39.4 74.8c0-23.9 17.7-43.4 39.4-43.4s39.4 19.5 39.4 43.4-17.7 43.4-39.4 43.4-39.4-19.5-39.4-43.4zm39.4 92.2c-24 0-45.6-10.2-60.8-26.4 6.6-11.4 17.3-20.7 30.4-26.4 8.2 7.5 18.9 12.1 30.5 12.1 11.6 0 22.2-4.6 30.5-12.1 13.1 5.7 23.8 15.1 30.4 26.4-15.4 16.2-37 26.4-61 26.4z"/>
</svg>
