<svg width="67" height="67" fill="none" xmlns="http://www.w3.org/2000/svg">
    <path d="M57.734 0H9.266A9.266 9.266 0 000 9.266v48.468A9.266 9.266 0 009.266 67h48.468A9.266 9.266 0 0067 57.734V9.266A9.266 9.266 0 0057.734 0z" fill="#6BBC40"/>
    <path d="M58.176 43.356a3.102 3.102 0 00-.154-.476v-.034a3.109 3.109 0 00-.67-.944l-5.534-5.534a3.089 3.089 0 00-5.273 2.184c.008.333.066.663.174.978-3.43-1.34-6.117-3.51-8.764-6.03 2.68-2.486 5.36-4.636 8.764-5.99a3.175 3.175 0 00-.16.945 3.089 3.089 0 005.272 2.184l5.534-5.527c.143-.15.273-.311.389-.483l.047-.087c.078-.122.148-.25.208-.382v-.107a2.89 2.89 0 00.127-.409v-.1a2.9 2.9 0 000-1.24v-.093a2.982 2.982 0 00-.127-.416v-.073a2.93 2.93 0 00-.208-.376l-.047-.094a3.26 3.26 0 00-.389-.475l-5.534-5.568a3.089 3.089 0 00-4.368 4.368l.971.972c-6.613 1.474-11.081 5.032-14.934 8.663-5.038-4.744-11.129-9.38-21.681-9.38a3.089 3.089 0 100 6.177c8.187 0 12.73 3.283 17.225 7.484-4.482 4.201-9.031 7.484-17.225 7.484a3.089 3.089 0 100 6.178c10.552 0 16.643-4.623 21.681-9.38 3.852 3.631 8.321 7.189 14.934 8.663l-.971.971a3.089 3.089 0 104.368 4.369l5.534-5.548c.28-.27.508-.59.67-.945.064-.156.115-.318.155-.482v-.1a2.9 2.9 0 000-1.24l-.014-.107z" fill="#fff"/>
    <path d="M55.181 44.696c-11.095 0-16.696-5.468-22.11-10.72-5.413-5.253-10.66-10.432-21.252-10.432a.623.623 0 010-1.24c11.095 0 16.696 5.468 22.11 10.754 5.413 5.286 10.66 10.398 21.252 10.398a.624.624 0 010 1.24z" fill="#424242"/>
    <path d="M11.819 44.696a.623.623 0 010-1.24c10.592 0 15.765-5.052 21.252-10.398 5.488-5.347 11.015-10.754 22.11-10.754a.624.624 0 010 1.24c-10.592 0-15.765 5.052-21.252 10.398-5.488 5.347-11.015 10.754-22.11 10.754zm43.362 0a.624.624 0 01-.442-.181l-5.527-5.534a.616.616 0 11.87-.871l5.528 5.527a.623.623 0 01-.435 1.059h.006z" fill="#424242"/>
    <path d="M49.647 50.25a.617.617 0 01-.435-1.052l5.527-5.534a.623.623 0 01.871.85l-5.534 5.528a.61.61 0 01-.429.208zm5.534-26.706a.624.624 0 01-.442-.181l-5.527-5.534a.616.616 0 11.87-.871l5.528 5.527a.623.623 0 01-.435 1.059h.006z" fill="#424242"/>
    <path d="M49.647 29.071a.617.617 0 01-.435-1.052l5.527-5.534a.67.67 0 01.878 0 .623.623 0 010 .878l-5.534 5.527a.61.61 0 01-.436.181z" fill="#424242"/>
</svg>
