<?xml version="1.0" standalone="no"?>
<!DOCTYPE svg PUBLIC "-//W3C//DTD SVG 20010904//EN"
 "http://www.w3.org/TR/2001/REC-SVG-20010904/DTD/svg10.dtd">
<svg version="1.0" xmlns="http://www.w3.org/2000/svg"
 width="512.000000pt" height="512.000000pt" viewBox="0 0 512.000000 512.000000"
 preserveAspectRatio="xMidYMid meet">
<metadata>
Created by potrace 1.11, written by Peter Selinger 2001-2013
</metadata>
<g transform="translate(0.000000,512.000000) scale(0.100000,-0.100000)"
fill="#000000" stroke="none">
<path d="M386 5104 c-132 -32 -260 -131 -323 -250 -67 -126 -63 27 -63 -2294
0 -2321 -4 -2168 63 -2294 41 -78 125 -162 203 -203 126 -67 -28 -63 2304 -63
2330 0 2168 -4 2291 61 71 38 167 136 203 207 60 118 56 -27 56 2282 0 1851
-2 2123 -15 2179 -44 184 -192 332 -376 376 -94 22 -4251 21 -4343 -1z m3920
-421 c66 -47 372 -366 389 -406 19 -46 19 -98 0 -144 -25 -60 -370 -536 -429
-591 -60 -57 -90 -72 -142 -72 -46 0 -92 -20 -138 -60 -46 -41 -74 -94 -87
-168 -6 -31 -17 -68 -24 -82 -8 -14 -236 -247 -507 -518 l-494 -493 22 -67
c150 -450 28 -959 -310 -1298 -177 -176 -398 -296 -648 -351 -117 -25 -390
-25 -508 1 -256 56 -482 179 -656 358 -107 110 -168 193 -229 314 -92 180
-135 365 -135 579 0 341 118 638 350 879 250 260 568 396 925 396 136 0 257
-18 384 -56 l84 -26 506 506 506 505 73 16 c86 18 119 33 162 77 40 40 60 84
71 162 7 55 13 64 71 124 62 63 524 403 583 428 16 7 55 13 86 14 45 0 64 -5
95 -27z"/>
<path d="M1545 2109 c-132 -42 -246 -159 -286 -290 -17 -57 -20 -87 -17 -157
8 -143 65 -252 173 -334 150 -114 375 -117 529 -7 251 179 247 564 -7 732
-115 76 -264 98 -392 56z"/>
</g>
</svg>
