<?xml version="1.0" standalone="no"?>
<!DOCTYPE svg PUBLIC "-//W3C//DTD SVG 20010904//EN"
 "http://www.w3.org/TR/2001/REC-SVG-20010904/DTD/svg10.dtd">
<svg version="1.0" xmlns="http://www.w3.org/2000/svg"
 width="1024.000000pt" height="1024.000000pt" viewBox="0 0 1024.000000 1024.000000"
 preserveAspectRatio="xMidYMid meet">
<metadata>
Created by potrace 1.11, written by Peter Selinger 2001-2013
</metadata>
<g transform="translate(0.000000,1024.000000) scale(0.100000,-0.100000)"
fill="#000000" stroke="none">
<path d="M800 10221 c-219 -49 -360 -128 -515 -286 -131 -133 -208 -269 -258
-458 l-22 -82 0 -4280 0 -4280 23 -80 c25 -88 27 -93 67 -180 91 -198 266
-376 470 -478 72 -36 199 -74 289 -86 109 -15 8467 -15 8552 0 211 38 385 128
537 277 126 124 223 289 269 462 l23 85 0 4280 0 4280 -22 82 c-105 393 -390
663 -788 747 -61 13 -597 15 -4310 14 -3939 0 -4245 -2 -4315 -17z"/>
</g>
</svg>
