<svg xmlns="http://www.w3.org/2000/svg" viewBox="0 0 250 250">
	<g id="comparison-greater-equal">
		<path fill="#333" d="M223.5 106.2h-91.2c-2.2 0-4-1.8-4-4s1.8-4 4-4h91.2c2.2 0 4 1.8 4 4s-1.8 4-4 4z"/>
		<path fill="#FFF" d="M223.5 98.2c2.2 0 4 1.8 4 4s-1.8 4-4 4h-91.2c-2.2 0-4-1.8-4-4s1.8-4 4-4h91.2m0-12h-91.2c-8.8 0-16 7.2-16 16s7.2 16 16 16h91.2c8.8 0 16-7.2 16-16s-7.2-16-16-16z"/>
		<path fill="#333" d="M223.5 151.8h-91.2c-2.2 0-4-1.8-4-4s1.8-4 4-4h91.2c2.2 0 4 1.8 4 4s-1.8 4-4 4z"/>
		<path fill="#FFF" d="M223.5 143.8c2.2 0 4 1.8 4 4s-1.8 4-4 4h-91.2c-2.2 0-4-1.8-4-4s1.8-4 4-4h91.2m0-12h-91.2c-8.8 0-16 7.2-16 16s7.2 16 16 16h91.2c8.8 0 16-7.2 16-16s-7.2-16-16-16z"/>
		<path fill="#333" d="M26.5 189.8c-1 0-2-.4-2.8-1.2-1.6-1.6-1.6-4.1 0-5.7l58-58-58-58c-1.6-1.6-1.6-4.1 0-5.7 1.6-1.6 4.1-1.6 5.7 0L90.2 122c1.6 1.6 1.6 4.1 0 5.7l-60.8 60.8c-.8 1-1.8 1.3-2.9 1.3z"/>
		<path fill="#FFF" d="M26.5 60.2c1 0 2 .4 2.8 1.2l60.8 60.8c1.6 1.6 1.6 4.1 0 5.7l-60.8 60.8c-.8.8-1.8 1.2-2.8 1.2-1 0-2-.4-2.8-1.2-1.6-1.6-1.6-4.1 0-5.7l58-58-58-58c-1.6-1.6-1.6-4.1 0-5.7.8-.8 1.8-1.1 2.8-1.1m0-12c-4.3 0-8.3 1.7-11.3 4.7s-4.7 7-4.7 11.3c0 4.3 1.7 8.3 4.7 11.3L64.7 125l-49.5 49.5c-3 3-4.7 7-4.7 11.3 0 4.3 1.7 8.3 4.7 11.3s7 4.7 11.3 4.7c4.3 0 8.3-1.7 11.3-4.7l60.8-60.8c3-3 4.7-7 4.7-11.3s-1.7-8.3-4.7-11.3L37.8 52.8c-3-3-7-4.6-11.3-4.6z"/>
	</g>
</svg>
