<svg xmlns="http://www.w3.org/2000/svg" viewBox="0 0 250 250">
	<g id="comparison-less">
		<path fill="#333" d="M155.4 189.8c-1 0-2-.4-2.8-1.2l-60.8-60.8c-.8-.8-1.2-1.8-1.2-2.8s.4-2.1 1.2-2.8l60.8-60.8c1.6-1.6 4.1-1.6 5.7 0 1.6 1.6 1.6 4.1 0 5.7l-58 58 58 58c1.6 1.6 1.6 4.1 0 5.7-.8.7-1.9 1-2.9 1z"/>
		<path fill="#FFF" d="M155.4 60.2c1 0 2 .4 2.8 1.2 1.6 1.6 1.6 4.1 0 5.7l-58 58 58 58c1.6 1.6 1.6 4.1 0 5.7-.8.8-1.8 1.2-2.8 1.2s-2-.4-2.8-1.2L91.8 128c-.8-.8-1.2-1.8-1.2-2.8 0-1.1.4-2.1 1.2-2.8l60.8-60.8c.8-1.1 1.8-1.4 2.8-1.4m0-12c-4.3 0-8.3 1.7-11.3 4.7l-60.8 60.8c-3 3-4.7 7-4.7 11.3 0 4.3 1.7 8.3 4.7 11.3l60.8 60.8c3 3 7 4.7 11.3 4.7s8.3-1.7 11.3-4.7c6.2-6.2 6.2-16.4 0-22.6L117.2 125l49.5-49.5c3-3 4.7-7 4.7-11.3 0-4.3-1.7-8.3-4.7-11.3-3-3.1-7-4.7-11.3-4.7z"/>
	</g>
</svg>
