<svg xmlns="http://www.w3.org/2000/svg" viewBox="0 0 250 250">
	<g id="math-add">
		<path fill="#333" d="M216 121h-87V34c0-2.2-1.8-4-4-4s-4 1.8-4 4v87H34c-2.2 0-4 1.8-4 4s1.8 4 4 4h87v87c0 2.2 1.8 4 4 4s4-1.8 4-4v-87h87c2.2 0 4-1.8 4-4s-1.7-4-4-4z"/>
		<path fill="#FFF"  d="M125 30c2.2 0 4 1.8 4 4v87h87c2.2 0 4 1.8 4 4s-1.8 4-4 4h-87v87c0 2.2-1.8 4-4 4s-4-1.8-4-4v-87H34c-2.2 0-4-1.8-4-4s1.8-4 4-4h87V34c0-2.2 1.8-4 4-4m0-12c-8.8 0-16 7.2-16 16v75H34c-8.8 0-16 7.2-16 16s7.2 16 16 16h75v75c0 8.8 7.2 16 16 16s16-7.2 16-16v-75h75c8.8 0 16-7.2 16-16s-7.2-16-16-16h-75V34c0-8.8-7.2-16-16-16z"/>
	</g>
</svg>
