<svg xmlns="http://www.w3.org/2000/svg" viewBox="0 0 250 250">
	<g id="no-location">
		<path fill="#333" d="M130.7 125l57.8-57.8c1.6-1.6 1.6-4.1 0-5.7-1.6-1.6-4.1-1.6-5.7 0L125 119.3 67.2 61.5c-1.6-1.6-4.1-1.6-5.7 0-1.6 1.6-1.6 4.1 0 5.7l57.8 57.8-57.8 57.8c-1.6 1.6-1.6 4.1 0 5.7.8.8 1.8 1.2 2.8 1.2s2-.4 2.8-1.2l57.8-57.8 57.8 57.8c.8.8 1.8 1.2 2.8 1.2s2-.4 2.8-1.2c1.6-1.6 1.6-4.1 0-5.7L130.7 125z"/>
		<path fill="#FFF" d="M185.6 60.4c1 0 2 .4 2.8 1.2 1.6 1.6 1.6 4.1 0 5.7L130.7 125l57.8 57.8c1.6 1.6 1.6 4.1 0 5.7-.8.8-1.8 1.2-2.8 1.2-1 0-2-.4-2.8-1.2L125 130.7l-57.8 57.8c-.8.8-1.8 1.2-2.8 1.2-1 0-2-.4-2.8-1.2-1.6-1.6-1.6-4.1 0-5.7l57.8-57.8-57.9-57.8c-1.6-1.6-1.6-4.1 0-5.7.8-.8 1.8-1.2 2.8-1.2 1 0 2 .4 2.8 1.2l57.8 57.8 57.8-57.8c.9-.8 1.9-1.1 2.9-1.1m0-12c-4.3 0-8.3 1.7-11.3 4.7L125 102.4 75.7 53c-3-3-7-4.7-11.3-4.7-4.3 0-8.3 1.7-11.3 4.7-6.2 6.2-6.2 16.4 0 22.6l49.3 49.3L53 174.3c-3 3-4.7 7-4.7 11.3 0 4.3 1.7 8.3 4.7 11.3s7 4.7 11.3 4.7c4.3 0 8.3-1.7 11.3-4.7l49.3-49.3 49.3 49.3c3 3 7 4.7 11.3 4.7 4.3 0 8.3-1.7 11.3-4.7s4.7-7 4.7-11.3c0-4.3-1.7-8.3-4.7-11.3L147.6 125 197 75.7c6.2-6.2 6.2-16.4 0-22.6-3.1-3.1-7.1-4.7-11.4-4.7z"/>
	</g>
</svg>
