<svg xmlns="http://www.w3.org/2000/svg" viewBox="0 0 250 250">
	<g id="place-right-leg">
		<path fill="#FFF" d="M246.9 95c-4-12.4-15.5-20.8-28.6-20.8-3.2 0-6.3.5-9.3 1.5l-20.4 6.6c-4.6-14.2-18-24.4-33.7-24.4V36.5c0-16.6-13.5-30.1-30.1-30.1S94.7 19.9 94.7 36.5v21.4c-15.7 0-29 10.3-33.7 24.5l-20.4-6.6c-3-1-6.1-1.5-9.3-1.5C18.4 74.2 6.9 82.6 2.9 95c-5.1 15.8 3.5 32.8 19.3 37.9l25.6 8.3c1 11.8 4.8 23.3 10.9 33.4l-15.8 21.8c-4.7 6.5-6.6 14.4-5.4 22.4 1.3 7.9 5.5 14.9 12 19.6 5.2 3.8 11.3 5.7 17.7 5.7 9.6 0 18.7-4.6 24.3-12.4l15.8-21.8c5.8 1.3 11.6 2 17.6 2 6 0 11.9-.7 17.6-2l15.8 21.7c5.6 7.8 14.7 12.4 24.3 12.4 6.4 0 12.5-2 17.7-5.7 6.5-4.7 10.8-11.7 12-19.6 1.3-7.9-.7-15.9-5.4-22.4l-15.8-21.8c6.1-10.1 9.9-21.7 10.9-33.4l25.6-8.3c7.6-2.5 13.8-7.8 17.5-15 3.7-7 4.3-15.1 1.8-22.8z"/>
		<path fill="#333" d="M182.7 232.7c-5.9 0-11.6-2.9-15-7.7L147 196.8c-7.1 2.5-14.5 3.8-22.1 3.8-7.6 0-15-1.3-22.1-3.8l-20.6 28.3c-3.5 4.8-9.1 7.7-15 7.7-3.9 0-7.7-1.2-10.9-3.5-4-2.9-6.7-7.2-7.4-12.1-.8-4.9.4-9.8 3.3-13.8l20.6-28.3c-9-11.7-13.8-25.9-13.8-40.4v-1.9L25.7 122c-9.7-3.2-15.1-13.7-11.9-23.4 2.5-7.7 9.6-12.8 17.7-12.8 1.9 0 3.9.3 5.7.9l33.3 10.8.6-.9c-.1-1.1-.2-2.2-.2-3.2 0-13.2 10.8-24 24-24 3.6 0 7.2.8 10.4 2.4l1-.3v-35c0-10.2 8.3-18.6 18.6-18.6 10.2 0 18.6 8.3 18.6 18.6v35l1 .3c3.2-1.6 6.8-2.4 10.4-2.4 13.2 0 24 10.8 24 24 0 1.1-.1 2.2-.2 3.2.2.3.4.6.6.8l33.3-10.8c1.9-.6 3.8-.9 5.7-.9 8.1 0 15.2 5.2 17.7 12.8 1.5 4.7 1.1 9.8-1.1 14.2-2.3 4.4-6.1 7.7-10.8 9.2l-33.3 10.8v1.9c0 14.5-4.9 28.7-13.7 40.2l20.6 28.3c2.9 4 4.1 8.9 3.3 13.8-.8 4.9-3.4 9.2-7.4 12.1-3.2 2.5-7 3.7-10.9 3.7zm-34.3-44.4c1.2 0 2.4.6 3.1 1.6l22.3 30.7c2 2.8 5.3 4.5 8.8 4.5 2.3 0 4.5-.7 6.4-2.1 2.4-1.7 3.9-4.2 4.4-7.1.5-2.9-.2-5.8-1.9-8.1L169.2 177c-1-1.4-1-3.4.2-4.7 8.9-10.5 13.8-23.9 13.8-37.6 0-1.3-.1-2.7-.2-4.3-.1-1.8 1-3.4 2.6-3.9l36.1-11.7c2.8-.9 5-2.8 6.4-5.4 1.3-2.6 1.6-5.6.7-8.3-1.5-4.5-5.6-7.5-10.4-7.5-1.1 0-2.3.2-3.4.5l-36.1 11.7c-1.7.5-3.5-.1-4.4-1.6-.9-1.4-1.8-2.7-2.9-4.2-.7-.9-.9-2-.7-3.1.2-1.1.4-2.2.4-3.4 0-9-7.3-16.3-16.3-16.3-2.8 0-5.7.8-8.1 2.2-1 .6-2.1.7-3.1.3-1.7-.6-3.3-1.1-4.9-1.4-1.7-.4-2.9-2-2.9-3.7V36.5c0-6-4.9-10.9-10.9-10.9s-10.9 4.9-10.9 10.9v37.9c0 1.8-1.2 3.3-2.9 3.7-1.6.4-3.2.9-4.9 1.4-1 .4-2.2.2-3.2-.3-2.5-1.4-5.3-2.2-8.1-2.2-9 0-16.3 7.3-16.3 16.3 0 1.1.1 2.3.4 3.4.2 1.1 0 2.2-.7 3.1-1.1 1.4-2 2.8-2.9 4.2-.9 1.5-2.8 2.2-4.4 1.6L34.9 93.9c-1.1-.4-2.2-.5-3.4-.5-4.7 0-8.9 3-10.4 7.5-1.9 5.7 1.3 11.9 7 13.7l36.1 11.7c1.7.5 2.8 2.2 2.6 3.9-.1 1.7-.2 3-.2 4.3 0 13.7 4.9 27.1 13.8 37.6 1.1 1.3 1.2 3.3.2 4.7l-22.3 30.7c-1.7 2.4-2.4 5.2-1.9 8.1.5 2.9 2 5.4 4.4 7.1 1.9 1.4 4.1 2.1 6.4 2.1 3.5 0 6.8-1.7 8.8-4.5l22.3-30.7c1-1.4 2.9-2 4.6-1.3 7 2.9 14.5 4.4 22.1 4.4 7.6 0 15-1.5 22.1-4.3.3 0 .8-.1 1.3-.1z"/>
		<path fill="#333" d="M67.2 219.9c-1.2 0-2.4-.4-3.4-1.1-2.6-1.9-3.1-5.5-1.3-8l22.1-30.4c1.9-2.6 5.5-3.1 8-1.3 2.6 1.9 3.1 5.5 1.3 8l-22.1 30.4c-1.1 1.6-2.9 2.4-4.6 2.4z"/>
	</g>
</svg>
