<svg xmlns="http://www.w3.org/2000/svg" viewBox="-328 -19.4 250 250">
	<g id="servo-motor-2">
		<path fill="#fff" d="M-165.5 175.6c-8.1 0-14.5-6.8-14.5-14.8v-1c0-4 .8-7.5 4.4-11.6 4.6-5.4 10.2-12 15.5-18.4 4.9-5.9 10-12 14.3-16.9l.1-.1c6.2-7.1 6.4-10 6.4-10.1 0-.5 0-1.4-3.2-1.4-1.7 0-4.4 1.8-6.9 4.5l-.1.2-.1.1c-2.7 2.7-6.3 4.2-10.1 4.2s-7.4-1.5-10.1-4.2l-4-4c-2.7-2.5-4.3-6.1-4.4-9.8-.1-3.6 1.1-7.1 3.4-9.8 2.5-3.1 14.3-16.4 33.1-16.4 11.5 0 21.4 3.7 28.6 10.7 6.8 6.6 10.5 15.7 10.5 25.6 0 14.1-7.8 23.5-14.7 31.8-1.7 2-3.5 4.6-5.5 6.6h5.3c8.1 0 14.8 6.2 14.8 14.3v5.9c0 8.1-6.7 14.8-14.8 14.8h-48v-.2z"/>
		<path fill="#333" d="M-149 152.5h31.2c1.3 0 2.4.7 2.4 2.4v5.9c0 1.6-1.1 2.4-2.4 2.4h-47.8c-1.4 0-2.4-1.1-2.4-2.4v-1c0-1.6 0-2.2 1.4-3.8 9-10.4 21-25.1 29.8-35.3 6.1-7 9.4-13 9.4-18 0-6.2-4.3-13.4-15.2-13.4-6.7 0-12.4 4.7-15.7 8.3-1 1-2.3 1-3.2 0l-4.2-4.2c-.8-.7-1.1-2.3-.1-3.2 0 0 9.2-12.1 23.9-12.1 17.8 0 27.1 11.3 27.1 24.2 0 9.5-5.2 16-11.9 24-6.5 7.8-15 17.8-22.2 26v.2h-.1z"/>
		<path fill="#fff" d="M-274 212.6c-8.8 0-17-8.2-17-17v-38.4c-4-1.7-7.6-4.3-10.9-7.6-13.6-13.6-13.9-35.7-.3-49.4l11.2-11.5V45.6c0-8.8 8.2-15 17-15h43.2l19.2-19.7C-205 4.3-196.2.4-186.9.4c9.3 0 18.1 3.5 24.7 10.1 13.6 13.6 13.1 35.7-.5 49.3L-176 72.5v123.1c0 8.8-6.2 17-15 17h-83z"/>
		<path fill="#333" d="M-170.8 18.9c-8.9-8.9-23.5-8.9-32.4 0l-22.7 22.7H-274c-2.2 0-4 1.8-4 4v48.2l-15 15c-8.9 8.9-8.9 23.5 0 32.4 4 4 9.3 6.3 15 6.6v47.8c0 2.2 1.8 4 4 4h83c2.2 0 4-1.8 4-4V67.5l16.2-16.3c9-8.9 9-23.4 0-32.3zm-61.1 48.2c7.1 0 12.9 5.8 12.9 12.9 0 7.1-5.8 12.9-12.9 12.9s-12.9-5.8-12.9-12.9c0-7.1 5.8-12.9 12.9-12.9zm-44.9 74.5c-4.5 0-8.8-1.6-12-4.8-6.6-6.6-6.6-17.2 0-23.8l38.9-38.9c-.6 1.9-1 3.9-1 5.9 0 10.4 8.5 18.9 18.9 18.9 2 0 4-.3 5.9-.9l-22.1 22.1-16.7 16.7c-3.1 3.2-7.3 4.8-11.9 4.8zm51.1-31c.5 0 .7.6.7 1.1v6.4c4 .7 5.9 1.9 8.5 3.5l4.6-4.5c.3-.3.9-.4 1.2 0l8 8c.3.3.3.8 0 1.2l-4.5 4.3c1.6 2.6 2.8 6.1 3.5 8.1h6.4c.5 0 1.3 1 1.3 1.5v11.3c0 .5-.8 1.2-1.3 1.2h-6.4c-.7 3-1.9 5.7-3.5 8.3l4.5 4.5c.3.3.3.8 0 1.2l-8 8c-.3.3-.9.3-1.2 0l-4.5-4.5c-2.6 1.6-4.5 2.8-8.5 3.5v6.4c0 .5-.3 1.8-.7 1.8H-237c-.5 0-1-1.3-1-1.8v-6.4c-3-.7-5.8-1.9-8.4-3.5l-4.4 4.5c-.3.3-.9.3-1.3 0l-8-8c-.3-.3-.3-.9 0-1.2l4.5-4.3c-1.6-2.6-2.8-5.3-3.5-8.3h-6.4c-.5 0-.6-.7-.6-1.2v-4.9l35.9-35.9h4.5zM-175 47l-38.9 38.9c.6-1.8.9-3.8.9-5.9 0-10.4-8.5-18.9-18.9-18.9-2.1 0-4.1.4-6 1l38.9-39c3.3-3.3 7.6-4.9 12-4.9 4.3 0 8.6 1.7 11.9 4.9 6.7 6.6 6.7 17.3.1 23.9z"/>
		<circle fill="#333" cx="-231.1" cy="146" r="11.4"/>
	</g>
</svg>
