<svg xmlns="http://www.w3.org/2000/svg" viewBox="0 0 250 250">
	<g id="statistics-sum">
		<path fill="#333" d="M178.9 189.7c2.2 0 4-1.8 4-4v-26.3c0-2.2-1.8-4-4-4s-4 1.8-4 4v26.3c0 2.2 1.8 4 4 4z"/>
		<path fill="#FFF" d="M178.9 155.4c2.2 0 4 1.8 4 4v26.3c0 2.2-1.8 4-4 4s-4-1.8-4-4v-26.3c0-2.2 1.8-4 4-4m0-12c-8.8 0-16 7.2-16 16v26.3c0 8.8 7.2 16 16 16s16-7.2 16-16v-26.3c0-8.8-7.2-16-16-16z"/>
		<path fill="#333" d="M125 189.7c2.2 0 4-1.8 4-4V82c0-2.2-1.8-4-4-4s-4 1.8-4 4v103.7c0 2.2 1.8 4 4 4z"/>
		<path fill="#FFF" d="M125 78c2.2 0 4 1.8 4 4v103.7c0 2.2-1.8 4-4 4s-4-1.8-4-4V82c0-2.2 1.8-4 4-4m0-12c-8.8 0-16 7.2-16 16v103.7c0 8.8 7.2 16 16 16s16-7.2 16-16V82c0-8.8-7.2-16-16-16z"/>
		<path fill="#333" d="M152 189.7c2.2 0 4-1.8 4-4v-57.8c0-2.2-1.8-4-4-4s-4 1.8-4 4v57.8c0 2.2 1.7 4 4 4z"/>
		<path fill="#FFF" d="M152 123.9c2.2 0 4 1.8 4 4v57.8c0 2.2-1.8 4-4 4s-4-1.8-4-4v-57.8c0-2.2 1.7-4 4-4m0-12c-8.8 0-16 7.2-16 16v57.8c0 8.8 7.2 16 16 16s16-7.2 16-16v-57.8c0-8.8-7.2-16-16-16z"/>
		<path fill="#333" d="M205.9 189.7c2.2 0 4-1.8 4-4v-73.8c0-2.2-1.8-4-4-4s-4 1.8-4 4v73.8c0 2.2 1.8 4 4 4z"/>
		<path fill="#FFF" d="M205.9 107.9c2.2 0 4 1.8 4 4v73.8c0 2.2-1.8 4-4 4s-4-1.8-4-4v-73.8c0-2.2 1.8-4 4-4m0-12c-8.8 0-16 7.2-16 16v73.8c0 8.8 7.2 16 16 16s16-7.2 16-16v-73.8c0-8.8-7.2-16-16-16z"/>
		<path fill="#333" d="M71.1 189.7c2.2 0 4-1.8 4-4v-51.9c0-2.2-1.8-4-4-4s-4 1.8-4 4v51.9c0 2.2 1.8 4 4 4z"/>
		<path fill="#FFF" d="M71.1 129.9c2.2 0 4 1.8 4 4v51.9c0 2.2-1.8 4-4 4s-4-1.8-4-4v-51.9c0-2.2 1.8-4 4-4m0-12c-8.8 0-16 7.2-16 16v51.9c0 8.8 7.2 16 16 16s16-7.2 16-16v-51.9c0-8.9-7.2-16-16-16z"/>
		<path fill="#333" d="M98 189.7c2.2 0 4-1.8 4-4V64.3c0-2.2-1.8-4-4-4s-4 1.8-4 4v121.4c0 2.2 1.8 4 4 4z"/>
		<path fill="#FFF" d="M98 60.3c2.2 0 4 1.8 4 4v121.4c0 2.2-1.8 4-4 4s-4-1.8-4-4V64.3c0-2.2 1.8-4 4-4m0-12c-8.8 0-16 7.2-16 16v121.4c0 8.8 7.2 16 16 16s16-7.2 16-16V64.3c0-8.8-7.1-16-16-16z"/>
		<path fill="#333" d="M44.1 189.7c2.2 0 4-1.8 4-4v-86c0-2.2-1.8-4-4-4s-4 1.8-4 4v86c0 2.2 1.8 4 4 4z"/>
		<path fill="#FFF" d="M44.1 95.7c2.2 0 4 1.8 4 4v86c0 2.2-1.8 4-4 4s-4-1.8-4-4v-86c0-2.2 1.8-4 4-4m0-12c-8.8 0-16 7.2-16 16v86c0 8.8 7.2 16 16 16s16-7.2 16-16v-86c0-8.8-7.1-16-16-16z"/>
		<path fill="#333" d="M232.8 33.3H17.2c-2.2 0-4 1.8-4 4v175.4c0 2.2 1.8 4 4 4h215.6c2.2 0 4-1.8 4-4V37.3c0-2.2-1.8-4-4-4zm-4 175.4H21.2V41.3h207.6v167.4z"/>
		<path fill="#FFF" d="M232.8 33.3c2.2 0 4 1.8 4 4v175.4c0 2.2-1.8 4-4 4H17.2c-2.2 0-4-1.8-4-4V37.3c0-2.2 1.8-4 4-4h215.6M21.2 208.7h207.6V41.3H21.2v167.4M232.8 21.3H17.2c-8.8 0-16 7.2-16 16v175.4c0 8.8 7.2 16 16 16h215.6c8.8 0 16-7.2 16-16V37.3c0-8.8-7.2-16-16-16zm-199.6 32h183.6v143.4H33.2V53.3z"/>
	</g>
</svg>
