<svg xmlns="http://www.w3.org/2000/svg" viewBox="0 0 250 250">
	<g id="triangle-wave">
		<path fill="#fff" d="M125,27.5c-5.4,0-10.4,2.7-13.3,7.2L3.7,197.6c-2.4,3.6-3.2,7.8-2.3,12c0.9,4.2,3.3,7.8,6.8,10.2
			c2.6,1.7,5.7,2.7,8.8,2.7c5.4,0,10.4-2.7,13.3-7.2L125,72.5l94.6,142.8c3,4.5,8,7.2,13.3,7.2c3.1,0,6.2-0.9,8.8-2.7
			c3.6-2.4,6-6,6.8-10.2c0.9-4.2,0-8.5-2.3-12l-107.9-163C135.4,30.2,130.4,27.5,125,27.5L125,27.5z"/>
		<path fill="#333" d="M17.1,210.5c-0.8,0-1.5-0.2-2.2-0.7c-1.8-1.2-2.3-3.7-1.1-5.5l107.9-163c0.7-1.1,2-1.8,3.3-1.8l0,0
			c1.3,0,2.6,0.7,3.3,1.8l107.9,163c1.2,1.8,0.7,4.3-1.1,5.5c-1.8,1.2-4.3,0.7-5.5-1.1L125,50.8L20.4,208.7
			C19.6,209.8,18.4,210.5,17.1,210.5z"/>
	</g>
</svg>
