<svg xmlns="http://www.w3.org/2000/svg" viewBox="0 0 250 250">
	<g id="ramp-down-wave">
		<path fill="#FFF" d="M39.3 226.4c11 0 20-9 20-20V90.2l137.6 130.7c3.7 3.5 8.6 5.5 13.8 5.5 5.5 0 10.7-2.2 14.5-6.2 3.7-3.9 5.6-8.9 5.5-14.3-.1-5.3-2.3-10.3-6.2-14L174 144C123.8 96.3 54.1 30.1 53.1 29.1c-3.7-3.6-8.6-5.5-13.8-5.5-11 0-20 9-20 20v162.8c0 11 9 20 20 20z"/>
		<path fill="#333" d="M205.2 212.2c1.5 1.4 3.5 2.2 5.5 2.2 2.2 0 4.3-.9 5.8-2.5 1.5-1.5 2.3-3.6 2.2-5.7-.1-2.1-.9-4.1-2.5-5.6C214.5 199 46.4 39.3 44.9 37.8c-1.5-1.4-3.5-2.2-5.5-2.2-4.4 0-8 3.6-8 8v162.8c0 4.4 3.6 8 8 8s8-3.6 8-8V62.3l6.8 6.4 151 143.5z"/>
	</g>
</svg>
