<svg xmlns="http://www.w3.org/2000/svg" viewBox="0 0 250 250">
	<g id="ramp-down-wave">
		<path fill="#333" d="M232.9 210.4c-.8 0-1.7-.3-2.4-.8L21.1 51.6v154.6c0 2.2-1.8 4-4 4s-4-1.8-4-4V43.6c0-1.5.9-2.9 2.2-3.6 1.4-.7 3-.5 4.2.4l215.9 162.8c1.8 1.3 2.1 3.8.8 5.6-.9 1-2.1 1.6-3.3 1.6z"/>
		<path fill="#FFF" d="M17.1 39.6c.9 0 1.7.3 2.4.8l215.9 162.8c1.8 1.3 2.1 3.8.8 5.6-.8 1-2 1.6-3.2 1.6-.8 0-1.7-.3-2.4-.8L21.1 51.6v154.6c0 2.2-1.8 4-4 4s-4-1.8-4-4V43.6c0-1.5.9-2.9 2.2-3.6.6-.3 1.2-.4 1.8-.4m0-12c-2.5 0-4.9.6-7.1 1.7-5.5 2.7-8.9 8.2-8.9 14.3v162.6c0 8.8 7.2 16 16 16s16-7.2 16-16V75.7l190.2 143.5c2.8 2.1 6.2 3.2 9.6 3.2 5 0 9.8-2.4 12.8-6.4 2.6-3.4 3.7-7.6 3.1-11.9-.6-4.2-2.8-8-6.2-10.6L26.7 30.8c-2.7-2-6.2-3.2-9.6-3.2z"/>
	</g>
</svg>
