<svg xmlns="http://www.w3.org/2000/svg" viewBox="0 0 250 250">
	<g id="ramp-up-wave">
		<path fill="#333" d="M17.1 210.4c.8 0 1.7-.3 2.4-.8l209.4-158v154.6c0 2.2 1.8 4 4 4s4-1.8 4-4V43.6c0-1.5-.9-2.9-2.2-3.6-1.4-.7-3-.5-4.2.4L14.7 203.2c-1.8 1.3-2.1 3.8-.8 5.6.8 1 2 1.6 3.2 1.6z"/>
		<path fill="#fff" d="M232.9 39.6c.6 0 1.2.1 1.8.4 1.4.7 2.2 2.1 2.2 3.6v162.6c0 2.2-1.8 4-4 4s-4-1.8-4-4V51.6l-209.4 158c-.7.5-1.6.8-2.4.8-1.2 0-2.4-.5-3.2-1.6-1.3-1.8-1-4.3.8-5.6L230.5 40.4c.7-.5 1.6-.8 2.4-.8m0-12c-3.5 0-6.9 1.1-9.6 3.2L7.4 193.6c-3.4 2.6-5.6 6.3-6.2 10.6-.6 4.2.5 8.4 3.1 11.9 3 4 7.8 6.4 12.8 6.4 3.5 0 6.9-1.1 9.6-3.2L216.9 75.7v130.5c0 8.8 7.2 16 16 16s16-7.2 16-16V43.6c0-6.1-3.4-11.6-8.9-14.3-2.1-1.1-4.6-1.7-7.1-1.7z"/>
	</g>
</svg>
