<svg id="Layer_1" xmlns="http://www.w3.org/2000/svg" viewBox="0 0 290 50">
    <path fill="#fff" d="M186.3 28.4c0-.6.4-1.3 2.1-1.3 1.6 0 3 .5 4.1.9 1.6.6 2.7.4 3.4-1.1l.6-1.1c.7-1.4.5-2.7-.9-3.4-1.5-.7-3.7-1.5-6.8-1.5-5.5 0-9.9 2.6-9.9 7.5 0 8.4 11.2 7 11.2 9.8 0 .7-.6 1.3-2.2 1.3-1.9 0-3.4-.7-4.5-1.2l-.1-.1c-1.4-.8-3.1-1.7-5.2-1.7-2 0-3.7.8-5.2 1.5-1.2.6-2.6 1-4.2 1-2.5 0-5-1.3-5.6-4.3h12.5c1.6 0 2.7-1.4 2.7-2.6 0-6.4-3.9-11.4-11-11.4-6.5 0-10.9 4-12.1 9.4h-.5c-.7-5.4-4.5-9.4-10.9-9.4-4.9 0-8.6 2.2-10.6 5.7-2.4-3.5-6.6-5.7-11.5-5.7h-.8l-6.5-17.1c-.6-1.6-1.8-2-3.3-1.4l-2.8 1.1c-1.6.6-2 1.8-1.4 3.3l5.8 15.2c-.4-.4-1-.6-1.7-.6h-3.1c-1.6 0-2.5.7-2.8 2.3l-2.5 11.8c-.3 1.3-.3 2.5-.3 2.5h-.3s0-1.2-.4-2.5l-2.8-11.9c-.3-1.5-1.2-2.2-2.8-2.2h-2.3c-1.5 0-2.5.7-2.8 2.2l-2.8 11.9c-.3 1.3-.4 2.5-.4 2.5h-.1s0-1.2-.3-2.5L85 23.7c-.3-1.5-1.2-2.3-2.8-2.3H79c-1.8 0-2.6 1.1-2.2 2.9l5.3 18.8c.4 1.5 1.3 2.2 2.8 2.2h4.5c1.5 0 2.5-.7 2.8-2.2l2.1-8.8c.3-1.3.5-2.5.5-2.5h.2s.1 1.2.5 2.5l2.1 8.8c.4 1.5 1.3 2.2 2.8 2.2h4.4c1.5 0 2.4-.7 2.8-2.2l1.4-4.9c-.6-1.4-.9-3.1-.9-4.8 0-4.2 1.9-7.7 5-9.9 0 .3 0 .5-.1.8l-3.9 13.9c2 4.7 6.8 7.6 12.6 7.6 4.9 0 9.2-2.2 11.6-5.8 2.1 3.4 5.9 5.8 11.2 5.8 3.7 0 6.5-1.2 8.2-2.1 1.4-.8 1.6-2 .9-3.5L153 39c-.8-1.5-1.9-1.7-3.4-1-1.2.6-2.7 1.1-4.4 1.1-2.5 0-5-1.3-5.6-4.3H155c.7 5.8 5.2 10.9 13 10.9 3.6 0 6.3-1.1 8.1-2.1 0 0 2-1.1 4.1.1 1.7.9 4.2 1.9 7.5 1.9 6.1 0 9.8-3.4 9.8-7.8 0-8.1-11.2-6.7-11.2-9.4zm-19.2-1.6c2 0 3.3 1.6 3.3 3.6h-7.1c.4-2 1.5-3.6 3.8-3.6zm-45.5 12.4c-2.9 0-5.4-2.2-5.4-5.7 0-3.6 2.5-5.9 5.4-5.9 2.9 0 5.4 2.3 5.4 5.9.1 3.5-2.4 5.7-5.4 5.7zm21.5-8.9h-3.3c.4-1.9 1.5-3.6 3.8-3.6 2 0 3.3 1.6 3.3 3.6h-3.8zM202.7 35.4c-2.4 0-4.4 1.8-4.4 4.8 0 2.9 2 4.7 4.4 4.7 2.4 0 4.4-1.8 4.4-4.7 0-2.9-2-4.8-4.4-4.8zM9.1 21.4c0-1.3 1.1-2.3 3.6-2.3 2.2 0 3.7.8 5.2 1.5 1.3.6 2.5.9 3.5-.9l1.1-2.2c.7-1.3.6-2.5-.8-3.5-1.6-1.1-5.1-2.5-8.9-2.5C6.1 11.6 1 15.7 1 21.8c0 10.4 14.6 9.6 14.6 14.3 0 1.3-1.1 2.3-3.5 2.3-2.9 0-5-1.5-6-2-1.5-.8-2.6-.7-3.5.6l-1.5 2c-1.2 1.7-.5 2.7.5 3.5 1.8 1.4 5.9 3.3 10.5 3.3 7.5 0 11.6-4.8 11.6-10.3 0-10.5-14.6-9.3-14.6-14.1zM66.1 20.9c-3.4 0-6.2 1-8 1.9-1.4.7-1.7 2-1 3.4l.6 1.2c.7 1.5 1.9 1.8 3.4 1.1 1.2-.6 2.8-1.1 4.3-1.1 1.8 0 3.4.6 3.4 2.6v.4H68c-5.9 0-13.5 1.8-13.5 8.1 0 4.1 3.2 7.3 7.8 7.3 4.8 0 7-3.8 7-3.8h.1v.7c0 1.8.9 2.6 2.5 2.6h2.2c1.7 0 2.5-.9 2.5-2.5V30.6c.1-6.1-4-9.7-10.5-9.7zm2.7 14.8c0 1.9-1.8 4.2-4.1 4.2-1.5 0-2.3-.9-2.3-2 0-2.2 3.1-2.8 5.6-2.8h.7v.6z"/>
    <path fill="#fff" d="M55.9 26.3v-2.6c0-1.7-.6-2.5-2.2-2.5-3 0-5.6 3.3-6.3 5.7h-.1s.1-.7.1-1.5V24c0-1.7-.9-2.5-2.5-2.5h-2.6c-1.7 0-2.5.9-2.5 2.5v14.2h-3.6c-.2 0-.4-.1-.6-.1-1.4-.2-2.8-1-2.8-3v-7.2h2.5c1.6 0 2.5-.9 2.5-2.5v-1.2c0-1.7-.9-2.5-2.5-2.5h-2.5v-4.3c0-1.7-.9-2.5-2.5-2.5h-2.7c-1.7 0-2.5.9-2.5 2.5v4.3H24c-1.7 0-2.5.9-2.5 2.5v1.2c0 1.7.9 2.5 2.5 2.5h.7v8.7c0 7 6.4 8.7 10 8.7h10.5c1.7 0 2.5-.9 2.5-2.5V36c0-3.9 1.9-7.1 5.6-7.1 1.7 0 2.6-.9 2.6-2.6z"/>
    <path fill="#fff" d="M241.1 24.1c-2.3 0-3.8 2.3-3.8 6.2 0 4 1.5 6.4 3.8 6.4s3.8-2.3 3.8-6.4c-.1-3.9-1.6-6.2-3.8-6.2zM255.6 24.3h-1.5v12.3h1.5c3.4 0 5.2-2.1 5.2-6.2.1-4.1-1.7-6.1-5.2-6.1z"/>
    <path fill="#fff" d="M280.9 13.2h-62.7c-4.1 0-7.5 3.3-7.5 7.5v18.9c0 4.1 3.3 7.5 7.5 7.5h62.7c4.1 0 7.5-3.3 7.5-7.5V20.7c-.1-4.2-3.4-7.5-7.5-7.5zm-54.5 25.7c-4.1 0-7.3-3.1-7.3-8.5 0-5.3 3.2-8.5 7.5-8.5 2 0 3.6 1 4.6 2l-1.4 1.6c-.8-.9-1.9-1.4-3.2-1.4-2.9 0-4.9 2.4-4.9 6.2 0 3.9 2 6.3 4.9 6.3 1.4 0 2.5-.6 3.5-1.7l1.4 1.5c-1.3 1.7-3 2.5-5.1 2.5zm14.7 0c-3.7 0-6.4-3.1-6.4-8.6 0-5.3 2.6-8.4 6.4-8.4s6.4 3.1 6.4 8.4c-.1 5.5-2.7 8.6-6.4 8.6zm14.8-.3h-4.3V22.2h4.2c4.9 0 7.7 2.8 7.7 8.1 0 5.4-2.8 8.3-7.6 8.3zm22.9 0h-10.6V22.2h10.3v2.1h-7.8V29h6.6v2.1h-6.6v5.4h8.1v2.1z"/>
</svg>
