<svg id="Layer_1" xmlns="http://www.w3.org/2000/svg" viewBox="0 0 310.6 56.9">
    <path fill="#fff" d="M208.8 35c-.9 0-1.8.1-2.6.4-.1-.2-.3-.3-.4-.5.3-.4.5-.8.7-1.2l.6-1.1c.9-1.8 1.1-3.6.7-5.3-.5-2.1-1.9-3.8-4-4.8-2.9-1.4-5.8-2-8.9-2-4.4 0-8.2 1.3-10.9 3.7-2.8-2.4-6.5-3.7-10.6-3.7-4.7 0-8.9 1.6-12 4.5-2.9-2.9-6.9-4.5-11.5-4.5-4.1 0-7.8 1.2-10.8 3.5-2.5-1.8-5.5-2.9-8.7-3.3L125 6.6c-1.2-3-3.7-4.9-6.8-4.9-1 0-2 .2-3 .6l-2.8 1.1c-4.1 1.6-5.9 5.7-4.3 9.8l3.1 8.2c-1.3.4-2.4 1.1-3.3 2.1-1.4-1.6-3.5-2.4-5.8-2.4h-2.3c-2.3 0-4.4.9-5.8 2.4-1.4-1.6-3.4-2.4-5.8-2.4h-3.1c-1.7 0-3.3.5-4.6 1.4-2.4-1.3-5.3-2-8.4-2-2.7 0-5.5.5-8.2 1.5-1.2-.8-2.6-1.2-4.2-1.2-1.5 0-3.2.5-4.8 1.3-1.2-.7-2.6-1.1-4.1-1.1h-2.6c-1.3 0-2.6.3-3.7.9l-.9-.3c-.3-4-3.7-7.2-7.8-7.2h-2.4c-.9 0-1.8.1-2.6.4-.1 0-.1-.1-.2-.1-2.4-1.7-7-3.4-11.9-3.4-9.7 0-16.8 6.4-16.8 15.1 0 4.1 1.5 7.5 4.5 10.2-.8.5-1.5 1.2-2.1 2.1l-1.4 2.1C.4 44.3 1 48.3 4.3 51.1c2.8 2.2 8.1 4.4 13.6 4.4 4.8 0 8.9-1.5 11.9-4.3 2.7 2.3 6.4 3.7 10.4 3.7H50.9c3.2 0 5.7-1.6 6.9-4.3 2.3 3.1 6.1 4.8 10.3 4.8 2.1 0 4.1-.5 5.9-1.4 1.1.6 2.3.8 3.7.8h2.2c2.1 0 4-.7 5.4-2.1 1.4 1.3 3.3 2.1 5.4 2.1h4.5c2.1 0 4.1-.7 5.5-2.1 1.4 1.3 3.3 2.1 5.5 2.1h4.4c2.4 0 4.5-.9 5.9-2.6 3.1 2 6.8 3.1 10.9 3.1 4.2 0 8.3-1.3 11.5-3.6 3.1 2.3 7 3.6 11.3 3.6 4.8 0 8.4-1.5 10.7-2.8.5-.3 1-.6 1.4-1 3.2 2.5 7.1 3.8 11.5 3.8s7.8-1.3 10-2.4c3 1.6 6.3 2.4 9.7 2.4 3.7 0 6.9-.9 9.5-2.7 1.6 1.2 3.5 1.8 5.5 1.8 5.4 0 9.4-4.2 9.4-9.7.4-5.4-3.7-9.7-9.1-9.7z"/>
    <path fill="#00adee" d="M192.4 33c0-.6.4-1.3 2.1-1.3 1.6 0 3 .5 4.1.9 1.6.6 2.7.4 3.4-1.1l.6-1.1c.7-1.4.5-2.7-.9-3.4-1.5-.7-3.7-1.5-6.8-1.5-5.5 0-9.9 2.6-9.9 7.5 0 8.4 11.2 7 11.2 9.8 0 .7-.6 1.3-2.2 1.3-1.9 0-3.4-.7-4.5-1.2l-.1-.1c-1.4-.8-3.1-1.7-5.2-1.7-2 0-3.7.8-5.2 1.5-1.2.6-2.6 1-4.2 1-2.5 0-5-1.3-5.6-4.3h12.5c1.6 0 2.7-1.4 2.7-2.6 0-6.4-3.9-11.4-11-11.4-6.5 0-10.9 4-12.1 9.4h-.5c-.7-5.4-4.5-9.4-10.9-9.4-4.9 0-8.6 2.2-10.6 5.7-2.4-3.5-6.6-5.7-11.5-5.7h-.8l-6.5-17.1c-.6-1.6-1.8-2-3.3-1.4l-2.8 1.1c-1.6.6-2 1.8-1.4 3.3l5.8 15.2c-.4-.4-1-.6-1.7-.6H114c-1.6 0-2.5.7-2.8 2.3l-2.5 11.8c-.3 1.3-.3 2.5-.3 2.5h-.1s0-1.2-.4-2.5L105 28.3c-.3-1.5-1.2-2.2-2.8-2.2h-2.3c-1.5 0-2.5.7-2.8 2.2l-2.8 11.9c-.3 1.2-.3 2.5-.3 2.5h-.1s0-1.2-.3-2.5l-2.5-11.8c-.3-1.5-1.2-2.3-2.8-2.3h-3.1c-1.8 0-2.6 1.1-2.2 2.9l5.3 18.8c.4 1.5 1.3 2.2 2.8 2.2h4.5c1.5 0 2.5-.7 2.8-2.2l2.1-8.8c.3-1.3.5-2.5.5-2.5h.1s.1 1.2.5 2.5l2.1 8.8c.4 1.5 1.3 2.2 2.8 2.2h4.4c1.5 0 2.4-.7 2.8-2.2l1.4-4.9c-.6-1.4-.9-3.1-.9-4.8 0-4.2 1.9-7.7 5-9.9 0 .3 0 .5-.1.8l-3.9 13.9c2 4.7 6.8 7.6 12.6 7.6 4.9 0 9.2-2.2 11.6-5.8 2.1 3.4 5.9 5.8 11.2 5.8 3.7 0 6.5-1.2 8.2-2.1 1.4-.8 1.6-2 .9-3.5l-.6-1.2c-.8-1.5-1.9-1.7-3.4-1-1.2.6-2.7 1.1-4.4 1.1-2.5 0-5-1.3-5.6-4.3h15.4c.7 5.8 5.2 10.9 13 10.9 3.6 0 6.3-1.1 8.1-2.1 0 0 2-1.1 4.1.1 1.7.9 4.2 1.9 7.5 1.9 6.1 0 9.8-3.4 9.8-7.8 0-8.1-11.2-6.7-11.2-9.5zm-19.2-1.6c2 0 3.3 1.6 3.3 3.6h-7.1c.4-1.9 1.5-3.6 3.8-3.6zm-45.4 12.4c-2.9 0-5.4-2.2-5.4-5.7 0-3.6 2.5-5.9 5.4-5.9 2.9 0 5.4 2.3 5.4 5.9 0 3.5-2.5 5.7-5.4 5.7zm21.4-8.8h-3.3c.4-1.9 1.5-3.6 3.8-3.6 2 0 3.3 1.6 3.3 3.6h-3.8zM208.8 40c-2.4 0-4.4 1.8-4.4 4.8 0 2.9 2 4.7 4.4 4.7s4.4-1.8 4.4-4.7c.1-2.9-2-4.8-4.4-4.8zM15.2 26c0-1.3 1.1-2.3 3.6-2.3 2.2 0 3.7.8 5.2 1.5 1.3.6 2.5.9 3.5-.9l1.1-2.2c.7-1.3.6-2.5-.8-3.5-1.6-1.1-5.1-2.5-8.9-2.5-6.7 0-11.8 4-11.8 10.1 0 10.4 14.6 9.6 14.6 14.3 0 1.3-1.1 2.3-3.5 2.3-2.9 0-5-1.5-6-2-1.5-.8-2.6-.7-3.5.6l-1.4 2.1c-1.2 1.7-.5 2.7.5 3.5 1.8 1.4 5.9 3.3 10.5 3.3 7.5 0 11.6-4.8 11.6-10.3 0-10.3-14.7-9.2-14.7-14zM72.2 25.5c-3.4 0-6.2 1-8 1.9-1.4.7-1.7 2-1 3.4l.6 1.2c.7 1.5 1.9 1.8 3.4 1.1 1.2-.6 2.8-1.1 4.3-1.1 1.8 0 3.4.6 3.4 2.6v.4h-.7c-5.9 0-13.5 1.8-13.5 8.1 0 4.1 3.2 7.3 7.8 7.3 4.8 0 7-3.8 7-3.8h.1v.7c0 1.8.9 2.6 2.5 2.6h2.2c1.7 0 2.5-.9 2.5-2.5V35.2c0-6-4-9.7-10.6-9.7zm2.7 14.8c0 1.9-1.8 4.2-4.1 4.2-1.5 0-2.3-.9-2.3-2 0-2.2 3.1-2.8 5.6-2.8h.7v.6z"/>
    <path fill="#00adee" d="M62 31v-2.6c0-1.7-.6-2.5-2.2-2.5-3 0-5.6 3.3-6.3 5.7h-.1s.1-.7.1-1.5v-1.5c0-1.7-.9-2.5-2.5-2.5h-2.6c-1.7 0-2.5.9-2.5 2.5v14.2h-3.6c-.2 0-.4-.1-.6-.1-1.4-.2-2.8-1-2.8-3v-7.2h2.5c1.6 0 2.5-.9 2.5-2.5v-1.2c0-1.7-.9-2.5-2.5-2.5h-2.5V22c0-1.7-.9-2.5-2.5-2.5h-2.7c-1.7 0-2.5.9-2.5 2.5v4.3h-.9c-1.7 0-2.5.9-2.5 2.5V30c0 1.7.9 2.5 2.5 2.5h.7v8.7c0 7 6.4 8.7 10 8.7h10.5c1.7 0 2.5-.9 2.5-2.5v-6.7c0-3.9 1.9-7.1 5.6-7.1 1.5-.1 2.4-.9 2.4-2.6z"/>
	<path fill="#fff" d="M302.1 55.6H231c-3.9 0-7.1-3.2-7.1-7.1v-23c0-3.9 3.2-7.1 7.1-7.1h71.2c3.9 0 7.1 3.2 7.1 7.1v23c-.1 3.9-3.2 7.1-7.2 7.1z"/>
    <path fill="#00adee" d="M233 37.4c0-5.9 3.6-9.4 8.3-9.4 2.2 0 4 1.1 5.2 2.2l-1.8 2c-.9-.9-2-1.5-3.4-1.5-3 0-5 2.5-5 6.5 0 4.1 2.1 6.6 5.1 6.6 1.5 0 2.6-.7 3.6-1.8l1.8 1.9c-1.4 1.7-3.3 2.6-5.7 2.6-4.5.2-8.1-3.2-8.1-9.1zM250.2 37.2c0-5.9 2.9-9.2 7.1-9.2s7.1 3.3 7.1 9.2c0 6-2.9 9.4-7.1 9.4s-7.1-3.3-7.1-9.4zm10.8 0c0-4.1-1.5-6.5-3.8-6.5s-3.8 2.3-3.8 6.5 1.5 6.6 3.8 6.6 3.8-2.3 3.8-6.6zM268.8 28.3h4.7c5.3 0 8.5 3 8.5 8.9 0 6-3.2 9.1-8.3 9.1h-4.9v-18zm4.5 15.4c3.4 0 5.4-2.1 5.4-6.5s-2-6.3-5.4-6.3H272v12.8h1.3zM287 28.3h11.5V31h-8.3v4.6h7.1v2.7h-7.1v5.3h8.6v2.7H287v-18z"/>
</svg>
