<svg id="Layer_1" xmlns="http://www.w3.org/2000/svg" viewBox="0 0 178 105">
    <path fill="#fff" d="M169.1 101.9H9.2c-3.9 0-7.1-3.2-7.1-7.1V8.7c0-3.9 3.2-7.1 7.1-7.1h159.9c3.9 0 7.1 3.2 7.1 7.1v86.1c0 3.9-3.2 7.1-7.1 7.1z"/>
    <path fill="#00adee" d="M142.4 27.8c0-.4.3-.8 1.4-.8 1 0 1.9.3 2.6.6 1 .4 1.7.2 2.2-.7l.4-.7c.4-.9.3-1.8-.6-2.2-1-.4-2.4-1-4.3-1-3.5 0-6.4 1.7-6.4 4.9 0 5.4 7.2 4.5 7.2 6.3 0 .5-.4.9-1.4.9-1.2 0-2.2-.5-2.9-.8h-.1c-.9-.5-2-1.1-3.3-1.1-1.3 0-2.4.5-3.3 1-.8.4-1.7.7-2.7.7-1.6 0-3.2-.9-3.6-2.7h8.1c1 0 1.7-.9 1.7-1.7 0-4.1-2.5-7.3-7.1-7.3-4.2 0-7 2.5-7.8 6.1h-.3c-.5-3.5-2.9-6.1-7-6.1-3.2 0-5.5 1.4-6.8 3.6-1.5-2.3-4.3-3.6-7.4-3.6h-.5l-4.2-11c-.4-1-1.1-1.3-2.1-.9l-1.8.7c-1 .4-1.3 1.1-.9 2.1l3.7 9.8c-.3-.2-.6-.4-1.1-.4h-2c-1 0-1.6.5-1.8 1.5l-1.6 7.6c-.2.8-.2 1.6-.2 1.6h-.1s0-.8-.2-1.6L86.4 25c-.2-1-.8-1.4-1.8-1.4h-1.5c-1 0-1.6.5-1.8 1.4l-1.8 7.6c-.2.8-.3 1.6-.3 1.6H79s0-.8-.2-1.6L77.2 25c-.2-1-.8-1.5-1.8-1.5h-2c-1.2 0-1.7.7-1.4 1.8l3.4 12.1c.3 1 .9 1.4 1.8 1.4h2.9c1 0 1.6-.5 1.8-1.4l1.4-5.7c.2-.8.3-1.6.3-1.6h.1s.1.8.3 1.6l1.4 5.7c.2 1 .8 1.4 1.8 1.4h2.9c1 0 1.5-.4 1.8-1.4l.9-3.1c-.4-.9-.6-2-.6-3.1 0-2.7 1.2-5 3.2-6.4 0 .2 0 .3-.1.5l-2.5 8.9c1.3 3 4.4 4.9 8.1 4.9 3.2 0 5.9-1.4 7.4-3.7 1.3 2.2 3.8 3.7 7.2 3.7 2.4 0 4.2-.7 5.3-1.4.9-.5 1-1.3.6-2.2l-.4-.8c-.5-1-1.2-1.1-2.2-.6-.8.4-1.8.7-2.8.7-1.6 0-3.2-.9-3.6-2.7h9.9c.4 3.7 3.3 7 8.4 7 2.3 0 4.1-.7 5.2-1.3 0 0 1.3-.7 2.7.1 1.1.6 2.7 1.2 4.8 1.2 3.9 0 6.3-2.2 6.3-5-.1-5.4-7.3-4.6-7.3-6.3zm-12.3-1.1c1.3 0 2.1 1 2.1 2.3h-4.6c.3-1.2 1-2.3 2.5-2.3zm-29.2 8c-1.9 0-3.5-1.4-3.5-3.7 0-2.3 1.6-3.8 3.5-3.8s3.5 1.5 3.5 3.8c-.1 2.3-1.7 3.7-3.5 3.7zm13.7-5.7h-2.1c.3-1.2 1-2.3 2.5-2.3 1.3 0 2.1 1 2.1 2.3h-2.5zM153 32.3c-1.5 0-2.8 1.2-2.8 3.1 0 1.9 1.3 3 2.8 3s2.8-1.1 2.8-3-1.3-3.1-2.8-3.1zM28.5 23.3c0-.8.7-1.5 2.3-1.5 1.4 0 2.4.5 3.4 1 .8.4 1.6.6 2.2-.6l.7-1.4c.4-.9.4-1.6-.5-2.2-1-.7-3.3-1.6-5.7-1.6-4.3 0-7.6 2.6-7.6 6.5 0 6.7 9.4 6.2 9.4 9.2 0 .8-.7 1.5-2.3 1.5-1.8 0-3.2-1-3.9-1.3-1-.5-1.7-.5-2.3.4l-.9 1.3c-.8 1.1-.3 1.8.3 2.3 1.1.9 3.8 2.1 6.8 2.1 4.8 0 7.5-3.1 7.5-6.6 0-6.8-9.4-6-9.4-9.1zM65.1 23c-2.2 0-4 .7-5.2 1.2-.9.5-1.1 1.3-.7 2.2l.4.7c.5 1 1.2 1.1 2.2.7.8-.4 1.8-.7 2.8-.7 1.1 0 2.2.4 2.2 1.7v.3h-.4c-3.8 0-8.7 1.1-8.7 5.2 0 2.6 2.1 4.7 5 4.7 3.1 0 4.5-2.4 4.5-2.4h.1v.4c0 1.1.6 1.7 1.6 1.7h1.4c1.1 0 1.6-.6 1.6-1.6v-7.8c.1-4-2.6-6.3-6.8-6.3zm1.8 9.5c0 1.3-1.1 2.7-2.6 2.7-1 0-1.5-.6-1.5-1.3 0-1.4 2-1.8 3.6-1.8h.5v.4z"/>
    <path fill="#00adee" d="M58.6 26.5v-1.7c0-1.1-.4-1.6-1.4-1.6-1.9 0-3.6 2.1-4.1 3.7H53s.1-.4.1-1v-1c0-1.1-.6-1.6-1.6-1.6h-1.7c-1.1 0-1.6.6-1.6 1.6V34h-2.3c-.1 0-.2 0-.4-.1-.9-.1-1.8-.6-1.8-1.9v-4.6h1.6c1 0 1.6-.6 1.6-1.6v-.7c0-1.1-.6-1.6-1.6-1.6h-1.6v-2.8c0-1.1-.6-1.6-1.6-1.6h-1.7c-1.1 0-1.6.6-1.6 1.6v2.8h-.6c-1.1 0-1.6.6-1.6 1.6v.7c0 1.1.6 1.6 1.6 1.6h.4V33c0 4.5 4.1 5.6 6.4 5.6H51.7c1.1 0 1.6-.6 1.6-1.6v-4.3c0-2.5 1.2-4.6 3.6-4.6 1.1 0 1.7-.5 1.7-1.6z"/>
    <path fill="#00adee" d="M20.8 70.9c0-12 7.3-19.1 17-19.1 4.5 0 8.2 2.2 10.5 4.6l-3.6 4.1c-1.8-1.8-4-3-6.9-3-6.1 0-10.3 5-10.3 13.2 0 8.4 4.2 13.4 10.4 13.4 3 0 5.4-1.4 7.4-3.6l3.6 4c-2.9 3.4-6.8 5.3-11.7 5.3-9 0-16.4-6.7-16.4-18.9zM55.7 70.6c0-12.1 5.9-18.8 14.4-18.8s14.4 6.8 14.4 18.8c0 12.3-5.9 19.2-14.4 19.2s-14.4-6.9-14.4-19.2zm22.2 0c0-8.4-3-13.2-7.7-13.2s-7.7 4.8-7.7 13.2c0 8.6 3 13.5 7.7 13.5 4.6 0 7.7-4.8 7.7-13.5zM93.6 52.4h9.6c10.8 0 17.3 6 17.3 18.2s-6.5 18.5-17 18.5h-9.9V52.4zm9.2 31.4c7 0 11-4.2 11-13.2s-4-12.9-11-12.9h-2.7v26.1h2.7zM130.9 52.4h23.5v5.5h-17v9.4h14.4v5.5h-14.4v10.8H155v5.5h-24.1V52.4z"/>
</svg>
