<svg id="Layer_1" xmlns="http://www.w3.org/2000/svg" viewBox="0 0 150 105">
    <path fill="#fff" d="M132.8 20c0-.5.3-.9 1.5-.9 1.1 0 2.1.4 2.9.7 1.1.4 1.9.3 2.4-.8l.4-.8c.5-1 .4-1.9-.7-2.4-1-.5-2.6-1.1-4.8-1.1-3.9 0-7 1.9-7 5.3 0 5.9 7.9 5 7.9 6.9 0 .5-.4.9-1.5.9-1.3 0-2.4-.5-3.2-.9h-.1c-1-.6-2.2-1.2-3.6-1.2s-2.6.6-3.7 1.1c-.8.4-1.9.7-2.9.7-1.8 0-3.5-.9-3.9-3h8.8c1.1 0 1.9-1 1.9-1.9 0-4.5-2.8-8-7.8-8-4.6 0-7.7 2.8-8.5 6.6h-.4c-.5-3.8-3.2-6.6-7.7-6.6-3.5 0-6 1.6-7.5 4-1.7-2.5-4.7-4-8.1-4h-.6L82 2.6c-.4-1.1-1.2-1.4-2.3-1l-2 .8c-1.1.4-1.4 1.2-1 2.3l4.1 10.7c-.3-.3-.7-.4-1.2-.4h-2.2c-1.1 0-1.7.5-2 1.6L73.7 25c-.2.9-.2 1.8-.2 1.8h-.1s0-.8-.3-1.8l-2-8.3c-.2-1-.9-1.6-2-1.6h-1.6c-1.1 0-1.7.5-2 1.6l-2 8.3c-.2.9-.3 1.8-.3 1.8h-.1s0-.8-.2-1.8l-1.8-8.3c-.2-1.1-.8-1.6-2-1.6h-2.2c-1.3 0-1.9.8-1.5 2l3.7 13.2c.3 1 .9 1.5 2 1.5h3.2c1.1 0 1.7-.5 2-1.6l1.5-6.2c.2-.9.3-1.8.3-1.8h.1s.1.9.3 1.8l1.5 6.2c.3 1 .9 1.6 2 1.6h3.1c1 0 1.7-.5 2-1.5l1-3.4c-.4-1-.7-2.1-.7-3.4 0-3 1.4-5.4 3.5-7 0 .2 0 .4-.1.6l-2.7 9.8c1.4 3.3 4.8 5.4 8.9 5.4 3.5 0 6.5-1.5 8.2-4.1 1.5 2.4 4.1 4.1 7.9 4.1 2.6 0 4.6-.8 5.8-1.5 1-.6 1.1-1.4.6-2.4l-.5-.8c-.6-1-1.3-1.2-2.4-.7-.8.4-1.9.8-3.1.8-1.8 0-3.5-.9-3.9-3h10.9c.5 4 3.7 7.7 9.2 7.7 2.5 0 4.5-.8 5.7-1.4 0 0 1.4-.8 2.9.1 1.2.6 3 1.4 5.3 1.4 4.3 0 6.9-2.4 6.9-5.5.1-6.1-7.7-5.1-7.7-7zm-13.6-1.1c1.4 0 2.3 1.1 2.3 2.5h-5c.3-1.4 1.1-2.5 2.7-2.5zm-32 8.7c-2.1 0-3.8-1.5-3.8-4s1.8-4.1 3.8-4.1c2.1 0 3.8 1.6 3.8 4.1.1 2.5-1.7 4-3.8 4zm15.1-6.2H100c.3-1.3 1.1-2.5 2.7-2.5 1.4 0 2.3 1.1 2.3 2.5h-2.7zM144.3 24.9c-1.7 0-3.1 1.3-3.1 3.4 0 2 1.4 3.3 3.1 3.3 1.7 0 3.1-1.3 3.1-3.3 0-2.1-1.4-3.4-3.1-3.4zM8 15.1c0-.9.7-1.6 2.5-1.6 1.5 0 2.6.6 3.7 1.1.9.5 1.8.7 2.4-.6l.8-1.5c.5-.9.4-1.8-.6-2.4-1.1-.8-3.6-1.7-6.3-1.7-4.7 0-8.3 2.8-8.3 7.1 0 7.3 10.3 6.8 10.3 10.1 0 .9-.8 1.6-2.5 1.6-2 0-3.5-1-4.2-1.4-1-.8-1.7-.7-2.4.2l-1 1.5c-.8 1.2-.4 1.9.3 2.5 1.2 1 4.1 2.3 7.4 2.3 5.2 0 8.2-3.4 8.2-7.3 0-7.3-10.3-6.5-10.3-9.9zM48.1 14.7c-2.4 0-4.4.7-5.6 1.3-1 .5-1.2 1.4-.7 2.4l.4.8c.5 1 1.3 1.2 2.4.8.8-.4 2-.7 3-.7 1.2 0 2.4.5 2.4 1.9v.3h-.5c-4.1 0-9.5 1.2-9.5 5.7 0 2.9 2.2 5.1 5.5 5.1 3.4 0 5-2.7 5-2.7h.1v.4c0 1.2.6 1.8 1.8 1.8H54c1.2 0 1.8-.6 1.8-1.8v-8.5c-.2-4.2-3.1-6.8-7.7-6.8zM50 25.1c0 1.4-1.2 3-2.9 3-1 0-1.6-.7-1.6-1.4 0-1.5 2.2-2 3.9-2h.6v.4z"/>
    <path fill="#fff" d="M40.9 18.6v-1.8c0-1.2-.4-1.8-1.5-1.8-2.1 0-3.9 2.3-4.5 4h-.1s.1-.5.1-1v-1c0-1.2-.6-1.8-1.8-1.8h-1.8c-1.2 0-1.8.6-1.8 1.8v10H27c-.1 0-.3 0-.4-.1-1-.1-2-.7-2-2.1v-5.1h1.8c1.1 0 1.8-.6 1.8-1.8V17c0-1.2-.6-1.8-1.8-1.8h-1.7v-3c0-1.2-.6-1.8-1.8-1.8H21c-1.2 0-1.8.6-1.8 1.8v3h-.6c-1.2 0-1.8.6-1.8 1.8v.8c0 1.2.6 1.8 1.8 1.8h.4v6.1c0 4.9 4.5 6.1 7 6.1h7.4c1.2 0 1.8-.6 1.8-1.8v-4.7c0-2.7 1.3-5 4-5 1.1.1 1.7-.6 1.7-1.7z"/>
    <path fill="#fff" d="M58.8 61.3c-4.3 0-7.1 4.3-7.1 11.7 0 7.5 2.8 11.9 7.1 11.9s7.1-4.4 7.1-11.9-2.8-11.7-7.1-11.7zM86.2 61.5h-2.8v23h2.8c6.4 0 9.8-4 9.8-11.7 0-7.5-3.4-11.3-9.8-11.3z"/>
    <path fill="#fff" d="M133.5 40.8H15.9c-7.7 0-14 6.3-14 14v35.5c0 7.7 6.3 14 14 14h117.5c7.7 0 14-6.3 14-14V54.7c0-7.7-6.2-13.9-13.9-13.9zM31.3 89c-7.6 0-13.6-5.8-13.6-15.9 0-10 5.9-16 14-16 3.7 0 6.7 1.8 8.6 3.8l-2.7 2.9c-1.6-1.6-3.5-2.6-6-2.6-5.5 0-9.1 4.5-9.1 11.7 0 7.4 3.7 11.9 9.2 11.9 2.7 0 4.7-1.2 6.5-3.2l2.7 2.9c-2.4 2.9-5.5 4.5-9.6 4.5zm27.5 0c-7 0-11.9-5.9-11.9-16.1 0-10 4.9-15.8 11.9-15.8s11.9 5.8 11.9 15.8C70.8 83.1 65.9 89 58.8 89zm27.9-.6h-8.1V57.7h7.8c9.1 0 14.4 5.3 14.4 15.2 0 10-5.2 15.5-14.1 15.5zm43 0h-19.8V57.7h19.4v4h-14.6v8.7H127v4h-12.4v10.1h15.1v3.9z"/>
</svg>
