<svg xmlns="http://www.w3.org/2000/svg" viewBox="0 0 2372 1324">
    <g id="qb">
        <g id="cord">
            <path fill="#afaeae" d="M1072.3 822.3l-109.1-63 200.7-115.9 109 62.9z"/>
            <path fill="#656769" d="M1272.8 746.4l-200.7 115.8v-39.9l200.7-115.9z"/>
            <path fill="#c7c8c9" d="M975 903.7l-170.5-98.4L1086 643l170.4 98.4z"/>
            <path fill="#dededf" d="M974.8 993.3L804.5 895v-89.7l170.3 98.3z"/>
            <path fill="#b2b4b6" d="M1256.3 831.4L974.8 993.6v-89.9l281.5-162.2z"/>
            <path fill="#c7c8c9" d="M875.3 953.8l-114.8-66.1 75.8-43.9 114.9 66.1z"/>
            <path fill="#dededf" d="M875.4 1004l-114.7-66.1-.2-50.3 114.7 66.1z"/>
            <path fill="#b2b4b6" d="M951.2 960.4l-75.8 43.8-.2-50.4 75.9-43.8z"/>
            <path fill="#c7c8c9" d="M56.1 1324.7l722.2-413.9 84.6 48.7-637.1 365.2z"/>
            <path fill="#b2b4b6" d="M863 980.9l-599.9 343.8h-37.3l637.1-365.1z"/>
        </g>
        <path id="line-cord"
            d="M51.1 1378.8l721-417.5c29.7-17.2 56.7-38.7 80.1-63.8 24.9-26.7 53.8-49.3 85.7-67l372.4-206.6"
            fill="none"
            stroke="#fff"
            stroke-width="45"
            stroke-linecap="round"
            stroke-linejoin="round"
            stroke-miterlimit="10"
            stroke-dasharray="100,200"
        />
        <g id="quirkbot">
            <path fill="none" d="M2087.8 234.5c1.4-.8 2.5-1.7 3.7-2.6-1.2-.9-2.4-1.9-3.9-2.7-18.3-10.6-47.9-10.6-66.1-.1-1.4.8-2.5 1.7-3.7 2.6 1.2.9 2.4 1.9 3.9 2.7 18.3 10.6 47.9 10.6 66.1.1zM1147 147.7c-1.4.8-2.5 1.7-3.7 2.6 1.2.9 2.4 1.9 3.9 2.7 18.3 10.6 47.9 10.6 66.1.1 1.4-.8 2.5-1.7 3.7-2.6-1.2-.9-2.4-1.9-3.9-2.7-18.3-10.5-47.9-10.6-66.1-.1zm-.3 505.6v-.3l-17.2-10-1.9-.7-2.3-.8-2.6-.4-2.6-.2-2.7.2-2.5.4-2.4.8-2.5 1.2-9.6 5.6-2 .8-.2.1 27.1 15.7zm-127.2-75.4c-1.4.8-2.5 1.7-3.7 2.6 1.2.9 2.4 1.9 3.9 2.7 18.3 10.6 47.9 10.6 66.1.1 1.4-.8 2.5-1.7 3.7-2.6-1.2-.9-2.4-1.9-3.9-2.7-18.3-10.6-47.9-10.7-66.1-.1zM748 602.2c-1.4.8-2.5 1.7-3.7 2.6 1.2.9 2.4 1.9 3.9 2.7 18.3 10.6 47.9 10.6 66.1.1 1.4-.8 2.5-1.7 3.7-2.6-1.2-.9-2.4-1.9-3.9-2.7-18.3-10.5-47.9-10.6-66.1-.1zm226.8 301.5h.1l-.1-.1zm-323.6 177.2l179.3-102.8zm224-127.1h.1l-.1-.1zm397.4-664.4c-1.4.8-2.5 1.7-3.7 2.6 1.2.9 2.4 1.9 3.9 2.8 18.3 10.6 47.9 10.6 66.1.1 1.4-.8 2.5-1.7 3.7-2.6-1.2-.9-2.4-1.9-3.9-2.7-18.3-10.6-47.9-10.7-66.1-.2zm665.8 233.5c-1.2-.9-2.4-1.9-3.9-2.7-18.3-10.6-47.9-10.6-66.1-.1-1.4.8-2.5 1.7-3.7 2.6 1.2.9 2.4 1.9 3.9 2.7 18.3 10.6 47.9 10.6 66.1.1 1.4-.8 2.5-1.7 3.7-2.6zm224.2 211c-1.4.8-2.5 1.7-3.7 2.6 1.2.9 2.4 1.9 3.9 2.7 18.3 10.6 47.9 10.6 66.1.1 1.4-.8 2.5-1.7 3.7-2.6-1.2-.9-2.4-1.9-3.9-2.7-18.3-10.5-47.9-10.6-66.1-.1zm-245.4-72.5c-1.4.8-2.5 1.7-3.7 2.6 1.2.9 2.4 1.9 3.9 2.8 18.3 10.6 47.9 10.6 66.1.1 1.4-.8 2.5-1.7 3.7-2.6-1.2-.9-2.4-1.9-3.9-2.7-18.3-10.6-47.9-10.7-66.1-.2zm-541.4 303c-1.4.8-2.5 1.7-3.7 2.6 1.2.9 2.4 1.9 3.9 2.7 18.3 10.6 47.9 10.6 66.1.1 1.4-.8 2.5-1.7 3.7-2.6-1.2-.9-2.4-1.9-3.9-2.7-18.3-10.6-47.9-10.6-66.1-.1zm141.4-647.1c-1.4.8-2.5 1.7-3.7 2.6 1.2.9 2.4 1.9 3.9 2.7 18.3 10.6 47.9 10.6 66.1.1 1.4-.8 2.5-1.7 3.7-2.6-1.2-.9-2.4-1.9-3.9-2.7-18.3-10.5-47.9-10.5-66.1-.1zm380.4 26.6c-1.2-.9-2.4-1.9-3.9-2.7-18.3-10.6-47.9-10.6-66.1-.1-1.4.8-2.5 1.7-3.7 2.6 1.2.9 2.4 1.9 3.9 2.7 18.3 10.6 47.9 10.6 66.1.1 1.4-.8 2.5-1.8 3.7-2.6zM1418 807.6c-1.4.8-2.5 1.7-3.7 2.6 1.2.9 2.4 1.9 3.9 2.7 18.3 10.6 47.9 10.6 66.1.1 1.4-.8 2.5-1.7 3.7-2.6-1.2-.9-2.4-1.9-3.9-2.7-18.3-10.5-47.9-10.6-66.1-.1z"/>
            <path fill="#898b8e" d="M2313.7 714.7l-.7-2.7-1.5-2.6-2.2-2.4-3-2.2-3.7-1.9-113.7-48.9-31.1-9.2-1.3-.3-1.3-.3-1.4-.2-1.4-.1h-1.4l-1.4.1-1.4.1-6.8 1.2-5.5.6-5.6.3h-5.6l-5.6-.4-5.5-.7-5.4-1-5.2-1.4-4.9-1.7-4.6-1.9-4.2-2.2-3.8-2.4-3.4-2.6-2.9-2.8-2.4-3-2.3-3.9-.6-.8-.7-.7-.8-.7-1-.6-1-.5-1.2-.5-1.2-.4-116.2-34.3 1.6-.6 7.6-3.2 7.1-3.7 6.4-4.1 5.5-4.4 4.7-4.6 3.8-4.8 3-4.9 2.1-5.1 1.2-5.1.4-5.2v-32.7l-.5-5.2-1.3-5.1-2.2-5.1-3-5-3.9-4.8-4.7-4.6-5.6-4.4-6.4-4.1-7.1-3.7-7.6-3.2-8-2.7-8.3-2.2-8.6-1.7-8.8-1.2-8.9-.8-5.8-.2-2.9-.1-2.6-.4-2.4-.7-2.2-1-1.8-1.2-1.3-1.4-.6-1.1-1.8-2.8-3.5-5.1-3.7-5.1-1.8-2.3 108.5-62.6.9-.6.8-.6.7-.7.6-.7.5-.8.3-.8.2-.8.1-4.1.7-3.3 1.2-3.2 1.8-3.1 2.3-3 2.8-2.8 3.3-2.6 3.8-2.4 4.2-2.2 4.6-1.9 4.9-1.6 5.1-1.3 5.3-1 5.5-.7 5.6-.4 7.1-.1 1.4-.1 1.4-.2 1.3-.3 1.3-.3 1.2-.4 1.1-.5 1-.5 24.6-14.2 81.5-66.4 2.5-2.4 1.6-2.6.8-2.7v-35.5l-.8-2.7-1.6-2.6-2.4-2.4-3.2-2.2L2101 157l-5.9-3.4-1.1-.6-3.8-1.8-4.2-1.4-4.5-.9-4.7-.5h-4.7l-4.7.5-4.5.9-4.3 1.4-115 47-24.6 14.2-.9.6-.8.7-.7.7-.6.7-.4.8-.3.8-.1.8-.1 4.1-.6 3.3-1.2 3.2-1.8 3.1-2.3 3-2.8 2.8-3.3 2.6-3.8 2.4-4.2 2.2-4.6 1.9-4.9 1.6-5.1 1.3-5.3 1-5.5.7-5.6.4-7.1.1-1.4.1-1.4.2-1.3.3-1.3.3-1.2.4-1.1.5-1 .6-119 68.7-3.5 2-2.4.7-2.5.4-2.6.1-2.6-.2-2.6-.4-1.2-.4-1.2-.4-5.8-1.8-8.6-2.5-8.6-2.4-8.7-2.3-8.8-2.1-8.9-2-7.9-1.7-2.5-.8-2.1-1-1.8-1.2-1.2-1.4-.8-1.5-.2-1.3-.4-4.1-1.3-5.1-2.2-5.1-3-5-3.9-4.8-4.7-4.6-5.6-4.4-6.4-4.1-7.1-3.7-7.6-3.2-8-2.7-8.3-2.2-8.6-1.7-8.8-1.2-8.9-.8-9-.3-9 .2-8.9.7-8.7 1.2-8.6 1.7-8.3 2.2-8 2.7-7.5 3.2-7.1 3.7-6.4 4.1-5.5 4.4-4.7 4.6-3.8 4.8-1 1.7-.1.1-.4.3-.5.3-.6.3-.5.2-.5.2-.6.2-.6.1-.6.1-.6.1-.6.1-14 1.4-5.6.6-1.1.1-1 .1h-2l-1-.1-1-.2-1.1-.3-.8-.3-.9-.4-.9-.5-.8-.5-1.3-.9-.6-.4-68.6-77.3-.7-.7-.8-.7-1-.6-1-.6-1.1-.5-1.2-.4-1.3-.3-6.7-1.3-5.1-1.4-4.9-1.7-4.5-1.9-4.2-2.2-3.8-2.4-3.3-2.7-2.9-2.8-2-2.5v-26.1l-.2-.8-.3-.8-.4-.8-.6-.8-15.9-18-84.7-65.6-3.3-2.1-3.8-1.7-4.2-1.3-4.5-.8-4.7-.4-4.8.1-4.7.5-4.6 1.1-85.9 25.2-4.2 1.5-3.5 1.9-2.9 2.2-2.2 2.4-1.5 2.6-.6 2.7v32.7l.2 2.8 1.1 2.8 42.6 77.9 15.9 18 .7.7.8.7.9.6 1 .6 1.1.5 1.2.4 1.3.3 6.8 1.3 5.1 1.4 4.9 1.7 4.5 1.9 4.2 2.2 3.7 2.4 3.3 2.7 2.9 2.9 2 2.5v25.9l.1.8.3.8.4.8.6.8 52.7 59.5-1.9 1.1-24.7 15.6-21.8 16.5-19 17.3-16.1 18-13.3 18.6-10.5 19.1-7.6 19.4-4.9 20.1-.2.4-.2.3-.3.3-.3.3-.4.3-.5.3-.6.3-.7.3-.9.3-1 .3-1.1.3-1 .2-1.4.3h-.2l-148.6 13.3-1.4.2-1.3.2-1.3.3-1.2.4-1.1.5-1 .5-1 .6-4.3 3.3-3.8 2.4-4.2 2.1-4.6 1.9-4.9 1.6-5.1 1.3-5.4 1-5.5.7-5.7.3h-5.7l-5.6-.3-5.5-.7-5.4-1-5.2-1.3-4.9-1.6-5.9-2.4-1.2-.4-1.3-.3-1.4-.3-1.4-.2-1.4-.1H858l-1.4.1-34.4 3.1-133.8 25.8-4.5 1.1-4 1.6-3.4 1.9-2.8 2.2-2.1 2.4-1.3 2.6-.5 2.8.1.4-.1.3.1.4v31.5l-.1.3.4 2.8 15.4 55.1 1.2 2.8 2 2.6 2.7 2.3 3.3 2 3.8 1.6 4.3 1.2 4.6.8 4.9.3 141.3 1.1 34.4-3.1 1.4-.2 1.3-.3 1.3-.3 1.2-.4 1.1-.5 1-.5 1-.6 4.3-3.3 3.8-2.4 4.2-2.1 4.6-1.9 4.9-1.6 5.1-1.3 5.4-1 5.6-.7 5.7-.3h5.7l5.6.3 5.5.7 5.4 1 5.2 1.3 4.9 1.6 5.8 2.4 1.2.4 1.3.3 1.3.2 1.4.2 1.4.1h1.4l1.4-.1 80.3-7.1 18.2-10 12.2 7 .3-.1 2-.9 9.6-5.5 2.5-1.3 2.4-.7 2.5-.4 2.6-.1 2.6.2 2.6.4 2.4.7 1.8.7 17.3 10v.3l17.2-9.9 109 62.9-.1.1v40l-9.3 5.3 31.8 18.4 2.2 1 2.4.7 2.6.4 2.6.1 2.6-.1 2.5-.4 2.4-.7 2.7-1.3 7.1-4.1 2.1-1 2.4-.7 2.5-.4 2.6-.1 2.6.1 2.6.4 2.4.7 2.2 1 13.9 8-15.3 57.5-.1.8v33.7l.2.8.3.8.4.8.6.7.7.7 4.1 3.4.6.6-.6.6-3.3 2.6-3.7 2.4-4.2 2.2-5.7 2.5-1 .6-.9.6-.8.7-.7.7-.6.8-.4.8-.3.8-5.3 19.8v33l2 81.6.5 2.8 1.3 2.7 2.1 2.5 2.8 2.2 3.4 1.9 3.9 1.6 4.4 1.2 4.8.7 95.4 8.9 4.9.2 4.8-.3 4.6-.8 4.2-1.2 3.8-1.6 3.3-2 2.7-2.3 2-2.6 44.7-77.2 5.3-19.8.1-.8v-33.8l-.1-.8-.3-.8-.4-.8-.6-.8-.7-.7-4.1-3.4-.6-.6.6-.6 3.3-2.6 3.7-2.4 4.2-2.2 5.7-2.5 1-.6.9-.6.8-.7.7-.7.6-.8.4-.8.3-.8 23.2-86.4.5-.8.3-.5.4-.5.5-.5.5-.4.5-.3.8-.4.8-.3.8-.3.8-.2.9-.2.9-.1 1-.1 1-.1 33.8-2.8 33.3-4.4 32.7-6.1 31.9-7.7 30.9-9.3 29.7-10.9 28.3-12.5 26.8-14.2 7.1-4.2 7.6-4.8.8-.4.8-.4.8-.3.9-.3.9-.3 1-.2 1.1-.1h.8l.9.1 1 .1 1 .1.9.1.7.1.7.1 134.7 39.8 1.3.3 1.3.2 1.4.2 1.4.1h1.4l1.4-.1 1.4-.1 6.8-1.2 5.5-.6 5.6-.3h5.6l5.6.4 5.5.7 5.4 1 5.2 1.3 5 1.7 4.6 1.9 4.2 2.2 3.8 2.4 3.4 2.6 2.9 2.8 2.4 3 2.3 3.9.6.7.7.7.8.7 1 .6 1 .6 1.1.5 1.2.4 31.1 9.2 135 24.6 4.9.6 4.8.1 4.7-.4 4.5-.8 4.2-1.3 3.8-1.7 3.3-2 2.6-2.4 43.6-49.6s1.5-1.9 1.8-2.6c.3-.6 1-2.7 1-2.7l.1-34.9v-.1l.3-.6zm-292.3-485.6c18.2-10.5 47.8-10.5 66.1.1 1.5.9 2.6 1.8 3.9 2.7-1.2.9-2.3 1.8-3.7 2.6-18.2 10.5-47.8 10.5-66.1-.1-1.5-.9-2.6-1.8-3.9-2.7 1.2-.9 2.3-1.8 3.7-2.6zm-808.1-75.9c-18.2 10.5-47.8 10.5-66.1-.1-1.5-.9-2.6-1.8-3.9-2.7 1.2-.9 2.3-1.8 3.7-2.6 18.2-10.5 47.8-10.5 66.1.1 1.5.9 2.7 1.8 3.9 2.7-1.2.9-2.3 1.8-3.7 2.6zm-399 454.5c-18.2 10.5-47.8 10.5-66.1-.1-1.5-.9-2.6-1.8-3.9-2.7 1.2-.9 2.3-1.8 3.7-2.6 18.2-10.5 47.8-10.5 66.1.1 1.5.9 2.6 1.8 3.9 2.7-1.2.9-2.3 1.8-3.7 2.6zm271.5-24.4c-18.2 10.5-47.8 10.5-66.1-.1-1.5-.9-2.6-1.8-3.9-2.7 1.2-.9 2.3-1.8 3.7-2.6 18.2-10.5 47.8-10.5 66.1.1 1.5.9 2.7 1.8 3.9 2.7-1.2.9-2.3 1.8-3.7 2.6zm253.1-288.4c-18.2 10.5-47.8 10.5-66.1-.1-1.5-.9-2.7-1.8-3.9-2.8 1.2-.9 2.3-1.8 3.7-2.6 18.2-10.5 47.8-10.5 66.1.1 1.5.9 2.6 1.8 3.9 2.7-1.2 1-2.3 1.9-3.7 2.7zm103.3 675c-18.2 10.5-47.8 10.5-66.1-.1-1.5-.9-2.6-1.8-3.9-2.7 1.2-.9 2.3-1.8 3.7-2.6 18.2-10.5 47.8-10.5 66.1.1 1.5.9 2.6 1.8 3.9 2.7-1.2.8-2.3 1.7-3.7 2.6zm42.1-156.8c-18.2 10.5-47.8 10.5-66.1-.1-1.5-.9-2.6-1.8-3.9-2.7 1.2-.9 2.3-1.8 3.7-2.6 18.2-10.5 47.8-10.5 66.1.1 1.5.9 2.6 1.8 3.9 2.7-1.2.9-2.3 1.8-3.7 2.6zm99.3-490.3c-18.2 10.5-47.8 10.5-66.1-.1-1.5-.9-2.6-1.8-3.9-2.7 1.2-.9 2.3-1.8 3.7-2.6 18.2-10.5 47.8-10.5 66.1.1 1.5.9 2.6 1.8 3.9 2.7-1.2.9-2.3 1.8-3.7 2.6zm244.2 23.5c-1.5-.9-2.6-1.8-3.9-2.7 1.2-.9 2.3-1.8 3.7-2.6 18.2-10.5 47.8-10.5 66.1.1 1.5.9 2.6 1.8 3.9 2.7-1.2.9-2.3 1.8-3.7 2.6-18.2 10.6-47.8 10.5-66.1-.1zm40.8 179.1c-1.5-.9-2.6-1.8-3.9-2.7 1.2-.9 2.3-1.8 3.7-2.6 18.2-10.5 47.8-10.5 66.1.1 1.5.9 2.7 1.8 3.9 2.7-1.2.9-2.3 1.8-3.7 2.6-18.2 10.6-47.8 10.5-66.1-.1zm114.9 141.5c-18.2 10.5-47.8 10.5-66.1-.1-1.5-.9-2.7-1.8-3.9-2.8 1.2-.9 2.3-1.8 3.7-2.6 18.2-10.5 47.8-10.4 66.1.1 1.5.9 2.7 1.8 3.9 2.7-1.2 1-2.3 1.9-3.7 2.7zm245.4 72.5c-18.2 10.5-47.8 10.5-66.1-.1-1.5-.9-2.6-1.8-3.9-2.7 1.2-.9 2.3-1.8 3.7-2.6 18.2-10.5 47.8-10.5 66.1.1 1.5.9 2.6 1.8 3.9 2.7-1.2.9-2.3 1.8-3.7 2.6z"/>
            <path fill="none" d="M2021.6 234.4c18.3 10.6 47.9 10.6 66.1.1s18.1-27.6-.2-38.2c-18.3-10.6-47.9-10.6-66.1-.1-18.2 10.6-18.1 27.6.2 38.2zm-682.9 22.3c-18.3-10.6-47.9-10.6-66.1-.1s-18.1 27.6.2 38.2c18.3 10.6 47.9 10.6 66.1.1 18.2-10.5 18.1-27.6-.2-38.2zM814.1 569.5c-18.3-10.6-47.9-10.6-66.1-.1-18.2 10.5-18.1 27.6.2 38.2 18.3 10.6 47.9 10.6 66.1.1 18.2-10.5 18.1-27.6-.2-38.2zm271.5-24.3c-18.3-10.6-47.9-10.6-66.1-.1-18.2 10.5-18.1 27.6.2 38.2 18.3 10.6 47.9 10.6 66.1.1 18.2-10.6 18.1-27.7-.2-38.2zM1213.1 115c-18.3-10.6-47.9-10.6-66.1-.1s-18.1 27.6.2 38.2c18.3 10.6 47.9 10.6 66.1.1 18.2-10.5 18.1-27.6-.2-38.2zM974.8 903.7h.1l-.1-.1zm-323.6 177.2l179.3-102.8zm-884.5 506.9h.1l-.1-.1zm1108.5-634h.1l-.1-.1zm566.8-22.1c-18.3-10.6-47.9-10.6-66.1-.1s-18.1 27.6.2 38.2c18.3 10.6 47.9 10.6 66.1.1 18.2-10.5 18.1-27.6-.2-38.2zm541.3-303c-18.3-10.6-47.9-10.6-66.1-.1s-18.1 27.6.2 38.2c18.3 10.6 47.9 10.6 66.1.1s18.1-27.6-.2-38.2zm245.4 72.5c-18.3-10.6-47.9-10.6-66.1-.1-18.2 10.5-18.1 27.6.2 38.2 18.3 10.6 47.9 10.6 66.1.1s18.1-27.6-.2-38.2zm-294.2-213.8c-18.3-10.6-47.9-10.6-66.1-.1s-18.1 27.6.2 38.2c18.3 10.6 47.9 10.6 66.1.1 18.2-10.6 18.1-27.7-.2-38.2zm-40.6-140.9c18.2-10.5 18.1-27.6-.2-38.2-18.3-10.6-47.9-10.6-66.1-.1s-18.1 27.6.2 38.2c18.3 10.5 47.9 10.6 66.1.1zm-409.8 428.4c-18.3-10.6-47.9-10.6-66.1-.1s-18.1 27.6.2 38.2c18.3 10.6 47.9 10.6 66.1.1 18.2-10.5 18.2-27.6-.2-38.2zm99.3-490.3c-18.3-10.6-47.9-10.6-66.1-.1s-18.1 27.6.2 38.2c18.3 10.6 47.9 10.6 66.1.1 18.2-10.5 18.1-27.6-.2-38.2z"/>
            <path d="M2313 712l-1.5-2.6-2.2-2.4-3-2.2-3.7-1.9-113.7-48.9-31.1-9.2-1.3-.3-1.3-.3-1.4-.2-1.4-.1h-1.4l-1.4.1-1.4.2-6.8 1.2-5.6.6-5.6.3h-5.6l-5.6-.4-5.5-.7-5.4-1-5.2-1.4-4.9-1.6-4.6-1.9-4.2-2.2-3.8-2.4-3.4-2.6-2.9-2.8-2.4-3-2.3-3.9-.6-.7-.7-.7-.8-.7-1-.6-1-.5-1.2-.5-1.2-.4-134.1-39.6-.7-.3-.7-.3-.9-.4-.9-.5-.9-.5-.7-.5-.5-.4-.4-.6-.3-.5-.2-.5-.1-.5v-.5l.1-.5.2-.6 1.7-5.1 2.3-7.9.1-.4.2-.3.2-.3.2-.3.3-.3.3-.3.4-.3.4-.3.4-.2.4-.2.5-.2.5-.2h.1l1.3-.3 8.3-2.2 8-2.7 7.5-3.2 7.1-3.7 6.4-4.1 5.5-4.4 4.7-4.6 3.8-4.8 3-4.9 2.1-5.1 1.3-5.1.4-5.2-.5-5.2-1.3-5.1-2.2-5.1-3-5-3.9-4.8-4.7-4.6-5.6-4.4-6.4-4.1-7.1-3.7-7.6-3.2-8-2.7-8.3-2.2-8.6-1.7-8.8-1.3-8.9-.8-5.8-.2-2.9-.1-2.6-.4-2.4-.7-2.2-1-1.8-1.2-1.3-1.4-.6-1.1-1.8-2.8-3.5-5.1-3.7-5.1-3.9-5-4.2-5-4.4-4.9-2.8-3-1.6-1.7-.8-1.5-.3-1.5.2-1.5.7-1.5 1.3-1.4 2-1.4 120.3-69.4.9-.6.8-.7.7-.7.6-.7.4-.8.3-.8.2-.8.1-4.1.6-3.2 1.2-3.2 1.8-3.1 2.3-3 2.8-2.8 3.3-2.6 3.8-2.4 4.2-2.2 4.6-1.9 4.9-1.6 5.1-1.3 5.3-1 5.5-.7 5.6-.4 7.1-.1 1.4-.1 1.4-.2 1.3-.3 1.3-.3 1.2-.4 1.1-.5 1.1-.5 24.6-14.2 81.5-66.4 2.5-2.5 1.6-2.6.8-2.7v-2.7l-.8-2.7-1.6-2.6-2.4-2.4-3.2-2.2L2101 157l-5.9-3.4-1.1-.6-3.8-1.8-4.2-1.4-4.5-.9-4.7-.5h-4.7l-4.7.5-4.5.9-4.2 1.4-115 47-24.6 14.2-.9.6-.8.7-.7.7-.6.7-.4.8-.3.8-.2.8-.1 4.1-.6 3.2-1.2 3.2-1.8 3.1-2.3 3-2.8 2.8-3.3 2.6-3.8 2.4-4.2 2.2-4.6 1.9-4.9 1.6-5.1 1.3-5.3 1-5.5.7-5.6.4h-7.1l-1.4.1-1.4.2-1.3.3-1.3.3-1.2.4-1.1.5-1.1.5-119 68.7-3.5 2-2.4.7-2.5.4-2.6.1-2.6-.2-2.6-.4-1.2-.4-1.2-.4-5.8-1.8-8.6-2.5-8.6-2.4-8.7-2.3-8.8-2.1-8.9-2-7.9-1.7-2.5-.8-2.2-1-1.8-1.2-1.3-1.4-.8-1.5-.2-1.3-.4-4.1-1.3-5.1-2.2-5.1-3-4.9-3.9-4.8-4.7-4.6-5.6-4.4-6.4-4.1-7.1-3.7-7.6-3.2-8-2.7-8.3-2.2-8.6-1.7-8.8-1.2-8.9-.8-9-.3-9 .2-8.9.7-8.8 1.2-8.5 1.7-8.3 2.2-7.9 2.7-7.5 3.2-7.1 3.7-6.4 4.1-5.5 4.4-4.7 4.6-3.8 4.8-1 1.7-.1.1-.4.4-.5.3-.6.3-.5.2-.5.2-.5.2-.6.2-.6.1-.6.1-.6.1-14 1.4-5.6.6-1.1.1-1.1.1h-2l-1-.1-1.1-.2-1.1-.3-.8-.3-.9-.4-.9-.5-.8-.5-1.3-.9-.5-.4-68.6-77.4-.7-.7-.8-.7-.9-.6-1-.6-1.1-.5-1.2-.4-1.3-.3-6.7-1.3-5.1-1.4-4.9-1.7-4.5-1.9-4.2-2.2-3.8-2.4-3.3-2.7-2.9-2.9-2.3-3-1.8-3.1-1.2-3.2-.6-3.2-.1-3.2.5-3.2 1.1-3.2 2.1-3.9.3-.8.1-.8v-.8l-.2-.8-.3-.8-.4-.8-.6-.7-15.9-18-84.7-65.6-3.3-2.1-3.8-1.7-4.2-1.3-4.5-.9-4.7-.4-4.8.1-4.7.5-4.6 1.1-85.9 25.1-4.2 1.5-3.6 1.9-2.9 2.2-2.2 2.4-1.4 2.6-.6 2.7.2 2.8 1.1 2.8 42.7 78 15.9 17.9.7.7.8.7.9.6 1.1.6 1.1.5 1.2.4 1.3.3 6.8 1.3 5.2 1.4 4.9 1.7 4.5 1.9 4.2 2.2 3.8 2.4 3.3 2.7 2.9 2.9 2.3 3 1.8 3.1 1.2 3.2.6 3.2.1 3.2-.5 3.2-1.1 3.2-2.1 3.9-.3.8-.1.8v.8l.2.8.3.8.4.8.6.8 67.8 76.5.3.4.5.6.5.7.5.8.4.8.2.7v.6l-.3.6-.4.6-.5.6-.5.5-.6.5-.7.5-.8.5-11.9 6.4-3.6 2.1-24.7 15.6-21.8 16.5-19 17.3-16.1 18-13.3 18.6-10.5 19-7.6 19.4-4.9 20.1-.2.4-.2.4-.3.3-.4.3-.4.3-.5.3-.5.3-.7.3-.9.3-1 .3-1.1.3-1 .2-1.4.3h-.2l-148.6 13.3-1.4.2-1.3.2-1.3.3-1.2.4-1.1.5-1.1.5-1 .6-4.3 3.3-3.8 2.4-4.2 2.1-4.6 1.9-4.9 1.6-5.1 1.3-5.4 1-5.6.7-5.7.3h-5.7l-5.6-.3-5.5-.7-5.4-1-5.2-1.3-4.9-1.6-5.9-2.4-1.2-.4-1.3-.3-1.4-.3-1.4-.2-1.4-.1h-1.4l-1.4.1-34.4 3.1-133.8 25.8-4.5 1.1-4 1.5-3.4 1.9-2.8 2.2-2.1 2.4-1.3 2.6-.5 2.8.4 2.9 15.4 55.1 1.2 2.8 2 2.5 2.7 2.3 3.3 2 3.8 1.6 4.3 1.2 4.6.8 4.9.3 141.3 1.1 34.4-3.1 1.4-.2 1.3-.3 1.3-.3 1.2-.4 1.1-.5 1.1-.5 1-.6 4.3-3.3 3.8-2.4 4.2-2.1 4.6-1.9 4.9-1.6 5.1-1.3 5.4-1 5.6-.7 5.7-.3h5.7l5.6.3 5.5.7 5.4 1 5.2 1.3 4.9 1.6 5.8 2.4 1.2.4 1.3.3 1.3.2 1.4.2 1.4.1h1.4l1.4-.1 105.6-9.3 2.7-.4 2.4-.7 2-.9 9.6-5.5 2.5-1.3 2.4-.7 2.5-.4 2.6-.1 2.6.2 2.6.4 2.4.7 1.8.7 28.9 16.7h-.1l1.8 1.2 1.3 1.4.8 1.5.3 1.5-.2 1.5-.7 1.5-1.3 1.4-2.8 1.7-6.1 3.5-2.2 1.6-1.3 1.4-.7 1.5-.2 1.5.3 1.5.8 1.5 1 1.1 15.2-8.8 109 62.9-.1.1v17.8l22.6 13 2.2 1 2.4.7 2.6.4 2.6.2 2.6-.1 2.5-.4 2.4-.7 2.7-1.3 7.1-4.1 2.2-1 2.4-.7 2.5-.4 2.6-.1 2.6.2 2.5.4 2.4.7 2.2 1 28.3 16.3 1.8 1.3 1.3 1.4.8 1.5.3 1.5-.2 1.5-.7 1.5-1.3 1.4-1.7 1.2-10.1 5.9-1.5 1.1-1.2 1.4-.7 1.5-.1.4-16.1 60.6-.1.8v.8l.2.8.3.8.4.8.6.7.7.7 4.1 3.4 2.8 2.9 2.3 3 1.7 3.1 1.1 3.2.6 3.2v3.3l-.6 3.3-1.2 3.2-1.7 3.1-2.3 3-2.8 2.8-3.2 2.6-3.7 2.4-4.1 2.2-5.7 2.5-1 .6-.9.6-.8.7-.7.7-.6.7-.4.8-.3.8-5.3 19.8 2 81.6.5 2.8 1.3 2.7 2.1 2.5 2.8 2.2 3.4 1.9 3.9 1.6 4.4 1.2 4.8.7 95.4 8.9 4.9.2 4.8-.3 4.6-.8 4.2-1.2 3.8-1.6 3.3-2 2.7-2.3 2-2.6 44.7-77.2 5.3-19.8.2-.8v-.8l-.1-.8-.3-.8-.4-.8-.6-.7-.7-.7-4.1-3.4-2.8-2.9-2.3-3-1.7-3.1-1.2-3.2-.6-3.2v-3.3l.6-3.3 1.2-3.2 1.7-3.1 2.3-3 2.8-2.8 3.3-2.6 3.7-2.4 4.1-2.2 5.7-2.5 1-.6.9-.6.8-.7.7-.7.6-.7.4-.8.3-.8 23.2-86.3.5-.8.4-.5.4-.5.5-.5.5-.4.5-.3.8-.4.8-.3.8-.3.8-.2.9-.2.9-.1 1-.1 1-.1 33.8-2.8 33.4-4.4 32.7-6.1 31.9-7.7 30.9-9.3 29.7-10.9 28.3-12.5 26.8-14.2 7.1-4.2 7.6-4.8.8-.4.8-.4.8-.4.9-.3.9-.3 1-.2 1.1-.2h1.7l1 .1 1 .1.9.1.7.1.7.1 134.7 39.8 1.3.3 1.3.2 1.4.2 1.4.1h1.4l1.4-.1 1.4-.1 6.8-1.2 5.5-.6 5.6-.3h5.6l5.6.4 5.5.7 5.4 1 5.2 1.4 5 1.7 4.6 1.9 4.2 2.2 3.8 2.4 3.4 2.6 2.9 2.8 2.4 3 2.3 3.9.6.7.7.7.8.7 1 .6 1.1.5 1.1.5 1.2.4 31.1 9.2 135 24.6 4.8.6 4.8.1 4.7-.4 4.5-.8 4.2-1.3 3.8-1.7 3.2-2.1 2.6-2.4 43.6-49.6 1.8-2.7 1-2.7.1-2.8-1.6-2.2zm-291.6-515.7c18.2-10.5 47.8-10.5 66.1.1s18.4 27.7.2 38.2-47.8 10.5-66.1-.1c-18.3-10.7-18.4-27.7-.2-38.2zm-808.1-43.1c-18.2 10.5-47.8 10.5-66.1-.1-18.3-10.6-18.4-27.7-.2-38.2 18.2-10.5 47.8-10.5 66.1.1s18.4 27.7.2 38.2zm-399 454.5c-18.2 10.5-47.8 10.5-66.1-.1s-18.4-27.7-.2-38.2 47.8-10.5 66.1.1c18.3 10.6 18.4 27.7.2 38.2zm271.5-24.4c-18.2 10.5-47.8 10.5-66.1-.1-18.3-10.6-18.4-27.7-.2-38.2s47.8-10.5 66.1.1c18.3 10.6 18.4 27.7.2 38.2zm253.1-288.4c-18.2 10.5-47.8 10.5-66.1-.1-18.3-10.6-18.4-27.7-.2-38.2 18.2-10.5 47.8-10.5 66.1.1s18.4 27.7.2 38.2zm103.3 675c-18.2 10.5-47.8 10.5-66.1-.1-18.3-10.6-18.4-27.7-.2-38.2 18.2-10.5 47.8-10.5 66.1.1 18.3 10.6 18.4 27.7.2 38.2zm42.1-156.8c-18.2 10.5-47.8 10.5-66.1-.1-18.3-10.6-18.4-27.7-.2-38.2 18.2-10.5 47.8-10.5 66.1.1 18.4 10.6 18.4 27.7.2 38.2zm99.3-490.3c-18.2 10.5-47.8 10.5-66.1-.1-18.3-10.6-18.4-27.7-.2-38.2 18.2-10.5 47.8-10.5 66.1.1 18.3 10.6 18.4 27.7.2 38.2zm244.2 23.5c-18.3-10.6-18.4-27.7-.2-38.2 18.2-10.5 47.8-10.5 66.1.1 18.3 10.6 18.4 27.7.2 38.2-18.2 10.6-47.8 10.5-66.1-.1zm40.8 179.1c-18.3-10.6-18.4-27.7-.2-38.2 18.2-10.5 47.8-10.5 66.1.1 18.3 10.6 18.4 27.7.2 38.2-18.2 10.5-47.8 10.5-66.1-.1zm114.9 141.5c-18.2 10.5-47.8 10.5-66.1-.1-18.3-10.6-18.4-27.7-.2-38.2 18.2-10.5 47.8-10.4 66.1.1 18.3 10.6 18.4 27.7.2 38.2zm245.4 72.5c-18.2 10.5-47.8 10.5-66.1-.1s-18.4-27.7-.2-38.2 47.8-10.5 66.1.1 18.4 27.7.2 38.2z" fill="#fff"/>
            <path fill="#a5a3a3" d="M1090.5 106.8l104.8-30.7c5.1-1.5 6.6-5.6 3.5-9.2l-4.4-.8-4.7-.4-4.8.1-4.7.6-4.6 1.1-77.2 22.5-7.3 2.1-1.3.4-4.2 1.5-3.6 1.9-2.9 2.2-2.2 2.4-1.4 2.5c3.2 3.6 9.9 5.3 15 3.8z"/>
            <path fill="#ccc" d="M1538.1 587.5c-2.1 1.2-5.6 1.2-7.8 0l-114.7-66.2c-2.2-1.2-2.2-3.3 0-4.5l114-65.8c2.1-1.2 5.6-1.2 7.8 0l114.7 66.2c2.2 1.2 2.2 3.3 0 4.5l-114 65.8z"/>
            <path fill="#afaeae" d="M1974.7 317.9l.6-.5.6-.5 28.9-32.9.2-.5.3-.3.1-.2 5.9-16.4V265l-.3-.4-.5-.7-.8-.7-.4-.3-37.2-21.5-.6-.2-1.2-.5-1.1-.3-.7-.2h-2.6l-28.4 3.4-.8.2-.9.1-57 16.7-.8.4-.6.3-.3.1-6.9 4-9.7 5.6-9.7 5.6-9.6 5.6-9.7 5.6-19.3 11.2-4.7 2.7-.1.1-.1.1-.1.1-.3.1-3.6 2.9-.2.2-.2.1-3.1 3-.1.2-.2.1-2.5 3.2-.1.2-.2.1-1.9 3.3v.2l-.2.2-1.4 3.3v.2l-.1.2-.8 3.4v.2l-.1.2-.2 3.4.1.2v.2l.3 3.4.1.2v.2l.9 3.4.1.2v.2l1.5 3.3.1.1.1.2 2 3.3.2.1.1.2 2.6 3.2.2.2.1.2 3.2 3 .3.2.1.1 3.7 2.9.2.1.2.2h.1l4 2.5.2.1.3.1 4.8 2.5.1.1h.1l.5.2 5 2.1.2.1.3.2 5.3 1.8.3.1.3.1 5.4 1.5h.4l.3.1 5.7 1.1h.4l.2.1 5.8.8h.3l.4.1 5.9.5h.6l5.9.2h.6l5.9-.2.4-.1h.3l5.9-.5.3-.1h.3l5.8-.8.3-.1h.4l2-.4 3.6-.7.2-.1.4-.1 5.5-1.5h.1l.2-.1h.3l5.2-1.8.2-.1.3-.1 5-2.1.2-.1.3-.1 5-2.6.1-.1h.1l64.9-36.7zm-146.9 28.4c-18.3-10.6-18.4-27.7-.2-38.2 18.2-10.5 47.8-10.5 66.1.1 18.3 10.6 18.4 27.7.2 38.2-18.2 10.6-47.8 10.5-66.1-.1z"/>
            <path fill="#afaeae" d="M2102.8 710.2l.4-.3 23.6-26.9v-.1l.2-.3.3-.4v-.4l.2-.4-.1-.4v-.4l-.2-.4-.1-.3-.3-.4-.2-.4-14.6-14.5-.6-.4-.5-.4-45.4-26.3-.9-.4-.8-.4-8.8-2.6-12.3-3.6-12.2-3.6-36.9-10.8-12.3-3.6-6-1.8-.5-.1-.5-.2-5.9-1.1h-.3l-.3-.1-6-.8h-.3l-.3-.1-6-.4h-.7l-6-.1h-.6l-5.9.3-.3.1h-.3l-5.9.6-.3.1h-.3l-5.7.9-.3.1h-.3l-5.5 1.2-.3.1h-.3l-5.3 1.5-.3.1-.3.1-5 1.8-.2.1-.3.1-4.7 2.1-.2.1-.3.1-4.4 2.4-.2.2-.1.1-.1.1-4 2.7-.2.2-.2.1-3.6 2.9-.2.2-.2.1-2.9 3-.1.1-.1.1-.2.2-2.7 3.5-.1.2-.2.2-1.9 3.4v.2l-.2.2-1.3 3.5v.2l-.1.2-.7 3.4v.2l-.1.2-.1 3.5.1.2v.2l.5 3.4.1.2v.2l1.1 3.4.1.2v.2l1.6 3.3.1.1.1.2 2.1 3.2.2.2.1.2 2.7 3.1.2.2.1.2 3.2 2.9.2.2h.1l.1.1h.1l3.6 2.7.4.3 4.2 2.6.2.1.2.1.2.1 4.6 2.3h.1l.4.2 5 2.1.2.1.3.2 5.9 2h.1l.1.1 11.5 3.4 12.2 3.6 36.8 10.9 12.2 3.6 8.7 2.6 2.1.4 63.4 5.9h1.1l.7.1 28.9-1.7.7-.1 1.3-.2 1.1-.4 1-.5.8-.7zm-185.4-43.4c-18.3-10.6-18.4-27.7-.2-38.2 18.2-10.5 47.8-10.4 66.1.1 18.3 10.6 18.4 27.7.2 38.2-18.2 10.5-47.8 10.4-66.1-.1z"/>
            <path fill="#c8caca" d="M1474.1 887.7l.5-.5.6-.4 29-32.9.3-.6.2-.4.1-.2 1.5-5.6 2.1-7.8 2.1-7.8 2.1-7.8 2.1-7.8 4.1-15.7 1-3.8v-.4l.1-.2v-3.6l-.1-.2v-.2l-.6-3.5-.1-.2v-.2l-1.2-3.4-.1-.2v-.2l-1.8-3.3-.2-.1-.1-.2-2.3-3.2-.2-.1-.1-.2-2.8-3-.2-.1-.1-.2-3.3-2.9-.2-.1-.2-.2-3.8-2.7-.3-.1-.1-.1h-.1l-4.2-2.5-.3-.1-.2-.1-4.6-2.2-.3-.1-.3-.2-5-2-.3-.1-.3-.2-5.3-1.7-.4-.1-.2-.1-5.6-1.4-.4-.1-.2-.1-5.9-1.1h-.2l-.3-.1h-.1l-5.8-.7h-.7l-6.5-.4h-7.7l-6.1.3-.3.1h-.4l-5.9.7-.3.1h-.3l-5.7 1-.4.1h-.3l-5.5 1.3-.2.1-.4.1-5.3 1.6-.2.1-.3.1-4.9 1.9-.2.1-.3.1-4.6 2.2-.2.2-.2.1-4.2 2.4-.2.2-.2.1-3.8 2.6-.2.2-.2.1-1.2 1-2.1 1.8-.1.2-.2.2-2.9 3.1-.1.1v.1l-.1.1-.1.1-2.4 3.2-.1.2-.1.2-1.9 3.4v.2l-.1.2-1.3 3.8v.1l-.1.1-14 52.2.1.6v.6l10.2 36.6.3.5.1.4.1.2 11.9 15.3.4.3.8.7.3.3.6.2 1.1.4 1.4.3.6.1 51.8 4.8h2.1l1.2-.2.7-.1.5-.2 1.1-.5.6-.3 18.6-12.7zm-55.9-74.7c-18.3-10.6-18.4-27.7-.2-38.2 18.2-10.5 47.8-10.5 66.1.1 18.3 10.6 18.4 27.7.2 38.2-18.2 10.5-47.8 10.5-66.1-.1z"/>
            <path fill="#c8caca" d="M1354.8 303.9l4-2.6.2-.2.2-.1 3.6-2.8.2-.2.2-.1 3.1-2.9.1-.1.2-.2 2.6-3.1.1-.2.2-.2 2.1-3.2v-.2l.1-.2 1.5-3.3v-.2l.1-.1 1-3.4v-.2l.1-.2.4-3.4-.1-.2.1-.2v-1.2l-.1-2.2-.1-.2v-.2l-.8-3.5v-.1l-.1-.1v-.2l-1.4-3.4-.1-.2-.1-.2-2-3.4-.2-.2-.1-.2-2.8-3.6-.1-.1v-.1l-41.8-47.2-.7-.5-.6-.5-45.5-26.2-.7-.3-.5-.2-.2-.1-25.2-8.4-.6-.1-1.3-.3-.6-.1h-2l-1.4.2-.6.1-46.6 13.6-.5.2-1.2.5-.8.5-.5.3-.2.3-.4.7-.2.4-3 16.7.1.5v.5l10.2 36.6.4.6.2.4.1.2 4.5 5 6.3 7.1 6.3 7.1 6.3 7.1 6.3 7.1 12.6 14.1 3.1 3.5.2.1.2.1.1.1.1.2 3.7 2.9.3.1.2.2 4.1 2.6.3.1.2.2 4.5 2.4.3.1.2.1 4.8 2.1.3.1.3.2 5.1 1.8.3.1.3.1 5.4 1.5h.3l.3.1 5.6 1.2h.3l.3.1 5.7.9h.6l5.9.6h.4l.3.1 6 .3h.7l6-.1h.7l6-.4.4-.1h.3l6-.8.4-.1h.2l5.9-1.1.2-.1.3-.1h.1l5.4-1.4.3-.1.3-.1 5.6-1.9h.3l.5-.2 5-2.1.2-.1.4-.1 4.6-2.4.2-.1v.1zm-82-9.1c-18.3-10.6-18.4-27.7-.2-38.2 18.2-10.5 47.8-10.5 66.1.1 18.3 10.6 18.4 27.7.2 38.2s-47.8 10.4-66.1-.1z"/>
            <path fill="#c8caca" d="M1100.4 592.8l4.1-2.5.1-.1.3-.1 3.7-2.7.1-.2.2-.1 3.2-2.9.1-.2.1-.1h.1l2.7-3 .1-.2.2-.1 2.2-3.2v-.2l.2-.2 1.7-3.3v-.2l.2-.2 1.1-3.4v-.2l.1-.2.5-3.5v-.4l-.1-3.6v-.4l-.7-3.4v-.2l-.1-.2-1.4-3.7v-.2l-.1-.4-1.9-3.4-.1-.1-.1-.2-2.5-3.2-.2-.2-.1-.2-2.9-3-.2-.2-.1-.2-3.5-2.8-.3-.2-.1-.1-3.9-2.6-.2-.1-.2-.2-4.3-2.4-.2-.1-.2-.2-4.7-2.1-.3-.1-.2-.1-5-1.9-.4-.1-.2-.1-5.3-1.6-.3-.1-.2-.1-5.5-1.3h-.3l-.3-.1-2.1-.4-3.7-.6h-.3l-.3-.1-6-.7h-.6l-6.1-.3h-7.6l-6.8.4h-.2l-90.4 8.1-1.1.2-1 .2-57 16.7-.7.3-.5.2-.2.1-21.5 11.2-.4.3-.8.7-1 .2-.2.4-.3.7v1.2l8.3 29.9.3.3.5.8.6.6.4.4.5.2 1.1.5.6.2 26.5 6.9.9.1.9.2 63.3 5.9h2.2l9.7-.9 13.5-1.2 13.6-1.2 13.5-1.2 13.6-1.2 27.1-2.5 6.6-.6.2-.1.2-.1h.5l5.9-1.1.3-.1h.3l5.6-1.4.3-.1.3-.1 5.2-1.7.3-.1.3-.1 4.9-2 .2-.1.4-.1 4.5-2.2.2-.1.6-.3zm-80.7-9.6c-18.3-10.6-18.4-27.7-.2-38.2 18.2-10.5 47.8-10.5 66.1.1 18.3 10.6 18.4 27.7.2 38.2-18.2 10.5-47.8 10.5-66.1-.1z"/>
            <path fill="#afaeae" d="M1600.3 274.9c-27.1-15.7-71.1-15.7-98-.2-26.9 15.6-26.8 40.9.3 56.6 27.1 15.7 71.1 15.7 98 .2 27-15.6 26.8-40.9-.3-56.6m-82.9 47.8c-18.3-10.6-18.4-27.7-.2-38.2 18.2-10.5 47.8-10.5 66.1.1 18.3 10.6 18.4 27.7.2 38.2-18.1 10.5-47.7 10.5-66.1-.1"/>
            <path fill="#656769" d="M1782.6 441.6c-2.1 1.2-5.6 1.2-7.7 0l-104.7-60.4c-2.1-1.2-2.2-3.2 0-4.5l38.2-22.1c2.1-1.2 5.6-1.2 7.7 0l104.7 60.4c2.1 1.2 2.2 3.2 0 4.5l-38.2 22.1z"/>
            <path fill="#c8caca" d="M1820.9 410.8l-104.7-60.4c-2.1-1.2-5.6-1.2-7.7 0l-38.2 22.1c-2.1 1.2-2.1 3.2 0 4.5l104.7 60.4c2.1 1.2 5.6 1.2 7.7 0l38.2-22.1c2.2-1.3 2.2-3.3 0-4.5z"/>
            <path fill="#dededf" d="M1798.9 398.1l-26.7-15.4-26.7-15.4c-2.2-1.3-5.8-1.3-8 0l-1.9 1.1-11.1 6.4c-2.2 1.3-2.2 3.3 0 4.6l.9.5 20.9 12.1 9.8 5.6 20.9 12.1.9.5c2.2 1.3 5.8 1.3 8 0l.9-.5 12.2-7c2.1-1.3 2.1-3.4-.1-4.6z"/>
            <path fill="#afaeae" d="M1951.4 477.6c-27.1-15.7-71.1-15.7-98-.2-26.9 15.6-26.8 40.9.3 56.6 27.1 15.7 71.1 15.7 98 .2s26.8-40.9-.3-56.6m-82.8 47.8c-18.3-10.6-18.4-27.7-.2-38.2 18.2-10.5 47.8-10.5 66.1.1 18.3 10.6 18.4 27.7.2 38.2-18.2 10.5-47.8 10.5-66.1-.1"/>
            <path fill="#656769" d="M1538.1 582.7c-2.2 1.2-5.6 1.2-7.8 0l-114.7-66.2c-2.2-1.2-2.2-3.2 0-4.5l114-65.8c2.1-1.2 5.6-1.2 7.8 0l114.7 66.2c2.2 1.2 2.2 3.3 0 4.5l-114 65.8z"/>
            <path fill="#656769" d="M1384.9 747.4c2.7-1.5 2.7-4.1 0-5.6L1354 724c-2.7-1.6-7-1.6-9.7 0l-19 11c-2.7 1.5-2.7 4.1 0 5.6l30.9 17.8c2.7 1.6 7 1.6 9.7 0l19-11z"/>
            <path fill="#656769" d="M1170.7 626.9c2.7-1.5 2.7-4.1 0-5.6l-30.9-17.8c-2.7-1.6-7-1.6-9.7 0l-19 11c-2.7 1.5-2.7 4.1 0 5.6l30.9 17.8c2.7 1.6 7 1.6 9.7 0l19-11z"/>
            <path fill="#656769" d="M1913.7 441.2c3.3-1.1 4.5-3.5 2.7-5.4l-21.1-22.1c-1.8-1.9-6-2.6-9.3-1.6l-25.9 8.2c-3.3 1.1-4.5 3.5-2.7 5.4l21.1 22.1c1.8 1.9 6 2.6 9.3 1.6l25.9-8.2z"/>
            <path fill="#656769" d="M1662.2 296.3c1.8-1.9 6-2.6 9.3-1.5l38.2 12.2c3.3 1.1 4.5 3.5 2.7 5.4l-14 14.7c-1.8 1.9-6 2.6-9.3 1.5l-38.2-12.2c-3.3-1.1-4.6-3.5-2.7-5.4l14-14.7z"/>
            <path fill="none" d="M1894 448.6l-1.3-.8 21-6.7c3.3-1.1 4.5-3.5 2.7-5.4l-21.1-22.1c-1.8-1.9-6-2.6-9.3-1.6l-16.5 5.2-.9-1"/>
            <path fill="none" d="M1711.7 324.5l-8.2-2.6 9.1-9.5c1.8-1.9.6-4.3-2.7-5.4l-38.2-12.2c-3.3-1.1-7.5-.4-9.3 1.5l-11.3 11.9-2.4-.8"/>
            <path fill="none" d="M1374.1 756.3l-.1-2.6-8 4.6c-2.7 1.5-7 1.5-9.7 0l-30.9-17.8c-2.7-1.6-2.7-4.1 0-5.6l7.5-4.4-3.3.1"/>
            <path fill="none" d="M1162.3 632.5l-.1-.7-10.5 6.1c-2.7 1.5-7 1.5-9.7 0l-30.9-17.8c-2.7-1.6-2.7-4.1 0-5.6l10.8-6.2h-3.6"/>
            <path fill="none" d="M1868.6 525.4c-18.3-10.6-18.4-27.7-.2-38.2 18.2-10.5 47.8-10.5 66.1.1 18.3 10.6 18.4 27.7.2 38.2-18.2 10.5-47.8 10.5-66.1-.1"/>
            <path fill="none" d="M1517.4 322.7c-18.3-10.6-18.4-27.7-.2-38.2 18.2-10.5 47.8-10.5 66.1.1 18.3 10.6 18.4 27.7.2 38.2-18.1 10.5-47.7 10.5-66.1-.1"/>
            <path fill="none" d="M1272.8 294.8c-18.3-10.6-18.4-27.7-.2-38.2 18.2-10.5 47.8-10.5 66.1.1 18.3 10.6 18.4 27.7.2 38.2s-47.8 10.4-66.1-.1"/>
            <path fill="none" d="M1019.7 583.2c-18.3-10.6-18.4-27.7-.2-38.2 18.2-10.5 47.8-10.5 66.1.1 18.3 10.6 18.4 27.7.2 38.2-18.2 10.5-47.8 10.5-66.1-.1"/>
            <path fill="none" d="M1418.2 813c-18.3-10.6-18.4-27.7-.2-38.2 18.2-10.5 47.8-10.5 66.1.1 18.3 10.6 18.4 27.7.2 38.2-18.1 10.5-47.8 10.5-66.1-.1"/>
            <path fill="none" d="M1917.4 666.8c-18.3-10.6-18.4-27.7-.2-38.2 18.2-10.5 47.8-10.5 66.1.1 18.3 10.6 18.4 27.7.2 38.2-18.2 10.5-47.8 10.4-66.1-.1"/>
            <path fill="none" d="M1338.7 256.7c-18.3-10.6-47.9-10.6-66.1-.1s-18.1 27.6.2 38.2c18.3 10.6 47.9 10.6 66.1.1 18.2-10.5 18.1-27.6-.2-38.2zm-253.1 288.5c-18.3-10.6-47.9-10.6-66.1-.1-18.2 10.5-18.1 27.6.2 38.2 18.3 10.6 47.9 10.6 66.1.1 18.2-10.6 18.1-27.7-.2-38.2zm-271.5 24.3c-18.3-10.6-47.9-10.6-66.1-.1-18.2 10.5-18.1 27.6.2 38.2 18.3 10.6 47.9 10.6 66.1.1 18.2-10.5 18.1-27.6-.2-38.2zm399-454.5c-18.3-10.6-47.9-10.6-66.1-.1s-18.1 27.6.2 38.2c18.3 10.6 47.9 10.6 66.1.1 18.2-10.5 18.1-27.6-.2-38.2zm949.4 77.6L2101 157l-5.9-3.3-.5-.4 4.5 2.7zm-268.8 115.7c-18.3-10.6-47.9-10.6-66.1-.1s-18.1 27.6.2 38.2c18.3 10.6 47.9 10.6 66.1.1 18.2-10.5 18.1-27.6-.2-38.2zm388.4 447.2l28.7-32.7h.1l-3.3 3.7zM1380.4 1009l60 5.6h.1l-7.1-.7zM685.5 625.1l.1.1-8.7-31.1zm1543.2 76.1c-18.3-10.6-47.9-10.6-66.1-.1-18.2 10.5-18.1 27.6.2 38.2 18.3 10.6 47.9 10.6 66.1.1s18.1-27.6-.2-38.2zm-245.4-72.5c-18.3-10.6-47.9-10.6-66.1-.1s-18.1 27.6.2 38.2c18.3 10.6 47.9 10.6 66.1.1s18.1-27.6-.2-38.2zm-499.2 146.2c-18.3-10.6-47.9-10.6-66.1-.1s-18.1 27.6.2 38.2c18.3 10.6 47.9 10.6 66.1.1 18.2-10.5 18.2-27.6-.2-38.2zm603.5-578.5c-18.3-10.6-47.9-10.6-66.1-.1s-18.1 27.6.2 38.2c18.3 10.6 47.9 10.6 66.1.1 18.2-10.6 18.1-27.7-.2-38.2zm-152.9 329.1c18.2-10.5 18.1-27.6-.2-38.2-18.3-10.6-47.9-10.6-66.1-.1s-18.1 27.6.2 38.2c18.3 10.6 47.9 10.6 66.1.1zM1376 969.7c18.3 10.6 47.9 10.6 66.1.1s18.1-27.6-.2-38.2c-18.3-10.6-47.9-10.6-66.1-.1-18.2 10.6-18.1 27.7.2 38.2z"/>
            <path fill="#afaeae" d="M2066.9 156.8l89.2 51.5c3.2 1.9 8.3 2.1 12.9.9l.7-1.2.8-2.7v-2.7l-.8-2.7-1.6-2.6-2.4-2.4-3.2-2.2-63.4-36.6-4.6-2.6-.5-.3-3.8-1.8-4.2-1.4-4.5-.9-4.7-.5h-4.7l-4.7.5-2 .4c-2.1 2.4-1.7 5.4 1.5 7.3zm182 623.9l4.5-.8 4.2-1.3 3.8-1.7 3.3-2.1 2.6-2.4 14.9-16.9 25.5-29 3.2-3.7 1.8-2.6 1-2.7.1-2.8-.7-2.7-1.5-2.6-2.2-2.4-1.4-1c-5-.4-9.7.8-11.7 3.1l-56.8 64.7c-2 2.3-.8 5.2 2.6 7.3l2.3.1 4.5-.5z"/>
            <path fill="#c8caca" d="M1458.5 1002.4l-124.4-11.6c-4.5-.4-8.8 1.1-11.2 3.7l.6 1.3 2.1 2.5 2.8 2.2 3.4 1.9 3.9 1.6 4.4 1.2 4.8.7 35.4 3.3 53 4.9 7.2.7 4.8.2 4.8-.3 4.6-.8 4.2-1.2 3.8-1.6 3.3-2 1.2-1.1c-.9-3-4.2-5.2-8.7-5.6zm-373.6-892.8l117.5-34.4c3-.9 4.8-2.5 5.4-4.5l-1-.6-3.8-1.7-4.2-1.3-4.5-.9-4.7-.4-4.8.1-4.7.5-4.6 1.1-85.9 25.1-4.2 1.5-3.6 1.9-2.9 2.2-2.2 2.4-1.4 2.6-.6 2.7.2 2.8.3.7c3.2.9 6.7 1 9.7.2zM711.8 631.7l-20.3-72.5c-.7-2.5-4.4-4.3-9.1-5l-2.5 1-3.4 1.9-2.8 2.2-2.1 2.4-1.3 2.6-.5 2.8.4 2.9 6.7 24.2 8.7 31 1.2 2.7 2 2.5 2.7 2.3 3.3 2 3.8 1.6 4.3 1.2 3.1.5c4-1.5 6.5-3.8 5.8-6.3z"/>
            <path fill="#656769" d="M1316.8 653l-70-40.4c-2.2-1.2-5.6-1.2-7.8 0l-42.4 24.5-40-5.3v15.9l7.3-4.2 109 62.9-.1.1V730l17.2 9.9c2.2 1.2 5.6 1.3 7.8 0l80.8-46.7c1-.6 1.6-1.4 1.6-2.2v-29.6l-63.4-8.4z"/>
            <path fill="#c8caca" d="M1297.7 710.3c-2.1 1.2-5.6 1.2-7.8 0l-131.8-76.1c-2.2-1.2-2.2-3.2 0-4.5L1239 583c2.1-1.2 5.6-1.2 7.8 0l131.8 76.1c2.2 1.2 2.2 3.3 0 4.5l-80.9 46.7z"/>
            <path fill="#656769" d="M1763.6 373v-.4c-.1-.9-.7-1.8-1.9-2.5l-15.3-8.9c-2.6-1.5-6.8-1.5-9.3 0l-11.7 6.8c-1.4.8-2 1.8-1.9 2.9v6.2c0 1 .6 2 1.9 2.8l15.3 8.9c2.6 1.5 6.8 1.5 9.3 0l11.7-6.8c1.4-.8 2-1.9 1.9-2.9V373z"/>
            <path fill="#898b8e" d="M1975.7 538.4l13-5V524l-13 7.2-1.4 4.9z"/>
        </g>
        <path
            id="line-chip"
            fill="none"
            stroke="#fff"
            stroke-width="10"
            stroke-linecap="square"
            stroke-linejoin="square"
            stroke-miterlimit="10"
            stroke-dasharray="30,100"
            d="M1533.8 448l-110.3 64.2 112.2 64.9 109.4-62.6z"
        />

    </g>
    <circle id="led-power" fill="#ee3f6a" opacity=".75" cx="1414" cy="685" r="19.3"/>
    <circle id="led-rm" fill="#78ea60" opacity=".75" cx="1342.6" cy="545.8" r="31.1"/>
    <circle id="led-lm" fill="#78ea60" opacity=".75" cx="1459.9" cy="624.3" r="31.1"/>
    <circle id="led-re" fill="#2bcbfc" opacity=".75" cx="1536.8" cy="329.1" r="41.4"/>
    <circle id="led-le" fill="#2bcbfc" opacity=".75" cx="1843.1" cy="512.2" r="41.4"/>
</svg>
