<svg xmlns="http://www.w3.org/2000/svg" viewBox="0 0 250 250">
	<g id="analog-sensor">
		<path fill="#FFF" d="M227 175.9c-.5-.5-1.1-1-1.6-1.5.5-.8 1-1.6 1.4-2.4 19.7-42.6 10.6-93.5-22.6-126.7-21.2-21.2-49.5-32.9-79.5-32.9S66.4 24.1 45.2 45.3C24 66.5 12.3 94.8 12.3 124.8s11.7 58.3 32.9 79.5c10.6 10.6 23 18.9 36.9 24.5 13.6 5.6 28 8.4 42.7 8.4 16.7 0 33.4-3.8 48.4-11 .4-.2.8-.4 1.2-.7.5.5.9 1 1.4 1.5 6.8 6.8 15.9 10.6 25.6 10.6s18.7-3.8 25.6-10.6c6.8-6.8 10.6-15.9 10.6-25.6 0-9.6-3.7-18.7-10.6-25.5z"/>
		<path fill="#333" d="M124.8 160.6c-9.6 0-18.6-3.7-25.3-10.5-14-14-14-36.7 0-50.6 14-14 36.7-14 50.6 0 14 14 14 36.7 0 50.6-6.8 6.7-15.8 10.5-25.3 10.5zm0-63.6c-7.1 0-14.2 2.7-19.7 8.1-10.8 10.8-10.8 28.5 0 39.3 5.3 5.3 12.2 8.1 19.7 8.1s14.4-2.9 19.7-8.1c10.8-10.8 10.8-28.5 0-39.3-5.5-5.4-12.6-8.1-19.7-8.1z"/>
		<path fill="#333" d="M124.8 192.3c-17.3 0-34.6-6.6-47.8-19.8-12.8-12.8-19.8-29.7-19.8-47.8s7-35 19.8-47.8c26.4-26.4 69.2-26.4 95.6 0 26.4 26.4 26.4 69.2 0 95.6-13.2 13.2-30.5 19.8-47.8 19.8zm0-127.1c-15.3 0-30.5 5.8-42.1 17.4-11.3 11.3-17.5 26.2-17.5 42.1 0 15.9 6.2 30.9 17.5 42.1 23.2 23.2 61.1 23.2 84.3 0 23.2-23.2 23.2-61.1 0-84.3-11.7-11.5-27-17.3-42.2-17.3z"/>
		<path fill="#333" d="M124.9 224.2c-25.8 0-51.3-10-70.4-29.1-18.8-18.8-29.1-43.7-29.1-70.3 0-26.6 10.3-51.5 29.1-70.3 18.8-18.8 43.7-29.1 70.3-29.1 26.6 0 51.5 10.3 70.3 29.1 29.3 29.3 37.4 74.4 20 112-.9 2-3.3 2.9-5.3 2-2-.9-2.9-3.3-2-5.3 16-34.6 8.6-76-18.4-103-17.3-17.3-40.2-26.8-64.6-26.8-24.4 0-47.4 9.5-64.6 26.8-17.3 17.3-26.8 40.2-26.8 64.6 0 24.4 9.5 47.4 26.8 64.6 27.4 27.4 69.2 34.5 104.1 17.8 2-1 4.4-.1 5.3 1.9 1 2 .1 4.4-1.9 5.3-13.7 6.6-28.3 9.8-42.8 9.8z"/>
		<path fill="#333" d="M217.9 185.1c-9-9-23.7-9-32.7 0-9 9-9 23.7 0 32.7 4.5 4.5 10.4 6.8 16.4 6.8 5.9 0 11.9-2.3 16.4-6.8 4.4-4.4 6.8-10.2 6.8-16.4-.2-6.1-2.6-11.9-6.9-16.3zm-5.7 27.1c-5.9 5.9-15.5 5.9-21.4 0-5.9-5.9-5.9-15.5 0-21.4 3-3 6.8-4.4 10.7-4.4 3.9 0 7.8 1.5 10.7 4.4 2.9 2.9 4.4 6.7 4.4 10.7 0 4-1.5 7.8-4.4 10.7z"/>
	</g>
</svg>
