<svg xmlns="http://www.w3.org/2000/svg" viewBox="0 0 250 250">
	<g id="buzzer">
		<g  fill="#FFF">
			<path d="M244.6 125c0-15.4-3.1-30.8-8.9-45.1 5.7-7.9 8.8-17.5 8.8-27.4 0-25.9-21.1-47-47-47-9.9 0-19.5 3.1-27.4 8.8-14.3-5.8-29.7-8.9-45.1-8.9-15.4 0-30.8 3.1-45.1 8.9C72 8.6 62.4 5.5 52.5 5.5c-25.9 0-47 21.1-47 47 0 9.9 3.1 19.5 8.8 27.4-5.9 14.3-8.9 29.7-8.9 45.1 0 15.4 3.1 30.8 8.9 45.1-5.7 7.9-8.8 17.5-8.8 27.4 0 25.9 21.1 47 47 47 9.9 0 19.5-3.1 27.4-8.8 14.3 5.8 29.7 8.9 45.1 8.9 15.4 0 30.8-3 45.1-8.9 7.9 5.7 17.5 8.8 27.4 8.8 25.9 0 47-21.1 47-47 0-9.9-3.1-19.5-8.8-27.4 5.9-14.3 8.9-29.7 8.9-45.1zm-13 72.5c0 18.8-15.3 34-34 34-9.6 0-18.7-4.1-25.2-11.1-15 7.4-31.2 11.1-47.4 11.1s-32.4-3.7-47.4-11.1c-6.4 7-15.6 11.1-25.2 11.1-18.8 0-34-15.3-34-34 0-9.6 4.1-18.7 11.1-25.1-14.9-29.9-14.9-64.9 0-94.8-7-6.4-11.1-15.6-11.1-25.1 0-18.8 15.3-34 34-34 9.6 0 18.7 4.1 25.1 11.1 15-7.4 31.2-11.2 47.4-11.2s32.4 3.7 47.4 11.2c6.4-7 15.6-11.1 25.1-11.1 18.8 0 34 15.3 34 34 0 9.6-4.1 18.7-11.1 25.1 14.9 29.9 14.9 64.9 0 94.8 7.2 6.4 11.3 15.6 11.3 25.1z"/>
			<path d="M211.9 78.5c-.9-1.7-.5-3.9 1.1-5.1 6.7-5 10.5-12.6 10.5-20.9 0-14.4-11.7-26-26-26-8.3 0-15.9 3.8-20.9 10.5-.8 1-2 1.6-3.2 1.6-.6 0-1.3-.2-1.9-.5C157 30.3 141 26.4 125 26.4s-32 3.9-46.5 11.7c-.6.3-1.2.5-1.9.5-1.2 0-2.4-.6-3.2-1.6-5-6.7-12.6-10.5-20.9-10.5-14.4 0-26 11.7-26 26 0 8.3 3.8 15.9 10.5 20.9 1.6 1.2 2.1 3.4 1.1 5.1-15.6 29.1-15.6 63.9 0 93.1.9 1.7.5 3.9-1.1 5.1-6.7 5-10.5 12.6-10.5 20.9 0 14.4 11.7 26 26 26 8.3 0 15.9-3.8 20.9-10.5.8-1 2-1.6 3.2-1.6.6 0 1.3.2 1.9.5 14.6 7.8 30.5 11.7 46.5 11.7s32-3.9 46.5-11.7c.6-.3 1.2-.5 1.9-.5 1.2 0 2.4.6 3.2 1.6 5 6.7 12.6 10.5 20.9 10.5 14.4 0 26-11.7 26-26 0-8.3-3.8-15.9-10.5-20.9-1.6-1.2-2.1-3.4-1.1-5.1 15.6-29.2 15.6-64 0-93.1z"/>
		</g>
		<path fill="#333" d="M125 231.6c-16.2 0-32.4-3.7-47.4-11.1-6.4 7-15.6 11.1-25.2 11.1-18.8 0-34-15.3-34-34 0-9.6 4.1-18.7 11.1-25.1-14.9-29.9-14.9-64.9 0-94.8-7-6.4-11.1-15.6-11.1-25.1 0-18.8 15.3-34 34-34 9.6 0 18.7 4.1 25.1 11.1 29.9-14.9 64.9-14.9 94.8 0 6.4-7 15.6-11.1 25.1-11.1 18.8 0 34 15.3 34 34 0 9.6-4.1 18.7-11.1 25.1 14.9 29.9 14.9 64.9 0 94.8 7 6.4 11.1 15.6 11.1 25.2 0 18.8-15.3 34-34 34-9.6 0-18.7-4.1-25.2-11.1-14.8 7.3-31 11-47.2 11zm-48.4-20.2c.6 0 1.3.2 1.9.5 29.1 15.6 63.9 15.6 93 0 1.7-.9 3.9-.5 5.1 1.1 5 6.7 12.6 10.5 20.9 10.5 14.4 0 26-11.7 26-26 0-8.3-3.8-15.9-10.5-20.9-1.6-1.2-2.1-3.4-1.1-5.1 15.6-29.1 15.6-63.9 0-93-.9-1.7-.5-3.9 1.1-5.1 6.7-5 10.5-12.6 10.5-20.9 0-14.4-11.7-26-26-26-8.3 0-15.9 3.8-20.9 10.5-1.2 1.6-3.4 2.1-5.1 1.1-29.1-15.6-63.9-15.6-93 0-1.7.9-3.9.5-5.1-1.1-5-6.7-12.6-10.5-20.9-10.5-14.4 0-26 11.7-26 26 0 8.3 3.8 15.9 10.5 20.9 1.6 1.2 2.1 3.4 1.1 5.1-15.6 29.1-15.6 63.9 0 93.1.9 1.7.5 3.9-1.1 5.1-6.7 5-10.5 12.6-10.5 20.9 0 14.4 11.7 26 26 26 8.3 0 15.9-3.8 20.9-10.5.8-1.1 2-1.7 3.2-1.7z"/>
		<path fill="#333" d="M52.5 60c-4.1 0-7.5-3.4-7.5-7.5s3.4-7.5 7.5-7.5 7.5 3.4 7.5 7.5-3.4 7.5-7.5 7.5z"/>
		<path fill="#333" d="M197.5 60c-4.1 0-7.5-3.4-7.5-7.5s3.4-7.5 7.5-7.5 7.5 3.4 7.5 7.5-3.3 7.5-7.5 7.5z"/>
		<path fill="#333" d="M52.5 205.1c-4.1 0-7.5-3.4-7.5-7.5s3.4-7.5 7.5-7.5 7.5 3.4 7.5 7.5-3.4 7.5-7.5 7.5z"/>
		<path fill="#333" d="M197.5 205.1c-4.1 0-7.5-3.4-7.5-7.5s3.4-7.5 7.5-7.5 7.5 3.4 7.5 7.5-3.3 7.5-7.5 7.5z"/>
		<path fill="#333" d="M125 201.5c-42.2 0-76.5-34.3-76.5-76.5S82.8 48.5 125 48.5s76.5 34.3 76.5 76.5-34.3 76.5-76.5 76.5zm0-145c-37.8 0-68.5 30.7-68.5 68.5s30.7 68.5 68.5 68.5 68.5-30.7 68.5-68.5-30.7-68.5-68.5-68.5z"/>
		<path fill="#333" d="M125 153c-15.4 0-28-12.6-28-28s12.6-28 28-28 28 12.6 28 28-12.6 28-28 28zm0-48c-11 0-20 9-20 20s9 20 20 20 20-9 20-20-9-20-20-20z"/>
	</g>
</svg>
