<svg xmlns="http://www.w3.org/2000/svg" viewBox="0 0 250 250">
	<g id="comparison">
		<path fill="#fff" d="M125 19a16 16 0 0 0-16 16v15.8a21.5 21.5 0 0 0-4.8 7.4L46.9 83.4l-.7.3c-.3.1-.5.2-.6.4l-.7.4-.9.6-1 .8-.5.5-.8.7-.9 1-.5.6-.6.8a4 4 0 0 0-.6 1.1l-.4 1-.1.1-.3.8-16.5 44.7-.4 1.5-.3 1.4-.2 1.4-.1 1.4c0 4.9 0 14 3.4 22.7a29.6 29.6 0 0 0 29.1 19.8c13.8 0 24.2-7 29.1-19.8 3.4-8.7 3.4-17.8 3.4-22.7l-.1-1.4-.2-1.4a32.5 32.5 0 0 0-.7-2.8l-11.3-30.7L109 91.2v108H69.8a16 16 0 0 0-16 16 16 16 0 0 0 16 16h110.4a16 16 0 0 0 16-16 16 16 0 0 0-16-16H141V82.3c2.1-2.1 3.7-4.6 4.8-7.4l22.9-10-3.5 9.3-.4 1.4-.3 1.5-.2 1.4-.1 1.4c0 4.9 0 14 3.4 22.7a29.6 29.6 0 0 0 29.1 19.8c13.8 0 24.2-7 29.1-19.8 3.4-8.7 3.4-17.8 3.4-22.7l-.1-1.4-.2-1.4a32.5 32.5 0 0 0-.7-2.8l-16.5-44.7-.2-.5-.2-.4-.3-.7-.4-.7-.4-.7-.6-1-.9-1-.4-.5-.8-.8-1-1-.6-.3-.9-.6-1.1-.6-.9-.4-.2-.1-.7-.3-1.2-.4-.9-.2-.8-.2-1.2-.1-1.1-.1h-2l-1 .2-.9.2-.9.3-1 .3-.4.2-.5.2L141 42v-7a16 16 0 0 0-16-16z"/>
		<path fill="#333" d="M217.1 79.5v-.4l-.1-.4-.1-.3-16.5-44.7-.1-.1v-.1l-.1-.3-.2-.3-.1-.1-.2-.2-.2-.3-.1-.1-.2-.2-.3-.2-.1-.1-.2-.1-.3-.2-.1-.1-.2-.1-.4-.1h-1.8l-.3.1-.2.1-.1.1h-.2L132.1 59c-.9-.9-2-1.6-3.2-2.1V35a4 4 0 0 0-4-4 4 4 0 0 0-4 4v21.9a10.4 10.4 0 0 0-6.4 9.6v.2L51.6 94.4l-.3.1-.3.2-.1.1-.2.2-.3.3-.1.1-.1.2-.2.3-.1.1-.1.2-.2.3-.1.1L33 141.3l-.1.3-.1.4v.7c0 8.3 0 30.5 20.5 30.5s20.5-22.2 20.5-30.5v-.7l-.1-.4-.1-.3-15.2-41.2L117.9 74c.9.9 2 1.6 3.2 2.1V211H69.9a4 4 0 0 0-4 4 4 4 0 0 0 4 4h110.2a4 4 0 0 0 4-4 4 4 0 0 0-4-4h-51.2V76.2c3.8-1.6 6.4-5.3 6.4-9.6v-.2l54.3-23.9-13.2 35.9-.1.3-.1.4v.7c0 8.3 0 30.5 20.5 30.5s20.5-22.2 20.5-30.5zm-9.7-3.7h-21.5l10.8-29.2zm-84.9-9.2c0-1.3 1.1-2.4 2.4-2.4 1.3 0 2.4 1.1 2.4 2.4 0 1.3-1.1 2.4-2.4 2.4a2.4 2.4 0 0 1-2.4-2.4zm-69.3 43.1L64 138.9H42.5zm0 55.6c-9.4 0-12-7-12.4-18.5h24.8c-.4 11.5-3 18.5-12.4 18.5zm143.4-63c-9.4 0-12-7-12.4-18.5H209c-.4 11.5-3 18.5-12.4 18.5z"/>
	</g>
</svg>
