<svg xmlns="http://www.w3.org/2000/svg" viewBox="0 0 250 250">
	<g id="constrain">
		<path fill="#fff" d="M125.1 1.2a16 16 0 0 0-16 16v105.9a797 797 0 0 1-10.6 64l-.4 1.9-.4-1.9c-4.1-17.2-7.4-41.2-10.7-64.4-4.4-31-8.1-56.1-13-74.1a81.3 81.3 0 0 0-9.4-23.2c-6.7-10.1-14.8-12.2-20.4-12.2-5.6 0-13.7 2.1-20.4 12.2-3.8 5.6-6.8 13-9.6 23.3-4.9 18-8.6 43.1-13 74.1A16.1 16.1 0 0 0 17 141.1a16 16 0 0 0 15.8-13.8v-.1c3.3-23.1 6.6-47 10.7-64.2l.4-1.8.4 1.9c4.1 17.2 7.4 41.2 10.7 64.4 4.4 31 8.1 56.1 13 74.1a81.3 81.3 0 0 0 9.4 23.2c6.7 10.1 14.8 12.2 20.4 12.2 4 0 7.7-1 11.1-3a16 16 0 0 0 32-.9V125.3c2.6-18.1 5.4-38.1 8.6-54.2h4.5c3.3 16.2 6.1 36.5 8.9 56.1l2.2 15.5.2 1.1.2.6.6 1.8.5 1.1.9 1.6.7 1 1.1 1.4.8.8 1.3 1.1 1 .7 1.5.8 1.1.5 1.7.6 1.2.3c1 .2 2 .3 3.1.3h49.6a17 17 0 0 0 4.3-.6l1.6-.5 1.2-.6 1.4-.8 1.1-.7 1.3-1 .9-.9 1-1.3.7-1.1.8-1.5.5-1.2.5-1.6.2-.8.2-1 2.1-14.6.1-.9a16.1 16.1 0 0 0-15.8-18.3 16 16 0 0 0-15.8 13.8l-.2 1.7H195l-.2-1.7a725.6 725.6 0 0 0-12.3-71.6 16 16 0 0 0-8.9-10.6l-.4-.2h-.1l-2.3-.7-.8-.2h-.1l-1.8-.2-1.2-.1H141v-22c.1-8.8-7.1-16-15.9-16z"/>
		<path fill="#333" d="M233.5 121a4 4 0 0 0-4.5 3.4l-1.7 12h-42.6l-1.7-12c-3.6-25.5-7.3-51.8-12.1-70.3a4.1 4.1 0 0 0-2.3-2.7h-.1l-.6-.2h-.1l-.6-.1h-30.9l-.3.1-.4.1-.3.2-.4.2-.3.2-.3.3-.2.2-.3.3-.2.3-.2.4-.1.4-.1.3c-1.4 5.5-2.7 11.7-4 18.4V17.2c0-2.2-1.8-4-4-4s-4 1.8-4 4V124l-.1.4c-3.3 23.4-6.7 47.7-10.9 65.4-6 25.5-11.2 26.8-12.1 26.8S92 215.3 86 189.8c-4.2-17.8-7.6-42-10.9-65.4-8.8-61.4-14.9-99.1-31-99.1S21.8 63 13.2 124.4c-.3 2.2 1.2 4.2 3.4 4.5s4.2-1.2 4.5-3.4c3.3-23.4 6.7-47.6 10.9-65.4 6-25.5 11.2-26.8 12.1-26.8s6.1 1.3 12.1 26.8c4.2 17.8 7.6 42 10.9 65.4 8.7 61.5 14.8 99.1 30.9 99.1 11 0 17.4-17.6 23.1-48.4v56.6c0 2.2 1.8 4 4 4s4-1.8 4-4V124.5c3.3-23.6 6.8-47.7 11-65.4h23.8a762 762 0 0 1 11.1 66.4l2.2 15.4v.1l.1.3.1.4.1.3.2.4.2.2.3.3.2.2.3.3.2.2.4.2.3.1.5.1.2.1.8.1h49.6l.8-.1.3-.1.5-.1.3-.1.4-.2.3-.2.3-.3.2-.2.3-.3.2-.3.2-.4.1-.3.1-.4.1-.3v-.1l2.2-15.4c.2-2-1.3-4.1-3.5-4.4z" />
	</g>
</svg>
