<svg xmlns="http://www.w3.org/2000/svg" viewBox="0 0 250 250">
	<g id="continuous-servo">
		<path fill="#FFF" d="M241.3 116.8v-.1-1.8-1c0-.6 0-1.3-.1-1.9V111.1c0-.7-.1-1.3-.1-2v-.8c-.1-.7-.1-1.4-.2-2.1l-.1-.5v-.1c-.1-.7-.1-1.4-.2-2.1l-.1-.4v-.2c-.1-.7-.2-1.5-.3-2.2l-.1-.4v-.1c-.1-.7-.2-1.5-.3-2.2l-.1-.4v-.1c-.1-.8-.3-1.5-.4-2.3l-.1-.3v-.1c-.2-.8-.3-1.5-.5-2.3l-.1-.3v-.1c-.2-.8-.4-1.6-.5-2.4l-.1-.2v-.1l-.6-2.4-.1-.2v-.1c-.2-.8-.5-1.6-.7-2.5V84c-.3-.8-.5-1.7-.8-2.5v-.1c-.3-.9-.6-1.7-.9-2.5v-.2c-5.5-15.6-14-29.6-25.4-41.5-.6-.6-1.2-1.2-1.8-1.9l-.3-.3-.2-.2-1.3-1.3-1.1-1.1-.6-.6-.1-.1C182.5 12 154.4 1 125.1 1 104.9 1 85.3 6.2 68 16 66.4 8.9 60 3.5 52.4 3.5c-8.8 0-16 7.2-16 16v27c-3 1.2-5.6 3.2-7.4 6-.6.9-1.3 1.9-1.8 2.8-14.6 23.1-20.6 50.8-16.8 78 3.8 27.5 17.4 52.8 38.2 71.1 2.7 2.4 5.6 4.7 8.5 6.8 2.8 2 6 3.1 9.4 3.1.5 0 1 0 1.5-.1V233c0 8.8 7.2 16 16 16h82.5c8.8 0 16-7.2 16-16v-17.1c3-.1 5.9-1.1 8.4-2.8 5.2-3.6 10.2-7.6 14.8-12.1.6-.5 1.2-.9 1.7-1.5 18.3-18.3 29.7-41.5 33-67.2V132c.1-.8.2-1.5.3-2.3v-.7c.1-.7.1-1.3.2-2v-.2c0-.2 0-.5.1-.7 0-.6.1-1.1.1-1.7v-.1c0-.4 0-.7.1-1.1 0-.5 0-1 .1-1.4 0-.5 0-1 .1-1.4v-1.2-1.7c-.1-.1-.1-.4-.1-.7zM82.7 64.6c8.8 0 16-7.2 16-16 0-3.8-1.3-7.2-3.5-9.9 9.5-3.6 19.7-5.6 30.1-5.6 11.1 0 22 2.1 32 6.3-4.6 1.7-8.8 4.4-12.4 8l-19.1 19.1H83.9c-8.8 0-16 7.2-16 16v41.9l-12.8 12.8c-3.4 3.4-6 7.4-7.7 11.7-2.6-6.4-4.5-13.2-5.4-20.1-2.7-19.7 1.6-39.8 12.2-56.5.4-.7.9-1.4 1.3-2.1 1.2-1.8 2-3.7 2.4-5.7h24.8zm124.2 32.6l.9 3.9v.1c.2 1.3.5 2.6.7 3.9v.1c.2 1.3.3 2.6.5 3.9v.2c.1 1.2.2 2.5.3 3.8V113.4c.1 1.2.1 2.4.1 3.7v.4c0 1.1 0 2.4-.1 3.6v.5c-.1 1.1-.1 2.2-.2 3.4v.2c0 .2 0 .4-.1.6-.1 1-.2 2-.4 3.1 0 .3-.1.7-.1 1-.1.8-.3 1.7-.5 2.8-.1.5-.2.9-.3 1.4-.1.7-.3 1.4-.5 2.4s-.5 2-.8 3.2l-.1.3v.2c-.2.6-.4 1.3-.7 2.2-3.5 11.3-9.3 21.6-17.2 30.5-1.9 2.1-3.9 4.2-6 6.1v-70.4l11.9-11.9c3.8-3.8 6.5-8.2 8.2-13 1.8 4.4 3.3 8.9 4.4 13.5z"/>
		<path fill="#FFF" d="M91.3 189.1h6.4c.7 3.6 1.9 5.9 3.5 8.5l-4.5 4.6c-.3.3-.3.9 0 1.2l8 8c.3.3.9.3 1.2 0l4.6-4.5c2.6 1.6 4.9 2.8 8.6 3.5v6.4c0 .5.2 1.4.6 1.4H131c.5 0 1.4-.9 1.4-1.4v-6.4c2.4-.7 5.6-1.9 8.2-3.5l4.4 4.5c.3.3.8.3 1.1 0l8-8c.3-.3.3-.9 0-1.2l-4.5-4.6c1.6-2.6 2.8-4.9 3.5-8.5h6.4c.5 0 .9-.2.9-.7v-11.3c0-.5-.4-1.3-.9-1.3H153c-.7-2.4-1.9-5.6-3.5-8.2l4.5-4.4c.3-.3.3-.8 0-1.2l-8-8c-.3-.3-.9-.3-1.2 0l-4.3 4.5c-2.6-1.6-5.7-2.8-8.2-3.5v-6.4c0-.5-.9-.8-1.4-.8h-4.8l-7.1 7.1v.1h-.1l-23 23c-1.8 1.8-3.8 3.2-6 4.3v6c0 .6.9.8 1.4.8zm34.3-17.4c6.3 0 11.4 5.1 11.4 11.4 0 6.3-5.1 11.4-11.4 11.4-6.3 0-11.4-5.1-11.4-11.4 0-6.3 5.1-11.4 11.4-11.4z"/>
		<path fill="#FFF" d="M91.7 173.9l38.8-38.8c-1.8.6-3.7.9-5.7.9-10.4 0-18.9-8.5-18.9-18.9 0-2.2.4-4.3 1.1-6.2L67.8 150c-6.6 6.6-6.6 17.3 0 23.9 3.2 3.2 7.4 4.9 11.9 4.9 4.6.1 8.8-1.7 12-4.9z"/>
		<path fill="#FFF" d="M143.8 117c0 2-.3 3.9-.9 5.7l38.6-38.6c6.6-6.6 6.6-17.3 0-23.9-3.2-3.2-7.4-4.9-11.9-4.9s-8.8 1.8-11.9 5l-39 39c2-.7 4-1.1 6.2-1.1 10.4-.1 18.9 8.4 18.9 18.8z"/>
		<path fill="#FFF" d="M124.8 104.1c-7.1 0-12.9 5.8-12.9 12.9 0 7.1 5.8 12.9 12.9 12.9s12.9-5.8 12.9-12.9c.1-7.1-5.7-12.9-12.9-12.9z"/>
		<g  fill="#333">
			<path d="M68.7 195c-2.4-1.8-4.8-3.7-7.1-5.7-17.3-15.2-28.5-36.1-31.6-58.9C26.9 108 31.9 85 44 65.9c.5-.8 1-1.6 1.5-2.3 1.2-1.8.7-4.3-1.1-5.6-1.8-1.2-4.3-.7-5.6 1.1-.6.8-1.1 1.7-1.7 2.5C24 82.3 18.7 107.1 22 131.5c3.4 24.6 15.6 47.3 34.3 63.8 2.4 2.2 5 4.2 7.6 6.1.7.5 1.5.8 2.4.8 1.2 0 2.5-.6 3.2-1.6 1.4-1.8 1-4.3-.8-5.6z"/>
			<path d="M185.7 55.9c-4.3-4.3-10.1-6.7-16.2-6.7s-11.9 2.4-16.2 6.7l-22.6 22.7H83.9c-2.2 0-4 1.8-4 4v46.9l-16.3 16.3c-8.9 8.9-8.9 23.5 0 32.4 4.3 4.3 10.1 6.7 16.2 6.7h.1V233c0 2.2 1.8 4 4 4h82.5c2.2 0 4-1.8 4-4V103.7l15.4-15.4c8.9-8.9 8.9-23.5-.1-32.4zm-54.7 92c.5 0 1.4.4 1.4.8v6.4c2.4.7 5.6 1.9 8.2 3.5l4.3-4.5c.3-.3.9-.4 1.2 0l8 8c.3.3.3.8 0 1.2l-4.5 4.4c1.6 2.6 2.8 5.8 3.5 8.2h6.4c.5 0 .9.9.9 1.3v11.3c0 .5-.4.7-.9.7H153c-.7 3.6-1.9 5.9-3.5 8.5l4.5 4.6c.3.3.4.9 0 1.2l-8 8c-.3.3-.8.3-1.1 0l-4.4-4.5c-2.6 1.6-5.7 2.8-8.2 3.5v6.4c0 .5-.9 1.4-1.4 1.4h-11.3c-.5 0-.6-.9-.6-1.4v-6.4c-3.6-.7-6-1.9-8.6-3.5l-4.6 4.5c-.3.3-.9.3-1.2 0l-8-8c-.3-.3-.3-.9 0-1.2l4.5-4.6c-1.6-2.6-2.8-4.9-3.5-8.5h-6.4c-.5 0-1.3-.2-1.3-.7v-6c2.2-1.1 4.2-2.5 6-4.3l23-23h.1v-.2l7.1-7.1h4.9zm-6.2-17.9c-7.1 0-12.9-5.8-12.9-12.9 0-7.1 5.8-12.9 12.9-12.9s12.9 5.8 12.9 12.9c.1 7.1-5.7 12.9-12.9 12.9zm-45.1 48.9c-4.5 0-8.8-1.8-12-4.9-6.6-6.6-6.6-17.3 0-23.9l39.2-39.2c-.7 1.9-1.1 4-1.1 6.2 0 10.4 8.5 18.9 18.9 18.9 2 0 3.9-.3 5.7-.9l-38.8 38.8c-3.1 3.2-7.3 5-11.9 5zm63.2-56.2c.6-1.8.9-3.7.9-5.7 0-10.4-8.5-18.9-18.9-18.9-2.2 0-4.3.4-6.2 1.1l39-39c3.2-3.2 7.4-5 11.9-5s8.8 1.8 11.9 4.9c6.6 6.6 6.6 17.3 0 23.9l-38.6 38.7z"/>
			<path d="M229.3 116.7v-1.6-.8c0-.6 0-1.1-.1-1.7v-.7c0-.6-.1-1.2-.1-1.8v-.7c0-.6-.1-1.2-.2-1.9 0-.2 0-.4-.1-.6-.1-.6-.1-1.3-.2-1.9 0-.2 0-.4-.1-.5-.1-.7-.2-1.3-.3-2 0-.2 0-.3-.1-.5-.1-.7-.2-1.3-.3-2 0-.2-.1-.3-.1-.4-.1-.7-.2-1.4-.4-2 0-.1-.1-.3-.1-.4-.1-.7-.3-1.4-.4-2.1 0-.1-.1-.2-.1-.4-.2-.7-.3-1.4-.5-2.1 0-.1-.1-.2-.1-.3-.2-.7-.4-1.4-.6-2.2 0-.1 0-.2-.1-.2-.2-.7-.4-1.5-.6-2.2 0-.1 0-.1-.1-.2-.2-.8-.5-1.5-.7-2.3v-.1c-.3-.8-.5-1.6-.8-2.3-4.7-13.6-12.4-26.4-22.8-37.3-.5-.6-1.1-1.1-1.7-1.7l-.2-.2-.2-.2-1.2-1.2c-.3-.3-.7-.6-1-1l-.6-.6c-19-17.8-44-27.6-70.5-27.6-25.6 0-49.7 9.1-68.7 25.8V19.5c0-2.2-1.8-4-4-4s-4 1.8-4 4v29.1c0 2.2 1.8 4 4 4h30.3c2.2 0 4-1.8 4-4s-1.8-4-4-4H62.3c33.7-29.3 83.4-31.4 119.4-5.2.1 0 .1.1.2.1 1 .7 2 1.5 3 2.3.3.2.6.5.9.7.7.6 1.5 1.2 2.2 1.8l2.4 2.1c.2.2.4.3.5.5l.9.9 1.1 1.1.3.3c12.9 12.9 21.3 28.5 25.3 45.1v.1c.4 1.5.7 3 1 4.5v.1c.3 1.5.5 3 .7 4.4v.2c.2 1.5.4 2.9.5 4.4v.2c.1 1.4.2 2.9.3 4.3v.3c.1 1.4.1 2.8.1 4.2v.4c0 1.4 0 2.7-.1 4.1v.6l-.3 3.9c0 .3-.1.6-.1.9-.1 1.2-.3 2.4-.4 3.6-.1.4-.1.8-.2 1.2-.2 1.1-.3 2.1-.5 3.2-.1.5-.2 1-.3 1.6l-.6 2.7c-.3 1.2-.6 2.5-.9 3.7 0 .2-.1.3-.1.5-.2.8-.5 1.7-.7 2.5-3.9 12.5-10.4 24.5-19.7 34.9-5.3 6-11.3 11.3-17.8 15.8-1.8 1.2-2.3 3.7-1 5.6.8 1.1 2 1.7 3.3 1.7.8 0 1.6-.2 2.3-.7 5-3.4 9.6-7.3 14-11.5.3-.2.6-.4.8-.6 16.9-16.9 26.8-38.2 29.6-60.3v-.3c.1-.7.2-1.4.2-2 0-.2 0-.4.1-.6.1-.6.1-1.2.2-1.8 0-.3 0-.6.1-.8 0-.5.1-1 .1-1.5 0-.4 0-.7.1-1.1 0-.4 0-.9.1-1.3v-1.3-1.1-1.5-.8z"/>
		  <circle  cx="125.6" cy="183.1" r="11.4"/>
		</g>
	</g>
</svg>
