<svg xmlns="http://www.w3.org/2000/svg" viewBox="0 0 250 250">
	<g id="converter">
		<path fill="#FFF" d="M124.9 248.8c-8.8 0-16-7.2-16-16v-71.5c-14.1-1.5-20.4-14.8-24.4-26.1-4.2 12-11 26.3-27 26.3-16.4 0-23.1-15.2-27.3-27.3-2.9 4.3-7.8 6.9-13.2 6.9-1.7 0-3.4-.3-5-.8-4.1-1.3-7.3-4.2-9.3-8-1.9-3.8-2.2-8.2-.9-12.2C6 107.5 12.3 88.6 30.6 88.6c15.9 0 22.7 14.3 27 26.3 4.2-12 11-26.3 27-26.3 13.1 0 20 9.6 24.4 19.7V17.2c0-8.8 7.2-16 16-16s16 7.2 16 16v51.1c8.9 1 15.5 7.5 19.6 19.5 1.9 5.6 3.5 12.7 5 21 1.5-8.3 3.1-15.4 5-21C175 75 182.2 68.4 192 68.2h1.1c9.9.2 17.1 6.8 21.4 19.6 2.1 6 3.7 13.7 5.3 22.9l4.6.8c2.5-1.6 5.4-2.4 8.5-2.4.9 0 1.7.1 2.6.2 4.2.7 7.9 3 10.4 6.5s3.5 7.7 2.8 11.9c-2.4 14.4-4.4 26.1-7.3 34.6-4.4 13-11.8 19.6-22 19.6h-.8c-9.8-.4-16.9-7-21.2-19.8-1.9-5.6-3.4-12.6-4.9-20.8-1.5 8.3-3.1 15.4-5 21-4.4 13-11.8 19.6-22 19.6s-17.5-6.6-22-19.6c-1-2.8-1.8-5.9-2.6-9.4V233c0 8.6-7.2 15.8-16 15.8z"/>
		<path fill="#333" d="M233.5 121.1c-2.2-.4-4.2 1.1-4.6 3.3-1.5 9.1-3.1 18.6-4.9 25.8-2.2 8.5-4 10.9-4.6 11.5-.6-.6-2.5-3-4.6-11.5-1.8-7.2-3.4-16.7-4.9-25.8-4.7-28.2-7.8-44.2-17.4-44.2-9.7 0-12.8 16-17.4 44.2h.1c-1.5 9.1-3.1 18.6-4.9 25.8-2.2 8.5-4 10.9-4.6 11.5-.6-.6-2.5-2.9-4.6-11.5-1.8-7.2-3.4-16.7-4.9-25.9-4.7-28.2-7.8-44.2-17.4-44.2-4.2 0-7.2 3.1-9.6 8.8V17.2c0-2.2-1.8-4-4-4s-4 1.8-4 4v107.5c-2.4 7.4-5.7 16.7-9.4 16.7-3.9 0-7.2-10.2-9.7-17.7-3.8-11.4-7.7-23.2-17.3-23.2s-13.5 11.8-17.3 23.2c-.1.3-.1.6-.2.9-2.4 7.4-5.7 16.8-9.4 16.8-3.9 0-7.2-10.2-9.7-17.7-3.8-11.4-7.7-23.2-17.3-23.2S17 112.4 13.3 123.7c-.7 2.1.4 4.4 2.5 5.1 2.1.7 4.4-.4 5.1-2.5 2.5-7.5 5.8-17.7 9.7-17.7 3.9 0 7.2 10.2 9.7 17.7 3.8 11.4 7.7 23.2 17.3 23.2 9.6 0 13.5-11.8 17.3-23.2.1-.3.1-.6.2-.9 2.4-7.4 5.7-16.8 9.4-16.8 3.9 0 7.2 10.2 9.7 17.7 3.8 11.4 7.7 23.2 17.3 23.2 4 0 7-2 9.4-5.2v88.6c0 2.2 1.8 4 4 4s4-1.8 4-4v-107-.2c1.5-9.2 3.1-18.6 4.9-25.9 2.2-8.5 4-10.9 4.6-11.5.6.6 2.5 2.9 4.6 11.5 1.8 7.2 3.4 16.7 4.9 25.9 4.7 28.2 7.8 44.2 17.4 44.2 9.7 0 12.8-16 17.4-44.2 1.5-9.1 3.1-18.6 4.9-25.8 2.1-8.4 3.9-10.8 4.6-11.4.7.6 2.5 3 4.6 11.4 1.8 7.2 3.4 16.7 4.9 25.9 4.6 28 7.7 43.9 17.3 44.1h.2c9.7 0 12.8-16 17.4-44.2.6-2.2-.9-4.3-3.1-4.6z"/>
	</g>
</svg>
