<svg xmlns="http://www.w3.org/2000/svg" viewBox="0 0 250 250">
	<g id="counter">
		<path fill="#fff" d="M215.9 52.6h-38c-6 0-11.9 1.7-16.9 4.7-5.1-3-10.9-4.7-16.9-4.7h-38c-6 0-11.9 1.7-16.9 4.7-5.1-3-10.9-4.7-16.9-4.7h-38C16 52.6 1.2 67.3 1.2 85.5V172c0 18.2 14.8 33 32.9 33h38c6 0 11.9-1.7 16.9-4.7 5.1 3 10.9 4.7 16.9 4.7h38c6 0 11.9-1.7 16.9-4.7 5.1 3 10.9 4.7 16.9 4.7h38c18.1 0 32.9-14.8 32.9-32.9V85.5c.2-18.2-14.6-32.9-32.7-32.9z"/>
		<path fill="#333" d="M215.9 64.6h-38c-7 0-13.1 3.4-16.9 8.7-3.8-5.2-10-8.7-16.9-8.7h-38c-7 0-13.1 3.4-16.9 8.7-3.8-5.2-10-8.7-16.9-8.7h-38c-11.5 0-20.9 9.4-20.9 20.9V172c0 11.5 9.4 20.9 20.9 20.9h38c7 0 13.1-3.4 16.9-8.7 3.8 5.2 10 8.7 16.9 8.7h38c7 0 13.1-3.4 16.9-8.7 3.8 5.2 10 8.7 16.9 8.7h38c11.5 0 20.9-9.4 20.9-20.9V85.5c0-11.5-9.4-20.9-20.9-20.9zM85.1 172c0 7.1-5.8 12.9-12.9 12.9h-38c-7.1 0-12.9-5.8-12.9-12.9V85.5c0-7.1 5.8-12.9 12.9-12.9h38c7.1 0 12.9 5.8 12.9 12.9V172zm71.8 0c0 7.1-5.8 12.9-12.9 12.9h-38c-7.1 0-12.9-5.8-12.9-12.9V85.5c0-7.1 5.8-12.9 12.9-12.9h38c7.1 0 12.9 5.8 12.9 12.9V172zm71.9 0c0 7.1-5.8 12.9-12.9 12.9h-20.6l18.5-37c.6-1.2.6-2.7-.2-3.9-.7-1.2-2-1.9-3.4-1.9h-26.8c-2.2 0-4 1.8-4 4s1.8 4 4 4h20.3L186.4 185h-8.5c-7.1 0-12.9-5.8-12.9-12.9V85.5c0-7.1 5.8-12.9 12.9-12.9h2.1c-.3 1.3-.5 2.7-.5 4V97c0 9.6 7.8 17.4 17.4 17.4s17.4-7.8 17.4-17.4-7.8-17.4-17.4-17.4c-3.5 0-6.7 1-9.4 2.8v-5.7c0-1.4.3-2.8.9-4h17c.6 1.3.9 2.6.9 4 0 2.2 1.8 4 4 4s4-1.8 4-4c0-1.4-.2-2.7-.5-4h2.1c7.1 0 12.9 5.8 12.9 12.9V172zm-41.3-75c0-5.2 4.2-9.4 9.4-9.4s9.4 4.2 9.4 9.4-4.2 9.4-9.4 9.4-9.4-4.3-9.4-9.4z"/>
		<path fill="#333" d="M125 157.7c-2.2 0-4-1.8-4-4v-57c0-2.2 1.8-4 4-4s4 1.8 4 4v57c0 2.2-1.8 4-4 4zM53.4 157.7c-9.6 0-17.4-7.8-17.4-17.4v-30.2c0-9.6 7.8-17.4 17.4-17.4s17.4 7.8 17.4 17.4v30.2c0 9.6-7.8 17.4-17.4 17.4zm0-57c-5.2 0-9.4 4.2-9.4 9.4v30.2c0 5.2 4.2 9.4 9.4 9.4s9.4-4.2 9.4-9.4v-30.2c0-5.2-4.2-9.4-9.4-9.4z"/>
	</g>
</svg>
