<svg xmlns="http://www.w3.org/2000/svg" viewBox="0 0 250 250">
	<g id="dual-color-led">
		<g  fill="#333">
			<circle  cx="106.5" cy="109.3" r="11.4"/>
			<circle  cx="143.5" cy="109.1" r="11.4"/>
			<path d="M187.5 154h-10V65.4c0-29-23.6-52.6-52.5-52.6-29 0-52.5 23.6-52.5 52.6V154h-10c-2.2 0-4 1.8-4 4s1.8 4 4 4h40.1v70.8c0 2.2 1.8 4 4 4s4-1.8 4-4V162h28.8v34c0 2.2 1.8 4 4 4s4-1.8 4-4v-34h40.1c2.2 0 4-1.8 4-4s-1.8-4-4-4zm-107-88.6c0-24.6 20-44.6 44.5-44.6 24.6 0 44.5 20 44.5 44.6V154h-89V65.4z"/>
		</g>
		<g >
			<path fill="#FFF" d="M189.5 142.2V65.4c0-35.6-29-64.6-64.5-64.6s-64.5 29-64.5 64.6v76.8c-7.9 1-14 7.7-14 15.9 0 8.8 7.2 16 16 16h28.1v58.8c0 8.8 7.2 16 16 16s16-7.2 16-16V174h4.8v22c0 8.8 7.2 16 16 16s16-7.2 16-16v-22h28.1c8.8 0 16-7.2 16-16 0-8.1-6.1-14.8-14-15.8z"/>
			<circle  cx="106.5" cy="109.3" r="11.4" fill="#333"/>
			<circle  cx="143.5" cy="109.1" r="11.4" fill="#333"/>
			<path fill="#333" d="M187.5 154h-10V65.4c0-29-23.6-52.6-52.5-52.6-29 0-52.5 23.6-52.5 52.6V154h-10c-2.2 0-4 1.8-4 4s1.8 4 4 4h40.1v70.8c0 2.2 1.8 4 4 4s4-1.8 4-4V162h28.8v34c0 2.2 1.8 4 4 4s4-1.8 4-4v-34h40.1c2.2 0 4-1.8 4-4s-1.8-4-4-4zm-107-88.6c0-24.6 20-44.6 44.5-44.6 24.6 0 44.5 20 44.5 44.6V154h-89V65.4z"/>
		</g>
	</g>
</svg>
