<svg xmlns="http://www.w3.org/2000/svg" viewBox="0 0 250 250">
	<g id="gate">
		<path fill="#FFF" d="M178.9 150.1c-13.8 0-25.1-11.2-25.1-25.1s11.2-25.1 25.1-25.1c7.7 0 14.7 3.4 19.3 9.1h34.6c8.8 0 16 7.2 16 16s-7.2 16-16 16h-34.6c-4.6 5.6-11.6 9.1-19.3 9.1z"/>
		<path fill="#FFF" d="M71.1 150.1c-7.7 0-14.7-3.4-19.3-9.1H17.2c-8.8 0-16-7.2-16-16s7.2-16 16-16h34.6c4.7-5.6 11.7-9.1 19.3-9.1 4.1 0 8.1 1 11.7 2.9l73.4-30.4c1.9-.8 4-1.2 6.1-1.2 6.5 0 12.3 3.9 14.8 9.9 1.6 3.9 1.6 8.3 0 12.2-1.6 3.9-4.7 7-8.7 8.7L95 132.4c-3.1 10.2-12.7 17.7-23.9 17.7z"/>
		<path fill="#333" d="M232.8 121h-41.5c-1.7-5.3-6.6-9.1-12.4-9.1-7.2 0-13.1 5.9-13.1 13.1 0 7.2 5.9 13.1 13.1 13.1 5.8 0 10.7-3.8 12.4-9.1h41.5c2.2 0 4-1.8 4-4s-1.8-4-4-4zm-53.9 9.1c-2.8 0-5.1-2.3-5.1-5.1s2.3-5.1 5.1-5.1 5.1 2.3 5.1 5.1-2.3 5.1-5.1 5.1z"/>
		<path fill="#333" d="M166 85.7c-.8-2-3.2-3-5.2-2.2l-79.7 33c-2.4-2.8-6-4.6-10-4.6-5.8 0-10.7 3.8-12.4 9.1H17.2c-2.2 0-4 1.8-4 4s1.8 4 4 4h41.5c1.7 5.3 6.6 9.1 12.4 9.1 7.2 0 13.1-5.9 13.1-13.1 0-.4 0-.7-.1-1.1l79.7-33c2.1-.8 3.1-3.2 2.2-5.2zm-94.9 44.4c-2.8 0-5.1-2.3-5.1-5.1s2.3-5.1 5.1-5.1 5.1 2.3 5.1 5.1-2.3 5.1-5.1 5.1z"/>
	</g>
</svg>
