<svg xmlns="http://www.w3.org/2000/svg" viewBox="0 0 250 250">
	<g id="ir-proximity">
		<path fill="#FFF" d="M197.1 1.2c-8.8 0-16 7.2-16 16v76.5c-7 3.5-12.5 9.3-15.8 16.3-3.2-24.1-14.2-46.3-31.6-63.8-21-21-49-32.6-78.8-32.6-8.8 0-16 7.2-16 16 0 8.5 6.6 15.4 14.9 15.9-7.9 1-14 7.7-14 15.9 0 8.1 6.1 14.9 14 15.9-8.3.6-14.9 7.5-14.9 15.9 0 8.8 7.2 16 16 16 8.7 0 15.8 7.1 15.8 15.8 0 8.7-7.1 15.8-15.8 15.8-8.8 0-16 7.2-16 16 0 8.5 6.6 15.4 14.9 15.9-7.9 1-14 7.7-14 15.9 0 8.1 6.1 14.9 14 15.9-8.3.6-14.9 7.5-14.9 15.9 0 8.8 7.2 16 16 16 29.8 0 57.7-11.6 78.8-32.6 17.5-17.5 28.4-39.7 31.6-63.8 3.3 7 8.8 12.8 15.8 16.3v76.5c0 8.8 7.2 16 16 16s16-7.2 16-16V17.2c0-8.8-7.2-16-16-16z"/>
		<g  fill="#333">
			<path d="M197.1 13.2c-2.2 0-4 1.8-4 4v85c-10.9 1.9-19.2 11.4-19.2 22.8s8.3 20.9 19.2 22.8v85c0 2.2 1.8 4 4 4s4-1.8 4-4V17.2c0-2.2-1.8-4-4-4z"/>
			<path d="M54.9 152.8c-2.2 0-4 1.8-4 4s1.8 4 4 4c19.7 0 35.8-16.1 35.8-35.8 0-19.7-16.1-35.8-35.8-35.8-2.2 0-4 1.8-4 4s1.8 4 4 4c15.3 0 27.8 12.5 27.8 27.8s-12.5 27.8-27.8 27.8z"/>
			<path d="M54.9 25.6c-2.2 0-4 1.8-4 4s1.8 4 4 4c24.4 0 47.4 9.5 64.6 26.8 17.3 17.3 26.8 40.2 26.8 64.6s-9.5 47.4-26.8 64.6c-17.3 17.3-40.2 26.8-64.6 26.8-2.2 0-4 1.8-4 4s1.8 4 4 4c26.6 0 51.5-10.3 70.3-29.1 18.8-18.8 29.1-43.7 29.1-70.3S144 73.5 125.2 54.7c-18.8-18.8-43.8-29.1-70.3-29.1z"/>
			<path d="M55.8 184.6c-2.2 0-4 1.8-4 4s1.8 4 4 4c36.8 0 66.7-30.3 66.7-67.6 0-18-6.9-35-19.5-47.8-12.6-12.8-29.4-19.8-47.2-19.8-2.2 0-4 1.8-4 4s1.8 4 4 4c15.7 0 30.4 6.2 41.5 17.4 11.1 11.3 17.2 26.2 17.2 42.2 0 32.9-26.3 59.6-58.7 59.6z"/>
		</g>
	</g>
</svg>
