<svg xmlns="http://www.w3.org/2000/svg" viewBox="0 0 250 250">
	<g id="key-press">
		<path fill="#FFF" d="M243.8 176.2l-9.3-9.3V53.7c0-2.4-.5-4.7-1.6-6.9-.8-1.8-1.9-3.5-3.3-4.9l-26.8-26.8-.2-.2c-.7-.7-1.4-1.3-2.2-1.8-.5-.3-.9-.6-1.3-.7-.4-.2-.9-.5-1.5-.7-.6-.3-1.1-.4-1.5-.5-.4-.1-.9-.3-1.5-.4-.8-.2-1.7-.3-2.5-.3H27c-8.8 0-16 7.2-16 16v164.4c0 1 .1 2.1.3 3.1.1.6.3 1.1.4 1.4.1.4.3 1 .5 1.6.3.6.5 1.1.7 1.5.2.3.4.8.8 1.3.5.8 1.1 1.5 1.8 2.2l.1.1 26.8 26.8c.7.7 1.6 1.4 2.4 2 .5.3 1 .6 1.3.8.4.2.9.5 1.5.7.6.3 1.1.4 1.6.5.4.1.9.3 1.4.4 1 .2 2.1.3 3.1.3H166l10.2 10.2c3 3 7 4.7 11.3 4.7 4.3 0 8.3-1.7 11.3-4.7s42-41.9 45-45c3-3 4.7-7 4.7-11.3s-1.7-8.3-4.7-11.3z"/>
		<path fill="#333" d="M235.3 184.7l-12.9-12.9V53.7c0-.7-.2-1.3-.5-1.9-.2-.5-.5-1-.9-1.4l-26.8-26.8c-.2-.2-.4-.3-.6-.5-.1-.1-.2-.1-.3-.2-.1-.1-.3-.1-.4-.2-.1-.1-.3-.1-.4-.1-.1 0-.2-.1-.4-.1s-.5-.1-.7-.1H27c-2.2 0-4 1.8-4 4v164.4c0 .3 0 .5.1.8 0 .1.1.2.1.3 0 .1.1.3.1.4.1.1.1.2.2.4.1.1.1.2.2.3.1.2.3.4.5.6L51 220.4c.2.2.4.4.6.5.1.1.2.1.3.2.1.1.2.1.4.2.1.1.3.1.4.1.1 0 .2.1.3.1.3.1.5.1.8.1H171l13.7 13.7c.8.8 1.8 1.2 2.8 1.2s2-.4 2.8-1.2c1.6-1.6 1.6-4.1 0-5.7l-14.9-14.9-26.8-26.7-56.1-56.1c-10.8-10.8-10.8-28.5 0-39.3 10.8-10.8 28.5-10.8 39.3 0l56.7 56.7 27 27 14 14c.8.8 1.8 1.2 2.8 1.2s2-.4 2.8-1.2c1.8-1.5 1.8-4.1.2-5.6zM195.4 36.1l19 19v108.7l-19-19V36.1zM55.5 213.6l-18.8-18.8h107.5l18.8 18.8H55.5zM86.9 86.9c-14 14-14 36.7 0 50.6l49.2 49.2H31V30.4h156.4v106.4l-49.9-49.9c-13.9-13.9-36.6-13.9-50.6 0z"/>
		<path fill="#333" d="M194.4 169.1l-25.1 25.1c-1.6 1.6-1.6 4.1 0 5.7.8.8 1.8 1.2 2.8 1.2s2-.4 2.8-1.2l25.1-25.1c1.6-1.6 1.6-4.1 0-5.7-1.5-1.6-4-1.6-5.6 0z"/>
		<path fill="#333" d="M188.6 157.6c-1.6-1.6-4.1-1.5-5.7 0l-25 25.2c-1.6 1.6-1.5 4.1 0 5.7.8.8 1.8 1.2 2.8 1.2s2-.4 2.8-1.2l25-25.2c1.7-1.6 1.7-4.1.1-5.7z"/>
		<path fill="#333" d="M97 97c-8.5 8.5-8.5 22.3 0 30.8l12.6 12.6c.8.8 1.8 1.2 2.8 1.2 1 0 2-.4 2.8-1.2l25.1-25.1c.8-.8 1.2-1.8 1.2-2.8s-.4-2.1-1.2-2.8L127.7 97c-8.5-8.5-22.3-8.5-30.7 0zm15.3 34.8l-9.7-9.7c-5.4-5.4-5.4-14.1 0-19.4 2.7-2.7 6.2-4 9.7-4s7 1.3 9.7 4l9.7 9.7-19.4 19.4z"/>
	</g>
</svg>
