<svg xmlns="http://www.w3.org/2000/svg" viewBox="0 0 250 250">
	<g id="key-sequence">
		<path fill="#FFF" d="M249.4 100.4c-.1-.6-.3-1.2-.4-1.5-.1-.4-.3-1-.6-1.6-.3-.7-.5-1.2-.8-1.6-.2-.4-.5-.8-.8-1.4-.6-.9-1.3-1.8-2.1-2.6l-21.1-21.1c-2-2-4.5-3.5-7.1-4.3-.1-.4-.3-1-.6-1.6-.3-.7-.5-1.2-.8-1.6-.2-.4-.5-.8-.8-1.4-.6-.9-1.3-1.8-2.1-2.6L191.1 38c-2-2-4.3-3.4-6.9-4.2-.1-.4-.3-.9-.5-1.4-.3-.7-.5-1.2-.8-1.6-.2-.4-.5-.8-.8-1.4-.6-.9-1.3-1.8-2.1-2.6l-21.1-21c-3.2-3.2-7.5-5-12-5h-130c-9.4 0-17 7.6-17 17v129.1c0 4.6 1.9 9 5.2 12.2l21 21c.8.8 1.6 1.5 2.6 2.1.5.4 1 .6 1.4.8.4.2.9.5 1.5.8.5.2 1 .4 1.4.5.8 2.7 2.3 5.1 4.4 7.1l21 21c.8.8 1.6 1.5 2.6 2.1.5.4 1 .6 1.4.8.4.2.9.5 1.5.8.6.3 1.2.4 1.6.6.8 2.7 2.3 5.3 4.4 7.3l21 21c.8.8 1.6 1.5 2.6 2.1.5.4 1 .6 1.4.8.4.2.9.5 1.5.8.7.3 1.2.5 1.7.6.4.1.9.3 1.5.4 1.1.2 2.2.3 3.3.3h129.9c1.1 0 2.3-.1 3.4-.3.3-.1.7-.1 1-.2.8-.2 1.5-.4 2.2-.7.5-.2 1-.4 1.3-.6.4-.2 1-.5 1.6-.9.7-.5 1.4-1 2.1-1.7.2-.1.3-.3.5-.4.8-.8 1.5-1.7 2.1-2.6.3-.4.5-.8.7-1.1.3-.5.6-1.1.9-1.9.2-.5.3-.9.4-1.2.1-.4.4-1.2.5-2.1 0-.2.1-.4.1-.7.1-.9.2-1.7.2-2.6V103.7c-.1-1.1-.2-2.2-.4-3.3z"/>
		<path fill="#333" d="M236.7 102.9c0-.1-.1-.2-.1-.3 0-.1-.1-.3-.1-.4-.1-.1-.1-.3-.2-.4-.1-.1-.1-.2-.2-.3-.1-.2-.3-.4-.5-.6l-21.1-21.1c-.8-.8-1.9-1.2-2.9-1.2h-7.3v-7.4c0-.3 0-.5-.1-.8 0-.1-.1-.2-.1-.3 0-.1-.1-.3-.1-.4-.1-.1-.1-.3-.2-.4-.1-.1-.1-.2-.2-.3-.1-.2-.3-.4-.5-.6L182 47.3c-.8-.8-1.9-1.2-2.9-1.2h-7V39c0-.3 0-.5-.1-.8 0-.1-.1-.2-.1-.3 0-.1-.1-.3-.1-.4-.1-.1-.1-.3-.2-.4-.1-.1-.1-.2-.2-.3-.1-.2-.3-.4-.5-.6L149.7 15c-.8-.8-1.9-1.2-2.9-1.2H16.9c-2.2 0-4 1.8-4 4v129.1c0 1.1.5 2.2 1.3 2.9l21 21c.2.2.4.4.6.5.1.1.2.1.3.2.1.1.2.1.4.2.1.1.3.1.4.1.1 0 .2.1.3.1.3.1.5.1.8.1h7.1v7.1c0 1.1.5 2.2 1.3 2.9l21.1 21.1c.2.2.4.4.6.5.1.1.2.1.3.2.1.1.2.1.4.2.1.1.3.1.4.1.1 0 .2.1.3.1.3.1.5.1.8.1h7.4v7.4c0 1.1.5 2.2 1.3 2.9l21.1 21.1c.2.2.4.4.6.5.1.1.2.1.3.2.1.1.2.1.4.2.1.1.3.1.4.1.1 0 .2.1.3.1.3.1.5.1.8.1h129.9c.3 0 .5 0 .8-.1h.1c.2 0 .4-.1.6-.2.1 0 .2-.1.3-.1.1-.1.3-.1.4-.2.2-.1.4-.3.6-.5.2-.2.4-.4.5-.6 0-.1.1-.1.1-.2.1-.2.2-.3.3-.5 0-.1 0-.1.1-.2.1-.2.1-.4.2-.6v-.1c0-.2.1-.5.1-.7V103.7c-.2-.3-.2-.5-.2-.8zM104.4 228.8l-13.1-13.1H210l13.1 13.1H104.4zM215.6 210V92.2l13.1 13.1v117.8L215.6 210zm-8-2.3h-122V86.6h122v121.1zM183.1 78.6V59.7l13.1 13.1v5.7h-13.1zm-8 0H81.6c-2.2 0-4 1.8-4 4v92.6H53.1V54.1h122v24.5zm-24.3-32.5V27.5L164 40.6v5.5h-13.2zM20.9 21.8h122V46H49.1c-2.2 0-4 1.8-4 4v92.9H20.9V21.8zm18.8 142.3L26.6 151h18.6v13.1h-5.5zm32.2 32.2l-13.1-13.1h18.8v13.1h-5.7z"/>
	</g>
</svg>
