<svg xmlns="http://www.w3.org/2000/svg" viewBox="0 0 250 250">
	<g id="led">
		<g  fill="#333">
			<circle  cx="125.6" cy="108.3" r="18.6"/>
			<path d="M187.5 154h-10V65.4c0-29-23.6-52.6-52.5-52.6S72.5 36.4 72.5 65.4V154h-10c-2.2 0-4 1.8-4 4s1.8 4 4 4h40.1v70.8c0 2.2 1.8 4 4 4s4-1.8 4-4V162h28.8v34c0 2.2 1.8 4 4 4s4-1.8 4-4v-34h40.1c2.2 0 4-1.8 4-4s-1.8-4-4-4zm-107-88.6c0-24.6 20-44.6 44.5-44.6s44.5 20 44.5 44.6V154h-89V65.4z"/>
		</g>
		<g >
			<path fill="#FFF" d="M106.6 248.8c-8.8 0-16-7.2-16-16V174H62.5c-8.8 0-16-7.2-16-16 0-8.1 6.1-14.9 14-15.9V65.4C60.5 29.8 89.5.8 125 .8c35.6 0 64.5 29 64.5 64.6v76.8c7.9 1 14 7.7 14 15.9 0 8.8-7.2 16-16 16h-28.1V196c0 8.8-7.2 16-16 16s-16-7.2-16-16v-22h-4.8v58.8c0 8.8-7.2 16-16 16z"/>
			<path fill="#FFF" d="M125.6 138.8c-16.9 0-30.6-13.7-30.6-30.6s13.7-30.6 30.6-30.6c16.9 0 30.6 13.7 30.6 30.6s-13.8 30.6-30.6 30.6z"/>
			<circle  cx="125.6" cy="108.3" r="18.6" fill="#333"/>
			<path fill="#333" d="M187.5 154h-10V65.4c0-29-23.6-52.6-52.5-52.6S72.5 36.4 72.5 65.4V154h-10c-2.2 0-4 1.8-4 4s1.8 4 4 4h40.1v70.8c0 2.2 1.8 4 4 4s4-1.8 4-4V162h28.8v34c0 2.2 1.8 4 4 4s4-1.8 4-4v-34h40.1c2.2 0 4-1.8 4-4s-1.8-4-4-4zm-107-88.6c0-24.6 20-44.6 44.5-44.6s44.5 20 44.5 44.6V154h-89V65.4z"/>
		</g>
	</g>
</svg>
