<svg xmlns="http://www.w3.org/2000/svg" viewBox="0 0 250 250">
	<g id="light-sensor">
		<path fill="#FFF" d="M170.1 65c3.4-2.5 6.7-5.3 9.8-8.5 6.2-6.3 6-16.5-.3-22.6-2.8-2.7-6.3-4.3-10.2-4.5-.5-3.4-2-6.6-4.5-9-2.7-2.7-6.1-4.3-9.9-4.7-.3-3.6-1.9-7.1-4.6-9.8-3-3-7-4.7-11.3-4.7-4.3 0-8.3 1.7-11.3 4.7-.8.8-1.9 1.3-3.1 1.3s-2.2-.4-3.1-1.3c-3-3-7-4.7-11.3-4.7S102.1 2.8 99 5.9c-2.8 2.8-4.3 6.3-4.6 9.9-3.7.4-7.2 2-9.8 4.7-2.6 2.6-4.1 5.9-4.5 9.5-3.7.3-7.1 2-9.8 4.6-3 3-4.7 7-4.7 11.3 0 4.3 1.7 8.3 4.7 11.3 2.9 2.9 5.9 5.5 9.1 7.8-11.9 1-21.3 11.1-21.3 23.3v62.4c0 12.9 10.5 23.4 23.4 23.4h9.1v58.8c0 8.8 7.2 16 16 16s16-7.2 16-16V174h4.8v22c0 8.8 7.2 16 16 16s16-7.2 16-16v-22h9.1c12.9 0 23.4-10.5 23.4-23.4V88.3c0-12.4-9.7-22.5-21.8-23.3z"/>
		<path fill="#333" d="M124.7 27.1c6.5 0 12.6-2.5 17.2-7.1 1.6-1.6 1.6-4.1 0-5.7-1.6-1.6-4.1-1.6-5.7 0-3.1 3.1-7.2 4.8-11.5 4.8-4.4 0-8.5-1.7-11.5-4.8-1.6-1.6-4.1-1.6-5.7 0-1.6 1.6-1.6 4.1 0 5.7 4.6 4.6 10.7 7.1 17.2 7.1z"/>
		<path fill="#333" d="M124.7 67.8c17.7 0 34.2-7 46.5-19.6 1.5-1.6 1.5-4.1-.1-5.7-1.6-1.5-4.1-1.5-5.7.1-10.8 11.1-25.3 17.2-40.8 17.2-15.2 0-29.5-5.9-40.3-16.7-1.6-1.6-4.1-1.6-5.7 0-1.6 1.6-1.6 4.1 0 5.7 12.5 12.2 28.8 19 46.1 19z"/>
		<path fill="#333" d="M124.7 47.4c12 0 23.2-4.6 31.6-13 1.6-1.6 1.6-4.1 0-5.7-1.6-1.6-4.1-1.6-5.7 0-6.9 6.9-16.2 10.7-26 10.7s-19-3.8-25.9-10.6c-1.6-1.6-4.1-1.5-5.7 0-1.6 1.6-1.5 4.1 0 5.7 8.6 8.4 19.8 12.9 31.7 12.9z"/>
		<path fill="#333" d="M168.5 76.9h-87c-6.3 0-11.4 5.1-11.4 11.4v62.4c0 6.3 5.1 11.4 11.4 11.4h21.1v70.8c0 2.2 1.8 4 4 4s4-1.8 4-4V162h28.8v34c0 2.2 1.8 4 4 4s4-1.8 4-4v-34h21.1c6.3 0 11.4-5.1 11.4-11.4V88.3c0-6.3-5.1-11.4-11.4-11.4z"/>
	</g>
</svg>
