<svg xmlns="http://www.w3.org/2000/svg" viewBox="0 0 250 250">
	<g id="list">
		<path fill="#FFF" d="M199.8 72V17.2c0-8.8-7.2-16-16-16H129c-8.8 0-16 7.2-16 16v8.9L92.7 5.9c-3-3-7-4.7-11.3-4.7-4.3 0-8.3 1.7-11.3 4.7s-4.7 7-4.7 11.3c0 4.3 1.7 8.3 4.7 11.3l.1.1H48.6c-8.8 0-16 7.2-16 16s7.2 16 16 16h21.6l-.1.1c-3 3-4.7 7-4.7 11.3 0 4.3 1.7 8.3 4.7 11.3s7 4.7 11.3 4.7c4.3 0 8.3-1.7 11.3-4.7L113 63.1V72c0 5.2 2.5 9.9 6.4 12.8-3.9 2.9-6.4 7.6-6.4 12.8v54.8c0 5.2 2.5 9.9 6.4 12.8-3.9 2.9-6.4 7.6-6.4 12.8v54.8c0 8.8 7.2 16 16 16h54.8c8.8 0 16-7.2 16-16V178c0-5.2-2.5-9.9-6.4-12.8 3.9-2.9 6.4-7.6 6.4-12.8V97.6c0-5.2-2.5-9.9-6.4-12.8 3.9-2.9 6.4-7.6 6.4-12.8z"/>
		<path fill="#333" d="M183.8 13.2H129c-2.2 0-4 1.8-4 4V72c0 2.2 1.8 4 4 4h54.8c2.2 0 4-1.8 4-4V17.2c0-2.2-1.8-4-4-4zm-4 54.8H133V21.2h46.8V68z"/>
		<path fill="#333" d="M183.8 93.6H129c-2.2 0-4 1.8-4 4v54.8c0 2.2 1.8 4 4 4h54.8c2.2 0 4-1.8 4-4V97.6c0-2.2-1.8-4-4-4zm-4 54.8H133v-46.8h46.8v46.8z"/>
		<path fill="#333" d="M183.8 174H129c-2.2 0-4 1.8-4 4v54.8c0 2.2 1.8 4 4 4h54.8c2.2 0 4-1.8 4-4V178c0-2.2-1.8-4-4-4zm-4 54.8H133V182h46.8v46.8z"/>
		<path fill="#333" d="M112.5 46.1c0-.1.1-.2.1-.3 0-.1.1-.3.1-.4 0-.2.1-.4.1-.6v-.2-.2c0-.2 0-.4-.1-.6 0-.1-.1-.3-.1-.4 0-.1-.1-.2-.1-.3-.1-.2-.2-.3-.2-.5 0-.1-.1-.2-.1-.2-.1-.2-.3-.4-.5-.6L84.3 14.4c-1.6-1.6-4.1-1.6-5.7 0-1.6 1.6-1.6 4.1 0 5.7l20.6 20.6H48.6c-2.2 0-4 1.8-4 4s1.8 4 4 4h50.6L78.6 69.2c-1.6 1.6-1.6 4.1 0 5.7.8.8 1.8 1.2 2.8 1.2s2-.4 2.8-1.2l27.4-27.4c.2-.2.4-.4.5-.6.1-.1.1-.2.1-.3.2-.2.3-.3.3-.5z"/>
	</g>
</svg>
