<svg xmlns="http://www.w3.org/2000/svg" viewBox="0 0 250 250">
	<g id="logic">
		<path fill="#333" d="M232.8 121h-23.2a30.5 30.5 0 0 0-30.2-27H152a4 4 0 0 0-4 4v8.9a14 14 0 0 1-6.4-4.3l-11.4-14.1c-4.1-5-10.1-7.9-16.6-7.9h-2.1a9.1 9.1 0 0 0-15.6-1.5l-50-25h-.1l-.4-.2-.4-.1-.4-.1h-1.1l-.4.1-.4.1-.4.2-.3.2-.3.2-.3.3-.3.3-.2.3-.2.4-.1.2v.1l-.2.4-.1.4-.1.4v10h-23c-2.2 0-4 1.8-4 4s1.8 4 4 4h23v19h-23c-2.2 0-4 1.8-4 4s1.8 4 4 4h23v10l.1.4.1.4.2.4v.1l.2.4.1.1.4.5.1.1.4.4.1.1.6.3h.1l.6.2h.2l.7.1h.1l.8-.1.2-.1.6-.2h.1l50-25a9.2 9.2 0 0 0 7.3 3.7c3.6 0 6.8-2.1 8.3-5.2h2.1c4.1 0 7.8 1.8 10.4 5l11.4 14.1c3.2 4 7.7 6.6 12.6 7.6v19.3h-1.2c-6.5 0-12.5 2.9-16.6 7.9l-11.4 14.1a13 13 0 0 1-7.5 4.6 9.2 9.2 0 0 0-10.5-4.6 30.5 30.5 0 0 0-29.2-22.1H44.1a4 4 0 0 0-4 4v9.5h-23c-2.2 0-4 1.8-4 4s1.8 4 4 4h23v19h-23c-2.2 0-4 1.8-4 4s1.8 4 4 4h23v9.5a4 4 0 0 0 4 4h27.5c13.9 0 25.6-9.4 29.2-22.1a9.3 9.3 0 0 0 10.8-5.1c5.3-.8 10-3.5 13.4-7.7l11.4-14.1a13 13 0 0 1 10.4-5h1.2v9.5a4 4 0 0 0 4 4h27.5a30.4 30.4 0 0 0 30.2-27h23.2c2.2 0 4-1.8 4-4s-1.9-4.3-4.1-4.3zM48.1 64.1l41 20.5-41 20.5v-41zm55.1 21.7c-.7 0-1.2-.5-1.2-1.2s.5-1.2 1.2-1.2 1.2.5 1.2 1.2-.5 1.2-1.2 1.2zM94 166c0 12.3-10 22.4-22.4 22.4H48.1v-45.9h23.5c12.3 0 22.4 10 22.4 22.4v1.1zm9.2.6c-.7 0-1.2-.5-1.2-1.2s.5-1.2 1.2-1.2 1.2.5 1.2 1.2-.5 1.2-1.2 1.2zm98.7-41c0 12.3-10 22.4-22.4 22.4H156v-46h23.5c12.3 0 22.4 10 22.4 22.4v1.2z"/>
		<path fill="#fff" d="M44.1 53.6h.5l.4.1.4.1.4.2h.1l50 25a9.2 9.2 0 0 1 7.3-3.7c3.6 0 6.8 2.1 8.3 5.2h2.1c6.5 0 12.5 2.9 16.6 7.9l11.4 14.1c1.7 2.1 3.9 3.6 6.4 4.3V98a4 4 0 0 1 4-4h27.5a30.4 30.4 0 0 1 30.2 27h23.2c2.2 0 4 1.8 4 4s-1.8 4-4 4h-23.2a30.5 30.5 0 0 1-30.2 27H152a4 4 0 0 1-4-4v-9.5h-1.2c-4.1 0-7.8 1.8-10.4 5l-11.4 14a21.4 21.4 0 0 1-13.4 7.7 9 9 0 0 1-8.4 5.4l-2.4-.3a30.5 30.5 0 0 1-29.2 22.1H44.1a4 4 0 0 1-4-4v-9.5h-23c-2.2 0-4-1.8-4-4s1.8-4 4-4h23v-19h-23c-2.2 0-4-1.8-4-4s1.8-4 4-4h23v-9.5a4 4 0 0 1 4-4h27.5c13.9 0 25.6 9.4 29.2 22.1a9.3 9.3 0 0 1 10.5 4.6c2.9-.6 5.5-2.3 7.5-4.6l11.4-14.1c4.1-5 10.1-7.9 16.6-7.9h1.2v-19.3a21 21 0 0 1-12.6-7.6L124 93.5a13 13 0 0 0-10.4-5h-2.1A9.1 9.1 0 0 1 95.9 90l-50 25h-.1l-.6.2-.2.1-.8.1h-.1l-.7-.1h-.2l-.6-.2h-.1l-.6-.3-.1-.1a.8.8 0 0 1-.4-.4l-.1-.1-.4-.5-.1-.1-.2-.4v-.1l-.2-.4-.1-.4-.1-.4V102h-23c-2.2 0-4-1.8-4-4s1.8-4 4-4h23V75h-23c-2.2 0-4-1.8-4-4s1.8-4 4-4h23V57l.1-.4.1-.4.2-.4v-.1l.1-.2.2-.4.2-.3.3-.3.3-.3.3-.2.3-.2.4-.2.4-.1.4-.1h.4l.2.2m4 51.5l41-20.5-41-20.5v41m55.1-19.3c.7 0 1.2-.5 1.2-1.2s-.5-1.2-1.2-1.2-1.2.5-1.2 1.2c0 .6.6 1.2 1.2 1.2M156 148h23.5c12.3 0 22.4-10 22.4-22.4v-1.1c0-12.3-10-22.4-22.4-22.4H156V148M48.1 188.4h23.5c12.3 0 22.4-10 22.4-22.4v-1.1c0-12.3-10-22.4-22.4-22.4H48.1v45.9m55.1-21.8c.7 0 1.2-.5 1.2-1.2s-.5-1.2-1.2-1.2-1.2.5-1.2 1.2.6 1.2 1.2 1.2m-59.1-125l-1.4.1-1.3.2-1.5.3-1.5.5-1.5.6-1.3.7-1.3.9-1.2 1L32 47l-1 1.2-.7 1.1-.7 1.2a3 3 0 0 0-.4 1l-.4 1.1-.4 1.4-.2 1.2h-11a16 16 0 0 0-8.6 29.5A15.5 15.5 0 0 0 1.2 98a16 16 0 0 0 16 16h11.2l.2 1.2.4 1.4.4 1 .5 1 .7 1.2.4.6 1.7 2.1.5.5 1.6 1.3.6.4.1.1a15.9 15.9 0 0 0-7.2 11H17.2a16 16 0 0 0-8.6 29.5 16 16 0 0 0 8.6 29.5h11.2a16 16 0 0 0 15.8 13.5h27.5c15.9 0 30.2-9 37.5-22.6 3.7-1.1 7.1-3.2 9.7-6 6.1-2 11.5-5.7 15.6-10.7l5.4-6.7a16 16 0 0 0 12.2 5.6h27.5c17.8 0 33.3-11 39.5-27H233c8.8 0 16-7.2 16-16s-7.2-16-16-16h-14a42.5 42.5 0 0 0-39.5-27H152c-3.4 0-6.6 1.1-9.2 2.9l-3.2-4a33.3 33.3 0 0 0-22.2-12.2A21.2 21.2 0 0 0 95 64.9L51.3 43.3l-1-.4-1.1-.4-1.4-.4-1.5-.3-1.1-.1-1.1-.1zm16 44v-2.1l2.1 1.1-2.1 1zm43.1 20.2c4.4 0 8.6-1.4 12.1-3.8l10.7 13.2c2.8 3.4 6.1 6.2 9.9 8.3v.8c-5.9 2-11.1 5.6-15.1 10.6l-9 11.2-2.7-1a42.6 42.6 0 0 0-37.5-22.6H58L94.9 104c2.6 1.2 5.4 1.8 8.3 1.8zM168 114h11.5c5.7 0 10.4 4.7 10.4 10.4v1.1c0 5.7-4.7 10.4-10.4 10.4H168V114zM60.1 154.5h11.5c5.7 0 10.4 4.7 10.4 10.4v1.1c0 5.7-4.7 10.4-10.4 10.4H60.1v-21.9z"/>
	</g>
</svg>
