<svg xmlns="http://www.w3.org/2000/svg" viewBox="0 0 250 250">
	<g id="makey-touch">
		<path fill="#FFF" d="M244.1 176.8l-13.7-13.7c14.7-40.6 4.7-86.9-26.2-117.8-21.2-21.2-49.5-32.9-79.5-32.9S66.4 24.1 45.2 45.3C24 66.5 12.3 94.8 12.3 124.8s11.7 58.3 32.9 79.5c10.6 10.6 23 18.9 36.9 24.5 13.6 5.6 28 8.4 42.7 8.4 12.8 0 25.7-2.3 37.8-6.6L176 244c3 3 7 4.7 11.3 4.7 4.3 0 8.3-1.7 11.3-4.7s4.7-7 4.7-11.3-1.7-8.3-4.7-11.3l-1.5-1.5 22.3-22.3 1.9 1.9c3 3 7 4.7 11.3 4.7s8.3-1.7 11.3-4.7 4.7-7 4.7-11.3-1.4-8.4-4.5-11.4z"/>
		<g  fill="#333">
			<path d="M235.6 185.3L150 99.7c-14-14-36.7-14-50.6 0-14 14-14 36.7 0 50.6l85.1 85.1c.8.8 1.8 1.2 2.8 1.2s2-.4 2.8-1.2c1.6-1.6 1.6-4.1 0-5.7L105 144.6c-10.8-10.8-10.8-28.5 0-39.3 10.8-10.8 28.5-10.8 39.3 0l85.6 85.6c.8.8 1.8 1.2 2.8 1.2s2-.4 2.8-1.2c1.7-1.5 1.7-4.1.1-5.6z"/>
			<path d="M166.9 82.9c8.7 8.7 14.5 19.7 16.6 31.9.4 2.2 2.4 3.6 4.6 3.3 2.2-.4 3.6-2.5 3.3-4.6-2.4-13.7-8.9-26.2-18.8-36.1C146.2 51 103.4 51 77 77.4 64.2 90 57.1 106.9 57.1 125s7 35 19.8 47.8c9.9 9.9 22.4 16.4 36.1 18.8.2 0 .5.1.7.1 1.9 0 3.6-1.4 3.9-3.3.4-2.2-1.1-4.2-3.3-4.6-12.1-2.1-23.1-7.8-31.9-16.6-11.3-11.3-17.5-26.2-17.5-42.1S71.1 94.2 82.4 83c23.4-23.4 61.3-23.4 84.5-.1z"/>
			<path d="M143.6 214.4c-30.4 6.4-61.6-2.9-83.5-24.8C24.5 154 24.5 96 60.1 60.4c17.3-17.3 40.2-26.8 64.6-26.8 24.4 0 47.4 9.5 64.6 26.8 21.9 21.9 31.2 53.1 24.8 83.5-.5 2.2.9 4.3 3.1 4.7 2.2.5 4.3-.9 4.7-3.1 6.9-33-3.1-67-27-90.8-18.8-18.8-43.7-29.1-70.3-29.1-26.6 0-51.5 10.3-70.3 29.1-38.8 38.8-38.8 101.8 0 140.6 18.9 18.9 44.1 29.1 70.2 29.1 6.9 0 13.8-.7 20.6-2.2 2.2-.5 3.5-2.6 3.1-4.7-.3-2.1-2.4-3.5-4.6-3.1z"/>
			<path d="M109.5 109.8c-8.5 8.5-8.5 22.3 0 30.8l12.6 12.6c.8.8 1.8 1.2 2.8 1.2 1 0 2-.4 2.8-1.2l25.1-25.1c.8-.8 1.2-1.8 1.2-2.8s-.4-2.1-1.2-2.8l-12.6-12.6c-8.5-8.6-22.3-8.6-30.7-.1zm15.3 34.8l-9.7-9.7c-5.4-5.4-5.4-14.1 0-19.4 2.7-2.7 6.2-4 9.7-4 3.5 0 7 1.3 9.7 4l9.7 9.7-19.4 19.4z"/>
			<path d="M201.2 170.5c-1.6-1.6-4.1-1.6-5.7 0l-25.1 25.1c-1.6 1.6-1.6 4.1 0 5.7.8.8 1.8 1.2 2.8 1.2s2-.4 2.8-1.2l25.1-25.1c1.6-1.6 1.6-4.2.1-5.7z"/>
			<path d="M206.9 181.9L181.8 207c-1.6 1.6-1.6 4.1 0 5.7.8.8 1.8 1.2 2.8 1.2s2-.4 2.8-1.2l25.1-25.1c1.6-1.6 1.6-4.1 0-5.7-1.5-1.6-4-1.6-5.6 0z"/>
		</g>
	</g>
</svg>
