<svg xmlns="http://www.w3.org/2000/svg" viewBox="0 0 250 250">
	<g id="math">
		<path fill="#333" d="M40.7 75.5h25.8v25.9c0 2.2 1.8 4 4 4s4-1.8 4-4V75.5h26.9c2.2 0 4-1.8 4-4s-1.8-4-4-4H74.5V40.8c0-2.2-1.8-4-4-4s-4 1.8-4 4v26.7H40.7c-2.2 0-4 1.8-4 4s1.8 4 4 4z"/>
		<path fill="#fff" d="M70.5 36.8a4 4 0 0 1 4 4v26.7h26.9c2.2 0 4 1.8 4 4s-1.8 4-4 4H74.5v25.9c0 2.2-1.8 4-4 4s-4-1.8-4-4V75.5H40.7c-2.2 0-4-1.8-4-4s1.8-4 4-4h25.8V40.8a4 4 0 0 1 4-4m0-12a16 16 0 0 0-16 16v14.7H40.7c-8.8 0-16 7.2-16 16s7.2 16 16 16h13.8v13.9c0 8.8 7.2 16 16 16s16-7.2 16-16V87.5h14.9c8.8 0 16-7.2 16-16s-7.2-16-16-16H86.5V40.8a16 16 0 0 0-16-16z"/>
		<path fill="#333" d="M209.3 67.5h-60.6c-2.2 0-4 1.8-4 4s1.8 4 4 4h60.6c2.2 0 4-1.8 4-4s-1.8-4-4-4z"/>
		<path fill="#fff" d="M209.3 67.5c2.2 0 4 1.8 4 4s-1.8 4-4 4h-60.6c-2.2 0-4-1.8-4-4s1.8-4 4-4h60.6m0-12h-60.6c-8.8 0-16 7.2-16 16s7.2 16 16 16h60.6c8.8 0 16-7.2 16-16s-7.2-16-16-16z"/>
		<path fill="#333" d="M98.6 145.8L38 206.4a4 4 0 0 0 0 5.7c.8.8 1.8 1.2 2.8 1.2s2-.4 2.8-1.2l60.6-60.6a4 4 0 0 0 0-5.7 3.9 3.9 0 0 0-5.6 0z"/>
		<path fill="#fff" d="M101.4 144.6c1 0 2 .4 2.8 1.2a4 4 0 0 1 0 5.7l-60.6 60.6c-.8.8-1.8 1.2-2.8 1.2s-2-.4-2.8-1.2a4 4 0 0 1 0-5.7l60.6-60.6a4 4 0 0 1 2.8-1.2m0-12c-4.3 0-8.3 1.7-11.3 4.7l-60.6 60.6a15.9 15.9 0 0 0 0 22.6 15.9 15.9 0 0 0 22.6 0l60.6-60.6a15.9 15.9 0 0 0 0-22.6c-3-3-7-4.7-11.3-4.7z"/>
		<path fill="#333" d="M202 155.9a4 4 0 0 0-5.7 0l-17.4 17.4-17.4-17.4a4 4 0 0 0-5.7 0 4 4 0 0 0 0 5.7l17.4 17.4-17.4 17.4a4 4 0 0 0 0 5.7c.8.8 1.8 1.2 2.8 1.2s2-.4 2.8-1.2l17.4-17.4 17.4 17.4c.8.8 1.8 1.2 2.8 1.2s2-.4 2.8-1.2a4 4 0 0 0 0-5.7L184.4 179l17.4-17.4a4 4 0 0 0 .2-5.7z"/>
		<path fill="#fff" d="M199.1 154.7c1 0 2 .4 2.8 1.2a4 4 0 0 1 0 5.7L184.5 179l17.4 17.4a4 4 0 0 1 0 5.7c-.8.8-1.8 1.2-2.8 1.2s-2-.4-2.8-1.2l-17.4-17.4-17.4 17.3c-.8.8-1.8 1.2-2.8 1.2s-2-.4-2.8-1.2a4 4 0 0 1 0-5.7l17.4-17.4-17.4-17.4a4 4 0 0 1 0-5.7c.8-.8 1.8-1.2 2.8-1.2s2 .4 2.8 1.2l17.4 17.4 17.4-17.4c.8-.7 1.8-1.1 2.8-1.1m0-12c-4.3 0-8.3 1.7-11.3 4.7l-8.9 8.9-8.9-8.9a15.9 15.9 0 0 0-22.6 0 15.9 15.9 0 0 0 0 22.6l8.9 8.9-8.9 8.9a15.9 15.9 0 0 0 0 22.6 15.9 15.9 0 0 0 22.6 0l8.9-8.9 8.9 8.9a15.9 15.9 0 0 0 22.6 0 15.9 15.9 0 0 0 0-22.6l-8.9-8.9 8.9-8.9a15.9 15.9 0 0 0 0-22.6c-3-3-7-4.7-11.3-4.7z"/>
	</g>
</svg>
