<svg xmlns="http://www.w3.org/2000/svg" viewBox="0 0 250 250">
	<g id="randomizer">
		<path fill="#FFF" d="M205.4 13.2c-4 0-7.9 1.4-11 4-3.5 2.9-5.6 7-6 11.6-.4 4.5 1 8.9 4 12.4l7.2 8.6c-14.7 3.7-28.3 10-41.1 19-12.7 8.9-23.3 19.4-33.5 30.6-11-12.1-22.5-23.4-36.4-32.6C67.3 52.6 44 45.7 17.1 45.7c-9.4 0-17 7.6-17 17s7.6 17 17 17c39 0 60.5 17.6 85.3 45.3-24.8 27.6-46.3 45.3-85.3 45.3-9.4 0-17 7.6-17 17s7.6 17 17 17c26.8 0 50.2-6.8 71.4-20.9 13.9-9.2 25.5-20.5 36.4-32.6 10.2 11.2 20.8 21.7 33.5 30.6 12.9 9 26.5 15.3 41.1 19l-7.2 8.6c-2.9 3.5-4.3 7.9-4 12.4.4 4.5 2.5 8.6 6 11.6 3.1 2.6 7 4 11 4 5 0 9.8-2.2 13-6l27.5-32.6c.2-.2.4-.5.6-.7.1-.1.1-.2.2-.3.3-.4.5-.7.7-1 .2-.2.4-.6.6-1 .2-.4.3-.7.4-.9.2-.4.3-.8.4-1 .1-.3.3-.7.4-1.2.1-.4.2-.7.3-1 .1-.3.1-.6.2-1 .1-.3.1-.7.2-1.2v-.7-.9-.9-.7c0-.5-.1-.9-.2-1.2-.1-.3-.1-.7-.2-1-.1-.3-.1-.6-.3-1-.1-.5-.3-.9-.4-1.2-.1-.3-.2-.6-.4-1-.1-.2-.2-.5-.4-.9-.2-.5-.5-.8-.6-1-.2-.3-.4-.6-.7-1l-.2-.2c-.2-.3-.4-.5-.6-.8L218.3 144c-3.2-3.8-8-6-13-6-4 0-7.9 1.4-11 4-3.5 2.9-5.6 7-6 11.6-.2 2.5.1 4.9.9 7.1-4.1-2.1-8.2-4.6-12.2-7.5-10.5-7.5-19.9-17.1-29.6-27.9 9.7-10.8 19-20.4 29.6-27.9 4-2.9 8-5.3 12.2-7.5-.8 2.3-1.1 4.7-.9 7.1.4 4.5 2.5 8.6 6 11.6 3.1 2.6 7 4 11 4 5 0 9.7-2.2 13-6L245.8 74c.2-.2.4-.5.6-.7.1-.1.2-.2.2-.3.3-.4.5-.7.7-1 .2-.2.4-.6.6-1 .2-.4.3-.7.4-.9.2-.4.3-.7.4-1 .1-.3.3-.7.4-1.2.1-.4.2-.8.3-1 .1-.3.1-.6.2-1 .1-.3.1-.7.2-1.2V64v-.9-.9-.7c0-.5-.1-.9-.2-1.2-.1-.3-.1-.7-.2-1-.1-.3-.1-.6-.3-1-.1-.5-.3-.9-.4-1.2-.1-.3-.2-.6-.4-1-.1-.2-.2-.5-.4-.9s-.4-.8-.6-1c-.2-.3-.4-.6-.7-1-.1-.1-.1-.2-.2-.2-.2-.3-.4-.5-.6-.8l-27.5-32.6c-3.2-4.2-7.9-6.4-12.9-6.4z"/>
		<path fill="#333" d="M236.9 187.1v-.2-.2c0-.1 0-.2-.1-.3v-.2c0-.1-.1-.2-.1-.2 0-.1-.1-.2-.1-.3 0-.1-.1-.1-.1-.2s-.1-.1-.1-.2c-.1-.1-.1-.2-.2-.3 0-.1-.1-.1-.1-.2v-.1l-27.5-32.6c-1.4-1.7-3.9-1.9-5.6-.5s-1.9 3.9-.5 5.6L224 183c-44.9-3.1-69-29.5-93.7-58C155 96.5 179.1 70.1 224 67l-21.7 25.7c-1.4 1.7-1.2 4.2.5 5.6.8.6 1.7.9 2.6.9 1.1 0 2.3-.5 3.1-1.4L236 65.2v-.1c0-.1.1-.1.1-.2.1-.1.1-.2.2-.3 0-.1.1-.1.1-.2s.1-.1.1-.2.1-.2.1-.3c0-.1.1-.2.1-.2v-.2c0-.1 0-.2.1-.3V63v-.2-.2-.2-.2-.2c0-.1 0-.2-.1-.3v-.2c0-.1-.1-.2-.1-.2 0-.1-.1-.2-.1-.3 0-.1-.1-.1-.1-.2s-.1-.1-.1-.2c-.1-.1-.1-.2-.2-.3 0-.1-.1-.1-.1-.2V60l-27.5-32.6c-1.4-1.7-3.9-1.9-5.6-.5-1.7 1.4-1.9 4-.5 5.6L224.5 59c-48.3 3-74.7 31.3-99.5 59.9C98.8 88.7 70.8 58.7 17.1 58.7c-2.2 0-4 1.8-4 4s1.8 4 4 4c50.7 0 76.3 27.9 102.6 58.3-26.3 30.3-51.9 58.3-102.6 58.3-2.2 0-4 1.8-4 4s1.8 4 4 4c53.7 0 81.7-30 107.9-60.2 24.8 28.5 51.2 56.9 99.5 59.9l-22.2 26.3c-1.4 1.7-1.2 4.2.5 5.6.8.6 1.7.9 2.6.9 1.1 0 2.3-.5 3.1-1.4l27.5-32.6v-.1c0-.1.1-.1.1-.2.1-.1.1-.2.2-.3 0-.1.1-.1.1-.2s.1-.1.1-.2.1-.2.1-.3c0-.1.1-.2.1-.2v-.2c0-.1 0-.2.1-.3v-.2-.2-.2s.1 0 .1-.1z"/>
	</g>
</svg>
