<svg xmlns="http://www.w3.org/2000/svg" viewBox="0 0 250 250">
	<g id="sequence">
		<path fill="#FFF" d="M199.8 72V17.2c0-8.8-7.2-16-16-16H129c-8.8 0-16 7.2-16 16V72c0 5.2 2.5 9.9 6.4 12.8-3.9 2.9-6.4 7.6-6.4 12.8v54.8c0 5.2 2.5 9.9 6.4 12.8-3.9 2.9-6.4 7.6-6.4 12.8v3.2c-2.8-2.1-6.1-3.2-9.6-3.2-4.3 0-8.3 1.7-11.3 4.7l-.1.1v-21.6c0-5.4-2.7-10.1-6.7-13 4.1-2.9 6.7-7.6 6.7-13v-34.6c0-5.8-3.1-10.8-7.7-13.6 4.6-2.9 7.7-8 7.7-13.8V38.6c0-8.8-7.2-16-16-16s-16 7.2-16 16v34.6c0 5.8 3.1 10.8 7.7 13.6-4.6 2.8-7.7 7.9-7.7 13.6V135c0 5.4 2.7 10.1 6.7 13-4.1 2.9-6.7 7.6-6.7 13v21.6l-.1-.1c-3-3-7-4.7-11.3-4.7-4.3 0-8.3 1.7-11.3 4.7s-4.7 7-4.7 11.3c0 4.3 1.7 8.3 4.7 11.3l27.4 27.4c2.2 2.2 5 3.7 7.9 4.3h.2c.4.1.8.1 1.2.2.1 0 .3 0 .4.1.4 0 .7 0 1.1.1h1c.4 0 .7 0 1.1-.1.1 0 .3 0 .4-.1.2 0 .5-.1.7-.1.2 0 .3 0 .5-.1h.2c1.4-.3 2.8-.8 4.1-1.5h.1c1.4-.7 2.6-1.7 3.8-2.8L113 207v25.8c0 8.8 7.2 16 16 16h54.8c8.8 0 16-7.2 16-16V178c0-5.2-2.5-9.9-6.4-12.8 3.9-2.9 6.4-7.6 6.4-12.8V97.6c0-5.2-2.5-9.9-6.4-12.8 3.9-2.9 6.4-7.6 6.4-12.8z"/>
		<path fill="#333" d="M183.8 76H129c-2.2 0-4-1.8-4-4V17.2c0-2.2 1.8-4 4-4h54.8c2.2 0 4 1.8 4 4V72c0 2.2-1.8 4-4 4zM133 68h46.8V21.2H133V68z"/>
		<path fill="#333" d="M183.8 156.4H129c-2.2 0-4-1.8-4-4V97.6c0-2.2 1.8-4 4-4h54.8c2.2 0 4 1.8 4 4v54.8c0 2.2-1.8 4-4 4zm-50.8-8h46.8v-46.8H133v46.8z"/>
		<path fill="#333" d="M183.8 236.8H129c-2.2 0-4-1.8-4-4V178c0-2.2 1.8-4 4-4h54.8c2.2 0 4 1.8 4 4v54.8c0 2.2-1.8 4-4 4zm-50.8-8h46.8V182H133v46.8z"/>
		<path fill="#333" d="M76 225.4c-2.2 0-4-1.8-4-4v-60.2c0-2.2 1.8-4 4-4s4 1.8 4 4v60.2c0 2.2-1.8 4-4 4z"/>
		<path fill="#333" d="M76 77.2c-2.2 0-4-1.8-4-4V38.6c0-2.2 1.8-4 4-4s4 1.8 4 4v34.6c0 2.2-1.8 4-4 4z"/>
		<path fill="#333" d="M76 139.2c-2.2 0-4-1.8-4-4v-34.6c0-2.2 1.8-4 4-4s4 1.8 4 4v34.6c0 2.2-1.8 4-4 4z"/>
		<path fill="#333" d="M76 225.4c-1 0-2-.4-2.8-1.2-1.6-1.6-1.6-4.1 0-5.7l27.4-27.4c1.6-1.6 4.1-1.6 5.7 0 1.6 1.6 1.6 4.1 0 5.7l-27.4 27.4c-.9.8-1.9 1.2-2.9 1.2z"/>
		<path fill="#333" d="M76 225.4c-1 0-2-.4-2.8-1.2l-27.4-27.4c-1.6-1.6-1.6-4.1 0-5.7 1.6-1.6 4.1-1.6 5.7 0l27.4 27.4c1.6 1.6 1.6 4.1 0 5.7-.9.8-1.9 1.2-2.9 1.2z"/>
	</g>
</svg>
