<svg xmlns="http://www.w3.org/2000/svg" viewBox="0 0 250 250">
	<g id="servo-motor">
		<g  fill="#FFF">
			<path d="M83.1 249c-8.8 0-16-7.2-16-16v-38.6c-4.4-1.7-8.4-4.4-11.8-7.8-13.6-13.6-13.6-35.7 0-49.4l11.9-11.9V82.6c0-8.8 7.2-16 16-16H126l19.1-19.1c6.6-6.6 15.4-10.2 24.7-10.2 9.3 0 18.1 3.6 24.7 10.2 13.6 13.6 13.6 35.7 0 49.4l-12.8 12.8V233c0 8.8-7.2 16-16 16H83.1z"/>
			<path d="M186 55.9c-4.3-4.3-10.1-6.7-16.2-6.7s-11.9 2.4-16.2 6.7L131 78.6H83.1c-2.2 0-4 1.8-4 4v47.8l-15.4 15.4c-8.9 8.9-8.9 23.5 0 32.4 4.1 4.1 9.6 6.5 15.4 6.7V233c0 2.2 1.8 4 4 4h82.5c2.2 0 4-1.8 4-4V104.6L186 88.3c8.9-8.9 8.9-23.5 0-32.4z"/>
			<path d="M192.3 205.4c-8.8 0-16-7.2-16-16v-29.1c0-8.8 7.2-16 16-16 4.1 0 7.8 1.5 10.7 4.1 12-30.4 5.6-66.2-18.8-90.6-16-16-37.1-24.8-59.7-24.8-10.4 0-20.6 1.9-30.2 5.6 2.2 2.7 3.6 6.2 3.6 10.1 0 8.8-7.2 16-16 16H52.8c-8.8 0-16-7.2-16-16V19.5c0-8.8 7.2-16 16-16 7.4 0 13.7 5.1 15.5 12C85.4 6 104.7 1 124.5 1c31.1 0 60.3 12.1 82.3 34.1 20.9 20.9 32.9 48.6 34 78.2.8 21.5-4.4 42.4-14.6 60.8 6.5 2 11.3 8.1 11.3 15.3 0 8.8-7.2 16-16 16h-29.2z"/>
			<path d="M221.4 185.4h-17.8c35.3-41 33.5-103-5.3-141.8C178.6 23.8 152.4 13 124.5 13c-25.1 0-48.9 8.8-67.7 25V19.5c0-2.2-1.8-4-4-4s-4 1.8-4 4v29.1c0 2.2 1.8 4 4 4h29.1c2.2 0 4-1.8 4-4s-1.8-4-4-4H61.3C78.9 29.3 101 21 124.5 21c25.7 0 49.9 10 68.1 28.2 36.3 36.3 37.5 94.6 3.7 132.4v-21.3c0-2.2-1.8-4-4-4s-4 1.8-4 4v29.1c0 2.2 1.8 4 4 4h29.1c2.2 0 4-1.8 4-4s-1.7-4-4-4z"/>
		</g>
		<path fill="#FFF" d="M91.3 189.1h6.4c.7 3.6 1.9 6 3.5 8.5l-4.5 4.6c-.3.3-.3.9 0 1.2l8 8c.3.3.9.3 1.2 0l4.3-4.5c2.6 1.6 5.8 2.8 8.2 3.5v6.4c0 .5.9 1.4 1.4 1.4H131c.5 0 .7-.9.7-1.4v-6.4c3.6-.7 6-1.9 8.5-3.5l4.6 4.5c.3.3.9.3 1.2 0l8-8c.3-.3.3-.9 0-1.2l-4.5-4.6c1.6-2.6 2.8-4.9 3.5-8.5h6.4c.5 0 1.4-.2 1.4-.7v-11.3c0-.5-.9-1.3-1.4-1.3H153c-.7-2.4-1.9-5.6-3.5-8.2l4.5-4.4c.3-.3.3-.8 0-1.2l-8-8c-.3-.3-.9-.3-1.2 0l-4.6 4.5c-2.6-1.6-4.9-2.8-8.5-3.5v-6.4c0-.5-.2-.8-.7-.8h-4.6l-30.3 30.3c-1.7 1.7-3.7 3.1-5.7 4.2v6.1c0 .5.4.7.9.7zm34.3-17.4c6.3 0 11.4 5.1 11.4 11.4 0 6.3-5.1 11.4-11.4 11.4-6.3 0-11.4-5.1-11.4-11.4 0-6.3 5.1-11.4 11.4-11.4z"/>
		<circle  cx="125.6" cy="183.1" r="11.4" fill="#333"/>
		<path fill="#FFF" d="M143.8 117c0 2.1-.4 4.1-1 6l39-39c6.6-6.6 6.6-17.3 0-23.9-3.2-3.2-7.4-4.9-11.9-4.9s-8.8 1.8-11.9 5l-38.9 38.9c1.9-.6 3.8-.9 5.9-.9 10.3-.1 18.8 8.4 18.8 18.8z"/>
		<path fill="#FFF" d="M124.8 136c-10.4 0-18.9-8.5-18.9-18.9 0-2.1.3-4 .9-5.9L68 150c-6.6 6.6-6.6 17.3 0 23.9 3.2 3.2 7.4 4.9 11.9 4.9s8.8-1.8 11.9-5l38.9-38.9c-1.8.7-3.8 1.1-5.9 1.1z"/>
		<path fill="#FFF" d="M124.8 104.1c-7.1 0-12.9 5.8-12.9 12.9 0 7.1 5.8 12.9 12.9 12.9s12.9-5.8 12.9-12.9c.1-7.1-5.7-12.9-12.9-12.9z"/>
		<path fill="#333" d="M186 55.9c-4.3-4.3-10.1-6.7-16.2-6.7s-11.9 2.4-16.2 6.7L131 78.6H83.1c-2.2 0-4 1.8-4 4v47.8l-15.4 15.4c-8.9 8.9-8.9 23.5 0 32.4 4.1 4.1 9.6 6.5 15.4 6.7V233c0 2.2 1.8 4 4 4h82.5c2.2 0 4-1.8 4-4V104.6L186 88.3c8.9-8.9 8.9-23.5 0-32.4zm-61.2 48.2c7.1 0 12.9 5.8 12.9 12.9 0 7.1-5.8 12.9-12.9 12.9s-12.9-5.8-12.9-12.9c0-7.1 5.8-12.9 12.9-12.9zM80 178.9c-4.5 0-8.8-1.8-12-4.9-6.6-6.6-6.6-17.3 0-23.9l38.8-38.9c-.6 1.9-.9 3.8-.9 5.9 0 10.4 8.5 18.9 18.9 18.9 2.1 0 4.1-.4 6-1l-38.9 38.9c-3.2 3.2-7.4 5-11.9 5zm80.8 9.5c0 .5-.9.7-1.4.7H153c-.7 3.6-1.9 6-3.5 8.5l4.5 4.6c.3.3.3.9 0 1.2l-8 8c-.3.3-.9.3-1.2 0l-4.6-4.5c-2.6 1.6-4.9 2.8-8.5 3.5v6.4c0 .5-.2 1.4-.7 1.4h-11.3c-.5 0-1.4-.9-1.4-1.4v-6.4c-2.4-.7-5.6-1.9-8.2-3.5l-4.3 4.5c-.3.3-.9.3-1.2 0l-8-8c-.3-.3-.3-.9 0-1.2l4.5-4.6c-1.6-2.6-2.8-4.9-3.5-8.5h-6.4c-.5 0-.9-.2-.9-.7v-6.1c2.1-1.1 4-2.5 5.7-4.2l30.3-30.3h4.6c.5 0 .7.4.7.8v6.4c3.6.7 6 1.9 8.5 3.5l4.6-4.5c.3-.3.9-.4 1.2 0l8 8c.3.3.3.8 0 1.2l-4.5 4.4c1.6 2.6 2.8 5.8 3.5 8.2h6.4c.5 0 1.4.9 1.4 1.3v11.3zm20.9-104.3l-39 39c.6-1.9 1-3.9 1-6 0-10.4-8.5-18.9-18.9-18.9-2.1 0-4 .3-5.9.9l38.9-38.9c3.2-3.2 7.4-5 11.9-5s8.8 1.8 11.9 4.9c6.7 6.6 6.7 17.4.1 24z"/>
		<path fill="#333" d="M221.4 185.4h-17.8c35.3-41 33.5-103-5.3-141.8C178.6 23.8 152.4 13 124.5 13c-25.1 0-48.9 8.8-67.7 25V19.5c0-2.2-1.8-4-4-4s-4 1.8-4 4v29.1c0 2.2 1.8 4 4 4h29.1c2.2 0 4-1.8 4-4s-1.8-4-4-4H61.3C78.9 29.3 101 21 124.5 21c25.7 0 49.9 10 68.1 28.2 36.3 36.3 37.5 94.6 3.7 132.4v-21.3c0-2.2-1.8-4-4-4s-4 1.8-4 4v29.1c0 2.2 1.8 4 4 4h29.1c2.2 0 4-1.8 4-4s-1.7-4-4-4z"/>
	</g>
</svg>
