<svg xmlns="http://www.w3.org/2000/svg" viewBox="0 0 250 250">
	<g id="sonar">
		<path fill="#FFF" d="M172.7 1.2c-8.8 0-16 7.2-16 16v1c-9.6-2.8-19.7-4.4-29.7-4.6h-2.8C95 14 67.5 25.8 46.8 46.7 26 67.7 14.5 95.5 14.5 125c0 29.8 11.6 57.7 32.6 78.8 20.5 20.5 47.8 32.1 76.8 32.6h2.8c10.1-.2 20.2-1.7 30-4.6v1c0 8.8 7.2 16 16 16s16-7.2 16-16V17.2c0-8.8-7.2-16-16-16z"/>
		<path fill="#333" d="M172.7 13.2c-2.2 0-4 1.8-4 4v18.5c-13.2-6.5-27.8-9.9-42.6-10.1H125h-.1c-54.4.6-98.4 44.9-98.4 99.4 0 26.6 10.3 51.5 29.1 70.3 18.5 18.5 43.1 28.8 69.2 29.1h1.3c14.8-.2 29.4-3.6 42.6-10.1v18.5c0 2.2 1.8 4 4 4s4-1.8 4-4V17.2c0-2.2-1.8-4-4-4zm-37 77.6c3.1-7.5 7.1-14.7 12-21.2 7.3 3 14 7.4 19.7 13.2-5.5 7-9.5 14.9-11.9 23.4C151 99 144 93.4 135.7 90.8zm17.1 34.2c0 12.6-8.4 23.2-19.8 26.6-2.6-8.5-4-17.5-4-26.6 0-9.1 1.4-18.1 4-26.6 11.4 3.4 19.8 14 19.8 26.6zm-25.1-35.7c-.5 0-1-.1-1.4-.1h-1.6c-19.2.7-34.6 16.4-34.6 35.8 0 19.3 15.4 35.1 34.6 35.8h1.6c.5 0 1 0 1.4-.1 3 7.9 7.1 15.4 12 22.2-4.5 1.1-9.1 1.7-13.7 1.7h-1c-32.4 0-58.7-26.7-58.7-59.6S92.6 65.4 125 65.4h1c4.7 0 9.3.6 13.7 1.7-4.9 6.8-9 14.3-12 22.2zm-2.7 63.5c-14.9-.5-26.9-12.8-26.9-27.8s12-27.3 26.9-27.8c-2.6 8.9-4 18.3-4 27.8s1.4 18.9 4 27.8zm10.7 6.4c8.3-2.6 15.3-8.1 19.8-15.4 2.4 8.5 6.5 16.4 11.9 23.4-5.7 5.7-12.4 10.2-19.7 13.2-4.9-6.6-9-13.7-12-21.2zm25.1-34.2c0-10.6 2.8-20.8 7.9-29.8v59.7c-5.1-9.1-7.9-19.3-7.9-29.9zm-7.7-61.7c4.6-5.1 9.9-9.7 15.6-13.6v23.5c-4.8-4.1-10-7.4-15.6-9.9zm-27.6 153.1c-24.3-.1-47.1-9.6-64.2-26.8C44 172.4 34.5 149.4 34.5 125c0-50.2 40.7-91.1 90.9-91.4 13.7.1 27.1 3.2 39.3 9.1-7.4 5-14 10.9-19.7 17.6-6.1-1.9-12.6-2.9-19.1-2.9h-1c-36.8 0-66.7 30.3-66.7 67.6s29.9 67.6 66.7 67.6h1c6.5 0 13-1 19.1-2.9 5.7 6.7 12.3 12.6 19.7 17.6-12.2 5.9-25.6 9-39.2 9.1zm27.6-29.7c5.6-2.5 10.9-5.9 15.6-9.9v23.5c-5.8-3.9-11-8.5-15.6-13.6z"/>
	</g>
</svg>
