<svg xmlns="http://www.w3.org/2000/svg" viewBox="0 0 250 250">
	<g id="squeeze-sensor">
		<path fill="#FFF" d="M232.9 77.8c-18.2 0-36 3.1-52.9 9.3-11.4 4.2-22.2 9.6-32.3 16.3-.3-.4-.7-.7-1-1 6.7-10.1 12.1-20.9 16.3-32.3 6.2-16.9 9.3-34.7 9.3-52.9 0-9.4-7.6-17-17-17s-17 7.6-17 17v3.1c-1.3-.4-2.6-.7-4-.9-3-.3-6.1-.4-9.2-.4-27.5 0-53.3 10.6-72.7 30-22.4 22.5-33.1 53.5-29.2 85 .2 1.4.5 2.7 1 4-2.3.1-4.7.2-7 .2-9.4 0-17 7.6-17 17s7.6 17 17 17c18.2 0 36-3.1 52.9-9.3 11.4-4.2 22.2-9.6 32.3-16.3.3.4.7.7 1 1-6.7 10.1-12.1 20.9-16.3 32.3-6.2 16.9-9.3 34.7-9.3 52.9 0 9.4 7.6 17 17 17s17-7.6 17-17c0-3.4.1-6.8.4-10.1 1.5.6 3.2 1 4.9 1.1 2.6.2 5.3.3 7.9.3 27.4 0 53.2-10.7 72.5-30.1 20.3-20.3 31.3-48.5 29.9-77.2-.1-1.7-.4-3.4-1-4.9 2.1-.1 4.2-.2 6.3-.2 9.4 0 17-7.6 17-17s-7.4-16.9-16.8-16.9zm-68.7 55.4c-1.6 7.6-5.3 14.5-10.9 20.1-5.6 5.6-12.5 9.3-20.1 10.9 8.4-12.1 18.9-22.6 31-31zm-78.4-16.4c1.6-7.6 5.3-14.5 10.9-20.1 5.5-5.5 12.5-9.3 20.1-10.9-8.4 12.1-18.9 22.6-31 31z"/>
		<path fill="#333" d="M17.1 159.2c-2.2 0-4-1.8-4-4s1.8-4 4-4C91 151.2 151.2 91 151.2 17.1c0-2.2 1.8-4 4-4s4 1.8 4 4c0 78.3-63.8 142.1-142.1 142.1z"/>
		<path fill="#333" d="M94.8 236.9c-2.2 0-4-1.8-4-4 0-78.3 63.7-142.1 142.1-142.1 2.2 0 4 1.8 4 4s-1.8 4-4 4C159 98.8 98.8 159 98.8 232.9c0 2.2-1.8 4-4 4z"/>
		<path fill="#333" d="M68 126.6h-.2c-2.2-.1-3.9-2-3.8-4.2.6-15.3 7-29.8 17.8-40.6C92.7 71 107.1 64.6 122.5 64c2.2-.1 4.1 1.6 4.2 3.8.1 2.2-1.6 4.1-3.8 4.2-13.3.6-25.9 6.1-35.3 15.5-9.4 9.4-14.9 22-15.5 35.3-.2 2.1-2 3.8-4.1 3.8z"/>
		<path fill="#333" d="M127.1 186c-2.1 0-3.9-1.7-4-3.9-.1-2.2 1.6-4.1 3.9-4.1 13.4-.5 26.1-6 35.6-15.5s15-22.2 15.5-35.6c.1-2.2 1.9-3.9 4.1-3.9 2.2.1 3.9 1.9 3.9 4.1-.6 15.5-6.9 30-17.8 41-10.9 10.9-25.5 17.3-40.9 17.8-.2.1-.3.1-.3.1z"/>
		<path fill="#333" d="M40 136c-2 0-3.7-1.5-4-3.5-3.4-27.6 6-54.6 25.6-74.2 18.9-18.9 44.9-28.3 71.4-26 2.2.2 3.8 2.1 3.6 4.3s-2.1 3.8-4.3 3.6c-24.2-2.2-47.9 6.4-65 23.6-17.9 17.9-26.4 42.6-23.3 67.7.3 2.2-1.3 4.2-3.5 4.5H40z"/>
		<path fill="#333" d="M125 211.2c-2.3 0-4.6-.1-6.9-.3-2.2-.2-3.9-2.1-3.7-4.3.2-2.2 2.1-3.8 4.3-3.7 23.8 1.8 47.1-6.8 64-23.7 16.2-16.2 24.9-38.6 23.8-61.4-.1-2.2 1.6-4.1 3.8-4.2 2.2-.1 4.1 1.6 4.2 3.8 1.1 25.1-8.4 49.7-26.2 67.4-16.8 17-39.6 26.4-63.3 26.4z"/>
	</g>
</svg>
