<svg xmlns="http://www.w3.org/2000/svg" viewBox="0 0 250 250">
	<g id="statistics">
		<path fill="#333" d="M178.9 189.7a4 4 0 0 0 4-4v-26.3c0-2.2-1.8-4-4-4s-4 1.8-4 4v26.3a4 4 0 0 0 4 4z"/>
		<path fill="#fff" d="M178.9 155.4a4 4 0 0 1 4 4v26.3c0 2.2-1.8 4-4 4s-4-1.8-4-4v-26.3a4 4 0 0 1 4-4m0-12a16 16 0 0 0-16 16v26.3c0 8.8 7.2 16 16 16s16-7.2 16-16v-26.3a16 16 0 0 0-16-16z"/>
		<path fill="#333" d="M125 189.7a4 4 0 0 0 4-4V82c0-2.2-1.8-4-4-4s-4 1.8-4 4v103.7a4 4 0 0 0 4 4z"/>
		<path fill="#fff" d="M125 78a4 4 0 0 1 4 4v103.7c0 2.2-1.8 4-4 4s-4-1.8-4-4V82a4 4 0 0 1 4-4m0-12a16 16 0 0 0-16 16v103.7c0 8.8 7.2 16 16 16s16-7.2 16-16V82a16 16 0 0 0-16-16z"/>
		<path fill="#333" d="M152 189.7a4 4 0 0 0 4-4v-57.8c0-2.2-1.8-4-4-4s-4 1.8-4 4v57.8a4 4 0 0 0 4 4z"/>
		<path fill="#fff" d="M152 123.9a4 4 0 0 1 4 4v57.8c0 2.2-1.8 4-4 4s-4-1.8-4-4v-57.8a4 4 0 0 1 4-4m0-12a16 16 0 0 0-16 16v57.8c0 8.8 7.2 16 16 16s16-7.2 16-16v-57.8a16 16 0 0 0-16-16z"/>
		<path fill="#333" d="M205.9 189.7a4 4 0 0 0 4-4v-73.8c0-2.2-1.8-4-4-4s-4 1.8-4 4v73.8a4 4 0 0 0 4 4z"/>
		<path fill="#fff" d="M205.9 107.9a4 4 0 0 1 4 4v73.8c0 2.2-1.8 4-4 4s-4-1.8-4-4v-73.8a4 4 0 0 1 4-4m0-12a16 16 0 0 0-16 16v73.8c0 8.8 7.2 16 16 16s16-7.2 16-16v-73.8a16 16 0 0 0-16-16z"/>
		<path fill="#333" d="M71.1 189.7a4 4 0 0 0 4-4v-51.9c0-2.2-1.8-4-4-4s-4 1.8-4 4v51.9a4 4 0 0 0 4 4z"/>
		<path fill="#fff" d="M71.1 129.9a4 4 0 0 1 4 4v51.9c0 2.2-1.8 4-4 4s-4-1.8-4-4v-51.9a4 4 0 0 1 4-4m0-12a16 16 0 0 0-16 16v51.9c0 8.8 7.2 16 16 16s16-7.2 16-16v-51.9a16 16 0 0 0-16-16z"/>
		<path fill="#333" d="M98 189.7a4 4 0 0 0 4-4V64.3c0-2.2-1.8-4-4-4s-4 1.8-4 4v121.4a4 4 0 0 0 4 4z"/>
		<path fill="#fff" d="M98 60.3a4 4 0 0 1 4 4v121.4c0 2.2-1.8 4-4 4s-4-1.8-4-4V64.3a4 4 0 0 1 4-4m0-12a16 16 0 0 0-16 16v121.4c0 8.8 7.2 16 16 16s16-7.2 16-16V64.3a16 16 0 0 0-16-16z"/>
		<path fill="#333" d="M44.1 189.7a4 4 0 0 0 4-4v-86c0-2.2-1.8-4-4-4s-4 1.8-4 4v86a4 4 0 0 0 4 4z"/>
		<path fill="#fff" d="M44.1 95.7a4 4 0 0 1 4 4v86c0 2.2-1.8 4-4 4s-4-1.8-4-4v-86a4 4 0 0 1 4-4m0-12a16 16 0 0 0-16 16v86c0 8.8 7.2 16 16 16s16-7.2 16-16v-86a16 16 0 0 0-16-16z"/>
	</g>
</svg>
