<svg xmlns="http://www.w3.org/2000/svg" viewBox="0 0 250 250">
	<g id="time">
		<path fill="#333" d="M125 220.1c-52.4 0-95-42.6-95-95s42.6-95 95-95 95 42.6 95 95-42.6 95-95 95zm0-181.9c-48 0-87 39-87 87s39 87 87 87 87-39 87-87-39-87-87-87z"/>
		<path fill="#fff" d="M125 30.2c52.4 0 95 42.6 95 95s-42.6 95-95 95-95-42.6-95-95 42.6-95 95-95m0 181.9c48 0 87-39 87-87s-39-87-87-87-87 39-87 87 39 87 87 87m0-193.9c-59 0-107 48-107 107s48 107 107 107 107-48 107-107-48-107-107-107z"/>
		<path fill="#333" d="M178.3 71.9c-1.6-1.6-4.1-1.6-5.7 0L125 119.5 88.7 83.2c-1.6-1.6-4.1-1.6-5.7 0-1.6 1.6-1.6 4.1 0 5.7l39.1 39.1c.8.8 1.8 1.2 2.8 1.2 1 0 2-.4 2.8-1.2l50.4-50.4c1.7-1.6 1.7-4.1.2-5.7z"/>
	</g>
</svg>
