<svg xmlns="http://www.w3.org/2000/svg" viewBox="0 0 250 250">
	<g id="voltage-output">
		<path fill="#FFF" d="M146.4 1.2h-.6c-.4 0-1 0-1.6.1-.8.1-1.5.3-2 .4-.3.1-.7.2-1 .3L102 15.1C93.6 17.9 89.1 27 91.9 35.3c2.2 6.5 8.3 10.9 15.2 10.9 1.7 0 3.4-.3 5.1-.8l2.6-.9-43.2 86.3c-.5.9-.8 1.9-1.1 2.9-.2.6-.3 1.1-.3 1.4-.1.4-.2 1-.2 1.6v1.6c0 .4 0 .9.1 1.5l.3 1.8.1.3.3.9c.3.9.7 1.8 1.1 2.6.2.4.4.7.5.9.3.5.7 1 1.1 1.5.2.2.4.5.6.7l1.4 1.4c.2.2.5.4.7.6.4.3.9.6 1.4.9l.3.2.7.4.9.5.5.5c.6.2 1.1.4 1.8.6.3.1.6.1.9.2l1.8.3.4.1h2c.5 0 .9-.1 1.4-.1.4-.1.7-.1.9-.2.3-.1.7-.2 1-.2.3-.1.5-.1.8-.2l39.2-13.1 2.5-.8-43.2 86.3c-3.9 7.9-.7 17.5 7.2 21.5 2.2 1.1 4.7 1.7 7.2 1.7 6.1 0 11.6-3.4 14.3-8.8l60.4-120.9c.1-.3.3-.6.4-.9.3-.7.5-1.4.7-2 .2-.6.3-1.1.3-1.5.1-.4.2-.9.2-1.6v-1.6c0-.4 0-.9-.1-1.5s-.2-1.2-.3-1.9l-.1-.3-.3-.9-.3-.9-.2-.3c-.2-.6-.5-1.2-.8-1.7-.3-.5-.6-.9-.8-1.2-.3-.4-.6-.8-1-1.3s-.8-.8-1.1-1.1c-.3-.3-.7-.7-1.2-1.1-.6-.4-1.1-.8-1.4-1-.3-.2-.7-.4-1.2-.7-.5-.2-.9-.4-1.2-.5-.4-.2-1-.4-1.7-.6-.6-.2-1.2-.3-1.6-.3-.4-.1-.9-.2-1.5-.2h-1.6c-.3 0-.9 0-1.6.1-.8.1-1.5.3-2 .4-.4.1-.7.2-1.1.3l-39.2 13.1-2.5.8 25.9-51.8.8 2.5c2.2 6.5 8.3 10.9 15.2 10.9 1.7 0 3.4-.3 5.1-.8 8.4-2.8 12.9-11.9 10.1-20.2l-13.1-39.2-.3-.9-.2-.3c-.1-.2-.2-.5-.3-.7l-.1-.3-.4-.7-.6-.9c-.1-.1-.2-.2-.2-.3-.2-.4-.6-.8-1-1.3s-.8-.8-1.1-1.1c-.1-.1-.3-.3-.5-.4l-.1-.5-.5-.4h-.2c-.6-.4-1.1-.7-1.4-.9-.3-.2-.7-.4-1.2-.7-.4-.2-.7-.3-1.1-.5-.4-.2-1-.4-1.8-.6-.7-.2-1.2-.3-1.5-.3-.4-.1-.9-.2-1.5-.2-.3-.2-.7-.2-1-.2z"/>
		<path fill="#333" d="M168.1 112.6c0-.1.1-.3.1-.4v-.4-.4c0-.2-.1-.5-.2-.7-.1-.2-.2-.5-.3-.7-.1-.1-.1-.2-.2-.3-.1-.1-.2-.3-.3-.4l-.3-.3-.3-.3c-.1-.1-.3-.2-.4-.3-.1 0-.1-.1-.2-.1s-.1-.1-.2-.1c-.2-.1-.3-.1-.5-.2-.1 0-.3 0-.4-.1-.1 0-.3-.1-.4-.1h-.8c-.2 0-.4.1-.6.1h-.2L123.7 121l-30 10 51.8-103.6 10 30c.6 1.7 2.1 2.7 3.8 2.7.4 0 .8-.1 1.3-.2 2.1-.7 3.2-3 2.5-5.1L150 15.9v-.1c-.1-.2-.2-.5-.3-.7V15c0-.1-.1-.1-.1-.2-.1-.1-.2-.2-.3-.4l-.3-.3-.3-.3c-.1-.1-.3-.2-.4-.3-.1 0-.2-.1-.2-.1-.1 0-.1 0-.2-.1-.2-.1-.4-.2-.5-.2-.1 0-.3 0-.4-.1-.1 0-.3-.1-.4-.1h-.8c-.2 0-.4.1-.6.1h-.1l-39.2 13.1c-2.1.7-3.2 3-2.5 5.1.6 1.7 2.1 2.7 3.8 2.7.4 0 .8-.1 1.3-.2l30-10-56.3 112.6c-.1.2-.2.5-.3.7 0 .1 0 .2-.1.3 0 .1-.1.3-.1.4v.8c0 .2.1.5.2.7.1.2.2.4.3.7 0 .1.1.1.1.2.1.1.2.3.3.4l.2.2c.1.1.2.2.4.3l.2.2c.2.1.4.3.6.4.2.1.5.2.8.3h.2c.3.1.5.1.8.1h.8c.1 0 .3-.1.4-.1h.1l39.2-13.1 30-10L100.2 231c-1 2-.2 4.4 1.8 5.4.6.3 1.2.4 1.8.4 1.5 0 2.9-.8 3.6-2.2l60.4-120.9v-.1c.1-.2.2-.4.2-.6.1-.1.1-.3.1-.4z"/>
	</g>
</svg>
