<svg xmlns="http://www.w3.org/2000/svg" viewBox="0 0 250 250">
	<g id="wave">
		<path fill="#FFF" d="M90.6.1C73.1.1 59 16.1 57.8 37.3l-4.6 79.5c-6.6-7.4-14.3-8.8-19.2-8.8H17c-9.4 0-17 7.6-17 17s7.6 17 17 17h12c.9 2.7 1.9 7.4 3 15.7l.3 1.9c1.3 9.3 6 17.3 12.8 21.9 4 2.7 8.6 4.1 13.4 4.1 2 0 4.1-.3 6.1-.8 11.4-3 19.6-14.3 20.4-28.1l5.6-96.6 9.4 153.3v.2c.7 9.3 4 18 9.3 24.5 6.2 7.6 14.5 11.7 23.4 11.7h.1c17.1-.1 30.8-15.1 32.6-35.9v-.1L169 167l.3.3c4.3 4.1 9.7 6.2 15.7 6.2 9.3 0 16.9-4.7 21.4-13.3 2.8-5.4 4-11.5 4.9-16.4.1-.4.2-1.2.4-2h21.2c9.4 0 17-7.6 17-17s-7.6-17-17-17h-28.7c-5.8 0-11 1.8-15.1 5.3-4-11.2-13.4-18.6-24.4-18.6-.6 0-1.2 0-1.8.1-13.2 1-23.3 12.4-24.6 27.7v.1l-5.5 71.1-9.7-157.2v-.2c-.7-9.2-4-17.9-9.3-24.4C107.8 4.3 99.5.1 90.6.1z"/>
		<path fill="#333" d="M132.7 236.9c-10.2 0-18.7-10.4-19.7-24.3L102.2 37.8c-.7-9.3-5.9-16.7-11.7-16.8-5.9 0-11.2 7.8-11.7 17.4L72 156c-.5 8.1-4.8 14.7-10.8 16.2-3.1.8-6.2.3-8.9-1.6-3.8-2.5-6.4-7.2-7.2-12.8l-.3-1.9c-1.1-8.1-3.6-27-10.9-27h-17c-2.2 0-4-1.8-4-4s1.8-4 4-4h17c14.3 0 17.2 22.1 18.8 33.9l.3 1.9c.5 3.9 2.2 6.3 3.7 7.2.8.5 1.6.7 2.4.5 2.2-.6 4.6-3.9 4.9-9L70.8 38c.8-14.3 9.3-25 19.7-25h.1c10.1 0 18.5 10.5 19.6 24.2L121 212.1c.7 9.4 5.9 16.8 11.8 16.8 5.8 0 10.9-7.3 11.7-16.7l6.8-88.7c.8-8.9 6-15.4 12.7-15.9 7.2-.5 13.2 6.1 14.2 15.4v.1l1 11.8c1.3 11.8 3.2 17.8 5.9 17.8 3.1 0 4.3-5 5.7-12.6 1.6-8.5 3.6-19.2 13.6-19.2h28.7c2.2 0 4 1.8 4 4s-1.8 4-4 4h-28.7c-3.1 0-4.3 5-5.7 12.6-1.6 8.5-3.6 19.1-13.5 19.1-11.2 0-12.9-16.2-13.8-24.9l-.1-.7v-.1l-.9-11.1c-.6-5.1-3.4-8.4-5.6-8.2-2.2.2-4.9 3.5-5.3 8.6l-6.8 88.7c-1.5 13.9-9.7 24-20 24z"/>
	</g>
</svg>
