<svg xmlns="http://www.w3.org/2000/svg" viewBox="0 0 250 250">
	<g id="comparison-less-equal">
		<path fill="#333" d="M223.5,106.2h-91.2c-2.2,0-4-1.8-4-4s1.8-4,4-4h91.2c2.2,0,4,1.8,4,4S225.7,106.2,223.5,106.2z"/>
		<path fill="#FFF" d="M223.5,98.2c2.2,0,4,1.8,4,4s-1.8,4-4,4h-91.2c-2.2,0-4-1.8-4-4s1.8-4,4-4H223.5 M223.5,86.2h-91.2c-8.8,0-16,7.2-16,16s7.2,16,16,16h91.2c8.8,0,16-7.2,16-16S232.3,86.2,223.5,86.2L223.5,86.2z"/>
		<path fill="#333" d="M223.5,151.8h-91.2c-2.2,0-4-1.8-4-4s1.8-4,4-4h91.2c2.2,0,4,1.8,4,4S225.7,151.8,223.5,151.8z"/>
		<path fill="#FFF" d="M223.5,143.8c2.2,0,4,1.8,4,4s-1.8,4-4,4h-91.2c-2.2,0-4-1.8-4-4s1.8-4,4-4H223.5 M223.5,131.8h-91.2c-8.8,0-16,7.2-16,16s7.2,16,16,16h91.2c8.8,0,16-7.2,16-16S232.3,131.8,223.5,131.8L223.5,131.8z"/>
		<path fill="#333" d="M87.3,60.2c1,0,2,0.4,2.8,1.2c1.6,1.6,1.6,4.1,0,5.7l-58,58l58,58c1.6,1.6,1.6,4.1,0,5.7c-1.6,1.6-4.1,1.6-5.7,0L23.6,128c-1.6-1.6-1.6-4.1,0-5.7l60.8-60.8C85.2,60.5,86.2,60.2,87.3,60.2z"/>
		<path fill="#FFF" d="M87.3,189.8c-1,0-2-0.4-2.8-1.2l-60.8-60.8c-1.6-1.6-1.6-4.1,0-5.7l60.8-60.8c0.8-0.8,1.8-1.2,2.8-1.2s2,0.4,2.8,1.2c1.6,1.6,1.6,4.1,0,5.7l-58,58l58,58c1.6,1.6,1.6,4.1,0,5.7C89.3,189.5,88.3,189.8,87.3,189.8 M87.3,201.8c4.3,0,8.3-1.7,11.3-4.7s4.7-7,4.7-11.3s-1.7-8.3-4.7-11.3L49.1,125l49.5-49.5c3-3,4.7-7,4.7-11.3s-1.7-8.3-4.7-11.3s-7-4.7-11.3-4.7c-4.3,0-8.3,1.7-11.3,4.7l-60.8,60.8c-3,3-4.7,7-4.7,11.3c0,4.3,1.7,8.3,4.7,11.3L76,197.2C79,200.2,83,201.8,87.3,201.8L87.3,201.8z"/>
	</g>
</svg>
