<svg xmlns="http://www.w3.org/2000/svg" viewBox="0 0 250 250">
	<g id="logic-xor">
		<path fill="#333" d="M225 122h-48.4l-13.5-13.5C139.6 85 108.3 72 75 72H50c-1.6 0-3.1.5-3.7 2-.6 1.5-.3 3 .9 4.1 1.1 1.1 2.2 2.6 3.3 3.6C55.6 86.8 60.2 92 63.6 97H58c-4.2-8-10.3-14.7-16.8-21.1-1.1-1.1-2.2-2.4-3.3-3.5-1.6-1.6-4.1-1.7-5.7-.1-1.6 1.6-1.6 4 0 5.6 1.1 1.1 2.2 2.7 3.3 3.7C40.8 86.7 45.3 92 48.8 97H25c-2.2 0-4 1.8-4 4s1.8 4 4 4h27.9c2.1 6 3.3 12.2 3.3 21s-1.2 16-3.3 21H25c-2.2 0-4 1.8-4 4s1.8 4 4 4h23.9c-3.5 6-8 9.3-13.2 14.4-1.1 1.1-2.2 1.9-3.3 3-1.6 1.6-1.6 4 0 5.5.8.8 1.8 1.1 2.8 1.1s2-.4 2.8-1.2c1.1-1.1 2.2-1.7 3.3-2.8 6.5-6.4 12.6-12.1 16.8-20.1h5.6c-3.5 6-8 9.4-13.2 14.4-1.1 1.1-2.2 1.9-3.3 3-1.1 1.1-1.5 3.2-.9 4.7s2.1 2.8 3.7 2.8h25c33.3 0 64.6-13 88.2-36.5l13.5-13.5H225c2.2 0 4-1.8 4-4s-1.8-3.8-4-3.8zM61.4 147c1.8-6 2.8-12.6 2.8-21s-1-15-2.8-21h6.3c2.1 6 3.3 12.2 3.3 21s-1.2 16-3.3 21h-6.3zm96.1-9.7c-22.1 22-51.4 34.7-82.6 34.7H59.7c5.7-6 10.8-12 14.3-19.9v-.4c3-6.8 4.9-15.3 4.9-26.6s-1.8-19.7-4.9-26.6c0 0 0 .4-.1.3C70.5 91.1 65.4 86 59.7 80H75c31.2 0 60.5 11.7 82.6 33.7l11.8 11.8-11.9 11.8z"/>
		<path fill="#FFF" d="M35.1 71.2c1.1 0 2.1.4 2.9 1.2 1.1 1.1 2.2 2.4 3.3 3.5C47.8 82.3 53.8 89 58.1 97h5.6c-3.5-5-8-10.2-13.2-15.3-1.1-1.1-2.2-2.5-3.3-3.6-1.1-1.1-1.5-2.6-.9-4.1.6-1.5 2.1-2 3.7-2h25c33.3 0 64.6 13 88.2 36.5l13.5 13.5H225c2.2 0 4 1.8 4 4s-1.8 4-4 4h-48.4l-13.5 13.5C139.6 167 108.3 180 75 180H50c-1.6 0-3.1-1.3-3.7-2.8-.6-1.5-.3-3.6.9-4.7 1.1-1.1 2.2-2 3.3-3 5.2-5.1 9.7-8.4 13.2-14.4h-5.6c-4.2 8-10.3 13.7-16.8 20.1-1.1 1.1-2.2 1.7-3.3 2.8-.8.8-1.8 1.2-2.8 1.2s-2-.3-2.8-1.1c-1.6-1.6-1.6-4 0-5.5 1.1-1.1 2.2-2 3.3-3 5.2-5.1 9.7-8.4 13.2-14.4H25c-2.2 0-4-1.8-4-4s1.8-4 4-4h27.9c2.1-5 3.3-12.2 3.3-21s-1.2-15-3.3-21H25c-2.2 0-4-1.8-4-4s1.8-4 4-4h23.9c-3.5-5-8-10.3-13.2-15.4-1.1-1.1-2.2-2.6-3.3-3.7-1.6-1.6-1.6-4 0-5.6.7-.9 1.7-1.3 2.7-1.3M74 98.9v-.3c3 6.8 4.9 15.3 4.9 26.6S77.1 145 74 151.8v.4C70.5 160 65.4 166 59.7 172H75c31.2 0 60.5-12.6 82.6-34.7l11.8-11.8-11.8-11.8C135.5 91.7 106.2 80 75 80H59.7c5.7 6 10.8 11.1 14.3 18.9M61.4 147h6.4c2.1-5 3.3-12.2 3.3-21s-1.2-15-3.3-21h-6.3c1.8 6 2.8 12.6 2.8 21-.1 8.4-1.1 15-2.9 21M35.1 59.2c-4.2 0-8.2 1.6-11.2 4.6-3 3-4.7 7-4.7 11.3 0 3.7 1.3 7.2 3.6 10C15 86.2 9 92.9 9 101c0 8.8 7.2 16 16 16h18.6c.4 2.7.6 5.6.6 9 0 3.6-.2 6.6-.6 9H25c-8.8 0-16 7.2-16 16 0 7.7 5.5 14.1 12.7 15.7-1.6 2.5-2.5 5.5-2.5 8.6 0 4.2 1.7 8.2 4.7 11.3 3 3 7 4.6 11.3 4.6 2.3 0 4.6-.5 6.7-1.5 2.4 1.5 5.2 2.4 8.1 2.4h25c36.5 0 70.9-14.2 96.7-40l10-10H225c8.8 0 16-7.2 16-16s-7.2-16-16-16h-43.4l-10-10C145.9 74.2 111.5 60 75 60H50c-2.5 0-4.8.5-6.9 1.4-2.4-1.4-5.2-2.2-8-2.2zm50 34.5c-.2-.5-.4-.9-.7-1.3 24.7 2.1 47.4 12.5 64.7 29.8l3.3 3.3-3.3 3.3c-18 18-40.9 28.7-65.3 30.8.4-.8.8-1.7 1.2-2.6.2-.6.4-1.1.6-1.6 3.6-8.7 5.4-18.6 5.4-30.3 0-12.1-2-22.4-5.9-31.4z"/>
	</g>
</svg>
