<svg xmlns="http://www.w3.org/2000/svg" viewBox="0 0 250 250">
	<g id="pulse-wave">
		<path fill="#FFF" d="M210.7 186.4H103.6V43.6c0-11-9-20-20-20H39.3c-11 0-20 9-20 20v162.8c0 11 9 20 20 20s20-9 20-20c0 0 0-1.6 2-1.6s2.2 1.6 2.2 1.6c0 11 9 20 20 20h127.1c11 0 20-9 20-20 .1-11-8.9-20-19.9-20z"/>
		<path fill="#333" d="M210.7 198.4H91.6V43.6c0-4.4-3.6-8-8-8H39.3c-4.4 0-8 3.6-8 8v162.8c0 4.4 3.6 8 8 8s8-3.6 8-8V51.6h28.2v154.8c0 4.4 3.6 8 8 8h127.1c4.4 0 8-3.6 8-8 .1-4.4-3.5-8-7.9-8z"/>
	</g>
</svg>
