<svg xmlns="http://www.w3.org/2000/svg" viewBox="0 0 250 250">
	<g id="triangle-wave">
		<path fill="#FFF" d="M30.3 140.8c2.8 1.4 5.9 2.2 9.1 2.2 7.6 0 14.4-4.2 17.8-10.9l23.9-47 67.7 128.6c1.6 3 3.9 5.5 6.6 7.4 1.8 4.3 6.1 7.3 11.1 7.3h.1c4.9 0 9.2-3 11-7.3 2.7-1.8 4.9-4.2 6.5-7.1l44.2-81.4c5.3-9.7 1.7-21.9-8-27.1-3-1.6-6.2-2.4-9.5-2.4-7.3 0-14.1 4-17.6 10.5L166.7 162 98.5 32.3C95 25.7 88.2 21.6 80.8 21.6h-.2c-7.5.1-14.3 4.2-17.7 10.9l-41.4 81.4c-2.4 4.8-2.8 10.2-1.2 15.3 1.7 5.1 5.2 9.2 10 11.6z"/>
		<path fill="#333" d="M173.5 208.2l44.2-81.4c2.1-3.9.7-8.7-3.2-10.8-1.2-.6-2.5-1-3.8-1-2.9 0-5.6 1.6-7 4.2l-33.5 61.7-3.6 6.6-3.5-6.6-75.2-143c-1.4-2.6-4.1-4.3-7-4.3h-.1c-3 0-5.7 1.7-7.1 4.4l-41.4 81.4c-1 1.9-1.1 4.1-.5 6.1.7 2 2.1 3.7 4 4.7 1.1.6 2.4.9 3.6.9 3 0 5.8-1.7 7.1-4.4L77.4 66l3.5-6.9 3.6 6.8 74.9 142.3c1.4 2.6 4.1 4.3 7 4.3l.1 4v-4c2.9-.1 5.6-1.7 7-4.3z"/>
	</g>
</svg>
