<svg xmlns="http://www.w3.org/2000/svg" viewBox="0 0 250 250">
	<g id="ramp-up-wave">
		<path fill="#FFF" d="M210.7 23.6c-5.2 0-10.1 2-13.8 5.5-.7.7-36.9 35-75.8 72l-52.6 50-42.9 40.8c-3.9 3.7-6.1 8.6-6.2 14-.1 5.3 1.8 10.4 5.5 14.3 3.8 4 9 6.2 14.5 6.2 5.1 0 10-2 13.8-5.5L190.7 90.2v116.2c0 11 9 20 20 20s20-9 20-20V43.6c0-11-9-20-20-20z"/>
		<path fill="#333" d="M210.7 35.6c-2.1 0-4 .8-5.5 2.2-1 1-78 74.1-128.4 122l-42.9 40.8c-1.5 1.5-2.4 3.5-2.5 5.6-.1 2.1.7 4.2 2.2 5.7 1.5 1.6 3.6 2.5 5.8 2.5 2.1 0 4-.8 5.5-2.2l151-143.5 6.8-6.4V206.5c0 4.4 3.6 8 8 8s8-3.6 8-8V43.6c0-4.4-3.6-8-8-8z"/>
	</g>
</svg>
