<svg xmlns="http://www.w3.org/2000/svg" viewBox="0 0 120 80">
    <path d="M70.4 16.7H57.2c-.6 0-1.1-.2-1.6-.5-6.2-4.1-13.7-6.5-21.8-6.5-8.5 0-16.4 2.7-22.8 7.3-.1.1-.2.1-.3.2-.4.3-.7.9-.7 1.4v8.8c0 1 .8 1.9 1.9 1.9h3.9c.3 0 .5.1.7.3l3 3c.3.3.6.4 1 .4h6.1c.4 0 .7-.1 1-.4l3-3c.2-.2.4-.3.7-.3h39.2c1 0 1.9-.8 1.9-1.9v-8.8c-.1-1-.9-1.9-2-1.9z" fill="#ffdf24"/>
    <path d="M33.9 10.7c7.6 0 14.9 2.2 21.2 6.4.6.4 1.4.6 2.1.6h13.2c.5 0 .9.4.9.9v8.8c0 .5-.4.9-.9.9H31.3c-.5 0-1 .2-1.4.6l-3 3c-.1.1-.2.1-.3.1h-6.1c-.1 0-.2 0-.3-.1l-3-3c-.4-.4-.9-.6-1.4-.6H12c-.5 0-.9-.4-.9-.9v-8.8c0-.3.2-.5.3-.6l.2-.1c6.5-4.7 14.2-7.2 22.3-7.2m0-1c-8.5 0-16.4 2.7-22.8 7.3-.1.1-.2.1-.3.2-.4.3-.7.9-.7 1.4v8.8c0 1 .8 1.9 1.9 1.9h3.9c.3 0 .5.1.7.3l3 3c.3.3.6.4 1 .4h6.1c.4 0 .7-.1 1-.4l3-3c.2-.2.4-.3.7-.3h39.1c1 0 1.9-.8 1.9-1.9v-8.8c0-1-.8-1.9-1.9-1.9H57.2c-.6 0-1.1-.2-1.6-.5-6.2-4.1-13.7-6.5-21.7-6.5z" fill="#ffb012"/>
    <path d="M83.2 46.9H31.3c-.3 0-.5.1-.7.3l-3 3c-.3.3-.6.4-1 .4h-6.1c-.4 0-.7-.1-1-.4l-3-3c-.2-.2-.4-.3-.7-.3H12c-1 0-1.9.8-1.9 1.9v13.8c0 1 .8 1.9 1.9 1.9h3.9c.3 0 .5.1.7.3l3 3c.3.3.6.4 1 .4h6.1c.4 0 .7-.1 1-.4l3-3c.2-.2.4-.3.7-.3h51.9c1 0 1.9-.8 1.9-1.9V48.7c-.1-1-1-1.8-2-1.8z" fill="#82d5ef"/>
    <path d="M15.8 47.9l3 3c.5.5 1.1.7 1.7.7h6.1c.6 0 1.3-.3 1.7-.7l3-3h51.9c.5 0 .9.4.9.9v13.8c0 .5-.4.9-.9.9H31.3c-.5 0-1 .2-1.4.6l-3 3c-.1.1-.2.1-.3.1h-6.1c-.1 0-.2 0-.3-.1l-3-3c-.4-.4-.9-.6-1.4-.6H12c-.5 0-.9-.4-.9-.9V48.7c0-.5.4-.9.9-.9l3.8.1m67.4-1H31.3c-.3 0-.5.1-.7.3l-3 3c-.3.3-.6.4-1 .4h-6.1c-.4 0-.7-.1-1-.4l-3-3c-.2-.2-.4-.3-.7-.3H12c-1 0-1.9.8-1.9 1.9v13.8c0 1 .8 1.9 1.9 1.9h3.9c.3 0 .5.1.7.3l3 3c.3.3.6.4 1 .4h6.1c.4 0 .7-.1 1-.4l3-3c.2-.2.4-.3.7-.3h51.9c1 0 1.9-.8 1.9-1.9V48.7c-.1-1-1-1.8-2-1.8z" fill="#2ab7d8"/>
    <path d="M108.1 29.3H31.3c-.3 0-.5.1-.7.3l-3 3c-.3.3-.6.4-1 .4h-6.1c-.4 0-.7-.1-1-.4l-3-3c-.2-.2-.4-.3-.7-.3H12c-1 0-1.9.8-1.9 1.9V45c0 1 .8 1.9 1.9 1.9h3.9c.3 0 .5.1.7.3l3 3c.3.3.6.4 1 .4h6.1c.4 0 .7-.1 1-.4l3-3c.2-.2.4-.3.7-.3h76.8c1 0 1.9-.8 1.9-1.9V31.2c-.1-1.1-1-1.9-2-1.9z" fill="#f382c4"/>
    <path d="M15.8 30.3l3 3c.5.5 1.1.7 1.7.7h6.1c.6 0 1.3-.3 1.7-.7l3-3h76.8c.5 0 .9.4.9.9V45c0 .5-.4.9-.9.9H31.3c-.5 0-1 .2-1.4.6l-3 3c-.1.1-.2.1-.3.1h-6.1c-.1 0-.2 0-.3-.1l-3-3c-.4-.4-.9-.6-1.4-.6H12c-.5 0-.9-.4-.9-.9V31.2c0-.5.4-.9.9-.9h3.8m92.3-1H31.3c-.3 0-.5.1-.7.3l-3 3c-.3.3-.6.4-1 .4h-6.1c-.4 0-.7-.1-1-.4l-3-3c-.2-.2-.4-.3-.7-.3H12c-1 0-1.9.8-1.9 1.9V45c0 1 .8 1.9 1.9 1.9h3.9c.3 0 .5.1.7.3l3 3c.3.3.6.4 1 .4h6.1c.4 0 .7-.1 1-.4l3-3c.2-.2.4-.3.7-.3h76.8c1 0 1.9-.8 1.9-1.9V31.2c-.1-1.1-1-1.9-2-1.9z" fill="#ef43ad"/>
    <path d="M33.9 9.7c8 0 15.5 2.4 21.8 6.5.5.3 1 .5 1.6.5h13.2c1 0 1.9.8 1.9 1.9v8.8c0 1-.8 1.9-1.9 1.9h37.6c1 0 1.9.8 1.9 1.9V45c0 1-.8 1.9-1.9 1.9H83.2c1 0 1.9.8 1.9 1.9v13.8c0 1-.8 1.9-1.9 1.9H31.3c-.3 0-.5.1-.7.3l-3 3c-.3.3-.6.4-1 .4h-6.1c-.4 0-.7-.1-1-.4l-3-3c-.2-.2-.4-.3-.7-.3H12c-1 0-1.9-.8-1.9-1.9V48.7c0-1 .8-1.9 1.9-1.9-1 0-1.9-.8-1.9-1.9V31.2c0-1 .8-1.9 1.9-1.9-1 0-1.9-.8-1.9-1.9v-8.8c0-.6.3-1.1.7-1.4.1-.1.2-.1.3-.2 6.4-4.6 14.3-7.3 22.8-7.3M26.6 33c.4 0 .7-.1 1-.4-.3.2-.6.4-1 .4m0 17.5c.4 0 .7-.1 1-.4-.3.3-.6.4-1 .4m7.3-43.8c-8.9 0-17.4 2.7-24.6 7.8l-.3.2-.1.1-.1.1c-1.1.9-1.7 2.3-1.7 3.7v8.8c0 .7.1 1.3.4 1.9-.2.6-.4 1.2-.4 1.9V45c0 .7.1 1.3.4 1.9-.2.6-.4 1.2-.4 1.9v13.8c0 2.7 2.2 4.9 4.9 4.9h3l2.4 2.4c.8.8 2 1.3 3.1 1.3h6.1c1.2 0 2.3-.5 3.1-1.3l2.4-2.4h51.1c2.7 0 4.9-2.2 4.9-4.9V49.9h20c2.7 0 4.9-2.2 4.9-4.9V31.2c0-2.7-2.2-4.9-4.9-4.9H75.3v-7.7c0-2.7-2.2-4.9-4.9-4.9H57.3c-7-4.6-15.1-7-23.4-7z" fill="#333"/>
    <path fill="#fff" d="M93.1 42H54.9c-2.1 0-3.9-1.8-3.9-3.9 0-2.1 1.8-3.9 3.9-3.9h38.2c2.1 0 3.9 1.8 3.9 3.9 0 2.1-1.8 3.9-3.9 3.9zM43.7 59.5h-2.8c-2.1 0-3.9-1.8-3.9-3.9 0-2.1 1.8-3.9 3.9-3.9h2.8c2.1 0 3.9 1.8 3.9 3.9 0 2.1-1.8 3.9-3.9 3.9z"/>
</svg>
