<svg id="Layer_1" xmlns="http://www.w3.org/2000/svg" viewBox="0 0 120 80">
    <style>
        .st0{fill:#333}
    </style>
    <path d="M27.7 62.5H9.6c-4.1 0-7.4-3.3-7.4-7.4V27.3c0-4.1 3.3-7.4 7.4-7.4h18.2c4.1 0 7.4 3.3 7.4 7.4v27.9c-.1 4-3.4 7.3-7.5 7.3z" fill="#56c2f1"/>
    <path class="st0" d="M27.7 64H9.6c-4.9 0-8.9-4-8.9-8.9V27.3c0-4.9 4-8.9 8.9-8.9h18.2c4.9 0 8.9 4 8.9 8.9v27.9c-.1 4.8-4.1 8.8-9 8.8zM9.6 21.4c-3.2 0-5.9 2.6-5.9 5.9v27.9c0 3.2 2.6 5.9 5.9 5.9h18.2c3.2 0 5.9-2.6 5.9-5.9V27.3c0-3.2-2.6-5.9-5.9-5.9H9.6z"/>
    <path d="M69.5 70.5H51.3c-4.1 0-7.4-3.3-7.4-7.4V35.2c0-4.1 3.3-7.4 7.4-7.4h18.2c4.1 0 7.4 3.3 7.4 7.4v27.9c0 4-3.4 7.4-7.4 7.4z" fill="#87d98c"/>
    <path class="st0" d="M69.5 72H51.3c-4.9 0-8.9-4-8.9-8.9V35.2c0-4.9 4-8.9 8.9-8.9h18.2c4.9 0 8.9 4 8.9 8.9v27.9c0 4.9-4 8.9-8.9 8.9zM51.3 29.3c-3.2 0-5.9 2.6-5.9 5.9v27.9c0 3.2 2.6 5.9 5.9 5.9h18.2c3.2 0 5.9-2.6 5.9-5.9V35.2c0-3.2-2.6-5.9-5.9-5.9H51.3z"/>
    <path d="M110.5 49.5H92.3c-4.1 0-7.4-3.3-7.4-7.4V14.2c0-4.1 3.3-7.4 7.4-7.4h18.2c4.1 0 7.4 3.3 7.4 7.4v27.9c0 4.1-3.3 7.4-7.4 7.4z" fill="#f382c4"/>
    <path class="st0" d="M110.5 51H92.3c-4.9 0-8.9-4-8.9-8.9V14.2c0-4.9 4-8.9 8.9-8.9h18.2c4.9 0 8.9 4 8.9 8.9v27.9c0 4.9-4 8.9-8.9 8.9zM92.3 8.3c-3.2 0-5.9 2.6-5.9 5.9v27.9c0 3.2 2.6 5.9 5.9 5.9h18.2c3.2 0 5.9-2.6 5.9-5.9V14.2c0-3.2-2.6-5.9-5.9-5.9H92.3z"/>
    <path class="st0" d="M76.9 50.6c-.2 0-.5-.1-.7-.2-.7-.4-1-1.3-.7-2l8.1-15.8c.4-.7 1.3-1 2-.7.7.4 1 1.3.7 2l-8.1 15.8c-.3.6-.8.9-1.3.9zM43.9 50.6c-.2 0-.4 0-.6-.1l-8.8-3.9c-.8-.3-1.1-1.2-.8-2 .3-.8 1.2-1.1 2-.8l8.8 3.9c.8.3 1.1 1.2.8 2-.3.6-.8.9-1.4.9z"/>
</svg>
