<svg id="Layer_1" xmlns="http://www.w3.org/2000/svg" viewBox="0 0 120 80">
    <style>
        .st1{fill:#fff}
    </style>
    <path d="M86.5 70.3H34.2c-3.9 0-7-3.1-7-7V15c0-3.9 3.1-7 7-7h52.3c3.9 0 7 3.1 7 7v48.2c.1 3.9-3.1 7.1-7 7.1z" fill="#333"/>
    <path class="st1" d="M80.1 30.7H56.9c-.8 0-1.5-.7-1.5-1.5s.7-1.5 1.5-1.5h23.2c.8 0 1.5.7 1.5 1.5s-.6 1.5-1.5 1.5zM82.5 50.5H38.2c-.8 0-1.5-.7-1.5-1.5s.7-1.5 1.5-1.5h44.3c.8 0 1.5.7 1.5 1.5s-.7 1.5-1.5 1.5z"/>
    <path d="M49.6 30.7H38.2c-.8 0-1.5-.7-1.5-1.5s.7-1.5 1.5-1.5h11.3c.8 0 1.5.7 1.5 1.5s-.6 1.5-1.4 1.5z" fill="#87d98c"/>
    <path class="st1" d="M66.5 40.6h-7.9c-.8 0-1.5-.7-1.5-1.5s.7-1.5 1.5-1.5h7.9c.8 0 1.5.7 1.5 1.5s-.7 1.5-1.5 1.5z"/>
    <path d="M51.6 40.6H38.2c-.8 0-1.5-.7-1.5-1.5s.7-1.5 1.5-1.5h13.4c.8 0 1.5.7 1.5 1.5s-.7 1.5-1.5 1.5z" fill="#f382c4"/>
    <path class="st1" d="M78.1 60.4H38.2c-.8 0-1.5-.7-1.5-1.5s.7-1.5 1.5-1.5H78c.8 0 1.5.7 1.5 1.5s-.6 1.5-1.4 1.5zM76.9 20.8H61.3c-.8 0-1.5-.7-1.5-1.5s.7-1.5 1.5-1.5h15.6c.8 0 1.5.7 1.5 1.5s-.7 1.5-1.5 1.5z"/>
    <path d="M54.6 20.8H38.2c-.8 0-1.5-.7-1.5-1.5s.7-1.5 1.5-1.5h16.4c.8 0 1.5.7 1.5 1.5s-.6 1.5-1.5 1.5z" fill="#54b9e5"/>
</svg>
