<svg xmlns="http://www.w3.org/2000/svg" viewBox="0 0 367.5 250">
    <path fill="#fff" d="M319.4 93.7l-20.3.1c-.2-5.3-1.5-10.7-4-15.5-4.4-8.4-11.7-14.7-20.6-17.7l6.3-19.7C285.7 25.6 278 9 263.4 3.2c-7.9-3.2-16.5-3-24.1.6-.4.1-.6.3-1 .4-7.3 3.9-12.9 10.5-15.3 18.3l-6.3 19.7c-9-2.8-18.7-1.9-27.1 2.5-4.9 2.6-9 6.1-12.2 10.4L160.5 43c-6.6-4.7-14.8-6.7-22.9-5.4-3.2.5-6.2 1.5-9.1 3-4.2 2.1-8 5.4-10.8 9.4-9.9 13.7-6.7 33 7.1 42.9l21.4 15.3c-2.4 11.4-2.4 23.1.3 34.5l-21.3 15.6c-6.6 4.8-10.9 11.9-12.2 20.1-1.2 8.1.7 16.2 5.6 22.8 3.9 5.3 9.2 9.1 15.4 11 7.7 2.5 16.3 1.8 23.5-2 1.5-.7 2.8-1.5 4.1-2.5l14.1-10.4c.2 1.7.6 3.5 1.5 5.1-2.7 3.1-5.6 5.8-8.9 7.9-1 .7-2.3 1.5-4 2.4-10 5.2-23.8 5.6-40 1.4-8.2-2.2-12.1-5.4-17.5-9.9-5.7-4.7-12.7-10.5-24.4-14.8-20.3-7.3-43.6-6.3-69.1 3-.7.2-1.3.5-1.8.8-7.1 3.6-10.4 12.1-7.7 19.7 1.5 4 4.4 7.2 8.3 9.1 3.9 1.8 8.3 2 12.2.6 18.2-6.7 34.2-7.7 47.3-3 6.4 2.3 10 5.2 14.8 9.2 6.5 5.4 14.7 12.2 29.7 16.2 9 2.4 36.5 9.7 63.3-4.1 2.2-1.2 4.5-2.4 6.5-3.9 8.2-5.4 15.2-12.3 20.7-20.7 2.4-.1 4.8-.7 7.1-1.8 1.8-.9 3.4-2.2 4.6-3.6l5.5 16.6c3.1 9.3 10.5 16.6 19.8 19.7 6.2 1.9 12.8 2 18.9-.1 1.5-.5 3-1.1 4.4-1.9 6.4-3.3 11.5-8.9 14.2-15.6 2.8-6.8 3.1-14.4.8-21.3l-8.3-25.1c8.7-7.7 15.6-17.3 20.1-28l26.3-.1c4.8 0 9.6-1.2 13.9-3.5 3.4-1.8 6.3-4.1 8.9-6.9 5.7-6.5 8.5-15.3 7.5-23.9-1.6-15.6-15-27.3-30.9-27.1z"/>
    <path fill="#333" d="M319.5 105.6l-34.4.2c-.1-.3-.2-.6-.3-.8.4-1 .8-2 1.1-2.9 4-12.6-3-26.2-15.7-30.3-3.4-1.1-7.2-1.4-10.8-1-.3-.2-.6-.4-.8-.6l10.5-33.1c2.9-9.3-1.7-19.4-10.4-22.9-4.8-1.9-10-1.8-14.6.4-4.7 2.2-8.2 6.3-9.9 11.4l-10.5 33.1c-.3 0-.7 0-1.1-.1-2.6-2.5-5.8-4.3-9.3-5.4-12.7-4-26.3 2.9-30.3 15.7-.3 1-.6 2.1-.8 3.1-.3.2-.4.3-.7.5l-28.3-20.4c-4-2.9-9-4.1-13.9-3.3-4.9.8-9.3 3.5-12.1 7.5-6 8.4-4.1 20.1 4.2 26.1l28.2 20.2c-.2.6-.4 1.1-.5 1.6-4.4 13.8-4 28.7.8 42.3l-28 20.6c-4.1 2.9-6.6 7.3-7.4 12.3-.8 4.9.4 9.9 3.5 13.9 2.3 3.2 5.6 5.5 9.4 6.7 5.7 1.8 12 .8 16.8-2.7l27.9-20.6c2.8 2.1 5.8 4.1 8.9 5.7l-3.6 11.2c-.7 2.1.5 4.4 2.6 5l2.6.8c-3.7 6.8-9.3 14.4-18.1 20.1-5.3 3.4-21.2 14-53.7 5.3-10.7-2.9-16.3-7.4-22.1-12.3-5.4-4.5-11.1-9.2-20.8-12.7-17.7-6.3-38.1-5.3-61 3-2.1.8-3.1 3-2.4 5.1.8 2.1 3 3.1 5.1 2.4 20.9-7.7 39.7-8.7 55.5-3 8.5 3 13.3 7.1 18.4 11.3 6.2 5.1 12.6 10.4 25.1 13.8 8.2 2.2 32 8.5 54.7-3.2 1.8-.9 3.7-2 5.5-3.2 10.5-7 17.2-16.3 21.4-24.3l4.5 1.4c1 .3 2.1.3 3.1-.3.9-.5 1.7-1.3 2-2.3l3.6-11.2c3.5.4 7.1.6 10.6.5l10.9 32.9c1.9 5.7 6.4 10.1 12.1 11.9 3.8 1.2 7.8 1.2 11.6-.1.9-.3 1.9-.7 2.7-1.1 8-4.1 12.1-13.6 9.2-22.5l-11-33c11.9-8.3 20.8-20.3 25.1-34.1.1-.6.4-1.1.5-1.6l34.7-.2c5.2-.1 10.4-2.3 13.9-6.3s5.1-9.3 4.5-14.6c-.8-8.9-8.9-15.9-18.7-15.9zm-120.6 80.9c-.3.2-.4.4-.5.7l.3-.8c-.1.1 0 .1.2.1zm6.8 2.4c0-.1 0-.1-.1-.2h.1v.2zM330.6 123c.4 3.1-.6 6.1-2.6 8.3-2 2.2-4.9 3.6-8 3.6l-37.8.2c-1.9 0-3.5 1.3-3.8 3.1-.4 1.6-.7 2.9-1.1 4.2-4.1 13-12.8 24.2-24.4 31.4-1.6.9-2.3 2.9-1.7 4.7l11.9 35.9c1.9 5.6-1.2 11.7-6.8 13.5-2.2.7-4.4.7-6.6.1-3.3-1-5.8-3.6-6.9-6.9l-11.9-35.9c-.6-1.7-2.3-2.9-4.2-2.7-3.6.3-7.1.2-10.6-.2l.8-2.4c.3-1 .3-2.1-.3-3.1-.5-.9-1.3-1.7-2.3-2l-14.7-4.7c-2.1-.7-4.4.5-5 2.6l-.8 2.4c-3.1-1.7-6-3.8-8.8-6-1.3-1-3-1.2-4.4-.5-.2.1-.3.2-.5.3l-30.5 22.5c-2.7 2.1-6.3 2.6-9.6 1.6-2.1-.7-4-2-5.4-3.8-1.7-2.3-2.4-5.1-2-8 .4-2.8 1.9-5.3 4.2-7l30.5-22.5c1.5-1.1 2-3.1 1.4-4.8-5.3-12.7-5.9-26.8-1.7-39.8.4-1.2.9-2.5 1.5-4.1.7-1.7.2-3.6-1.4-4.7l-30.7-22c-4.8-3.5-5.9-10.2-2.4-14.9 1.6-2.3 4.1-3.9 7-4.3 2.8-.5 5.7.2 8 1.9l30.7 22c1.5 1.1 3.5 1 4.9-.2 1.1-1 2.5-2 4-3.1.9-.6 1.6-1.7 1.7-2.9.1-1 .3-2.1.7-3.3 1.3-4.1 4.1-7.4 7.9-9.4 3.9-2 8.2-2.3 12.3-1 2.7.9 5.2 2.4 7.1 4.5.8.9 1.9 1.4 3.1 1.3 1.8-.1 3.5 0 5.2.2 1.8.1 3.6-1 4.1-2.7l11.4-36c.9-2.9 3-5.3 5.7-6.6 2.6-1.2 5.5-1.3 8.2-.2 5 2 7.5 7.7 5.8 13l-11.4 36c-.6 1.8.2 3.7 1.8 4.7 1.5.9 2.8 1.8 4.3 2.9.9.6 2.1 1 3.2.7 2.8-.6 5.7-.4 8.5.5 4.1 1.3 7.4 4.2 9.4 7.9 2 3.9 2.3 8.2 1 12.3-.4 1.1-.8 2.1-1.4 3.1-.6 1-.6 2.2-.3 3.3.6 1.7 1.1 3.2 1.5 4.8.5 1.7 2.1 3 3.9 3l37.4-.2c5.4 0 10.3 4.2 10.9 9.4z"/>
    <path fill="#333" d="M271.6 90.4c-1.5-2.8-4.1-4.7-7.2-5.1-4-.6-8 1.5-9.8 5.1-1.4 2.8-1.5 6.1 0 8.8 1.5 2.8 4.1 4.7 7.2 5.1 2 .3 4-.1 5.7-.9 1.7-.9 3.2-2.3 4.1-4.1 1.4-3 1.4-6.1 0-8.9zm-66.8-4.3c2 .3 4-.1 5.7-.9 1.7-.9 3.2-2.3 4.1-4.1 1.5-2.8 1.5-6.1 0-8.9-1.5-2.8-4.1-4.7-7.2-5.1-4-.6-8 1.5-9.8 5.1-1.4 2.8-1.5 6.1 0 8.9 1.4 2.7 4 4.5 7.2 5zm7.7 21.7c-2.2-.7-4.7.5-5.4 2.7l-8.7 27.2c-.7 2.2.5 4.7 2.7 5.4l27.2 8.7c1.2.3 2.3.2 3.3-.3s1.7-1.4 2.1-2.5l8.7-27.2c.4-1.1.2-2.3-.3-3.3-.4-1-1.4-1.7-2.5-2.1l-27.1-8.6z"/>
</svg>
