<svg xmlns="http://www.w3.org/2000/svg" viewBox="0 0 367.5 250">
    <path fill="#fff" d="M328.8 153.6h-34.9c-4.3 0-8.3 1.7-11.3 4.7s-4.7 7-4.7 11.3v34.9c0 4.3 1.7 8.3 4.7 11.3s7 4.7 11.3 4.7 8.3-1.7 11.3-4.7l6.1-6.1 6.2 6.2c3 3 7 4.7 11.3 4.7s8.3-1.7 11.3-4.7 4.7-7 4.7-11.3-1.7-8.3-4.7-11.3l-6.2-6.2 6.2-6.2c3-3 4.7-7 4.7-11.3s-1.7-8.3-4.7-11.3c-3-3.1-7.1-4.7-11.3-4.7z"/>
    <path d="M317 187l14.6-14.6c1.6-1.6 1.6-4.1 0-5.7-1.6-1.6-4.1-1.6-5.7 0l-14.6 14.6-14.6-14.6c-1.6-1.6-4.1-1.6-5.7 0s-1.6 4.1 0 5.7l14.6 14.6-14.6 14.6c-1.6 1.6-1.6 4.1 0 5.7.8.8 1.8 1.2 2.8 1.2s2-.4 2.8-1.2l14.6-14.6 14.6 14.6c.8.8 1.8 1.2 2.8 1.2s2-.4 2.8-1.2c1.6-1.6 1.6-4.1 0-5.7L317 187z"/>
</svg>
