<svg xmlns="http://www.w3.org/2000/svg" viewBox="0 0 250 250">
	<g id="no-key">
		<path fill="#FFF" d="M158.9 125l43.7-43.7c9.4-9.4 9.4-24.6 0-33.9-4.5-4.5-10.6-7-17-7s-12.4 2.5-17 7L125 91.1 81.3 47.4c-4.5-4.5-10.6-7-17-7s-12.4 2.5-17 7C38 56.7 38 72 47.4 81.3L91.1 125l-43.7 43.7c-9.4 9.4-9.4 24.6 0 33.9 4.5 4.5 10.6 7 17 7s12.4-2.5 17-7l43.7-43.7 43.7 43.7c4.5 4.5 10.6 7 17 7s12.4-2.5 17-7c9.4-9.4 9.4-24.6 0-33.9L158.9 125z"/>
		<path fill="#333" d="M142 125l52.2-52.2c4.7-4.7 4.7-12.3 0-17-4.7-4.7-12.3-4.7-17 0L125 108 72.8 55.9c-4.7-4.7-12.3-4.7-17 0-4.7 4.7-4.7 12.3 0 17L108 125l-52.2 52.2c-4.7 4.7-4.7 12.3 0 17 2.3 2.3 5.4 3.5 8.5 3.5 3.1 0 6.1-1.2 8.5-3.5L125 142l52.2 52.2c2.3 2.3 5.4 3.5 8.5 3.5 3.1 0 6.1-1.2 8.5-3.5 4.7-4.7 4.7-12.3 0-17L142 125z"/>
	</g>
</svg>
