<svg xmlns="http://www.w3.org/2000/svg" viewBox="0 0 250 250">
	<g id="square-wave">
		<path fill="#FFF" d="M210.7 105c-11 0-20 9-20 20v61.4h-42.9V43.6c0-11-9-20-20-20H39.3c-11 0-20 9-20 20V125c0 11 9 20 20 20s20-9 20-20V63.6h48.5v142.8c0 11 9 20 20 20h82.9c11 0 20-9 20-20V125c0-11-9-20-20-20z"/>
		<path fill="#333" d="M210.7 117c-4.4 0-8 3.6-8 8v73.4h-66.9V43.6c0-4.4-3.6-8-8-8H39.3c-4.4 0-8 3.6-8 8V125c0 4.4 3.6 8 8 8s8-3.6 8-8V51.6h72.5v154.8c0 4.4 3.6 8 8 8h82.9c4.4 0 8-3.6 8-8V125c0-4.4-3.6-8-8-8z"/>
	</g>
</svg>
