<svg xmlns="http://www.w3.org/2000/svg" viewBox="0 0 250 250">
	<g id="sine-wave">
		<path fill="#FFF" d="M33.6 144.2c1.8.6 3.8.8 5.7.8 5.6 0 11-2.3 14.7-6.4 3.1-3.4 4.3-7.2 5.3-10.3.1-.4.2-.8.4-1.1l1.8-5.4c1.4-3.9 2.9-8.1 4.6-13.3 1.7-4.9 3.1-9.1 4.5-13 .8-2.3 1.8-4.7 2.8-7 .7-1.5 1.3-3.1 2-4.8 1.4-3.6 3-7.2 4.9-11.2.3-.7.9-1.5 1.5-2.5.1-.2.2-.3.3-.5.1.2.3.5.4.7.6.9 1.1 1.7 1.4 2.3l.5 1c.7 1.5 1.4 3 2 4.4l.6 1.5c3 7.2 6.2 14.7 8.7 22l2.4 7.1 2.4 7.1c.5 1.6 1.1 3.1 1.6 4.6.7 1.9 1.4 3.8 2 5.7.5 1.4.9 2.8 1.4 4.2 1 3.1 2 6.4 3.2 9.6 1.8 4.8 3.1 8.8 4.4 12.5l.4 1.3c1.4 4 2.7 8.1 4.2 12.1 1 2.9 2.2 5.7 3.3 8.4.5 1.3 1.1 2.6 1.6 4l.6 1.6c1.5 3.8 3 7.6 4.9 11.5l.1.1c1.1 2.4 2.3 4.8 3.8 7.3 1.2 2 2.4 4 3.7 6.1 3.2 5.4 7.1 10.1 11.4 13.7 4 3.4 7.6 5.4 11.2 6.4l.5.2c1.4.4 3.1.9 5 1.2.9.1 1.9.2 3.1.2h2.1c3.9 0 8.7-1.3 12.2-3.2 2.1-1.1 4.2-2.3 6.2-4 3.6-3 6.6-6.2 9.1-9.8 5.7-8 10.6-17 14.3-26.6l1.3-3.1c1.3-3.1 2.5-6.3 3.8-9.4 1.3-3.1 2.3-6.1 3.3-9.1.3-.9.6-1.7.8-2.5 1.1-3.3 2.3-6.7 3.4-9.7v-.1c2-5.6 4-11.5 5.9-17.3 2.1-6.4 1-13.3-3-18.5-3.8-5-9.7-7.9-16-7.9-1.4 0-2.7.1-4.1.4-7 1.5-12.7 6.6-14.9 13.4l-2.2 6.8-.1.4c-.6 1.8-1.3 3.8-2 5.6-.5 1.5-1.2 3.2-1.7 4.9-.5 1.3-.9 2.7-1.3 4-1 3-2.1 6.1-3.1 9.2-1.1 3-2.3 6.1-3.5 9-.4 1-.8 2.1-1.2 3.1-.4.9-.7 1.8-1.1 2.7v.1c-1.2 3-2.4 6.1-3.7 8.9-1.1 2.3-2.3 4.5-3.6 6.8-.1-.2-.2-.3-.3-.5-1.2-1.9-2.1-3.7-3.1-5.7-1.5-3.1-2.8-6.4-4-9.6l-.1-.2c-.3-.7-.6-1.4-.9-2.2-.4-1.1-.9-2.2-1.3-3.3l-.1-.2c-1.1-2.8-2.3-5.6-3.3-8.4-1.1-3.2-2.2-6.4-3.3-9.5l-.1-.2c-.4-1.1-.8-2.3-1.2-3.4-.6-1.7-1.2-3.4-1.8-5-.7-1.9-1.4-3.9-2.1-5.9l-.3-.9-4.4-13.5c-.7-2-1.4-4-2.1-5.9-.5-1.4-1-2.9-1.5-4.3-.5-1.5-1-3-1.5-4.4v-.1c-1-3.1-2.1-6.2-3.2-9.3-3-8.4-6.3-16.6-10.4-26.2-.8-1.8-1.6-3.5-2.4-5.1-.2-.5-.5-1-.7-1.4-1-2-2-3.7-3.1-5.4-.3-.5-.6-1-.9-1.4-.3-.5-.7-1.1-1-1.6-.8-1.3-1.7-2.9-2.8-4.4-1.9-2.6-3.6-4.8-5.5-6.9-5.2-5.9-11.8-9.8-19.1-11.4-1.6-.4-3.4-.5-5.2-.5-2.8 0-5.9.4-9 1.3-4 1.1-7.9 3.2-11.1 5.9-4.9 4.1-8.9 8.7-11.9 13.7-.5.9-1 1.7-1.5 2.6-2 3.3-4.1 6.8-5.9 10.6-2.1 4.5-4 9.1-5.6 13.1-.6 1.4-1.2 2.8-1.7 4.2-1.1 2.7-2.2 5.3-3.2 8-1.5 4.1-2.9 8.3-4.3 12.4v.1c-1.6 4.5-3.2 9.2-4.8 13.8-.6 1.8-1.2 3.4-1.8 5.2l-.3 1-.3.8c-1 3-2.4 7.2-1.6 12.1 1.7 7.4 7.2 13.6 14.5 15.8z"/>
		<path fill="#333" d="M217.1 120.2c-1.5-2-3.9-3.2-6.4-3.2-.5 0-1.1.1-1.6.2-2.8.6-5.1 2.7-6 5.4l-2.2 6.8-.1.4c-.7 2.1-1.4 4.1-2.1 6.1-.6 1.5-1.1 3.1-1.6 4.6-.4 1.3-.9 2.6-1.3 4-1 3.1-2.1 6.3-3.2 9.4-1.2 3.2-2.4 6.4-3.7 9.5-.4 1-.8 2-1.2 3.1-.4.9-.7 1.9-1.1 2.8-1.2 3.2-2.5 6.5-4.1 9.7-1.9 4.1-4.3 8.2-6.9 12.3-.1.2-3.3 5-7.9 5h-.4c-2.4-.1-4.7-1.7-6.7-4.7-.8-1.1-1.5-2.4-2.2-3.5-.3-.6-.6-1.1-1-1.7-1.4-2.3-2.6-4.4-3.7-6.8-1.6-3.4-3-7-4.4-10.4-.3-.8-.6-1.5-.9-2.3-.5-1.1-.9-2.3-1.4-3.4-1.2-2.9-2.4-5.9-3.5-8.9-1.2-3.2-2.3-6.5-3.3-9.7l-1.2-3.6c-.5-1.6-1.1-3.2-1.7-4.7-.7-2-1.5-4.1-2.2-6.3l-.3-.9-4.4-13.5c-.6-1.8-1.2-3.6-1.9-5.5-.5-1.5-1.1-3-1.6-4.5s-1-3.1-1.5-4.6c-1-3-2-6.1-3.1-9.1-2.9-8.2-6.2-16.1-10.1-25.6-.6-1.5-1.4-3-2.1-4.6-.2-.5-.5-1-.7-1.5-.6-1.4-1.5-2.7-2.4-4.1-.3-.5-.7-1-1-1.6-.4-.6-.7-1.2-1.1-1.8-.7-1.2-1.4-2.4-2.2-3.5-1.6-2.3-3.1-4.2-4.7-6-3.5-4-7.9-6.6-12.6-7.6-.8-.2-1.7-.3-2.7-.3-1.7 0-3.7.3-5.8.9-2.3.6-4.7 1.9-6.6 3.5-3.9 3.3-7 6.8-9.3 10.7-.5.9-1.1 1.8-1.6 2.6-2 3.2-3.8 6.3-5.4 9.5-2 4.1-3.7 8.5-5.3 12.3-.6 1.5-1.2 3-1.8 4.4-1.1 2.6-2.1 5-3 7.5-1.5 4.1-2.9 8.3-4.3 12.3-1.6 4.6-3.2 9.3-4.9 14-.6 1.6-1.1 3.2-1.6 4.8l-.3 1-.3.9c-.8 2.4-1.5 4.4-1.1 6.4.5 3 2.7 5.5 5.6 6.4.7.2 1.5.3 2.2.3 2.3 0 4.4-.9 5.9-2.6 1.3-1.4 1.9-3.4 2.6-5.7.1-.4.3-.8.4-1.2.6-1.9 1.2-3.8 2-5.8 1.4-3.8 2.8-7.9 4.6-13.1 1.7-4.9 3.2-9.2 4.6-13.1.9-2.6 2-5.2 3.1-7.7.6-1.5 1.3-3 1.9-4.5 1.5-3.8 3.2-7.7 5.2-11.9.7-1.4 1.5-2.7 2.3-3.9.4-.6.8-1.2 1.1-1.7.2-.3.4-.6.5-.9 1-1.6 2-3.5 3.5-5.1.6-.6 2.7-2.4 5.3-2.5h.2c1.3 0 3.2.5 5.1 2.6 1.5 1.5 2.5 3.3 3.5 5 .2.4.4.7.6 1.1.3.5.7 1.1 1 1.6.8 1.2 1.5 2.4 2.2 3.7l.5 1c.8 1.6 1.6 3.2 2.3 4.9l.6 1.5c3.1 7.4 6.3 15.1 9 22.8l2.4 7.1 2.4 7.1c.5 1.5 1 3 1.6 4.4.7 2 1.4 4 2.1 6.1.5 1.4.9 2.9 1.4 4.3 1 3 1.9 6.2 3 9.2 1.8 4.9 3.2 9 4.5 12.7l.4 1.3c1.3 3.9 2.7 8 4.1 11.9.9 2.6 2 5.3 3.1 7.8.6 1.4 1.1 2.7 1.7 4.1l.6 1.6c1.4 3.6 2.9 7.3 4.5 10.7l.1.1c1 2.2 2 4.3 3.2 6.2 1.2 2 2.5 4.1 3.8 6.3 2.5 4.3 5.6 7.9 8.8 10.6 2.6 2.2 4.9 3.6 6.8 4.1l.6.2c1.1.3 2.2.6 3.1.8.4.1 1 .1 1.7.1h2.1c1.9 0 4.7-.7 6.4-1.7 1.7-.9 3-1.7 4.2-2.6 2.8-2.3 5.1-4.8 7.1-7.6 5.2-7.2 9.5-15.3 12.9-24.1l1.3-3.2c1.3-3.1 2.6-6.4 3.9-9.5 1.1-2.7 2.1-5.5 3-8.3.3-.9.6-1.7.9-2.6 1.1-3.3 2.3-6.6 3.4-9.8 2-5.6 4-11.4 5.8-17.2 1-2.6.6-5.4-1-7.5z"/>
	</g>
</svg>
