<svg width="80" height="80" fill="none" xmlns="http://www.w3.org/2000/svg">
    <g clip-path="url(#clip0)">
        <path opacity=".9" d="M40 53.09c7.23 0 13.09-5.86 13.09-13.09 0-7.23-5.86-13.09-13.09-13.09-7.23 0-13.09 5.86-13.09 13.09 0 7.23 5.86 13.09 13.09 13.09z" fill="#56C2F1"/>
        <path opacity=".85" d="M40 13a27 27 0 100 54 27 27 0 000-54zm15.26 42.26A21.58 21.58 0 1161.58 40a21.48 21.48 0 01-6.32 15.26z" fill="#80D1F5"/>
        <path opacity=".6" d="M40 0a40 40 0 100 80 40 40 0 000-80zm24.48 64.48A34.62 34.62 0 1174.62 40a34.54 34.54 0 01-10.14 24.48z" fill="#AAE0F8"/>
    </g>
    <defs>
        <clipPath id="clip0">
            <path fill="#fff" d="M0 0h80v80H0z"/>
        </clipPath>
    </defs>
</svg>
