<svg width="80" height="86" fill="none" xmlns="http://www.w3.org/2000/svg">
    <g clip-path="url(#clip0)">
        <path d="M55.9 46.55l-4.36-13.39a4.64 4.64 0 00-.49-1l-3.48-5.37a1.73 1.73 0 00-1.45-.79H34a1.74 1.74 0 00-1.44.79l-3.47 5.34a4.24 4.24 0 00-.49 1l-4.37 13.42c-.153.468-.23.958-.23 1.45v21.13a16.058 16.058 0 0016.07 16.06 16.06 16.06 0 0016.06-16.06V48a4.369 4.369 0 00-.23-1.45zm-15.85 33.5a10.931 10.931 0 1110.116-6.734A10.92 10.92 0 0140.05 80.05z" fill="#56C2F1" opacity=".7"/>
        <path d="M40.07 58.2A10.93 10.93 0 1051 69.12 10.92 10.92 0 0040.07 58.2v0z" stroke="#424242" stroke-width="2" stroke-linecap="round" stroke-linejoin="round"/>
    </g>
    <defs>
        <clipPath id="clip0">
            <path fill="#fff" transform="translate(24 26)" d="M0 0h32.13v59.19H0z"/>
        </clipPath>
    </defs>
</svg>
