<svg width="103" height="103" fill="none" xmlns="http://www.w3.org/2000/svg">
    <g clip-path="url(#clip0)">
        <path d="M91.86 6.78H16.09a9.31 9.31 0 00-9.31 9.31v75.77a9.31 9.31 0 009.31 9.31h75.77a9.31 9.31 0 009.31-9.31V16.09a9.31 9.31 0 00-9.31-9.31z" fill="#CCC"/>
        <path d="M91.85 102.16H16.09a10.31 10.31 0 01-10.31-10.3V16.09A10.32 10.32 0 0116.09 5.78h75.76a10.32 10.32 0 0110.31 10.31v75.77a10.311 10.311 0 01-10.31 10.3zM16.09 7.78a8.31 8.31 0 00-8.31 8.31v75.77a8.31 8.31 0 008.31 8.3h75.76a8.31 8.31 0 008.31-8.3V16.09a8.31 8.31 0 00-8.31-8.31H16.09z" fill="#424242"/>
    </g>
    <defs>
        <clipPath id="clip0">
            <path fill="#fff" d="M0 0h102.33v102.33H0z"/>
        </clipPath>
    </defs>
</svg>
