<svg width="103" height="103" fill="none" xmlns="http://www.w3.org/2000/svg">
    <g clip-path="url(#clip0)">
        <path d="M98.19 9.25c-.16-.18-4.93-4.94-5.1-5.1a9.26 9.26 0 00-6.8-3H10.42a9.27 9.27 0 00-9.26 9.26v75.88a9.25 9.25 0 003 6.79c.17.18 4.93 4.94 5.11 5.11a9.242 9.242 0 006.79 3h75.85a9.252 9.252 0 009.25-9.25V16a9.207 9.207 0 00-2.97-6.75z" fill="gray"/>
        <path d="M91.91 102.33H16A10.456 10.456 0 018.39 99c-.12-.11-4.9-4.89-5.1-5.1A10.39 10.39 0 010 86.29V10.42A10.43 10.43 0 0110.42 0h75.87a10.43 10.43 0 017.65 3.36c.14.12 4.55 4.54 5.06 5.06a10.417 10.417 0 013.33 7.58v75.91a10.44 10.44 0 01-10.42 10.42zm-81.49-100a8.1 8.1 0 00-8.09 8.09v75.87a8 8 0 002.6 5.94c.3.31 4.88 4.88 5.11 5.11A8.07 8.07 0 0016 100h75.91a8.1 8.1 0 008.09-8.09V16a7.998 7.998 0 00-2.6-5.93l-.06-.07-5-5a8.06 8.06 0 00-6-2.66l-75.92-.01z" fill="gray"/>
        <path d="M86.24 1.16H10.47a9.31 9.31 0 00-9.31 9.31v75.77a9.31 9.31 0 009.31 9.31h75.77a9.31 9.31 0 009.31-9.31V10.47a9.31 9.31 0 00-9.31-9.31z" fill="#F2F2F2"/>
        <path d="M86.24 96.55H10.47A10.32 10.32 0 01.16 86.24V10.47A10.33 10.33 0 0110.47.16h75.77a10.32 10.32 0 0110.31 10.31v75.77a10.32 10.32 0 01-10.31 10.31zM10.47 2.16a8.32 8.32 0 00-8.31 8.31v75.77a8.32 8.32 0 008.31 8.31h75.77a8.32 8.32 0 008.31-8.31V10.47a8.32 8.32 0 00-8.31-8.31H10.47z" fill="#424242"/>
    </g>
    <defs>
        <clipPath id="clip0">
            <path fill="#fff" d="M0 0h102.33v102.33H0z"/>
        </clipPath>
    </defs>
</svg>
