<svg width="44" height="135" fill="none" xmlns="http://www.w3.org/2000/svg">
    <path d="M14 62.75a1 1 0 01-1-1v-8.13a1 1 0 012 0v8.13a1 1 0 01-1 1zm14.49 71.19a.998.998 0 01-1-1V54.65a1 1 0 012 0v78.29a1 1 0 01-1 1z" fill="#414141"/>
    <path d="M39.93 48.34v-2.83h-1.6c-2.83-2.31-9.13-3.83-16.81-3.81-7.68.02-14 1.6-16.77 3.93H3.13v2.82c0 3.81 7.94 6.66 18.42 6.62 10.48-.04 18.39-2.92 18.38-6.73z" fill="#B5B7B9"/>
    <path d="M39.92 45.51c0-3.81-7.93-6.66-18.42-6.62-10.49.04-18.38 2.94-18.37 6.76.01 3.82 7.94 6.66 18.42 6.62 10.48-.04 18.38-2.94 18.37-6.76z" fill="#C8CACA"/>
    <path d="M35.81 44.71l-.1-27.64a14.29 14.29 0 00-28.58.1l.11 27.64c0 2.51 6.15 4.38 14.3 4.35 8.15-.03 14.28-1.94 14.27-4.45z" fill="#E8E9E8"/>
    <path d="M21.42 4.83a12.32 12.32 0 0112.29 12.25l.1 27.52c-.59.89-4.79 2.53-12.28 2.56h-.18c-7.38 0-11.52-1.6-12.11-2.47l-.11-27.52A12.31 12.31 0 0121.38 4.83h.04zm-.04-2h-.05a14.3 14.3 0 00-14.2 14.34l.11 27.64c0 2.49 6.06 4.35 14.11 4.35h.19c8.15 0 14.28-1.94 14.27-4.45l-.1-27.64A14.3 14.3 0 0021.42 2.83h-.04z" fill="#DEDEDF"/>
    <path d="M17.4 39.54l-.06-15.06c0-2.92-4.54-2.91-4.53 0v15c0 2.92 4.55 2.91 4.54 0l.05.06zm-.08-21.86v-2.77c0-2.92-4.55-2.91-4.54 0v2.79c0 2.92 4.55 2.9 4.54 0v-.02z" fill="#fff"/>
    <path d="M21.34 56.09C10 56.09 2.16 53 2.14 48.47v-2.82c0-1.35.72-3.28 4.09-5l-.1-23.47A15.32 15.32 0 0121.37 1.83h.05a15.3 15.3 0 0115.29 15.24l.09 23.51c3.38 1.65 4.12 3.57 4.12 4.93v2.82c0 1.63-1 3.94-5.9 5.74a41.33 41.33 0 01-13.47 2l-.21.02zm-17.2-7.62c0 2.71 6.59 5.62 17.2 5.62h.22c4.336.08 8.655-.562 12.78-1.9 2.92-1.07 4.6-2.48 4.59-3.85v-2.82c0-1.19-1.26-2.39-3.52-3.38l-.6-.27-.09-24.8a13.3 13.3 0 00-13.3-13.24h-.05A13.32 13.32 0 008.13 17.17L8.23 42l-.6.27c-2.26 1-3.5 2.22-3.5 3.4v2.83l.01-.03z" fill="#424242"/>
</svg>
