<svg width="20" height="20" viewBox="0 0 20 20" fill="none" xmlns="http://www.w3.org/2000/svg">
<path d="M10.1298 15.8359C9.0005 15.8359 7.89653 15.5011 6.95753 14.8736C6.01852 14.2462 5.28666 13.3544 4.85448 12.3111C4.4223 11.2677 4.30923 10.1196 4.52955 9.01198C4.74987 7.90435 5.2937 6.88692 6.09225 6.08837C6.89081 5.28981 7.90824 4.74598 9.01587 4.52566C10.1235 4.30534 11.2716 4.41842 12.315 4.85059C13.3583 5.28277 14.2501 6.01464 14.8775 6.95364C15.5049 7.89264 15.8398 8.99661 15.8398 10.1259C15.8398 11.6403 15.2382 13.0927 14.1674 14.1635C13.0966 15.2344 11.6442 15.8359 10.1298 15.8359ZM10.1298 5.41595C9.19828 5.41595 8.28765 5.69218 7.5131 6.20972C6.73854 6.72727 6.13485 7.46287 5.77836 8.32351C5.42187 9.18415 5.3286 10.1312 5.51033 11.0448C5.69207 11.9585 6.14065 12.7977 6.79936 13.4564C7.45807 14.1151 8.29731 14.5637 9.21096 14.7454C10.1246 14.9272 11.0716 14.8339 11.9323 14.4774C12.7929 14.1209 13.5285 13.5172 14.0461 12.7427C14.5636 11.9681 14.8398 11.0575 14.8398 10.1259C14.8372 8.87759 14.3401 7.68112 13.4574 6.79839C12.5747 5.91567 11.3782 5.41859 10.1298 5.41595Z" fill="#424242"/>
<path d="M10.1298 3.30595C9.99721 3.30595 9.87004 3.25327 9.77627 3.1595C9.6825 3.06573 9.62982 2.93855 9.62982 2.80595V0.925946C9.62982 0.793337 9.6825 0.66616 9.77627 0.572392C9.87004 0.478624 9.99721 0.425945 10.1298 0.425945C10.2624 0.425945 10.3896 0.478624 10.4834 0.572392C10.5771 0.66616 10.6298 0.793337 10.6298 0.925946V2.80595C10.6298 2.93855 10.5771 3.06573 10.4834 3.1595C10.3896 3.25327 10.2624 3.30595 10.1298 3.30595Z" fill="#424242"/>
<path d="M10.1298 19.8259C9.99721 19.8259 9.87004 19.7733 9.77627 19.6795C9.6825 19.5857 9.62982 19.4586 9.62982 19.3259V17.4459C9.62982 17.3133 9.6825 17.1862 9.77627 17.0924C9.87004 16.9986 9.99721 16.9459 10.1298 16.9459C10.2624 16.9459 10.3896 16.9986 10.4834 17.0924C10.5771 17.1862 10.6298 17.3133 10.6298 17.4459V19.3259C10.6298 19.4586 10.5771 19.5857 10.4834 19.6795C10.3896 19.7733 10.2624 19.8259 10.1298 19.8259Z" fill="#424242"/>
<path d="M19.3298 10.6259H17.4498C17.3172 10.6259 17.19 10.5733 17.0963 10.4795C17.0025 10.3857 16.9498 10.2586 16.9498 10.1259C16.9498 9.99334 17.0025 9.86616 17.0963 9.77239C17.19 9.67862 17.3172 9.62595 17.4498 9.62595H19.3298C19.4624 9.62595 19.5896 9.67862 19.6834 9.77239C19.7772 9.86616 19.8298 9.99334 19.8298 10.1259C19.8298 10.2586 19.7772 10.3857 19.6834 10.4795C19.5896 10.5733 19.4624 10.6259 19.3298 10.6259Z" fill="#424242"/>
<path d="M2.80981 10.6259H0.92981C0.797202 10.6259 0.670024 10.5733 0.576256 10.4795C0.482488 10.3857 0.42981 10.2586 0.42981 10.1259C0.42981 9.99334 0.482488 9.86616 0.576256 9.77239C0.670024 9.67862 0.797202 9.62595 0.92981 9.62595H2.80981C2.94242 9.62595 3.0696 9.67862 3.16336 9.77239C3.25713 9.86616 3.30981 9.99334 3.30981 10.1259C3.30981 10.2586 3.25713 10.3857 3.16336 10.4795C3.0696 10.5733 2.94242 10.6259 2.80981 10.6259Z" fill="#424242"/>
<path d="M15.3098 5.44595C15.1767 5.44526 15.0485 5.3954 14.9498 5.30595C14.8576 5.2108 14.806 5.08347 14.806 4.95095C14.806 4.81842 14.8576 4.6911 14.9498 4.59595L16.2798 3.26595C16.3265 3.21933 16.3818 3.18235 16.4427 3.15712C16.5036 3.13189 16.5689 3.1189 16.6348 3.1189C16.7008 3.1189 16.7661 3.13189 16.827 3.15712C16.8879 3.18235 16.9432 3.21933 16.9898 3.26595C17.0365 3.31257 17.0734 3.36791 17.0987 3.42882C17.1239 3.48973 17.1369 3.55502 17.1369 3.62095C17.1369 3.68688 17.1239 3.75216 17.0987 3.81307C17.0734 3.87398 17.0365 3.92933 16.9898 3.97595L15.6298 5.30595C15.5425 5.38811 15.4295 5.43757 15.3098 5.44595Z" fill="#424242"/>
<path d="M3.62986 17.1359C3.56446 17.1356 3.4998 17.1221 3.43969 17.0963C3.37958 17.0706 3.32523 17.033 3.27986 16.9859C3.23299 16.9395 3.1958 16.8842 3.17041 16.8232C3.14503 16.7623 3.13196 16.697 3.13196 16.6309C3.13196 16.5649 3.14503 16.4996 3.17041 16.4387C3.1958 16.3777 3.23299 16.3224 3.27986 16.2759L4.62986 14.9459C4.72401 14.8518 4.85171 14.7989 4.98486 14.7989C5.11801 14.7989 5.24571 14.8518 5.33986 14.9459C5.43401 15.0401 5.4869 15.1678 5.4869 15.3009C5.4869 15.4341 5.43401 15.5618 5.33986 15.6559L3.97986 16.9859C3.88693 17.0793 3.76151 17.133 3.62986 17.1359Z" fill="#424242"/>
<path d="M4.94985 5.44595C4.83023 5.43757 4.71718 5.38811 4.62985 5.30595L3.26985 3.97595C3.22323 3.92933 3.18625 3.87398 3.16102 3.81307C3.13579 3.75216 3.1228 3.68688 3.1228 3.62095C3.1228 3.55502 3.13579 3.48973 3.16102 3.42882C3.18625 3.36791 3.22323 3.31257 3.26985 3.26595C3.31647 3.21933 3.37181 3.18235 3.43272 3.15712C3.49363 3.13189 3.55892 3.1189 3.62485 3.1189C3.69078 3.1189 3.75606 3.13189 3.81697 3.15712C3.87788 3.18235 3.93323 3.21933 3.97985 3.26595L5.30985 4.62595C5.4021 4.7211 5.45369 4.84842 5.45369 4.98095C5.45369 5.11347 5.4021 5.2408 5.30985 5.33595C5.20693 5.41461 5.07916 5.45365 4.94985 5.44595Z" fill="#424242"/>
<path d="M16.6298 17.1359C16.4947 17.1356 16.3652 17.0817 16.2698 16.9859L14.9498 15.6259C14.8557 15.5318 14.8028 15.4041 14.8028 15.2709C14.8028 15.1378 14.8557 15.0101 14.9498 14.9159C15.044 14.8218 15.1717 14.7689 15.3048 14.7689C15.438 14.7689 15.5657 14.8218 15.6598 14.9159L16.9898 16.2459C17.0367 16.2924 17.0739 16.3477 17.0993 16.4087C17.1247 16.4696 17.1377 16.5349 17.1377 16.6009C17.1377 16.667 17.1247 16.7323 17.0993 16.7932C17.0739 16.8542 17.0367 16.9095 16.9898 16.9559C16.946 17.0097 16.8912 17.0536 16.8292 17.0846C16.7671 17.1156 16.6992 17.1331 16.6298 17.1359Z" fill="#424242"/>
</svg>
