<svg width="44" height="116" fill="none" xmlns="http://www.w3.org/2000/svg">
    <path d="M14.63 43.85a1 1 0 01-1-1v-7.22a1 1 0 012 0v7.22a1 1 0 01-1 1zM28.79 115a.998.998 0 01-1-1V34.91a1 1 0 012 0V114a.999.999 0 01-1 1z" fill="#414141"/>
    <path d="M3.05 10.53v18.3c0 3.85 8 6.77 18.54 6.8 10.54.03 18.57-2.84 18.58-6.69V10.53H3.05z" fill="#4D4D4D"/>
    <path d="M21.75 36.63h-.18c-4.605.086-9.192-.6-13.57-2.03-4.93-1.81-6-4.14-6-5.77a2.152 2.152 0 010-.23V10.53a1 1 0 011-1h37.1a1 1 0 011 1v18.41c.04 4.54-7.93 7.69-19.35 7.69zm-17.7-25.1v17.14c.005.087.005.173 0 .26 0 1.29 1.7 2.71 4.65 3.79a39.273 39.273 0 0012.9 1.91h.18c10.74 0 17.39-3 17.4-5.7v-17.4H4.05z" fill="#414141"/>
    <path d="M10.11 32.86a39.12 39.12 0 007.78 1.27V14h-7.78v18.86z" fill="gray"/>
    <path d="M40.15 11c0-3.85-8-6.78-18.54-6.81C11.07 4.16 3 7 3 10.84c0 3.84 8 6.77 18.54 6.8 10.54.03 18.6-2.84 18.61-6.64z" fill="#666"/>
    <path d="M21.75 18.64h-.18C10.05 18.61 2 15.4 2 10.84s8-7.7 19.4-7.7h.18a41.43 41.43 0 0113.59 2c4.93 1.81 6 4.14 5.95 5.77.02 4.58-7.95 7.73-19.37 7.73zm-.32-13.5C10.69 5.14 4 8.09 4 10.84s6.7 5.77 17.54 5.8h.18c10.74 0 17.39-2.94 17.4-5.69 0-1.39-1.69-2.81-4.64-3.9a39.81 39.81 0 00-12.9-1.91h-.15z" fill="#414141"/>
</svg>
