<svg width="85" height="213" fill="none" xmlns="http://www.w3.org/2000/svg">
    <path d="M5.11 177.95h74.64V34.75H5.11v143.2z" fill="#666"/>
    <path d="M80.75 179H4.12V33.76h76.63V179zm-74.63-2h72.63V35.76H6.12V177z" fill="#414141"/>
    <path d="M63 111.19v-8a37.32 37.32 0 10-41 0v8a20.529 20.529 0 0034.88 14.223 20.529 20.529 0 006.17-14.223H63z" fill="#595959"/>
    <path d="M42.43 132.71a21.55 21.55 0 01-21.52-21.52v-7.43a38.32 38.32 0 1143.05 0v7.43a21.552 21.552 0 01-21.53 21.52zm0-97a36.31 36.31 0 00-20 66.63l.45.3v8.5a19.529 19.529 0 0033.178 13.523 19.529 19.529 0 005.872-13.523v-8.5l.45-.3a36.31 36.31 0 00-20-66.63h.05z" fill="#414141"/>
    <path d="M55.79 111.45a13.317 13.317 0 00-3.88-10.11 1.492 1.492 0 01-.08-2.039 1.49 1.49 0 01.61-.421 28.65 28.65 0 10-20 0 1.5 1.5 0 01.53 2.47 13.37 13.37 0 0010 22.79 13.49 13.49 0 0012.82-12.69z" fill="#666"/>
    <path d="M42.43 125.14a14.381 14.381 0 01-10.18-24.51.483.483 0 00-.17-.82A29.6 29.6 0 0122.68 50a29.391 29.391 0 0123.15-7.36 29.62 29.62 0 017 57.18.509.509 0 00-.32.36.478.478 0 00.15.46A14.37 14.37 0 0143 125.13l-.57.01zm0-80.7a27.31 27.31 0 00-18.38 7 27.61 27.61 0 008.77 46.46 2.49 2.49 0 01.89 4.1 12.372 12.372 0 003.754 20.037 12.374 12.374 0 0011.49-.772 12.36 12.36 0 005.876-9.905h1-1A12.42 12.42 0 0051.2 102a2.49 2.49 0 01.89-4.1 27.62 27.62 0 00-6.49-53.28 28.762 28.762 0 00-3.21-.18h.04z" fill="#414141"/>
    <path d="M79.75 199.09V178H5.12v21.13a10.374 10.374 0 006.4 9.59c1.258.521 2.607.79 3.97.79h53.89a10.375 10.375 0 009.595-6.436c.518-1.264.782-2.618.775-3.984zm-67.06-5.59a7.65 7.65 0 1115.3 0 7.65 7.65 0 01-15.3 0zm22.09 0a7.66 7.66 0 1115.32-.02 7.66 7.66 0 01-15.32.02zm22.1 0a7.65 7.65 0 117.65 7.65 7.658 7.658 0 01-7.65-7.65z" fill="#595959"/>
    <path d="M69.38 210.47H15.49a11.381 11.381 0 01-11.37-11.38V177h76.63v22.13a11.382 11.382 0 01-11.37 11.34zM6.12 179v20.13a9.38 9.38 0 009.37 9.38h53.89a9.38 9.38 0 009.37-9.38V179H6.12zm58.41 23.19a8.646 8.646 0 01-7.992-5.34 8.65 8.65 0 1116.642-3.31 8.662 8.662 0 01-8.65 8.61v.04zm0-15.3a6.647 6.647 0 00-6.144 4.105 6.65 6.65 0 1012.794 2.545 6.665 6.665 0 00-1.937-4.725 6.649 6.649 0 00-4.713-1.965v.04zm-22.1 15.3a8.648 8.648 0 01-8.473-10.344 8.65 8.65 0 0117.133 1.694 8.659 8.659 0 01-8.66 8.61v.04zm0-15.3a6.65 6.65 0 106.66 6.65 6.664 6.664 0 00-4.104-6.18 6.652 6.652 0 00-2.556-.51v.04zm-22.09 15.3A8.65 8.65 0 1129 193.5a8.66 8.66 0 01-8.66 8.65v.04zm0-15.3a6.655 6.655 0 00-6.14 4.121A6.65 6.65 0 1027 193.5a6.647 6.647 0 00-4.112-6.147 6.667 6.667 0 00-2.548-.503v.04z" fill="#414141"/>
    <path d="M79.75 13.62A10.37 10.37 0 0069.38 3.24H15.49A10.37 10.37 0 005.12 13.62v21.14h74.63V13.62zm-67.06 5.59a7.65 7.65 0 1115.3 0 7.65 7.65 0 01-15.3 0zm22.09 0a7.66 7.66 0 1115.32-.02 7.66 7.66 0 01-15.32.02zm22.1 0a7.65 7.65 0 117.65 7.65 7.66 7.66 0 01-7.65-7.65z" fill="#595959"/>
    <path d="M80.75 35.76H4.12V13.62A11.39 11.39 0 0115.49 2.24h53.89a11.39 11.39 0 0111.37 11.38v22.14zm-74.63-2h72.63V13.62a9.38 9.38 0 00-9.37-9.38H15.49a9.38 9.38 0 00-9.37 9.38v20.14zm58.41-5.9a8.65 8.65 0 118.65-8.65 8.66 8.66 0 01-8.65 8.65zm0-15.3a6.65 6.65 0 106.65 6.65 6.66 6.66 0 00-6.65-6.65zm-22.1 15.3a8.65 8.65 0 118.66-8.65 8.66 8.66 0 01-8.66 8.65zm0-15.3a6.65 6.65 0 106.66 6.65 6.66 6.66 0 00-6.66-6.65zm-22.09 15.3A8.65 8.65 0 1129 19.21a8.66 8.66 0 01-8.66 8.65zm0-15.3a6.65 6.65 0 10.02 13.3 6.65 6.65 0 00-.02-13.3z" fill="#414141"/>
    <path d="M47.58 72.91a5.1 5.1 0 11-5.85-5.84 5.14 5.14 0 015.85 5.84z" fill="#4D4D4D"/>
    <path d="M42.53 78.21a6.12 6.12 0 01-6-7.06 6.11 6.11 0 0112.06 1.92 6.1 6.1 0 01-5.07 5.06 6.45 6.45 0 01-.99.08zm0-10.2c-.22-.02-.44-.02-.66 0a4.1 4.1 0 104.71 4.7A4.1 4.1 0 0042.54 68l-.01.01z" fill="#414141"/>
</svg>
