<svg width="72" height="221" fill="none" xmlns="http://www.w3.org/2000/svg">
    <g clip-path="url(#clip0)">
        <path d="M59.9 161.24a3.1 3.1 0 01-.93-2.18V70.84a3.25 3.25 0 00-1-2.37 12.93 12.93 0 010-18.91 3.252 3.252 0 001-2.37V38.51L53.3 6.2a6 6 0 00-5.91-5H24.15a6 6 0 00-5.91 5l-5.62 32.31v8.68a3.259 3.259 0 001 2.37 12.999 12.999 0 010 18.91 3.259 3.259 0 00-1 2.37v88.22a3.074 3.074 0 01-.92 2.17 34.127 34.127 0 005.16 52.518 34.125 34.125 0 0037.93 0 34.127 34.127 0 005.16-52.518l-.05.01zm-19.09 24.93a5.096 5.096 0 01-3.468 4.054 5.108 5.108 0 01-6.532-3.678A5.1 5.1 0 0135 180.33a5.134 5.134 0 014.374 1.459 5.125 5.125 0 011.436 4.381z" fill="#fff"/>
        <path d="M35.74 220.49a34.794 34.794 0 01-23.93-9.44A35.252 35.252 0 01.65 185.37 34.903 34.903 0 0111 160.53a2.065 2.065 0 00.63-1.47V70.84a4.23 4.23 0 011.36-3.09 12 12 0 000-17.47 4.228 4.228 0 01-1.36-3.09l.05-8.77L17.26 6A7 7 0 0124.15.23h23.24A7 7 0 0154.28 6L60 39v8.22a4.27 4.27 0 01-1.36 3.09 11.999 11.999 0 000 17.47A4.27 4.27 0 0160 70.84v88.22a2.065 2.065 0 00.63 1.47 35.106 35.106 0 018.08 37.134A35.113 35.113 0 0138.26 220.4c-.84.06-1.68.09-2.52.09zM24.15 2.22a5 5 0 00-4.93 4.15l-5.65 32.77v8a2.23 2.23 0 00.73 1.64 13.94 13.94 0 010 20.37 2.23 2.23 0 00-.73 1.64v88.22a4.09 4.09 0 01-1.21 2.88 32.894 32.894 0 00-9.72 23.43 33.244 33.244 0 0010.53 24.22 32.86 32.86 0 0024.95 8.83 33.12 33.12 0 0021.07-56.48 4.071 4.071 0 01-1.19-2.83V70.84a2.27 2.27 0 00-.73-1.64 13.94 13.94 0 010-20.37 2.27 2.27 0 00.73-1.64v-8.6L52.32 6.37a5 5 0 00-4.93-4.15H24.15zm11.62 189.24a6.09 6.09 0 01-6-7.05 6.098 6.098 0 016.879-4.533 6.102 6.102 0 015.121 6.453 6.133 6.133 0 01-5.07 5.06 6.16 6.16 0 01-.93.07zm0-10.2a4.714 4.714 0 00-.65.05 4.135 4.135 0 00-3.4 3.4 4.111 4.111 0 004.71 4.71 4.113 4.113 0 003.288-2.805 4.11 4.11 0 00-1.038-4.195 4.092 4.092 0 00-2.91-1.16z" fill="#424242"/>
    </g>
    <defs>
        <clipPath id="clip0">
            <path fill="#fff" d="M0 0h71.55v220.72H0z"/>
        </clipPath>
    </defs>
</svg>
