<svg width="395" height="377" xmlns="http://www.w3.org/2000/svg">
    <g clip-path="url(#clip0)">
        <path d="M394.1 154.63c-.18-1.3-7.17-22.78-7.78-24-.6-1.51-3.89-4.08-5.25-5.44a2.228 2.228 0 00-.61-.45 10.394 10.394 0 00-2-.78c-1.13-1-31.54 4.45-35.13 4.73a1.988 1.988 0 00-.54.1c-1.52.49-8.49 2.71-8.42 2.84-1 .48-1.76 2-2.23 2.89a11.846 11.846 0 01-14.83 4.9 7.381 7.381 0 00-3.29-1.1l-.86.1c-.48.08-25.72 8.5-32.52 10.54a2.362 2.362 0 01-2.64-1 2.383 2.383 0 01-.23-2.18 23.378 23.378 0 00-2.35-21l-.13-.18c-3.75-4.86-9-10-15-11.82a23.298 23.298 0 00-17.68 1.77 32.236 32.236 0 00-3.56 2.4.927.927 0 00-.15.13c-.6.57-1.67 1.66-2.55 1.57-.73.1-3.76-1.56-4.44-1.8-2.24-.94-4.82-1.92-7.25-2.71a2.337 2.337 0 01-1.62-2.24V74.19a2.67 2.67 0 000-.4c-.036-.505-.151-1-.34-1.47-.81-1.41-2.46-2.7-3.21-4.17a12.082 12.082 0 01-.59-10.57 13.93 13.93 0 013.1-4.35c1.9-1.88.68-8.19 1-10.66.025-.17.025-.34 0-.51-.5-3-5.17-30.56-5.49-32.42a1.335 1.335 0 000-.2l-.28-1c-.67-2.56-4.45-5-6.1-6.79-1.42-2.09-23.65-.63-26-1a7.64 7.64 0 00-7.21 4.62 2.55 2.55 0 00-.13.47c-1.42 7.69-6.83 35.1-5.85 42-.07 2 1.88 3.37 2.93 4.82a12.136 12.136 0 012.13 8.01 12.54 12.54 0 01-4.09 7.88c-2.21 1-.34 41.75-1.12 43.48-.24 1.4-4.33 2-5.35 2.5-2.68.91-5.8 2.14-8.37 3.3a8.385 8.385 0 01-2.61 1 2.516 2.516 0 01-1.23-.35 38.836 38.836 0 00-3.39-2.76 23.302 23.302 0 00-17.39-3.4C122.2 114.37 114 125.64 115.34 137a26.574 26.574 0 001.55 6.2 2.353 2.353 0 01-.25 2.06c-.74 1.15-1.76 2.85-2.16 3.34-.4.49-.68.89-1.2.8h-.65c-.55-.2-33.36-10.83-33.92-11-1.27-.33-2.83.4-3.92 1a12.074 12.074 0 01-9.49 0c-.37-.19-1.07-.54-1.58-.85a2.3 2.3 0 01-.76-.76 11.712 11.712 0 00-1.74-2.7c-.65-.66-1.3-1.32-2-2-5.92-5.83-35.28-7.35-43.13-9.21a7.594 7.594 0 00-7.51 3.79c-.62 1.14-7.56 22.65-7.81 24-.69 4.29 2.78 7 5.53 9.65.076.072.16.136.25.19l.92.61.2.11 29 15.16c.147.075.301.135.46.18 2.23.64 8.32 3.31 10.24 2.49a12.817 12.817 0 0110.13-1.26 12.64 12.64 0 012.78 1.33c.292.189.539.442.72.74a18.67 18.67 0 001.51 2.48c.63.61 1.25 1.24 1.87 1.86.53.56 1.091 1.091 1.68 1.59l.74.41L97 197a2.373 2.373 0 011.62 2.33c-.69 23.45 7.47 45.29 21.44 63.84a1.712 1.712 0 01.02 2.05l-20.5 28.22-.42.76c-.66 1.42 0 3.38 0 4.86A11.868 11.868 0 0190 310.51c-1 .2-2.53.36-3.32 1.05l-.63.59-4.92 6.75a2.729 2.729 0 00-.2.34l-14.64 29.5-.09.2-.39 1a7.64 7.64 0 001.72 7.2c1.25 1.22 2.49 2.57 3.84 3.73l.18.14 18.13 13.19c.06.046.123.086.19.12l.93.56a7.659 7.659 0 003.754.698 7.662 7.662 0 003.626-1.198l1-.8.17-.15 22-21.59a19.481 19.481 0 002.22-2.58c1.67-2.27 5.27-6.32 4.94-8.05a12.86 12.86 0 011.93-10 12.373 12.373 0 018.52-4.91 1.53 1.53 0 00.36-.07 5.131 5.131 0 001.89-1.15c.079-.082.152-.169.22-.26l14.92-20.44c.279-.428.498-.892.65-1.38.34-1.35-.25-4.13.47-5.37a2.474 2.474 0 011.77-1h6.42a2.387 2.387 0 012.36 2.12 5.105 5.105 0 002 3.52c.83.8 1.61 1.68 2.49 2.44.11.092.227.176.35.25.68.384 1.44.603 2.22.64.85-.1 47.63.18 48.46-.07 3.28-.73 3.6-3.73 3.4-6.59a2.278 2.278 0 011.75-2.26l.53-.05h6.23a2.37 2.37 0 012.37 2.36 3.999 3.999 0 00.31 1.83l.38.71 14.74 20.22c.054.078.114.152.18.22 6.15 6.68 5 2.9 10.58 6.22.311.178.576.428.77.73a11.999 11.999 0 011.81 7.27c.005.07.005.14 0 .21-.23 1.3-.42 3 .36 4.15 2.27 5.31 27.3 28.57 31.66 33.07a7.423 7.423 0 009.49.64l18.32-13.31a7.578 7.578 0 002.22-9.26c-4.92-8.84-15-34.18-23.58-40.26a2.267 2.267 0 00-.4-.23c-1-.46-2.7-.58-3.71-.95-3.21-1-4.12-2.64-4.92-5.75a13.694 13.694 0 01-.26-3.51v-.23c.271-1.1.271-2.25 0-3.35l-.36-.78-20.94-28.86a1.818 1.818 0 01-.23-1.12c15.78-20.1 22.26-41.26 22.13-66.39a2.36 2.36 0 011.53-2.23c7-2.63 34.91-10.48 34.81-12.21a13.071 13.071 0 016.3-6.52 12.183 12.183 0 017.15-.82c1.58.23 3.25 1.31 4.76 1.74 1.13.52 8-2.15 9.67-2.61.146-.04.287-.097.42-.17l29.12-15.24c.067-.031.13-.068.19-.11l.92-.59a7.641 7.641 0 002.86-6.87zm-20.88-7.1c1 10-17.14 14.75-17 2.89-.93-10.02 17.18-14.76 17-2.89zm-61.11 19.85c1 10-17.14 14.76-17 2.89-.93-10.01 17.18-14.75 17-2.89zm-40.5 124.72c1 10-17.14 14.76-17 2.89-.93-9.99 17.18-14.76 17-2.89zm-7.86-157.2c1 10-17.14 14.76-17 2.89-.94-10.01 17.18-14.79 17-2.89zm-57.81-44.65c1 10-17.14 14.76-16.95 2.89-.99-10.01 17.13-14.75 16.95-2.89zM196 35.92c-11.87.18-7.12-17.93 2.89-17 11.88-.14 7.11 17.97-2.89 17zm-64.9 101.87c-1-10 17.14-14.75 17-2.89.96 10.02-17.16 14.76-16.98 2.89h-.02zm9.3 154.39c1 10-17.14 14.76-17 2.89-.91-10.01 17.2-14.75 17.02-2.89h-.02zM89.89 177.36c-11.86.18-7.12-17.93 2.89-17 11.87-.14 7.13 17.98-2.89 17zM38.7 147.58c1 10-17.14 14.76-17 2.89-.93-10.02 17.18-14.76 17-2.89zm64 196.59c1 10-17.14 14.76-17 2.89-.99-10.01 17.13-14.75 16.95-2.89h.05zM292.42 347c-1-10 17.14-14.76 17-2.89.94 9.99-17.18 14.74-17 2.89z" fill="gray"/>
        <path d="M6.21 154.57l8.5-26.18a2.728 2.728 0 00-2-3.21l-1 .49-.89.66-.76.81-.62.94-.44 1.06-6.28 19.29-.6 1.83-.12.34-.25 1.12-.05 1.13.15 1.15.32 1 .5 1a2.73 2.73 0 003.54-1.43z" fill="#A3A1A2"/>
        <path d="M119.18 332.31l-16.7-12.13a2.007 2.007 0 00-1.534-.228 1.999 1.999 0 00-1.236.938l.13.8.26.78.4.73.53.67.65.57 12.32 8.94 1.17.85.21.15.75.45.79.29.82.16h.83l.79-.13a2.002 2.002 0 00-.17-2.85m171.99-12.12l-16.7 12.13a2.003 2.003 0 00-.581 2.17c.087.251.223.482.401.68l.8.13h.83l.81-.15.8-.31.74-.44 12.31-8.94 1.17-.84.21-.16.65-.57.53-.67.4-.73.27-.79.12-.79a2.006 2.006 0 00-2.018-.975 1.99 1.99 0 00-.742.265" fill="#A1A0A0"/>
        <path d="M390.18 151.74l-.26-1.12-7-21.46-.46-1.07-.62-.94-.77-.81-.88-.66-1-.5-1.07-.33-1.12-.13-1.15.07-32.67 4.81-7.74 2.52-.31.12-.3.15-.27.17-.26.21-.24.23-.21.25-.18.28-.78 1.47-.74 1.1-.83 1-.94.92-1 .82-1.1.72-1.18.59-1.25.48-1.28.35-1.31.2-1.31.08-1.32-.06-1.3-.2-1.27-.32-1.25-.46-1.49-.74-.31-.11-.32-.08-.32-.05h-.66l-.33.05-.32.09-33.4 10.85h-1.7l-.23-.09-.19-.11-.17-.12-.15-.13-.14-.15-.13-.17-.13-.18-1.17-1.75-1.89-2.66-.08-.12-.07-.12-.05-.13-.05-.13v-1.09l.14-.29.74-2 .53-2.1.34-2.17.11-2.23-.11-2.24-.34-2.16-.53-2.1-.74-2-.92-1.91-1.09-1.8-1.26-1.68-1.38-1.51-1.55-1.41-1.68-1.26-1.81-1.09-1.91-.92-2-.74-2.1-.54-2.17-.33-2.23-.11-2.24.11-2.16.33-2.1.54-2 .74-1.91.92-1.81 1.09-1.68 1.26-1 .91-.52.44-.55.3-.6.19-.65.06-.64-.06-.61-.19-.4-.22-1.11-.52-2-.89-2.06-.84-2.08-.79-2.11-.75-2.13-.69-1.31-.38-.74-.21-.55-.29-.47-.4-.39-.47-.3-.55-.19-.6V70.79l-.05-.33-.09-.31-.11-.31-.15-.3-.18-.27-.2-.26-1.16-1.2-.82-1-.7-1.11-.78-1.22-.46-1.23-.3-1.25-.21-1.3-.03-1.35V58l.21-1.31.33-1.27.46-1.22.58-1.17.71-1.11.82-1 1.16-1.2.21-.26.17-.28.15-.29.11-.31.09-.32.05-.32v-8.52l-5.47-32.56-.29-1.11-.48-1-.63-.92-.78-.83-.91-.64-1-.48-1.09-.29-1.15-.11h-22.56l-1.15.11-1.09.29-1 .48-.91.64-.78.78-.64.92-.47 1-.29 1.11-5.52 32.56v8.8l.08.32.12.31.14.29.18.28.2.26 1.17 1.2.81 1 .71 1.11.59 1.17.46 1.23.34 1.28.2 1.3.07 1.34-.07 1.33-.2 1.3-.34 1.27-.46 1.23-.59 1.18-.71 1.11-.81 1-1.1 1.32-.2.26-.18.27-.14.3-.12.31-.08.31v41.23l-.18.61-.3.54-.39.48-.48.39-.54.3-.31.09-.32.1-1.46.43-2.14.69-2.1.75-2.09.79-2.06.84-2 .89-1.77.83-.63.21-.65.06-.64-.06-.61-.19-.54-.3-.4-.33-1.23-1.12-1.68-1.26-1.8-1.09-1.92-.92-2-.74-2.1-.54-2.17-.33-2.23-.11-2.23.11-2.17.33-2.1.54-2 .74-1.91.92-1.81 1.09-1.68 1.26-1.55 1.41-1.41 1.55-1.26 1.68-1.09 1.8-1.06 1.88-.74 2-.53 2.1-.34 2.16-.11 2.24.11 2.23.34 2.17.53 2.1.74 2 .32.68v1l-.05.13-.06.13-.07.14-.08.13L116 148l-.74 1.11-.16.22-.15.2-.16.18-.17.16-.19.14-.22.13-.26.11-.22.05h-.83l-.48-.05h-.2L78.85 139.4l-.32-.09-.32-.05h-.66l-.32.05-.32.08-.31.11-1.5.74-1.24.46-1.27.32-1.3.19-1.32.06-1.31-.07-1.31-.2-1.28-.34-1.25-.48-1.18-.6-1.11-.71-1-.82-.94-.92-.84-1L59 135l-.78-1.48-.18-.28-.22-.25-.23-.23-.26-.21-.28-.17-.29-.15-.31-.12-7.74-2.52-32.71-4.8-1.16-.07-1.12.14-1.06.33-1 .5-.88.66-.77.81-.62.94-.39 1.06-7 21.46-.26 1.12-.05 1.13.14 1.1.35 1.03.5 1 .67.88.83.77 1 .63 29.26 15.31 7.75 2.51.31.09h1.32l.31-.08.31-.11 1.5-.74 1.24-.45 1.28-.33 1.3-.19 1.31-.07 1.31.08 1.31.21 1.29.34 1.24.48 1.18.6 1.11.71 1 .82.93.92.84 1 .74 1.1.78 1.52.18.27.21.26.23.23.26.2.28.18.29.15.31.12 33 10.72.16.06.25.09.28.11.31.15.28.16.25.18.18.19.13.22.12.24.08.23.07.25v.77l-.13 3.82v1.19l.38 8.57 1.11 8.35 1.8 8.11 2.47 7.84 3.11 7.54 3.71 7.2 4.28 6.84 4.93 6.58.09.14.06.15v1.26l-.09.26-.1.25-.1.24-.14.32-20.66 28.45-.19.28-.14.29-.12.31-.09.32-.05.32v.66l.23 1.65.06 1.32-.09 1.31-.22 1.3-.31 1.35-.47 1.18-.6 1.17-.73 1.12-.84 1-.93.94-1 .83-1.1.72-1.16.6-1.22.49-1.28.36-1.64.28-.32.09-.31.13-.29.15-.27.18-.26.21-.23.23-.21.26-4.79 6.59-14.69 29.62-.42 1.08-.21 1.11v1.11l.18 1.09.35 1 .53 1 .71.88.87.76 18.25 13.26 1 .59 1.06.4 1.09.21h1.11l1.09-.18 1-.36 1-.55.9-.73 23.59-23.1 4.79-6.58.18-.28.15-.29.12-.31.09-.32V338l-.24-1.66v-1.32l.08-1.31.22-1.3.35-1.26.47-1.23.61-1.18.72-1.12.84-1 .93-.94 1-.83 1.1-.73 1.17-.6 1.22-.49 1.28-.36 1.64-.28.31-.09.31-.12.29-.16.28-.18.25-.2.24-.24.21-.25 14.73-20.19.31-.57.19-.61.07-.57V296l.06-.79.18-.61.3-.54.39-.48.48-.39.54-.3.61-.18.5-.1h9.51l.64.07.61.18.54.3.48.39.39.48.3.54.18.61v3l.09.83.19.6.29.55.4.47.47.39.55.3.6.19.65.06h47.65l.65-.08.6-.19.55-.29.48-.4.39-.47.29-.55.19-.6.06-.84v-2.36l.07-.65.19-.61.29-.54.39-.48.48-.39.55-.29.6-.19.65-.07h9.31l.65.07.6.19.55.29.48.39.39.48.29.54.19.61.07.65v3.36l.08.56.19.61.29.54.1.12 14.63 20.07.21.25.23.24.26.2.28.19.29.15.3.12.32.09 1.64.28 1.27.36 1.23.49 1.16.61 1.1.72 1 .83.94.94.83 1 .73 1.12.61 1.17.47 1.23.35 1.27.21 1.29.09 1.31-.06 1.32-.23 1.65v.66l.06.33.09.32.12.3.15.3.18.28 4.78 6.58 23.61 23.1.89.73 1 .55 1.05.36 1.09.18h1.11l1.09-.2 1.05-.4 1-.59 18.25-13.26.87-.76.7-.88.54-1 .35-1.05.18-1.09v-1.12l-.22-1.1-.42-1.08-14.68-29.58-4.72-6.46-.21-.26-.23-.23-.26-.21-.27-.18-.3-.15-.3-.13-.32-.09-1.64-.28-1.28-.36-1.22-.49-1.17-.6-1.1-.72-1-.83-.93-.94-.84-1-.72-1.12-.61-1.17-.47-1.23-.35-1.27-.22-1.29-.1-1.45.05-1.32.24-1.65v-.66l-.06-.32-.08-.32-.12-.31-.15-.29-.18-.28-20.8-28.64-.13-.3-.08-.19-.07-.22-.06-.22-.05-.2v-.85l.08-.2.09-.19.11-.19.13-.19.16-.19 4.75-6.41 4.23-6.8 3.66-7.17 3.07-7.49 2.44-7.79 1.78-8.07 1.09-8.29.37-8.51v-2.38l-.1-2.62V196l.05-.23.08-.23.11-.22.13-.23.13-.15.16-.14.2-.14.21-.13.19-.11.16-.08.15-.08 33.55-10.9.3-.12.29-.15.28-.18.26-.21.23-.22.21-.26.19-.27.77-1.47.74-1.1.84-1 .94-.92 1-.82 1.11-.71 1.18-.6 1.24-.48 1.29-.34 1.31-.21 1.31-.08 1.31.07 1.3.19 1.28.33 1.23.45 1.5.74.32.11.31.08h1.31l.32-.09 7.75-2.51 29.26-15.31 1-.63.83-.77.67-.88.5-1 .33-1.06.14-1.1-.05-1.13.09.03zm-361.43 6.72a10.928 10.928 0 01-10.731-13.056 10.927 10.927 0 018.585-8.593 10.926 10.926 0 0111.223 4.646 10.928 10.928 0 01-9.077 17.003zm61.11 19.86a10.928 10.928 0 01-10.731-13.056 10.927 10.927 0 018.585-8.593 10.926 10.926 0 0111.223 4.646 10.925 10.925 0 01-1.355 13.798 10.93 10.93 0 01-7.722 3.205zm2.83 176.73a10.919 10.919 0 01-2.13-21.63 10.919 10.919 0 019.852 18.432 10.925 10.925 0 01-7.722 3.198zm37.77-52a10.92 10.92 0 11-.002-21.839 10.92 10.92 0 01.002 21.839zm7.66-157.28a10.926 10.926 0 01-10.719-13.066 10.924 10.924 0 0114.909-7.959 10.93 10.93 0 016.74 10.105 10.924 10.924 0 01-6.748 10.092 10.929 10.929 0 01-4.182.828zM196 101.13a10.931 10.931 0 01-2.14-21.65 10.929 10.929 0 0113.06 10.73A10.92 10.92 0 01196 101.13zm0-64.26a10.922 10.922 0 01-10.718-13.063 10.925 10.925 0 018.605-8.572A10.918 10.918 0 01206.91 26 10.92 10.92 0 01196 36.87zm103.42 296.25A10.93 10.93 0 11288.5 344a10.92 10.92 0 0110.92-10.92v.04zm-56.55-198.26a10.93 10.93 0 1110.92 10.92 10.92 10.92 0 01-10.92-10.92zm29.71 157.19a10.929 10.929 0 01-21.649 2.146 10.924 10.924 0 014.646-11.223 10.928 10.928 0 0117.003 9.077zm29.57-113.79a10.926 10.926 0 01-10.719-13.066 10.924 10.924 0 0114.909-7.959 10.93 10.93 0 016.74 10.105 10.924 10.924 0 01-6.748 10.092 10.929 10.929 0 01-4.182.828zm61.12-19.86a10.92 10.92 0 11-.002-21.839 10.92 10.92 0 01.002 21.839z" fill="#E3E4E5"/>
        <path d="M91.61 372.68h-1.29l-1.1-.21h-.16L88 372l-.16-.08-1-.59L68.52 358l-.94-.82a.73.73 0 01-.12-.13l-.71-.88a.684.684 0 01-.09-.14l-.54-1-.07-.16-.35-1.05a.95.95 0 010-.16l-.17-1.09a1.104 1.104 0 010-.18v-1.12a1.122 1.122 0 010-.17l.21-1.1a.847.847 0 010-.17l.42-1.08 14.71-29.67A.417.417 0 0181 319l5-6.88.07-.09.56-.5.08-.06.27-.18.1-.06.69-.31h.1l.31-.09h.11l1.59-.28 1.18-.33 1.12-.45 1.08-.55 1-.67.94-.77.86-.86.77-1 .67-1 .56-1.08.43-1.14.33-1.16.2-1.2.07-1.21-.05-1.22-.25-2a.413.413 0 010-.11l.08-.74a.535.535 0 010-.12l.23-.7a.981.981 0 010-.1l.15-.29a.41.41 0 000-.09l.19-.28 20.8-28.48.39-1.08-.09-.52-4.9-6.53-4.33-6.91-3.75-7.27-3.14-7.69-2.5-7.93-1.83-8.19-1.09-8.4-.38-8.66v-1.24l.13-3.85-.15-.82-.17-.29-.35-.22-.84-.34-33.35-10.85h-.1l-.65-.37-.09-.07-.56-.5a.274.274 0 01-.07-.08l-.21-.25-.07-.08-.18-.28-.8-1.51-.68-1-.78-.94-.86-.85-.94-.75-1-.66-1.08-.56-1.15-.44-1.24-.33-1.15-.18-1.28-.12-1.26.06-1.15.18-1.22.32-1.11.4-1.44.72h-.11l-.31.11a.153.153 0 01-.09 0l-.74.15h-.54l-.75-.08h-.11l-.32-.09-7.79-2.52-.15-.07-29.22-15.23-1.05-.67-.14-.11-.83-.77-.12-.13-.66-.89-.1-.15-.5-1a1.094 1.094 0 01-.07-.16l-.32-1.04a.94.94 0 010-.16L.71 153a1 1 0 010-.17l.05-1.13a1.1 1.1 0 010-.18l.24-1.13 7-21.54.48-1.14a.509.509 0 01.09-.16l.62-.94.1-.14.77-.81.13-.12.89-.65a.415.415 0 01.14-.09l1-.5.16-.07 1.06-.32h.17l1.12-.14c.06-.005.12-.005.18 0l1.15.06 32.76 4.82h.17l8.1 2.66.75.41.09.06.57.51.06.07.22.25.06.09.18.27.06.09.75 1.43.68 1 .77.93.86.85.95.76 1 .65 1.08.55 1.16.44 1.18.32 1.21.19 1.26.07 1.16-.05 1.2-.18 1.18-.3 1.14-.42 1.45-.71h.09l.31-.12h.1l.74-.15h1.39l.32.08 33.44 10.84h1.09l.34-.2.46-.57.73-1.09 2.07-3V144l-.27-.56-.78-2.1-.56-2.19-.35-2.26a.405.405 0 010-.11l-.12-2.23v-.1l.12-2.24a.418.418 0 010-.1l.33-2.17.55-2.19.77-2.1 1-2 1.14-1.89 1.31-1.76 1.47-1.62 1.62-1.48 1.75-1.32 1.89-1.15 2-1 2.1-.78 2.19-.56h.1l2.17-.34h.1l2.23-.12h.1l2.24.12h.1l2.16.34h.1l2.1.53 2.1.77 2 1 1.89 1.14 1.76 1.31 1.23 1.11.33.27.37.2.42.13h.89l.51-.16 1.67-.78 2.06-.9 2.08-.86 2.11-.8 2.13-.75 4-1.23.17-.06.37-.2.33-.27.27-.33.2-.37.11-.37V70.66l.06-.41a.338.338 0 010-.11l.08-.32v-.1l.12-.31v-.09l.37-.66.06-.08.21-.26.07-.08 1.28-1.09.76-1 .65-1 .54-1.09.43-1.13.31-1.17.19-1.21.06-1.22-.06-1.23-.19-1.21-.31-1.17-.38-1.11-.54-1.09-.65-1-.76-1-1.13-1.16-.06-.08-.21-.26-.06-.09-.37-.65v-.09l-.12-.31v-.1l-.08-.32a.338.338 0 010-.11l-.08-.75v-8.2a.855.855 0 010-.16l5.43-32.54.31-1.2a.49.49 0 01.06-.17l.48-1a1.07 1.07 0 01.08-.15l.65-.91a.645.645 0 01.1-.13l.78-.78a.815.815 0 01.14-.12l.9-.64.15-.08L182 1l.17-.06 1.09-.3a.86.86 0 01.17 0L185 .51h22.21l1.24.11a.86.86 0 01.17 0l1.09.3.17.06 1 .48.15.08.9.64.14.11.78.79.11.13.63.91a.59.59 0 01.09.15l.48 1 .06.17.29 1.11 5.54 32.65a.855.855 0 010 .16v8.53a.419.419 0 000 .1l-.16.74v.11l-.3.69-.05.09-.18.28-.06.08-.21.26-1.19 1.24-.75 1-.66 1-.49 1.12-.42 1.13-.37 1.27-.21 1.12v1.23l.06 1.22.19 1.21.32 1.22.42 1.08.54 1.09.65 1 .75 1 1.07 1.14.07.08.43.61.06.1.3.7.11.4a.405.405 0 010 .11l.06.32a.405.405 0 000 .11v40.81l.13.4.2.38.27.32.32.27.36.2 2 .56 2.16.7 2.13.76 2.11.79 2.08.86 4 1.75h.89l.41-.13.37-.2 1.42-1.26 1.75-1.32 1.89-1.15 2-1 2.1-.78 2.19-.56 2.26-.36h.1l2.24-.12h.1l2.23.12h.11l2.17.34h.09l2.09.53 2.11.77 2 1 1.89 1.14 1.76 1.31 1.62 1.47 1.52 1.66 1.32 1.75 1.15 1.88 1 2 .77 2.1.57 2.19c.005.03.005.06 0 .09l.33 2.17a.418.418 0 010 .1l.12 2.24v.1l-.12 2.24a.418.418 0 010 .1l-.33 2.16-.56 2.19-.9 2.52.2.61 1.85 2.61 1.61 2.23.24.11h.18l.94-.1 33.69-10.92h1.4l.74.15h.1l.31.12h.09l1.45.71 1.15.42 1.17.3 1.2.18 1.26.06 1.16-.07 1.21-.19 1.18-.32 1.15-.44 1.09-.55 1-.66.94-.76.87-.85.77-.93.68-1 .75-1.43.06-.09.45-.61.07-.07.57-.51.09-.06.28-.18h.09l.69-.3 7.79-2.54h.17l32.66-4.81 1.25-.08h.17l1.12.13h.18l1.06.33c.057.009.111.03.16.06l1 .5c.05.024.097.054.14.09l.89.66a.741.741 0 01.13.12l.77.81a.662.662 0 01.1.13l.62.94c.034.051.064.105.09.16l.45 1.06 7 21.55.28 1.21c.005.06.005.12 0 .18l.05 1.13a.965.965 0 010 .17l-.14 1.1a.805.805 0 010 .17l-.32 1.06-.07.16-.5 1-.1.15-.67.89a.597.597 0 01-.11.12l-.83.77-.14.11-1 .63L358 174.49l-.15.07-8.11 2.61h-.11l-.75.08h-.54l-.74-.15-.4-.14h-.11l-1.45-.72-1.19-.43-1.13-.29-1.24-.19h-1.16l-1.21.07-1.26.21-1.14.3-1.14.44-1.13.58-1 .64-.95.75-.86.85-.78.94-.68 1-.75 1.42a.21.21 0 01-.06.1l-.44.6a.605.605 0 01-.08.08l-.56.5-.08.06-.65.38h-.1l-.31.12-33.75 11-.55.38-.18.4v.67l.1 2.57v2.41l-.37 8.56-1.1 8.38-1.8 8.15-2.46 7.88-3.09 7.57-3.7 7.24-4.27 6.88-5.24 7.22v.29l.14.49.13.32 20.95 28.88.36.78a.28.28 0 010 .1l.17.73v.97l-.23 1.6-.05 1.16.08 1.21.2 1.2.32 1.16.44 1.14.55 1.08.67 1 .77.95.86.87.95.76 1 .67 1.07.55 1.13.45 1.18.33 1.59.28h.11l.31.09h.1l.31.13h.09l.65.38.09.07.56.5.07.09.21.26 4.81 6.62.09.14 14.68 29.58.45 1.16c.02.056.037.112.05.17l.22 1.11v1.29a.965.965 0 010 .17l-.17 1.1a.855.855 0 010 .16l-.35 1.05-.07.16-.54 1a.76.76 0 01-.1.14l-.7.88-.12.13-.87.76-18.33 13.32-1.06.64-.16.08-1.06.39-.16.05-1.1.2a.485.485 0 01-.17 0h-1.28l-1.09-.17h-.17l-1-.36-.16-.08-1-.55a.449.449 0 01-.14-.1l-.9-.73L272 347.45l-.11-.13-5-6.9-.05-.1-.31-.69a.28.28 0 010-.1l-.08-.32v-.09l-.05-.33a.335.335 0 010-.1v-.77a.335.335 0 010-.1l.23-1.6V335l-.07-1.21-.2-1.19-.32-1.17-.44-1.13-.55-1.08-.68-1-.77-.95-.86-.87-1-.79-1-.64-1.07-.56-1.13-.45-1.17-.33-1.59-.28h-.1l-.32-.09h-.1l-.3-.12-.1-.05-.29-.15-.09-.05-.6-.44-.08-.07-.51-.57-14.73-20.18a1.475 1.475 0 01-.1-.16l-.3-.55a.785.785 0 01-.08-.18l-.18-.6a.752.752 0 010-.15l-.08-.57a.655.655 0 010-.14v-3.38l-.05-.52-.13-.42-.21-.37-.27-.32-.32-.27-.38-.21-.41-.13-.52-.05h-9.24l-.45.05-.41.13-.43.21-.32.26-.27.33-.21.38-.12.41-.06.5v2.31l-.06.92c.005.07.005.14 0 .21l-.19.61a1.315 1.315 0 01-.08.18l-.29.54a.927.927 0 01-.11.16l-.39.48-.14.14-.48.39-.15.1-.55.3-.18.08-.6.18h-.18l-.65.08H172.1l-.65-.07h-.19l-.61-.18-.18-.08-.55-.3-.16-.1-.47-.4a.907.907 0 01-.14-.13l-.39-.48-.1-.15-.3-.55a1.315 1.315 0 01-.08-.18l-.19-.61a1.082 1.082 0 010-.18l-.1-.83v-2.92l-.12-.39-.2-.37-.27-.33-.4-.31-.37-.2-.42-.13-.54-.05h-9.32l-.35.07-.46.14-.37.2-.33.27-.27.33-.2.37-.12.4-.05.67v3.26l-.08.57a.855.855 0 010 .16l-.19.61a.707.707 0 01-.08.18l-.31.57-.07.11-15 20.48a.283.283 0 01-.07.08l-.23.23-.08.07-.25.21-.09.06-.64.38-.1.05-.31.12h-.1l-.31.09h-.1l-1.59.28-1.18.33-1.13.45-1.07.56-1 .66-.93.77-.87.86-.77 1-.67 1-.55 1.09-.44 1.13-.33 1.22-.19 1.14-.08 1.21v1.22l.23 1.6c.005.04.005.08 0 .12v.86l-.17.73a.418.418 0 010 .1l-.31.69c.003.03.003.06 0 .09l-.18.28-4.96 6.66a.683.683 0 01-.11.13l-23.59 23.1-1 .79a.565.565 0 01-.15.1l-1 .54-.16.08-1 .36h-.17l-1.09.18-.12.05zm-1-2h.93l.93-.15.89-.31.83-.46.82-.67 23.47-23 5-7.12.1-.44v-.46l-.24-1.6a.405.405 0 000-.11V335l.09-1.31a.405.405 0 010-.11l.22-1.29.36-1.37v-.1l.48-1.22a.834.834 0 000-.1l.6-1.17.06-.09.72-1.12.13-.12.83-1 .07-.08.94-.94.07-.07 1-.83.09-.08 1.1-.72.09-.05 1.17-.61h.09l1.22-.49h.1l1.27-.36h.1l2-.42.57-.38.34-.38 14.66-20.09.29-.5.14-.43V296l.06-.86a.885.885 0 010-.23l.19-.6a.986.986 0 01.07-.18l.3-.55.11-.16.39-.47.13-.14.48-.39a.927.927 0 01.16-.11l.54-.29a.707.707 0 01.18-.08l.61-.19h.11l.5-.09h9.7a.941.941 0 01.34.06h.6l.6.19a.635.635 0 01.19.08l.54.29a.927.927 0 01.16.11l.48.39a.907.907 0 01.13.14l.39.47.11.16.3.54c.028.062.051.125.07.19l.19.6c.01.086.01.174 0 .26v3l.07.68.13.42.21.37.27.33.32.27.38.2.41.13.5.05h47.54l.5-.06.42-.13.38-.21.32-.27.27-.32.21-.38.12-.4.06-.73V295.7l.07-.64a1.005 1.005 0 010-.19l.19-.61a.967.967 0 01.08-.18l.3-.55a.754.754 0 01.1-.15l.39-.48.14-.14.47-.39.16-.11.55-.29.18-.08.6-.19h.2l.58-.06h9.65l.58.05h.2l.6.19.18.08.55.29.16.11.47.39.14.14.39.48a.754.754 0 01.1.15l.3.55a.967.967 0 01.08.18l.19.61c.006.063.006.127 0 .19l.05.57c.005.06.005.12 0 .18v3.29l.06.41.13.43.25.43 14.95 20.43.58.39.43.14 1.59.28h.1l1.27.36h.1l1.23.49h.09l1.16.61.09.05 1.1.73 1.1.88a.605.605 0 01.08.08l.93.93.08.08.83 1 .06.08.73 1.12a.44.44 0 01.05.09l.61 1.18v.09l.47 1.23a.28.28 0 010 .1l.35 1.26a.335.335 0 010 .1l.22 1.3v.1l.08 1.31a.17.17 0 010 .1v1.32a.405.405 0 010 .11l-.24 1.82.12.67.18.41.16.24 4.7 6.48 23.54 23 .76.62.84.46.88.31.92.14h.94l.92-.17.89-.34.91-.54 18.18-13.21.73-.64.6-.75.45-.82.3-.89.14-.92v-.94l-.18-.94-.39-1-14.61-29.42-5.2-7-.62-.32-.21-.06-1.59-.28h-.1l-1.28-.36h-.1l-1.22-.49h-.09l-1.17-.6-.09-.05-1.1-.73-.08-.06-1-.83-.08-.07-.93-.94-.07-.07-.84-1-.06-.08-.72-1.12a.44.44 0 01-.05-.09l-.39-1.12v-.09l-.48-1.23v-.1l-.34-1.26v-.1l-.21-1.3a.335.335 0 010-.1l-.09-1.32v-.1l.05-1.32v-.11l.24-1.86-.11-.62-.34-.66-20.77-28.59a1.236 1.236 0 01-.11-.19l-.38-1-.07-.28v-.47l.07-.54a.335.335 0 010-.1l.16-.5.45-.77.19-.25 4.74-6.39 4.18-6.73 3.62-7.09 3-7.42 2.41-7.71 1.76-8 1.07-8.21.37-8.42v-2.32l-.1-2.6.06-.92.17-.63a.574.574 0 01.05-.12l.28-.53.1-.14.13-.15.11-.11 1.28-.81a.766.766 0 01.13-.06l33.75-11 .39-.23.34-.29.28-.37.75-1.43a.451.451 0 010-.09l.74-1.1.06-.08.84-1a.463.463 0 01.07-.07l.94-.92a.463.463 0 01.07-.07l1-.82.08-.06 1.11-.71 1.26-.65.1-.05 1.25-.47a.17.17 0 01.1 0l1.29-.35 1.4-.23h.1l1.32-.08h.1l1.31.07 1.4.2h.1l1.28.33 1.33.48h.1l1.7.8.63.09.44-.05.28-.07 7.62-2.48 29.18-15.27.82-.53.7-.65.57-.75.42-.83.28-.89.12-.93v-1l-.24-1-7-21.36-.38-.9-.53-.79-.64-.69-.75-.55-.84-.43-.89-.27-1-.12-1.06.07-32.5 4.79-8.07 2.67-.53.42-.28.37-.76 1.43a.44.44 0 01-.05.09l-.74 1.1a.206.206 0 01-.06.08l-.83 1-.07.07-.94.92a.283.283 0 01-.08.07l-1 .82-.08.06-1.11.72-.09.05-1.18.6h-.1l-1.24.47h-.1l-1.28.34h-.1l-1.31.21h-.1l-1.32.07-1.41-.05h-.1l-1.3-.2h-.1l-1.28-.32h-.1l-1.24-.46h-.1l-1.66-.8-.43-.09h-.67l-.27.07L280 151.2h-.16l-1.37.13h-.71l-.16-.05-.22-.09h-.1l-.19-.1-.09-.06-.17-.12-.09-.07-.15-.13a.605.605 0 01-.08-.08l-.47-.59-1.19-1.77-2.18-3.27-.19-.61-.05-.64.09-.61a.818.818 0 01.07-.22l.14-.29.7-1.92.5-2 .31-2 .11-2.13-.11-2.14-.32-2.06-.52-2.05-.71-1.91-.88-1.82-1.05-1.72-1.2-1.6-1.35-1.48-1.49-1.34-1.6-1.2-1.72-1-1.83-.87-1.92-.7-1.95-.49-2.07-.32-2.13-.11-2.13.11-2.12.32-2 .52-1.91.71-1.82.88-1.72 1-1.6 1.2-1.47 1.31a.654.654 0 01-.17.12l-.55.3-.18.07-.6.19h-.2l-.65.07h-.19l-.65-.07h-.2l-.6-.19-.18-.07-.41-.22-1.05-.49-2-.88-2-.83-2.1-.82-2.08-.73-4.13-1.27-.21-.09-.54-.29a.927.927 0 01-.16-.11l-.48-.39-.13-.14-.4-.48-.1-.15-.3-.55a1.315 1.315 0 01-.08-.18l-.18-.61a.53.53 0 010-.21l-.06-.74V70.89l-.1-.49-.17-.36-.26-.37-1.13-1.17-.07-.08-.82-1-.06-.08-.7-1.11-.05-.09-.59-1.18v-.09l-.46-1.24-.37-1.36v-.1l-.2-1.31v-.1L213 59.4a.17.17 0 010-.1V57.9l.2-1.31.36-1.37v-.1l.46-1.23v-.09l.59-1.18a.437.437 0 01.05-.09l.71-1.11a.356.356 0 010-.08l.82-1 .07-.07 1.39-1.53.18-.41.09-.44v-8.3L212.6 7l-.25-.94-.41-.86-.53-.77-.66-.66-.75-.51-.85-.4-.92-.26-1.06-.09h-22.48l-1 .09-.92.26-.85.4-.76.54-.66.66-.54.77-.4.86-.27 1-5.48 32.39v8.5l.14.44.37.57 1.12 1.17.07.07.82 1 .06.08.7 1.11.06.09.58 1.18c.004.03.004.06 0 .09l.47 1.23v.1l.34 1.27a.335.335 0 000 .1l.2 1.31a.335.335 0 010 .1l.07 1.33v.11l-.07 1.33a.335.335 0 010 .1l-.2 1.31a.335.335 0 000 .1l-.34 1.27v.09l-.47 1.24c.004.03.004.06 0 .09l-.58 1.18-.06.09-.7 1.11-.06.08-.82 1-.07.08-1.26 1.34-.31.6-.1.49v40.77a.877.877 0 010 .28l-.19.6a.635.635 0 01-.08.19l-.29.54a.927.927 0 01-.11.16l-.39.48-.14.13-.47.39a.927.927 0 01-.16.11l-.55.3a.773.773 0 01-.18.07l-.3.1-3.91 1.33-2.08.73-2.06.78-2 .84-3.76 1.69a.817.817 0 01-.22.08l-.53.17h-.21l-.65.06a.605.605 0 01-.19 0l-.65-.06h-.2l-.6-.19-.18-.07-.55-.3a.927.927 0 01-.16-.11l-.32-.27a.46.46 0 01-.12-.09l-1.23-1.12-1.61-1.2-1.72-1-1.83-.87-1.92-.7-2-.49-2.07-.32-2.13-.11-2.13.11-2.07.32-2.05.52-1.91.71-1.82.88-1.72 1-1.6 1.2-1.48 1.35-1.34 1.48-1.2 1.61-1 1.72-.87 1.83-.7 1.92-.51 2-.3 2-.11 2.14.11 2.13.32 2.12.52 2 .71 1.91.28.58a.978.978 0 01.06.15v.72l-.06.62v.11l-.3.74-.11.18-3.23 4.57-.24.23-.08.07-.2.15-.09.06-.22.13-.12.05-.26.11-.16.05-.21.05h-.77l-1.1-.09h-.18l-33.58-10.9h-.5l-.61.1-.23.08-1.45.71-.09.05-1.24.45h-.1l-1.28.32h-.1l-1.3.19h-.1l-1.31.06-1.42-.07h-.1L67.2 142h-.11l-1.28-.35h-.1l-1.25-.48h-.09l-1.18-.6-.09-.05-1.1-.82-.08-.06-1-.82a.463.463 0 01-.07-.07l-.94-.92-.07-.07-.84-1-.06-.08-.73-1.1a.413.413 0 01-.05-.09l-1-1.79-.33-.3-.45-.25-.22-.08-7.61-2.47-32.59-4.8h-1l-.95.11-.9.28-.83.42-.75.56-.64.68-.52.79-.42 1L3 150.93l-.22.95v1l.12.93.28.89.42.83.57.75.7.65.89.58 29.04 15.17 8.32 2.6.68-.1.22-.08 1.45-.71h.1l1.24-.45 1.37-.36h.1l1.3-.19 1.41-.08h.11l1.31.08h.1l1.31.21 1.39.37h.1l1.24.47.1.05 1.18.6.08.05 1.11.71.08.06 1 .82.08.07.93.92.07.07.84 1 .06.08.74 1.1a.41.41 0 010 .09l1 1.79.34.29.39.24.27.1 33.69 11 .7.36.1.06.25.18.15.13.17.19c.049.046.09.1.12.16l.14.22.05.09.11.24a.834.834 0 010 .1l.17.55.11 1-.14 5.06.38 8.51 1.1 8.27 1.79 8 2.45 7.75 3.08 7.46 3.67 7.12 4.24 6.76 4.88 6.52.07.09.08.15.06.11.06.14v.1l.15.84v.7l-.39 1.16-.17.34a.418.418 0 010 .1.864.864 0 01-.08.12l-20.69 28.64-.24.62-.06.46v.28l.22 1.55a.335.335 0 010 .1l.05 1.32c.01.036.01.074 0 .11l-.08 1.31v.1l-.22 1.3v.1l-.35 1.26v.1l-.48 1.23v.09l-.6 1.18a.413.413 0 00-.05.09l-.8 1.1-.06.09-.84 1-.07.07-.93.94-.08.07-1 .83-.08.06-1.1.72-.09.06-1.16.6h-.09l-1.22.49h-.1l-1.28.36h-.1l-1.81.34-.6.31-.33.3-.18.23-4.71 6.48L68 349.6l-.35.91-.18.93v.94l.14.92.3.89.45.82.59.74.81.7L88 369.66l.83.5.9.33.88.19zm2.08-14.63a11.918 11.918 0 01-11.691-14.246 11.92 11.92 0 0123.611 2.326 11.932 11.932 0 01-11.92 11.92zm0-21.84a9.92 9.92 0 109.92 9.92 9.935 9.935 0 00-2.908-7.012 9.935 9.935 0 00-7.012-2.908zM299.42 356a11.93 11.93 0 1111.93-12 11.935 11.935 0 01-3.472 8.478A11.944 11.944 0 01299.42 356zm0-21.85a9.935 9.935 0 00-9.175 6.132 9.933 9.933 0 007.244 13.538 9.93 9.93 0 0011.861-9.75 9.918 9.918 0 00-2.901-7.035 9.935 9.935 0 00-7.029-2.915v.03zm-169-30.06a11.922 11.922 0 01-11.691-14.246 11.92 11.92 0 0123.611 2.326 11.93 11.93 0 01-11.88 11.89l-.04.03zm0-21.84a9.919 9.919 0 00-7.014 16.934 9.914 9.914 0 0015.262-1.503 9.919 9.919 0 001.672-5.511 9.933 9.933 0 00-9.88-9.95l-.04.03zM261.65 304a11.929 11.929 0 01-8.436-20.366 11.932 11.932 0 0120.366 8.436A11.941 11.941 0 01261.65 304zm0-21.85a9.935 9.935 0 00-9.175 6.132 9.933 9.933 0 007.244 13.538 9.93 9.93 0 0011.861-9.75 9.943 9.943 0 00-2.905-7.028 9.92 9.92 0 00-7.025-2.912v.02zM89.86 179.32a11.928 11.928 0 01-11.712-14.251 11.928 11.928 0 019.37-9.379 11.928 11.928 0 0110.768 20.129 11.937 11.937 0 01-8.426 3.501zm0-21.85a9.932 9.932 0 00-9.182 6.125 9.932 9.932 0 007.237 13.545 9.936 9.936 0 0010.196-4.229 9.932 9.932 0 00-1.24-12.533 9.935 9.935 0 00-7.011-2.908zm212.29 21.79a11.932 11.932 0 01-11.7-14.261 11.927 11.927 0 0121.624-4.29 11.928 11.928 0 012.006 6.631 11.94 11.94 0 01-11.93 11.92zm0-21.85a9.931 9.931 0 10-.001 19.862 9.931 9.931 0 00.001-19.862zm-273.4 2.05a11.928 11.928 0 01-11.712-14.251 11.928 11.928 0 019.37-9.379 11.928 11.928 0 0110.768 20.129 11.937 11.937 0 01-8.426 3.501zm0-21.85a9.932 9.932 0 00-9.182 6.125 9.932 9.932 0 007.237 13.545 9.936 9.936 0 0010.196-4.229 9.932 9.932 0 00-1.24-12.533 9.935 9.935 0 00-7.011-2.908zm334.52 21.79a11.922 11.922 0 01-11.691-14.246 11.92 11.92 0 0123.611 2.326 11.93 11.93 0 01-11.92 11.92zm0-21.84a9.919 9.919 0 00-7.015 16.934 9.912 9.912 0 005.08 2.715 9.914 9.914 0 0010.183-4.218 9.919 9.919 0 001.672-5.511 9.936 9.936 0 00-2.908-7.012 9.936 9.936 0 00-7.012-2.908zm-109.48 9.22a11.932 11.932 0 01-11.7-14.261 11.927 11.927 0 0121.624-4.29 11.928 11.928 0 01-9.924 18.551zm0-21.85a9.931 9.931 0 109.93 9.93 9.945 9.945 0 00-2.911-7.019 9.945 9.945 0 00-7.019-2.911zm-115.67 21.85a11.932 11.932 0 01-11.7-14.261 11.927 11.927 0 0121.624-4.29 11.928 11.928 0 012.006 6.631 11.94 11.94 0 01-11.93 11.92zm0-21.85a9.931 9.931 0 109.93 9.93 9.945 9.945 0 00-2.911-7.019 9.945 9.945 0 00-7.019-2.911zm57.88-22.8a11.934 11.934 0 01-11.03-7.36 11.931 11.931 0 0120.944-11.192 11.93 11.93 0 012.006 6.632A11.94 11.94 0 01196 102.13zm0-21.85a9.935 9.935 0 00-9.181 6.123 9.931 9.931 0 0017.427 9.325 9.934 9.934 0 001.674-5.518 9.94 9.94 0 00-9.92-9.93zm0-42.41a11.918 11.918 0 01-11.698-14.258 11.915 11.915 0 0116.282-8.661A11.918 11.918 0 01207.91 26 11.937 11.937 0 01196 37.87zM196 16a9.922 9.922 0 00-9.746 11.82 9.918 9.918 0 0013.475 7.288A9.922 9.922 0 00205.91 26 9.928 9.928 0 00196 16z" fill="#424242"/>
        <path d="M176.23 273.86h43.42a1.28 1.28 0 011.28 1.28v26.8a1.29 1.29 0 01-1.29 1.29h-43.41a1.29 1.29 0 01-1.29-1.29v-26.79a1.29 1.29 0 011.29-1.29z" fill="#656769"/>
        <path d="M174.26 271.88h43.42a1.28 1.28 0 011.28 1.28V300a1.29 1.29 0 01-1.29 1.29h-43.41A1.292 1.292 0 01173 300v-26.8a1.283 1.283 0 01.767-1.213c.156-.068.323-.104.493-.107z" fill="#B3B5B7"/>
        <path d="M217.68 302.25h-43.42A2.297 2.297 0 01172 300v-26.83a2.285 2.285 0 011.414-2.116c.277-.115.575-.174.876-.174h43.42a2.285 2.285 0 012.116 1.414c.115.277.174.575.174.876V300a2.3 2.3 0 01-2.32 2.25zm-43.42-29.37a.282.282 0 00-.205.085.299.299 0 00-.063.094.3.3 0 00-.022.111V300a.29.29 0 00.29.29h43.42a.287.287 0 00.225-.074.275.275 0 00.07-.098A.281.281 0 00218 300v-26.83a.3.3 0 00-.022-.111.299.299 0 00-.157-.157.282.282 0 00-.111-.022h-43.45z" fill="#414141"/>
        <path d="M138.14 118.33a16.199 16.199 0 00-3.174 32.088 16.197 16.197 0 0016.633-6.887 16.196 16.196 0 002.731-9.001 16.211 16.211 0 00-16.19-16.2zm0 27.45a10.926 10.926 0 01-10.719-13.066 10.924 10.924 0 0114.909-7.959 10.93 10.93 0 016.74 10.105 10.924 10.924 0 01-6.748 10.092 10.929 10.929 0 01-4.182.828z" fill="#B5B7B9"/>
        <path d="M213.24 120.78h-34.48a1.28 1.28 0 00-1.28 1.28v12.66c0 .707.573 1.28 1.28 1.28h34.48a1.28 1.28 0 001.28-1.28v-12.66a1.28 1.28 0 00-1.28-1.28z" fill="#B3B5B7"/>
        <path d="M213.24 137h-34.48c-.605 0-1.185-.24-1.612-.668a2.276 2.276 0 01-.668-1.612v-12.67c.003-.603.244-1.18.671-1.606a2.283 2.283 0 011.609-.664h34.48c.603 0 1.181.239 1.609.664.427.426.668 1.003.671 1.606v12.67c0 .605-.24 1.185-.668 1.612a2.276 2.276 0 01-1.612.668zm-34.48-15.22a.283.283 0 00-.195.078.284.284 0 00-.085.192v12.67a.288.288 0 00.28.28h34.48c.074 0 .145-.03.198-.082a.284.284 0 00.082-.198v-12.67a.278.278 0 00-.021-.106.27.27 0 00-.259-.164h-34.48z" fill="#414141"/>
        <path d="M206 120.78h-17.6c-.35 0-.686.139-.933.387a1.317 1.317 0 00-.387.933v4.33a1.331 1.331 0 001.32 1.32H206a1.33 1.33 0 001.32-1.32v-4.33c0-.35-.139-.686-.387-.933a1.317 1.317 0 00-.933-.387z" fill="#898B8F"/>
        <path d="M206 128.75h-17.6a2.336 2.336 0 01-1.638-.682 2.336 2.336 0 01-.682-1.638v-4.33a2.32 2.32 0 012.32-2.32H206a2.32 2.32 0 012.32 2.32v4.33a2.336 2.336 0 01-.682 1.638 2.336 2.336 0 01-1.638.682zm-17.58-7a.32.32 0 00-.32.32v4.33a.328.328 0 00.097.223c.059.06.139.094.223.097H206a.32.32 0 00.32-.32v-4.3a.32.32 0 00-.32-.32l-17.58-.03z" fill="#414141"/>
        <path d="M206.12 120.78h-5.06a1.54 1.54 0 00-1.54 1.54v3.89c0 .85.689 1.54 1.54 1.54h5.06c.851 0 1.54-.69 1.54-1.54v-3.89a1.54 1.54 0 00-1.54-1.54z" fill="#5A595C"/>
        <path d="M206.12 128.75h-5.05a2.55 2.55 0 01-2.55-2.55v-3.88a2.55 2.55 0 012.55-2.54h5.05a2.54 2.54 0 012.54 2.54v3.88a2.55 2.55 0 01-2.54 2.55zm-5.05-7a.548.548 0 00-.55.54v3.88a.55.55 0 00.55.55h5.05a.55.55 0 00.54-.55v-3.88a.546.546 0 00-.158-.382.543.543 0 00-.382-.158h-5.05z" fill="#414141"/>
        <path d="M253.8 118.33a16.2 16.2 0 1016.2 16.2 16.218 16.218 0 00-16.2-16.2zm0 27.45a10.926 10.926 0 01-10.719-13.066 10.924 10.924 0 0114.909-7.959 10.93 10.93 0 016.74 10.105 10.924 10.924 0 01-6.748 10.092 10.929 10.929 0 01-4.182.828z" fill="#B5B7B9"/>
        <path d="M176.62 177.92h37.79a1.28 1.28 0 011.28 1.28V217a1.28 1.28 0 01-1.28 1.28h-37.79a1.29 1.29 0 01-1.29-1.29v-37.78a1.28 1.28 0 011.28-1.28l.01-.01z" fill="#656769"/>
        <path d="M214.41 219.29h-37.79a2.291 2.291 0 01-2.28-2.29v-37.79a2.29 2.29 0 012.28-2.29h37.79a2.3 2.3 0 012.29 2.29V217a2.3 2.3 0 01-2.29 2.29zm-37.79-40.37a.296.296 0 00-.11.022.302.302 0 00-.092.063.306.306 0 00-.06.095.292.292 0 00-.018.11V217a.292.292 0 00.018.11.29.29 0 00.152.158.296.296 0 00.11.022h37.79a.29.29 0 00.29-.29v-37.79a.29.29 0 00-.29-.29h-37.79z" fill="#424242"/>
        <path d="M235.86 288.06h-10.18a1.6 1.6 0 00-1.6 1.6v6.3a1.6 1.6 0 001.6 1.6h10.18a1.6 1.6 0 001.6-1.6v-6.3a1.6 1.6 0 00-1.6-1.6z" fill="#656769"/>
        <path d="M235.86 298.57h-10.17a2.61 2.61 0 01-2.61-2.61v-6.29c0-.692.275-1.356.764-1.846a2.614 2.614 0 011.846-.764h10.17a2.612 2.612 0 012.6 2.61V296a2.608 2.608 0 01-2.6 2.57zm-10.17-9.51a.606.606 0 00-.431.179.606.606 0 00-.179.431V296a.62.62 0 00.179.431.606.606 0 00.431.179h10.17a.612.612 0 00.6-.61v-6.29a.611.611 0 00-.6-.61l-10.17-.04z" fill="#424242"/>
        <path d="M166.2 289h-10.18a1.6 1.6 0 00-1.6 1.6v6.3a1.6 1.6 0 001.6 1.6h10.18a1.6 1.6 0 001.6-1.6v-6.3a1.6 1.6 0 00-1.6-1.6z" fill="#656769"/>
        <path d="M166.2 299.5H156a2.612 2.612 0 01-2.6-2.61v-6.29a2.612 2.612 0 012.6-2.6h10.2a2.612 2.612 0 012.6 2.6v6.29a2.61 2.61 0 01-2.6 2.61zM156 290a.597.597 0 00-.6.6v6.29a.599.599 0 00.6.61h10.2a.597.597 0 00.557-.377.599.599 0 00.043-.233v-6.29a.597.597 0 00-.6-.6H156z" fill="#424242"/>
        <path d="M224.343 110.397l-1.923 6.647a1.61 1.61 0 001.099 1.994l9.759 2.825a1.61 1.61 0 001.994-1.099l1.924-6.648a1.61 1.61 0 00-1.099-1.994l-9.76-2.824a1.61 1.61 0 00-1.994 1.099z" fill="#656769"/>
        <path d="M233.73 122.93a2.54 2.54 0 01-.72-.1l-9.77-2.83a2.594 2.594 0 01-1.557-1.241 2.587 2.587 0 01-.223-1.979l1.93-6.66a2.61 2.61 0 011.241-1.557 2.587 2.587 0 011.979-.223l9.77 2.83a2.61 2.61 0 011.78 3.23l-1.93 6.65a2.591 2.591 0 01-2.5 1.88zm-7.84-12.69a.596.596 0 00-.58.44l-1.93 6.65a.607.607 0 00.41.75l9.77 2.83a.568.568 0 00.46 0 .562.562 0 00.29-.36l1.93-6.66a.607.607 0 00-.41-.75l-9.77-2.83-.17-.07z" fill="#424242"/>
        <path d="M165.322 109.409l-9.779 2.83a1.598 1.598 0 00-1.092 1.981l1.898 6.561a1.6 1.6 0 001.982 1.092l9.779-2.83a1.599 1.599 0 001.092-1.981l-1.899-6.561a1.599 1.599 0 00-1.981-1.092z" fill="#656769"/>
        <path d="M157.89 122.93a2.603 2.603 0 01-2.5-1.88l-1.9-6.55a2.607 2.607 0 011.78-3.23l9.77-2.83a2.607 2.607 0 013.23 1.78l1.89 6.56a2.598 2.598 0 01-1.77 3.22l-9.78 2.83a2.54 2.54 0 01-.72.1zm-2.48-9l1.9 6.56a.607.607 0 00.75.41l9.77-2.83a.602.602 0 00.41-.75l-1.9-6.55a.61.61 0 00-.283-.364.6.6 0 00-.457-.056l-9.78 2.83a.607.607 0 00-.41.75z" fill="#424242"/>
        <path d="M181.28 7.08h29.38a2.64 2.64 0 002.34-1.9l-.22-.45-.63-.92-.75-.81-.91-.64-1-.48-1.09-.3-1.15-.1h-22.56l-1.15.1-1.09.3-1 .48-.91.64-.78.78-.64.92-.21.45a2.631 2.631 0 002.37 1.93zM389.26 156l.5-1 .33-1.06.14-1.1-.05-1.13-.26-1.12-2.37-7.33-4.08-12.55-.52-1.6-.45-1-.62-.94-.77-.81-.88-.66-1-.5-1.07-.33-.53-.06a2.637 2.637 0 00-1.05 2.83l9.09 28a2.628 2.628 0 002.52 1.66l.39-.36.68-.94zm-66.95 194.66l-23.79 17.28a2.617 2.617 0 00-.8 2.91l.46.26 1.05.36 1.09.18h1.11l1.09-.2 1.05-.4 1-.59 6.77-4.92 10.13-7.36 1.37-1 .85-.74.7-.88.54-1 .35-1.05.18-1.09v-1.12l-.1-.51a2.644 2.644 0 00-3.05-.13zM6.08 156.28l9.53-29.35a2.509 2.509 0 00-.38-2.19h-.35l-1.12.14-1.06.33-1 .5-.88.66-.77.81-.62.94-.43 1.04-7 21.46-.26 1.12-.05 1.13.14 1.1.35 1.03.5 1 .67.88.83.77.25.17a2.527 2.527 0 001.65-1.54zM93.58 368l-24-17.46c-.83-.6-3 .77-3 .77v1.11l.18 1.09.35 1 .53 1 .71.88.87.76 8 5.82 10.27 7.46 1 .57 1.06.4 1.09.21h1.11l1.09-.18 1-.36s.55-2.45-.26-3.07z" fill="#B5B7B9"/>
        <path d="M91.61 372.68h-1.29l-1.1-.21h-.16L88 372l-.16-.08-1-.57L68.52 358l-.94-.82a.726.726 0 01-.12-.13l-.71-.88a1.066 1.066 0 01-.09-.14l-.54-1-.07-.16-.35-1.05a.93.93 0 010-.16l-.17-1.09a1.104 1.104 0 010-.18v-1.12a1.483 1.483 0 010-.2l.32-1.36a1.03 1.03 0 01.452-.641 1.025 1.025 0 011.548 1.091l-.29 1.26v.92l.14.92.3.89.45.82.59.74.81.7L88 369.68l.8.48.9.33.92.18h.93l.93-.15.89-.31.84-.46a.998.998 0 01.762-.099 1.015 1.015 0 01.734.84 1.004 1.004 0 01-.496.999l-.92.51-.16.08-1 .36h-.17l-1.09.18-.26.06z" fill="#424242"/>
        <path d="M211.81 67.63l-4.37-13.39a4.432 4.432 0 00-.49-1l-3.47-5.34a1.755 1.755 0 00-1.46-.79h-12.1a1.75 1.75 0 00-1.46.79L185 53.21a4.432 4.432 0 00-.49 1l-4.37 13.39a4.66 4.66 0 00-.23 1.44v21.17A16.08 16.08 0 00196 106.28a16.08 16.08 0 0016-16.07V69.07a4.676 4.676 0 00-.19-1.44zM196 101.13a10.931 10.931 0 01-2.14-21.65 10.929 10.929 0 0113.06 10.73A10.92 10.92 0 01196 101.13zM73.32 145.27H59.23c-.378 0-.755.05-1.12.15L52 147.09a1.752 1.752 0 00-1.21 1.14L48.88 154 47 159.74a1.75 1.75 0 00.31 1.63l4 4.95c.241.298.52.564.83.79l11.38 8.29c.395.288.834.511 1.3.66l20.1 6.53a16.062 16.062 0 0020.25-10.31 16.083 16.083 0 00-4.835-17.21A16.082 16.082 0 0094.86 152l-20.1-6.53a4.712 4.712 0 00-1.44-.2zm27 25.43a10.923 10.923 0 01-9.533 7.509 10.928 10.928 0 01-10.584-5.935A10.922 10.922 0 0193.32 156.94a10.917 10.917 0 016.96 13.76h.04zm4.02 130.3L100 314.41a4.315 4.315 0 00-.2 1.12l-.34 6.36a1.742 1.742 0 00.72 1.5l4.89 3.56 4.9 3.55a1.716 1.716 0 001.64.22l6-2.28c.353-.14.689-.321 1-.54l11.39-8.27a4.517 4.517 0 001-1l12.43-17.1a16.067 16.067 0 00-9.244-25.067 16.05 16.05 0 00-6.266-.248 16.07 16.07 0 00-10.49 6.425L105 299.72a4.51 4.51 0 00-.66 1.28zm32.51-17.78a10.92 10.92 0 11-8.122-1.951 10.915 10.915 0 018.122 1.961v-.01zM317.32 145.5l-20.11 6.5a16.077 16.077 0 00-10.31 20.25 16.004 16.004 0 0014.013 11.066 16.015 16.015 0 006.227-.756l20.11-6.53a4.702 4.702 0 001.3-.66l11.38-8.29c.31-.226.589-.492.83-.79l4-4.95a1.717 1.717 0 00.3-1.63l-1.87-5.71-1.87-5.76a1.714 1.714 0 00-1.2-1.14l-6.12-1.66c-.368-.1-.748-.15-1.13-.15h-14.08a4.724 4.724 0 00-1.47.21zm-18.51 11.44a10.91 10.91 0 016.339-.13 10.916 10.916 0 016.778 15.464 10.92 10.92 0 01-20.117-1.574 10.91 10.91 0 017-13.76zm-11.73 142.78l-12.43-17.11a16.055 16.055 0 00-10.484-6.424 16.059 16.059 0 00-11.956 2.874 16.055 16.055 0 00-6.424 10.484 16.059 16.059 0 002.874 11.956l12.42 17.1c.282.381.619.718 1 1l11.41 8.27a4.6 4.6 0 001 .54l6 2.28a1.73 1.73 0 001.64-.22L287 327l4.9-3.56a1.723 1.723 0 00.71-1.5l-.33-6.36a4.788 4.788 0 00-.2-1.12L287.74 301a4.51 4.51 0 00-.66-1.28zm-16.6-14.08a10.922 10.922 0 01-4.259 16.334 10.918 10.918 0 01-15.192-7.359 10.923 10.923 0 014.191-11.385 10.909 10.909 0 018.129-1.957 10.921 10.921 0 017.131 4.367z" fill="#B5B7B9"/>
        <path d="M223.25 240.09v-3.47a.777.777 0 00-.75-.75H219a.747.747 0 00-.53.22.747.747 0 00-.22.53v3.48c.004.13.038.256.1.37a.743.743 0 00.65.37h3.48a.755.755 0 00.524-.223.754.754 0 00.216-.527h.03z" fill="#C7C9C9"/>
        <path d="M219 241.84a1.743 1.743 0 01-1.51-.87 1.712 1.712 0 01-.24-.88v-3.47a1.736 1.736 0 01.51-1.24 1.8 1.8 0 011.24-.51h3.47a1.781 1.781 0 011.75 1.74v3.48a1.744 1.744 0 01-1.74 1.75H219zm.25-4.97v3h3v-3h-3z" fill="#414141"/>
        <path d="M215 240.1v-3.48a.763.763 0 00-.222-.518.763.763 0 00-.518-.222h-3.48a.749.749 0 00-.53.22.73.73 0 00-.21.52v3.48a.746.746 0 00.37.641.74.74 0 00.37.099h3.48a.733.733 0 00.74-.74z" fill="#C7C9C9"/>
        <path d="M210.76 241.84a1.743 1.743 0 01-1.51-.87 1.768 1.768 0 01-.23-.87v-3.48a1.676 1.676 0 01.129-.667c.087-.212.217-.403.381-.563a1.714 1.714 0 011.23-.51h3.48c.461.001.903.185 1.23.51.322.329.504.77.51 1.23v3.48c0 .461-.183.904-.51 1.23-.326.327-.769.51-1.23.51h-3.48zm.26-4.96v3h3v-3h-3z" fill="#414141"/>
        <path d="M219.46 235.88h-5.65v4.96h5.65v-4.96z" fill="#fff"/>
        <path d="M220.46 241.84h-7.65v-7h7.65v7zm-5.65-2h3.65v-3h-3.65v3z" fill="#414141"/>
        <path d="M130.46 304.06a11.922 11.922 0 01-11.691-14.246 11.92 11.92 0 0123.611 2.326 11.94 11.94 0 01-11.92 11.92zm0-21.84a9.919 9.919 0 00-7.014 16.934 9.914 9.914 0 0015.262-1.503 9.919 9.919 0 001.672-5.511 9.936 9.936 0 00-2.908-7.012 9.936 9.936 0 00-7.012-2.908zm131.2 21.84a11.922 11.922 0 01-11.691-14.246 11.92 11.92 0 0123.611 2.326 11.94 11.94 0 01-11.92 11.92zm0-21.84a9.919 9.919 0 00-7.014 16.934 9.914 9.914 0 0015.262-1.503 9.919 9.919 0 001.672-5.511 9.936 9.936 0 00-2.908-7.012 9.936 9.936 0 00-7.012-2.908zm40.49-102.96a11.932 11.932 0 01-11.7-14.261 11.927 11.927 0 0121.624-4.29 11.928 11.928 0 012.006 6.631 11.94 11.94 0 01-11.93 11.92zm0-21.85a9.931 9.931 0 10-.001 19.862 9.931 9.931 0 00.001-19.862zm-48.35-10.63a11.922 11.922 0 01-11.68-14.252 11.916 11.916 0 019.368-9.36 11.927 11.927 0 0112.234 5.071 11.922 11.922 0 012.008 6.621 11.938 11.938 0 01-11.93 11.92zm0-21.84a9.917 9.917 0 00-9.718 11.861 9.917 9.917 0 007.796 7.789 9.924 9.924 0 0010.181-4.22 9.922 9.922 0 001.671-5.51 9.93 9.93 0 00-9.93-9.92zm-115.66 21.84a11.922 11.922 0 01-11.691-14.246 11.92 11.92 0 0123.611 2.326 11.94 11.94 0 01-11.92 11.92zm0-21.84a9.919 9.919 0 00-7.014 16.934 9.914 9.914 0 0015.262-1.503 9.919 9.919 0 001.672-5.511 9.936 9.936 0 00-2.908-7.012 9.936 9.936 0 00-7.012-2.908zm-48.28 54.32a11.932 11.932 0 01-11.023-7.367 11.928 11.928 0 0115.595-15.582 11.927 11.927 0 013.857 19.455 11.94 11.94 0 01-8.429 3.494zm0-21.85a9.93 9.93 0 10-.001 19.86 9.93 9.93 0 00.001-19.86zM196 102.13a11.934 11.934 0 01-11.03-7.36 11.931 11.931 0 0115.59-15.59 11.93 11.93 0 017.36 11.03A11.94 11.94 0 01196 102.13zm0-21.85a9.934 9.934 0 00-9.181 6.123 9.931 9.931 0 0017.427 9.325 9.934 9.934 0 001.674-5.518 9.949 9.949 0 00-9.92-9.93zm104.25 292.41l-1.35-.23-1.21-.44-.92-.51.97-1.75.84.47.89.31.92.14.94-.01.92-.17.89-.33.88-.53 18.21-13.24.73-.64.6-.74.45-.83.3-.88.14-.92-.02-.92-.29-1.27 1.95-.45.34 1.57.03 1.2-.23 1.35-.42 1.21-.63 1.12-.83 1.01-.87.76-18.36 13.34-1.19.69-1.22.45-1.27.22-1.19.02zM179.33 6.76l-1.84-.77.64-1.48.74-1.05.91-.89 1.05-.74 1.17-.54 1.26-.34 1.15-.1 22.9-.11 1.38.13 1.25.36 1.16.56 1.04.74.89.91.73 1.07.45.95-1.81.85-.41-.87-.54-.77-.66-.66-.77-.53-.85-.4-.92-.25-1.02-.09-22.72.1-.98.1-.91.25-.85.41-.76.54-.65.66-.53.76-.5 1.2zm208.29 152.18l-1.27-1.54 1.52-1.26.54-.73.43-.83.27-.89.12-.93-.05-.96-.22-.99-7.02-21.39-.39-.9-.52-.79-.65-.68-.75-.56-.83-.42-.88-.26-1.3-.11.17-2 1.6.16 1.24.39 1.12.58 1.02.78.88.94.71 1.1.45 1.06 7.07 21.56.3 1.35.06 1.21-.19 1.36-.39 1.22-.59 1.13-.84 1.06-1.61 1.34zm-383.22 0l-1.78-1.51-.76-1-.56-1.15L.93 154l-.15-1.19.09-1.39.24-1.08 7.07-21.57.57-1.3.73-1.08.9-.92 1-.73s.79-.43 1.06-.54a7.043 7.043 0 011.31-.39 17.184 17.184 0 012.08 0l-.05 2a14.1 14.1 0 00-1.72 0 4.293 4.293 0 00-.83.25c-.19.08-.67.33-.84.42l-.76.57-.65.68-.52.79-.42 1L3 150.89l-.21.91v1l.12.93.27.89.43.83.54.73 1.52 1.26-1.27 1.5z" fill="#424242"/>
        <path d="M181 240.09v-3.47a.766.766 0 00-.222-.521.767.767 0 00-.518-.229h-3.48a.719.719 0 00-.52.22.707.707 0 00-.22.53v3.48a.746.746 0 00.37.641.74.74 0 00.37.099h3.48c.199 0 .39-.079.53-.22a.747.747 0 00.22-.53H181z" fill="#C7C9C9"/>
        <path d="M176.8 241.84a1.767 1.767 0 01-1.52-.87 1.82 1.82 0 01-.23-.88v-3.47a1.736 1.736 0 01.51-1.24 1.668 1.668 0 011.24-.51h3.47a1.77 1.77 0 011.74 1.74v3.48a1.736 1.736 0 01-1.079 1.619 1.736 1.736 0 01-.671.131h-3.46zm.25-4.97v3h3v-3h-3z" fill="#414141"/>
        <path d="M172.75 240.1v-3.48a.76.76 0 00-.75-.74h-3.47a.754.754 0 00-.527.216.755.755 0 00-.223.524v3.48a.676.676 0 00.09.37.752.752 0 00.65.37H172a.749.749 0 00.693-.454.741.741 0 00.057-.286z" fill="#C7C9C9"/>
        <path d="M168.53 241.84a1.758 1.758 0 01-1.75-1.74v-3.48c0-.461.183-.904.51-1.23.326-.327.769-.51 1.23-.51H172a1.762 1.762 0 011.74 1.74v3.48c0 .461-.183.904-.51 1.23-.326.327-.769.51-1.23.51h-3.47zm.25-5v3h3v-3h-3z" fill="#414141"/>
        <path d="M177.22 235.88h-5.65v4.96h5.65v-4.96z" fill="#fff"/>
        <path d="M178.22 241.84h-7.65v-7h7.65v7zm-5.65-2h3.65v-3h-3.65v3z" fill="#414141"/>
        <path d="M245.53 159.78l2.47-2.46a.761.761 0 000-1l-2.46-2.46a.73.73 0 00-.52-.22.71.71 0 00-.53.22l-2.49 2.4a.8.8 0 00-.2.34.768.768 0 00.19.72l2.46 2.46c.141.141.331.22.53.22a.722.722 0 00.55-.22z" fill="#C7C9C9"/>
        <path d="M245 161a1.777 1.777 0 01-1.23-.51l-2.45-2.49a1.75 1.75 0 01-.45-1.68c.081-.297.236-.569.45-.79l2.46-2.45a1.536 1.536 0 011.24-.51 1.722 1.722 0 011.23.52l2.45 2.45a1.77 1.77 0 010 2.47l-2.46 2.46a1.73 1.73 0 01-1.24.53zm-2.1-4.21l2.1 2.1 2.1-2.09-2.1-2.1-2.1 2.09z" fill="#414141"/>
        <path d="M239.7 153.92l2.46-2.45a.758.758 0 000-1.05l-2.45-2.42a.743.743 0 00-.53-.21.712.712 0 00-.52.21l-2.47 2.46a.752.752 0 000 1.05l2.46 2.46a.733.733 0 00.535.194.743.743 0 00.515-.244z" fill="#C7C9C9"/>
        <path d="M239.18 155.14a1.728 1.728 0 01-1.23-.51l-2.46-2.46a1.732 1.732 0 01-.384-1.905c.089-.212.22-.404.384-.565l2.46-2.45a1.846 1.846 0 011.23-.51 1.736 1.736 0 011.24.51l2.45 2.46a1.778 1.778 0 010 2.47l-2.46 2.45a1.737 1.737 0 01-1.23.51zm-2.1-4.2l2.1 2.1 2.1-2.1-2.1-2.1-2.1 2.1z" fill="#414141"/>
        <path d="M245.014 154.277l-3.331-3.344a1 1 0 00-1.414-.003l-1.127 1.122a1.001 1.001 0 00-.002 1.415l3.331 3.343a.999.999 0 001.414.003l1.126-1.122a.999.999 0 00.003-1.414z" fill="#fff"/>
        <path d="M243.2 158.1a1.996 1.996 0 01-1.41-.59l-3.33-3.34a2.005 2.005 0 01-.434-2.181c.101-.243.248-.463.434-.649l1.13-1.12a1.996 1.996 0 012.83 0l3.33 3.35a2.005 2.005 0 01.434 2.181 2.005 2.005 0 01-.434.649l-1.12 1.12a1.978 1.978 0 01-.657.433c-.245.1-.508.15-.773.147zm-2.2-6.47l-1.13 1.12 3.34 3.35 1.12-1.12-3.33-3.35z" fill="#414141"/>
        <path d="M148 159.78l-2.46-2.46a.752.752 0 010-1l2.46-2.46a.73.73 0 01.52-.22.71.71 0 01.53.22l2.46 2.45a.8.8 0 01.2.34.768.768 0 01-.19.72l-2.52 2.41a.749.749 0 01-.53.22.73.73 0 01-.47-.22z" fill="#C7C9C9"/>
        <path d="M148.48 161a1.728 1.728 0 01-1.23-.51l-2.46-2.49a1.77 1.77 0 010-2.46l2.46-2.47c.326-.326.769-.51 1.23-.51.462.01.904.192 1.24.51l2.46 2.46a1.739 1.739 0 01.45 1.678 1.767 1.767 0 01-.44.782l-2.46 2.47a1.73 1.73 0 01-1.25.54zm-2.1-4.2l2.1 2.09 2.1-2.1-2.1-2.09-2.1 2.1z" fill="#414141"/>
        <path d="M153.79 153.92l-2.46-2.45a.758.758 0 010-1.05l2.45-2.47a.769.769 0 011.06 0l2.46 2.46a.752.752 0 010 1.05l-2.46 2.46a.745.745 0 01-1.05 0z" fill="#C7C9C9"/>
        <path d="M154.32 155.14a1.736 1.736 0 01-1.24-.51l-2.46-2.45a1.778 1.778 0 010-2.47l2.46-2.46a1.74 1.74 0 012.46 0l2.46 2.45a1.732 1.732 0 01.384 1.905c-.089.212-.22.404-.384.565l-2.46 2.46a1.722 1.722 0 01-1.23.51h.01zm-2.1-4.2l2.1 2.1 2.09-2.1-2.1-2.1-2.09 2.1z" fill="#414141"/>
        <path d="M151.005 156.813l3.331-3.344a1 1 0 00-.002-1.414l-1.127-1.122a1 1 0 00-1.414.002l-3.331 3.344a1 1 0 00.003 1.415l1.126 1.122a1 1 0 001.414-.003z" fill="#fff"/>
        <path d="M150.29 158.1a2.002 2.002 0 01-1.41-.58l-1.12-1.12a2.005 2.005 0 01-.434-2.181c.101-.243.248-.463.434-.649l3.33-3.35a2.005 2.005 0 012.181-.434c.243.101.463.248.649.434l1.13 1.12a2.005 2.005 0 01.434 2.181 2.005 2.005 0 01-.434.649l-3.33 3.34a1.995 1.995 0 01-1.43.59zm2.21-6.47l-3.33 3.37 1.12 1.12 3.34-3.35-1.13-1.14z" fill="#414141"/>
    </g>
    <defs>
        <clipPath id="clip0">
            <path fill="#fff" d="M0 0h394.89v376.17H0z"/>
        </clipPath>
    </defs>
</svg>
