<svg width="31" height="30" viewBox="0 0 31 30" fill="none" xmlns="http://www.w3.org/2000/svg">
<g clip-path="url(#clip0)">
<path d="M15.25 30C23.6723 30 30.5 23.2843 30.5 15C30.5 6.71573 23.6723 0 15.25 0C6.82766 0 0 6.71573 0 15C0 23.2843 6.82766 30 15.25 30Z" fill="#FFC403"/>
<path d="M15.22 18.74C14.8221 18.74 14.4406 18.582 14.1593 18.3007C13.878 18.0193 13.72 17.6378 13.72 17.24V6.48999C13.72 6.29301 13.7588 6.09795 13.8342 5.91597C13.9095 5.73398 14.02 5.56862 14.1593 5.42933C14.2986 5.29004 14.464 5.17955 14.6459 5.10417C14.8279 5.02879 15.023 4.98999 15.22 4.98999C15.417 4.98999 15.612 5.02879 15.794 5.10417C15.976 5.17955 16.1413 5.29004 16.2806 5.42933C16.4199 5.56862 16.5304 5.73398 16.6058 5.91597C16.6812 6.09795 16.72 6.29301 16.72 6.48999V17.24C16.72 17.6378 16.5619 18.0193 16.2806 18.3007C15.9993 18.582 15.6178 18.74 15.22 18.74Z" fill="#424242"/>
<path d="M15.23 24.3C16.0639 24.3 16.74 23.6239 16.74 22.79C16.74 21.956 16.0639 21.28 15.23 21.28C14.396 21.28 13.72 21.956 13.72 22.79C13.72 23.6239 14.396 24.3 15.23 24.3Z" fill="#424242"/>
</g>
<defs>
<clipPath id="clip0">
<rect width="30.51" height="30" fill="white"/>
</clipPath>
</defs>
</svg>
