<svg id="Layer_1" xmlns="http://www.w3.org/2000/svg" viewBox="0 0 61 43">
    <path d="M36.9 11.1h-6.6c-.3 0-.6-.1-.8-.2-3.1-2.1-6.9-3.3-10.9-3.3-4.3 0-8.2 1.3-11.4 3.6l-.1.1c-.2.2-.3.4-.3.7v4.4c0 .5.4.9.9.9h1.9c.1 0 .3.1.3.1l1.5 1.5c.1.1.3.2.5.2h3c.2 0 .4-.1.5-.2l1.5-1.5c.1-.1.2-.1.3-.1h19.5c.5 0 .9-.4.9-.9V12c.2-.5-.2-.9-.7-.9z" fill="#ffdf24"/>
    <path d="M18.6 8.6c3.7 0 7.3 1.1 10.3 3.1.4.3.9.4 1.3.4h6.6v4.3H17.3c-.4 0-.8.2-1.1.4l-1.4 1.4H12l-1.4-1.4c-.3-.3-.7-.4-1.1-.4H7.7v-4.3c3.3-2.3 7-3.5 10.9-3.5m0-1c-4.3 0-8.2 1.3-11.4 3.6l-.1.1c-.2.2-.3.4-.3.7v4.4c0 .5.4.9.9.9h1.9c.1 0 .3.1.3.1l1.5 1.5c.1.1.3.2.5.2h3c.2 0 .4-.1.5-.2l1.5-1.5c.1-.1.2-.1.3-.1h19.5c.5 0 .9-.4.9-.9V12c0-.5-.4-.9-.9-.9h-6.6c-.3 0-.6-.1-.8-.2-2.9-2.1-6.7-3.3-10.7-3.3z" fill="#ffb012"/>
    <path d="M43.3 26.1h-26c-.1 0-.3.1-.4.1l-1.5 1.5c-.1.2-.2.3-.4.3h-3c-.2 0-.4-.1-.5-.2L10 26.3c-.1-.1-.2-.1-.3-.1h-2c-.5 0-.9.4-.9.9V34c0 .5.4.9.9.9h1.9c.1 0 .3.1.3.1l1.5 1.5c.1.1.3.2.5.2h3c.2 0 .4-.1.5-.2l1.5-1.5c.1-.1.2-.1.3-.1h25.9c.5 0 .9-.4.9-.9v-6.9c.2-.5-.2-1-.7-1z" fill="#82d5ef"/>
    <path d="M43.2 27.1v6.8H17.3c-.4 0-.8.2-1.1.4l-1.4 1.4H12l-1.4-1.4c-.3-.3-.7-.4-1.1-.4H7.7v-6.8h1.7l1.3 1.3c.3.3.8.5 1.2.5h3c.4 0 .9-.2 1.2-.5l1.3-1.3h25.8m.1-1h-26c-.1 0-.3.1-.3.1l-1.5 1.5c-.2.2-.3.3-.5.3h-3c-.2 0-.4-.1-.5-.2L10 26.3c-.1-.1-.2-.1-.3-.1h-2c-.5 0-.9.4-.9.9V34c0 .5.4.9.9.9h1.9c.1 0 .3.1.3.1l1.5 1.5c.1.1.3.2.5.2h3c.2 0 .4-.1.5-.2l1.5-1.5c.1-.1.2-.1.3-.1h25.9c.5 0 .9-.4.9-.9v-6.9c.2-.5-.2-1-.7-1z" fill="#2ab7d8"/>
    <path d="M55.7 17.4H17.3c-.1 0-.3.1-.4.1L15.5 19c-.1.1-.3.2-.5.2h-3c-.2 0-.4-.1-.5-.2L10 17.5c-.1-.1-.2-.1-.3-.1h-2c-.5 0-.9.4-.9.9v6.9c0 .5.4.9.9.9h1.9c.1 0 .3.1.3.1l1.5 1.5c.1.1.3.2.5.2h3c.2 0 .4-.1.5-.2l1.5-1.5c.1-.1.2-.1.3-.1h38.4c.5 0 .9-.4.9-.9v-6.9c.2-.5-.3-.9-.8-.9z" fill="#f382c4"/>
    <path d="M55.7 18.4v6.8H17.3c-.4 0-.8.2-1.1.4L14.9 27h-2.8l-1.4-1.4c-.3-.3-.7-.4-1.1-.4H7.7v-6.8h1.7l1.3 1.3c.3.3.8.5 1.2.5h3c.4 0 .9-.2 1.2-.5l1.3-1.3h38.3m0-1H17.3c-.1 0-.3.1-.3.1L15.5 19c-.1.1-.3.2-.5.2h-3c-.2 0-.4-.1-.5-.2L10 17.5c-.1-.1-.2-.1-.3-.1h-2c-.5 0-.9.4-.9.9v6.9c0 .5.4.9.9.9h1.9c.1 0 .3.1.3.1l1.5 1.5c.1.1.3.2.5.2h3c.2 0 .4-.1.5-.2l1.5-1.5c.1-.1.2-.1.3-.1h38.4c.5 0 .9-.4.9-.9v-6.9c.2-.5-.3-.9-.8-.9z" fill="#ef43ad"/>
    <path d="M18.6 7.6c4 0 7.8 1.2 10.9 3.3.2.2.5.2.8.2h6.6c.5 0 .9.4.9.9v4.4c0 .5-.4.9-.9.9h18.8c.5 0 .9.4.9.9v6.9c0 .5-.4.9-.9.9H43.3c.5 0 .9.4.9.9V34c0 .5-.4.9-.9.9h-26c-.1 0-.3.1-.3.1l-1.5 1.5c-.1.1-.3.2-.5.2h-3c-.2 0-.4-.1-.5-.2L10 35.1c-.1-.1-.2-.1-.3-.1h-2c-.5 0-.9-.4-.9-.9v-6.9c0-.5.4-.9.9-.9-.5 0-.9-.4-.9-.9v-6.9c0-.5.4-.9.9-.9-.5 0-.9-.4-.9-.9V12c0-.3.1-.5.3-.7l.1-.1c3.2-2.3 7.2-3.6 11.4-3.6M15 19.2c.2 0 .4-.1.5-.2-.2.1-.3.2-.5.2m0 8.8c.2 0 .4-.1.5-.2-.2.1-.3.2-.5.2m3.6-22.4C14.1 5.6 9.7 7 6 9.6l-.1.1h-.2c-.7.6-1 1.4-1 2.2v4.4c0 .3.1.6.2.9-.1.3-.2.6-.2.9V25c0 .3.1.6.2.9-.1.3-.2.6-.2.9V34c0 1.6 1.3 2.9 2.9 2.9H9l1 1c.5.5 1.2.8 1.9.8h3c.7 0 1.4-.3 1.9-.8l1.1-1.1h25.3c1.6 0 2.9-1.3 2.9-2.9v-5.8h9.5c1.6 0 2.9-1.3 2.9-2.9v-6.9c0-1.6-1.3-2.9-2.9-2.9H39.8V12c0-1.6-1.3-2.9-2.9-2.9h-6.4c-3.6-2.3-7.7-3.5-11.9-3.5z" fill="#333"/>
    <path fill="#fff" d="M48.2 23.7H29.1c-1.1 0-2-.9-2-2s.9-2 2-2h19.1c1.1 0 2 .9 2 2s-.9 2-2 2zM23.5 32.4h-1.4c-1.1 0-2-.9-2-2s.9-2 2-2h1.4c1.1 0 2 .9 2 2 0 1.2-.9 2-2 2z"/>
</svg>
