<svg id="Layer_1" xmlns="http://www.w3.org/2000/svg" viewBox="0 0 61 43">
    <path d="M14.3 34.4H5.2c-2 0-3.7-1.7-3.7-3.7V16.8c0-2 1.7-3.7 3.7-3.7h9.1c2 0 3.7 1.7 3.7 3.7v13.9c0 2.1-1.7 3.7-3.7 3.7z" fill="#56c2f1"/>
    <path fill="#333" d="M14.3 35.4H5.2c-2.6 0-4.7-2.1-4.7-4.7V16.8c0-2.6 2.1-4.7 4.7-4.7h9.1c2.6 0 4.7 2.1 4.7 4.7v13.9c0 2.6-2.1 4.7-4.7 4.7zM5.2 14.1c-1.5 0-2.7 1.2-2.7 2.7v13.9c0 1.5 1.2 2.7 2.7 2.7h9.1c1.5 0 2.7-1.2 2.7-2.7V16.8c0-1.5-1.2-2.7-2.7-2.7H5.2z"/>
    <path d="M35.1 38.4H26c-2 0-3.7-1.7-3.7-3.7V20.8c0-2 1.7-3.7 3.7-3.7h9.1c2 0 3.7 1.7 3.7 3.7v13.9c0 2-1.6 3.7-3.7 3.7z" fill="#87d98c"/>
    <path fill="#333" d="M35.1 39.4H26c-2.6 0-4.7-2.1-4.7-4.7V20.8c0-2.6 2.1-4.7 4.7-4.7h9.1c2.6 0 4.7 2.1 4.7 4.7v13.9c0 2.6-2.1 4.7-4.7 4.7zM26 18.1c-1.5 0-2.7 1.2-2.7 2.7v13.9c0 1.5 1.2 2.7 2.7 2.7h9.1c1.5 0 2.7-1.2 2.7-2.7V20.8c0-1.5-1.2-2.7-2.7-2.7H26z"/>
    <path d="M55.6 27.9h-9.1c-2 0-3.7-1.7-3.7-3.7V10.3c0-2 1.7-3.7 3.7-3.7h9.1c2 0 3.7 1.7 3.7 3.7v13.9c0 2-1.6 3.7-3.7 3.7z" fill="#f382c4"/>
    <path fill="#333" d="M55.6 28.9h-9.1c-2.6 0-4.7-2.1-4.7-4.7V10.3c0-2.6 2.1-4.7 4.7-4.7h9.1c2.6 0 4.7 2.1 4.7 4.7v13.9c0 2.6-2.1 4.7-4.7 4.7zM46.5 7.6c-1.5 0-2.7 1.2-2.7 2.7v13.9c0 1.5 1.2 2.7 2.7 2.7h9.1c1.5 0 2.7-1.2 2.7-2.7V10.3c0-1.5-1.2-2.7-2.7-2.7h-9.1z"/>
    <path fill="#333" d="M38.8 28.7c-.2 0-.3 0-.5-.1-.5-.3-.7-.9-.4-1.3l4-7.9c.3-.5.9-.7 1.3-.4.5.3.7.9.4 1.3l-4 7.9c-.1.3-.4.5-.8.5zM22.3 28.7c-.1 0-.3 0-.4-.1l-4.4-1.9c-.5-.2-.7-.8-.5-1.3.2-.5.8-.7 1.3-.5l4.4 1.9c.5.2.7.8.5 1.3-.1.4-.5.6-.9.6z"/>
</svg>
