<svg id="Layer_1" xmlns="http://www.w3.org/2000/svg" viewBox="0 0 61 43">
    <style>
        .st1{fill:#fff}
    </style>
    <path d="M43.6 37.1H17.4c-1.9 0-3.5-1.6-3.5-3.5V9.4c0-1.9 1.6-3.5 3.5-3.5h26.2c1.9 0 3.5 1.6 3.5 3.5v24.1c0 2-1.6 3.6-3.5 3.6z" fill="#333"/>
    <path class="st1" d="M40.4 17.5H28.8c-.6 0-1-.4-1-1s.4-1 1-1h11.6c.6 0 1 .4 1 1s-.5 1-1 1zM41.6 27.5H19.4c-.6 0-1-.4-1-1s.4-1 1-1h22.1c.6 0 1 .4 1 1s-.4 1-.9 1z"/>
    <path d="M25.1 17.5h-5.7c-.6 0-1-.4-1-1s.4-1 1-1h5.7c.6 0 1 .4 1 1s-.4 1-1 1z" fill="#87d98c"/>
    <path class="st1" d="M33.6 22.5h-4c-.6 0-1-.4-1-1s.4-1 1-1h4c.6 0 1 .4 1 1s-.5 1-1 1z"/>
    <path d="M26.1 22.5h-6.7c-.6 0-1-.4-1-1s.4-1 1-1h6.7c.6 0 1 .4 1 1s-.4 1-1 1z" fill="#f382c4"/>
    <path class="st1" d="M39.4 32.4h-20c-.6 0-1-.4-1-1s.4-1 1-1h19.9c.6 0 1 .4 1 1s-.4 1-.9 1zM38.8 12.6H31c-.6 0-1-.4-1-1s.4-1 1-1h7.8c.6 0 1 .4 1 1s-.5 1-1 1z"/>
    <path d="M27.6 12.6h-8.2c-.6 0-1-.4-1-1s.4-1 1-1h8.2c.6 0 1 .4 1 1s-.4 1-1 1z" fill="#54b9e5"/>
</svg>
