<svg xmlns="http://www.w3.org/2000/svg" viewBox="0 0 61 43">
    <path d="M43.6 5.9H17.4c-1.9 0-3.5 1.6-3.5 3.5v24.2c0 1.9 1.6 3.5 3.5 3.5h26.2c1.9 0 3.5-1.6 3.5-3.6V9.4c0-1.9-1.6-3.5-3.5-3.5zM31 10.6h7.8c.6 0 1 .4 1 1s-.5 1-1 1H31c-.6 0-1-.4-1-1s.4-1 1-1zm9.4 4.9c.6 0 1 .4 1 1s-.5 1-1 1H28.8c-.6 0-1-.4-1-1s.4-1 1-1h11.6zm-5.8 6c0 .6-.5 1-1 1h-4c-.6 0-1-.4-1-1s.4-1 1-1h4c.6 0 1 .4 1 1zM19.4 10.6h8.2c.6 0 1 .4 1 1s-.4 1-1 1h-8.2c-.6 0-1-.4-1-1s.4-1 1-1zm0 4.9h5.7c.6 0 1 .4 1 1s-.4 1-1 1h-5.7c-.6 0-1-.4-1-1s.4-1 1-1zm0 5h6.7c.6 0 1 .4 1 1s-.4 1-1 1h-6.7c-.6 0-1-.4-1-1s.4-1 1-1zm20 11.9h-20c-.6 0-1-.4-1-1s.4-1 1-1h19.9c.6 0 1 .4 1 1s-.4 1-.9 1zm2.2-4.9H19.4c-.6 0-1-.4-1-1s.4-1 1-1h22.1c.6 0 1 .4 1 1s-.4 1-.9 1z" fill="#fff"/>
</svg>
