<svg width="68" height="67" fill="none" xmlns="http://www.w3.org/2000/svg">
    <path d="M58.596 0H9.404C4.21 0 0 4.149 0 9.266v48.468C0 62.85 4.21 67 9.404 67h49.192C63.79 67 68 62.851 68 57.734V9.266C68 4.15 63.79 0 58.596 0z" fill="#6BBC40"/>
    <path d="M53.42 18.318h-9.077a6.191 6.191 0 00-3.013.777 6.24 6.24 0 00-3.019-.777H29.69a6.24 6.24 0 00-3.02.777 6.192 6.192 0 00-3.012-.777H14.58c-1.511 0-2.96.591-4.03 1.644a5.573 5.573 0 00-1.668 3.97v19.136c0 1.489.6 2.917 1.669 3.97a5.742 5.742 0 004.03 1.644h9.52a5.726 5.726 0 002.563-.61c.794.4 1.672.609 2.563.61h9.534a5.726 5.726 0 002.564-.61c.794.4 1.672.609 2.563.61h9.52c1.512 0 2.96-.591 4.03-1.644a5.573 5.573 0 001.669-3.97V23.932a5.573 5.573 0 00-1.665-3.965 5.742 5.742 0 00-4.02-1.65z" fill="#fff"/>
    <path d="M38.76 46.23h-9.52a3.213 3.213 0 01-2.255-.92 3.12 3.12 0 01-.934-2.222V24.375a3.52 3.52 0 01.273-1.377 3.603 3.603 0 011.969-1.951 3.693 3.693 0 011.396-.277h8.622c.966 0 1.892.378 2.575 1.05a3.565 3.565 0 011.07 2.535v18.692a3.1 3.1 0 01-.232 1.217 3.14 3.14 0 01-.69 1.034 3.193 3.193 0 01-1.042.691c-.39.16-.81.242-1.232.241zm-9.071-24.207c-.634 0-1.242.247-1.69.688a2.341 2.341 0 00-.704 1.664v18.693c.002.507.208.992.572 1.35a1.96 1.96 0 001.373.56h9.52a1.96 1.96 0 001.368-.562 1.9 1.9 0 00.57-1.348V24.375a2.341 2.341 0 00-.703-1.664 2.412 2.412 0 00-1.69-.688h-8.616z" fill="#424242"/>
    <path d="M24.106 46.23h-9.52a3.22 3.22 0 01-2.258-.92 3.126 3.126 0 01-.938-2.222V23.932c-.002-.414.08-.824.239-1.207.16-.383.394-.732.69-1.026a3.237 3.237 0 012.26-.93h9.078a3.674 3.674 0 012.57 1.053 3.565 3.565 0 011.068 2.533v18.692a3.1 3.1 0 01-.23 1.215 3.138 3.138 0 01-.69 1.033 3.228 3.228 0 01-2.27.934zm-9.52-24.187a1.96 1.96 0 00-1.368.561 1.902 1.902 0 00-.57 1.349v19.115c.002.506.207.99.57 1.348.363.358.854.56 1.368.561h9.52a1.96 1.96 0 001.368-.561c.363-.358.568-.842.57-1.348V24.375c0-.624-.252-1.222-.7-1.663a2.405 2.405 0 00-1.687-.69l-9.071.021zM34.054 40.2a.637.637 0 01-.442-.185.619.619 0 01-.183-.438V28.14c0-.163.066-.32.183-.436a.63.63 0 01.885 0 .612.612 0 01.183.436v11.457a.619.619 0 01-.19.425.637.637 0 01-.436.178z" fill="#424242"/>
    <path d="M19.448 40.2a3.426 3.426 0 01-2.404-.981 3.325 3.325 0 01-.996-2.369v-6.03a3.282 3.282 0 01.986-2.345 3.37 3.37 0 011.092-.72 3.411 3.411 0 013.668.72 3.277 3.277 0 01.986 2.345v6.03c0 .877-.349 1.72-.972 2.345a3.425 3.425 0 01-2.36 1.005zm0-11.457c-.56 0-1.096.219-1.493.608-.396.39-.62.918-.622 1.469v6.03a2.07 2.07 0 00.66 1.396 2.132 2.132 0 002.905 0 2.07 2.07 0 00.658-1.396v-6.03c0-.55-.222-1.08-.617-1.469a2.124 2.124 0 00-1.491-.608zm33.98 17.487h-9.52a3.213 3.213 0 01-2.255-.92 3.12 3.12 0 01-.935-2.222V24.375a3.564 3.564 0 011.056-2.541 3.672 3.672 0 012.569-1.064h9.085a3.22 3.22 0 012.253.922c.597.59.934 1.387.936 2.22v19.156c.002.414-.08.824-.239 1.207-.16.383-.394.732-.69 1.026a3.2 3.2 0 01-1.036.686 3.23 3.23 0 01-1.224.243zm-9.085-24.207c-.633 0-1.24.248-1.688.689a2.335 2.335 0 00-.699 1.663v18.693c.002.506.207.99.57 1.348.363.358.855.56 1.368.561h9.52a1.953 1.953 0 001.366-.561c.362-.358.565-.843.565-1.348V23.932c0-.505-.203-.99-.565-1.347a1.953 1.953 0 00-1.366-.562h-9.071z" fill="#424242"/>
    <path d="M48.66 30.418a3.395 3.395 0 01-1.865-.558 3.32 3.32 0 01-1.238-1.485 3.264 3.264 0 01-.19-1.913 3.287 3.287 0 01.919-1.694 3.375 3.375 0 011.72-.906 3.406 3.406 0 011.94.188 3.35 3.35 0 011.508 1.22c.369.544.566 1.184.566 1.838a3.292 3.292 0 01-.986 2.339 3.39 3.39 0 01-2.373.971zm0-5.36a2.13 2.13 0 00-1.172.347 2.084 2.084 0 00-.78.93 2.048 2.048 0 00.453 2.266 2.137 2.137 0 002.298.453c.386-.156.715-.423.947-.764.232-.342.356-.744.356-1.155a2.05 2.05 0 00-.605-1.484 2.135 2.135 0 00-1.496-.62v.027zm2.734-1.42a.64.64 0 01-.447-.183.622.622 0 01-.185-.44 2.02 2.02 0 00-.245-.972.616.616 0 01.248-.848.642.642 0 01.86.245 3.25 3.25 0 01.395 1.554.616.616 0 01-.38.592.643.643 0 01-.246.052zm-5.474 0a.637.637 0 01-.442-.185.619.619 0 01-.183-.438 3.31 3.31 0 01.38-1.528.636.636 0 01.847-.265.61.61 0 01.269.834c-.16.295-.24.625-.238.959a.616.616 0 01-.39.575.641.641 0 01-.243.048z" fill="#424242"/>
    <path d="M45.92 27.725a.63.63 0 01-.442-.18.612.612 0 01-.183-.437v-4.093a.62.62 0 01.205-.399.638.638 0 01.847 0 .62.62 0 01.206.399v4.093a.619.619 0 01-.188.436.637.637 0 01-.445.18zm1.102 18.505a.606.606 0 01-.279-.067.62.62 0 01-.312-.355.608.608 0 01.033-.47l3.91-7.71H45.92a.636.636 0 01-.404-.203.618.618 0 010-.835.636.636 0 01.404-.202h5.44a.64.64 0 01.53.297.618.618 0 01.028.6L47.6 45.868a.612.612 0 01-.578.362z" fill="#424242"/>
</svg>
