<svg width="68" height="67" fill="none" xmlns="http://www.w3.org/2000/svg">
    <g clip-path="url(#clip0)">
        <path d="M56.324 0H11.676C5.227 0 0 5.15 0 11.504v43.992C0 61.85 5.227 67 11.676 67h44.648C62.773 67 68 61.85 68 55.496V11.504C68 5.15 62.773 0 56.324 0z" fill="#F181C2"/>
        <path d="M74.691 58.29l-17.72-17.46V22.485c0-1.568-.783-3.129-2.333-4.623l-4.08-3.98a5.849 5.849 0 00-1.095-1.065l-.115-.087a5.948 5.948 0 00-3.462-1.112H17.224a5.975 5.975 0 00-4.188 1.713 5.8 5.8 0 00-1.734 4.13V45.7a5.734 5.734 0 00.457 2.251c.302.713.745 1.36 1.304 1.903l4.794 4.69c1.251 1.065 2.536 2.01 4.508 2.01H45.33l15.551 15.33a.639.639 0 00.822-.056.619.619 0 00.07-.809L73.8 59.168a.639.639 0 00.853-.038.619.619 0 00.038-.84z" fill="#fff"/>
        <path d="M59.493 39.805v-17.32c0-2.264-1.013-4.395-3.053-6.405l-3.978-3.866a8.628 8.628 0 00-1.36-1.34c-.116-.094-.224-.167-.32-.234a8.47 8.47 0 00-4.875-1.535H17.224a8.562 8.562 0 00-3.238.639 8.46 8.46 0 00-2.744 1.812 8.32 8.32 0 00-1.828 2.71 8.221 8.221 0 00-.635 3.194V45.7a8.186 8.186 0 002.434 5.836l.095.1 4.801 4.69.123.115c1.489 1.273 3.318 2.626 6.154 2.626h21.896L52.36 67h3.971a11.764 11.764 0 008.252-3.372A11.419 11.419 0 0068 55.496v-7.31l-8.507-8.381z" fill="#fff"/>
        <path d="M54.196 18.304l-5.182-5.051v5.708H24.038a5.33 5.33 0 00-3.74 1.527 5.174 5.174 0 00-1.55 3.686V48.2l-5.223 1.233 4.76 4.643c1.36 1.145 2.448 1.869 4.08 1.869h23.093l10.88-10.439v-23.02c.007-1.716-1.102-3.177-2.142-4.182z" fill="#CACACA"/>
        <path d="M45.458 56.568H22.386c-1.972 0-3.258-.958-4.509-2.01l-4.76-4.69a.614.614 0 01-.164-.604.615.615 0 01.457-.434l4.76-1.12V24.175a5.8 5.8 0 011.736-4.125 5.975 5.975 0 014.186-1.711h24.344v-5.085a.617.617 0 01.389-.572.64.64 0 01.686.13l5.181 5.051c1.55 1.494 2.333 3.049 2.333 4.623v23.021a.665.665 0 01-.19.45l-10.88 10.438a.642.642 0 01-.497.174zM14.77 49.774l3.964 3.86c1.312 1.112 2.244 1.695 3.652 1.695H45.2l10.512-10.05v-22.78c0-1.226-.68-2.486-1.958-3.739l-4.08-4.02v4.221c0 .164-.066.32-.183.436a.63.63 0 01-.443.18h-25.01a4.707 4.707 0 00-3.297 1.349 4.569 4.569 0 00-1.368 3.248V48.2c0 .14-.047.275-.134.384a.627.627 0 01-.349.219l-4.12.971z" fill="#424242"/>
        <path d="M51.177 40.481v-23.02c0-.686-.136-1.364-.401-1.998a5.208 5.208 0 00-1.146-1.693 5.298 5.298 0 00-1.718-1.132 5.36 5.36 0 00-2.026-.397H17.224c-1.405 0-2.752.55-3.745 1.529a5.18 5.18 0 00-1.552 3.69V45.7a5.173 5.173 0 001.55 3.693c.492.485 1.076.87 1.72 1.132a5.358 5.358 0 002.027.395H40.29" fill="#EAEAEA"/>
        <path d="M40.29 51.536H17.224a5.975 5.975 0 01-4.186-1.71 5.8 5.8 0 01-1.736-4.125V17.46c0-1.548.624-3.033 1.734-4.127a5.968 5.968 0 014.188-1.71h28.662a5.975 5.975 0 014.186 1.712 5.799 5.799 0 011.737 4.124V40.48h-1.258V17.46a4.562 4.562 0 00-1.366-3.25 4.7 4.7 0 00-3.299-1.347H17.224a4.7 4.7 0 00-3.298 1.346 4.562 4.562 0 00-1.366 3.25V45.7c0 1.22.491 2.389 1.366 3.25a4.7 4.7 0 003.298 1.347H40.29v1.24z" fill="#424242"/>
        <path d="M68 55.496v-2.921L46.172 31.068a9.205 9.205 0 00-6.46-2.637 9.205 9.205 0 00-6.46 2.637 8.935 8.935 0 00-2.676 6.365c0 2.387.963 4.677 2.676 6.365L56.78 67a11.755 11.755 0 007.963-3.524A11.415 11.415 0 0068 55.496z" fill="#E6D3C8"/>
        <path d="M36.135 41.024a5.028 5.028 0 01-1.118-1.667 4.968 4.968 0 01.063-3.917 5.032 5.032 0 011.17-1.632 5.283 5.283 0 013.689-1.316 5.271 5.271 0 013.581 1.578l4.76 4.69a1.283 1.283 0 010 1.822l-5.358 5.28a1.33 1.33 0 01-1.857 0l-4.93-4.838z" fill="#DBC1B4"/>
        <path d="M42.004 46.9a1.949 1.949 0 01-1.36-.563l-4.937-4.864a5.633 5.633 0 01-1.26-1.87 5.57 5.57 0 01.067-4.398 5.642 5.642 0 011.315-1.832 5.934 5.934 0 014.135-1.488c1.522.05 2.965.68 4.025 1.756l4.76 4.69a1.894 1.894 0 010 2.68l-5.358 5.273a1.91 1.91 0 01-1.387.616zM39.67 33.118a4.395 4.395 0 00-2.992 1.146c-.436.403-.785.89-1.027 1.428a4.34 4.34 0 00.932 4.89l4.937 4.864a.682.682 0 00.744.147.684.684 0 00.221-.147l5.352-5.246a.669.669 0 00.149-.733.669.669 0 00-.15-.218l-4.76-4.69a4.762 4.762 0 00-1.554-1.06 4.822 4.822 0 00-1.852-.38zM50.374 55.61a.64.64 0 01-.558-.34.615.615 0 01.048-.645 38.366 38.366 0 017.344-7.236.64.64 0 01.884.127.612.612 0 01-.129.865 37.802 37.802 0 00-7.079 6.974.617.617 0 01-.51.255zm3.271 3.216a.64.64 0 01-.566-.355.615.615 0 01.077-.657 55.35 55.35 0 017.31-7.196.627.627 0 01.697-.057.616.616 0 01.078 1.029 56.567 56.567 0 00-7.113 7.008.596.596 0 01-.483.228zM16.143 29.48a.688.688 0 01-.251-.054.626.626 0 01-.337-.341.61.61 0 01.01-.476l5.393-12.06a.641.641 0 01.81-.278.628.628 0 01.326.32.62.62 0 01.02.454l-5.393 12.06a.673.673 0 01-.578.375z" fill="#424242"/>
        <path d="M26.928 29.48a.64.64 0 01-.578-.369l-5.392-12.06a.61.61 0 01.32-.817.64.64 0 01.481-.008.63.63 0 01.348.33l5.392 12.06a.608.608 0 01-.299.817.688.688 0 01-.272.047z" fill="#424242"/>
        <path d="M24.847 25.902h-7.099a.643.643 0 01-.489-.157.625.625 0 01-.209-.463.615.615 0 01.21-.462.635.635 0 01.488-.157h7.1a.639.639 0 01.404.202.618.618 0 010 .835.636.636 0 01-.405.202zm20.876 5.588L68 53.453v-1.756L46.614 30.626a9.762 9.762 0 00-3.17-2.233 9.886 9.886 0 00-7.633-.137 9.776 9.776 0 00-3.25 2.117 9.611 9.611 0 00-2.15 3.201 9.496 9.496 0 00.134 7.522 9.626 9.626 0 002.265 3.124L55.93 67h.408c.432 0 .863-.025 1.292-.074L33.7 43.356a8.36 8.36 0 01-1.847-2.718 8.262 8.262 0 010-6.417 8.361 8.361 0 011.848-2.718 8.578 8.578 0 016.008-2.454 8.578 8.578 0 016.014 2.441z" fill="#424242"/>
    </g>
    <defs>
        <clipPath id="clip0">
            <path fill="#fff" d="M0 0h68v67H0z"/>
        </clipPath>
    </defs>
</svg>
