<svg width="68" height="68" fill="none" xmlns="http://www.w3.org/2000/svg">
    <path d="M58.596 0H9.404A9.404 9.404 0 000 9.404v49.192A9.404 9.404 0 009.404 68h49.192A9.404 9.404 0 0068 58.596V9.404A9.404 9.404 0 0058.596 0z" fill="#F181C2"/>
    <path d="M63.05 30.73h-.123a3.128 3.128 0 00-.047-4.38 3.196 3.196 0 00-2.625-.89 26.724 26.724 0 00-3.087-8.283 2.9 2.9 0 00-.45-.585l.395-.564a4.536 4.536 0 00-.496-5.828l-2.285-2.305a4.542 4.542 0 00-5.841-.497l-.551.388a2.9 2.9 0 00-.49-.354A26.751 26.751 0 007.745 25.466a3.128 3.128 0 00-2.672 5.263H4.95a3.135 3.135 0 000 6.27h10.88a3.135 3.135 0 000-6.27h-.122a3.142 3.142 0 00-1.557-5.209 20.476 20.476 0 0128.805-13.382 3.346 3.346 0 00-.252.605l-.136.041a5.441 5.441 0 00-2.618-.68H27.975a5.44 5.44 0 00-5.44 5.44v41.208a5.44 5.44 0 005.44 5.44H39.95a5.44 5.44 0 005.44-5.44V28.948l5.44-5.44c.47-.47.81-1.053.986-1.694a3.67 3.67 0 00.598-.238 20.265 20.265 0 011.435 3.944 3.122 3.122 0 00-1.543 5.202h-.123a3.135 3.135 0 000 6.27h10.88a3.135 3.135 0 100-6.27l-.013.007z" fill="#fff"/>
    <path d="M42.248 22.25H25.67v31.81h16.578V22.25z" fill="#666"/>
    <path d="M42.88 54.686H25.045V21.624h17.837v33.062zm-16.578-1.252h15.32V22.875h-15.32v30.56z" fill="#414141"/>
    <path d="M38.522 39.222v-1.76a8.296 8.296 0 10-9.119 0v1.76a4.562 4.562 0 008.824 1.8 4.563 4.563 0 00.295-1.8z" fill="#595959"/>
    <path d="M34 44.41a5.196 5.196 0 01-5.188-5.188v-1.434a8.922 8.922 0 1110.37 0v1.434A5.189 5.189 0 0134 44.411zm0-21.535a7.664 7.664 0 00-4.216 14.063l.279.183v2.101a3.939 3.939 0 005.478 3.786 3.937 3.937 0 002.39-3.786v-2.1l.278-.184A7.664 7.664 0 0034 22.875z" fill="#414141"/>
    <path d="M42.255 58.752V54.06H25.67v4.692a2.305 2.305 0 002.305 2.305H39.95a2.305 2.305 0 002.305-2.305zm-14.899-1.238a1.7 1.7 0 111.049 1.573 1.693 1.693 0 01-1.049-1.573zm4.91 0a1.7 1.7 0 111.048 1.573 1.693 1.693 0 01-1.048-1.573zm4.903 0a1.7 1.7 0 111.048 1.573 1.693 1.693 0 01-1.048-1.573z" fill="#595959"/>
    <path d="M39.95 61.683H27.975a2.938 2.938 0 01-2.93-2.931v-5.318H42.88v5.318a2.937 2.937 0 01-2.931 2.93zm-13.648-6.997v4.08a1.68 1.68 0 001.673 1.68H39.95a1.68 1.68 0 001.673-1.68v-4.08h-15.32zM38.87 59.84a2.332 2.332 0 110-4.664 2.332 2.332 0 010 4.664zm0-3.4a1.075 1.075 0 10.994.662 1.07 1.07 0 00-.994-.662zM34 59.84a2.332 2.332 0 11-.014-4.663A2.332 2.332 0 0134 59.84zm0-3.4a1.076 1.076 0 10-.17 2.144A1.076 1.076 0 0034 56.44zm-4.91 3.4a2.332 2.332 0 11.866-.169 2.332 2.332 0 01-.9.169h.034zm0-3.4a1.076 1.076 0 10-.17 2.144 1.076 1.076 0 00.17-2.144z" fill="#414141"/>
    <path d="M42.255 17.55a2.305 2.305 0 00-2.305-2.304H27.975a2.305 2.305 0 00-2.305 2.305v4.699h16.585v-4.7zm-14.899 1.245a1.7 1.7 0 113.4 0 1.7 1.7 0 01-3.4 0zm4.91 0a1.7 1.7 0 111.048 1.573 1.693 1.693 0 01-1.048-1.573zm4.903 0a1.7 1.7 0 113.4 0 1.7 1.7 0 01-3.4 0z" fill="#595959"/>
    <path d="M42.88 22.875H25.045v-5.324a2.938 2.938 0 012.931-2.931H39.95a2.937 2.937 0 012.93 2.93v5.325zm-16.578-1.251h15.32v-4.08a1.68 1.68 0 00-1.672-1.68H27.975a1.68 1.68 0 00-1.673 1.68v4.08zm12.567-.503a2.325 2.325 0 11.013-4.651 2.325 2.325 0 01-.013 4.65zm0-3.4a1.074 1.074 0 10.994.662 1.068 1.068 0 00-.994-.662zm-4.903 3.4a2.326 2.326 0 112.326-2.326A2.333 2.333 0 0134 21.121h-.034zm0-3.4a1.074 1.074 0 10.034 0h-.034zm-4.91 3.4a2.326 2.326 0 112.326-2.326 2.333 2.333 0 01-2.326 2.326zm0-3.4a1.074 1.074 0 10-.013 2.148 1.074 1.074 0 00.013-2.148z" fill="#414141"/>
    <path d="M36.523 30.546a2.536 2.536 0 10-5.073 0 2.536 2.536 0 005.073 0zm-3.223 0a.68.68 0 11.68.68.68.68 0 01-.66-.68h-.02z" fill="#EFEFF0"/>
    <path d="M34 33.708a3.162 3.162 0 113.162-3.162A3.169 3.169 0 0134 33.708zm0-5.073a1.912 1.912 0 100 3.823 1.912 1.912 0 000-3.823zm0 3.223a1.312 1.312 0 111.312-1.312A1.319 1.319 0 0134 31.858zm0-1.36l-.054.061c0 .061.108.061.108 0L34 30.498z" fill="#414141"/>
    <path d="M50.32 9.962l-3.556 2.502-.102.11-.64.638a.938.938 0 00-.299.606 1.883 1.883 0 01-1.795 1.836.96.96 0 00-.619.272l-8.473 8.452a1.042 1.042 0 01-.768.306 5.881 5.881 0 00-4.223 1.72c-.068.075-.143.143-.21.225l-.062.068-.136.156-.061.082-.116.156-.06.082-.11.163-.047.075-.109.177-.04.068-.103.19-.034.061c0 .068-.068.13-.095.197v.062l-.088.204v.054l-.082.218v.047c0 .075-.048.15-.075.231 0 .082-.047.164-.061.245 0 .089-.04.17-.054.252l-.041.258v.803a5.875 5.875 0 005.827 5.814h.872l.217-.034h.068l.211-.041h.068l.204-.048h.075c.065-.016.128-.036.19-.061h.089l.177-.061.088-.041.17-.068.095-.048.163-.074.096-.048.156-.088.095-.055.157-.095.095-.061.027-.109.095-.061.15-.116.081-.068.177-.15.048-.04.224-.211a5.876 5.876 0 001.72-4.223 1.047 1.047 0 01.313-.775l8.405-8.425a.904.904 0 00.231-.626 1.89 1.89 0 011.816-1.815 1.05 1.05 0 00.68-.272l.64-.64.08-.17 2.51-3.55a1.414 1.414 0 00-.17-1.815l-2.285-2.291a1.414 1.414 0 00-1.795-.15zM34.83 29.961a1.04 1.04 0 010 1.197 1.026 1.026 0 01-1.66 0 1.04 1.04 0 010-1.197 1.026 1.026 0 011.66 0z" fill="#EAEAEA"/>
    <path d="M34 37.06h-.048A6.5 6.5 0 0127.5 30.6v-.612c0-.102 0-.218.041-.313.04-.095 0-.21.04-.306l.069-.306c0-.129.054-.217.075-.306l.095-.299v-.061l.081-.231.123-.286v-.061c0-.075.068-.15.109-.225l.591.225-.557-.293c0-.068.074-.136.115-.204l.041-.081.122-.197.055-.082.129-.184.061-.088.116-.15.081-.108.15-.177.061-.075c.082-.082.157-.17.238-.245a6.521 6.521 0 014.679-1.904.38.38 0 00.312-.122l8.514-8.385a1.543 1.543 0 011.04-.455 1.265 1.265 0 001.19-1.238 1.53 1.53 0 01.483-1.02l.68-.68c.063-.075.136-.142.218-.197L50 9.432a2.04 2.04 0 012.617.217l2.292 2.292a2.04 2.04 0 01.17 2.638l-2.462 3.489a.864.864 0 01-.197.32l-.639.632a1.632 1.632 0 01-1.088.455 1.272 1.272 0 00-1.21 1.217 1.489 1.489 0 01-.429 1.068l-8.425 8.405a.43.43 0 00-.13.32 6.454 6.454 0 01-2.148 4.902l-.061.055-.19.163-.062.047-.415-.469.36.517-.754.496-.286.157-.21.102h-.062l-.224.095-.102.04-.503.17h-.089l-.21.055h-.089l-.224.048h-.32l-.313.04h-.326L34 37.06zm1.435-1.448l.238.578-.177-.599.177-.054h.068l.163-.061.313.55-.238-.578.156-.068.347.53-.258-.564.142-.074.082-.041.143-.075.401.49-.32-.538.334-.217.054-.041.156-.116.062-.047.176-.143.055-.048.21-.197a5.188 5.188 0 001.53-3.774 1.72 1.72 0 01.504-1.224l8.418-8.452a.381.381 0 00.048-.204 2.523 2.523 0 012.42-2.421.4.4 0 00.245-.088l.572-.572.081-.156 2.51-3.55a.795.795 0 00-.089-1.013L51.68 10.56a.789.789 0 00-1.013-.088l-3.577 2.543-.68.68c-.088.089-.13.157-.13.204a2.523 2.523 0 01-2.386 2.421.313.313 0 00-.204.088l-8.412 8.412a1.7 1.7 0 01-1.196.49H34a5.203 5.203 0 00-3.713 1.536l-.183.198-.53-.347.468.415-.122.142-.544-.32.496.388-.108.136-.565-.258.51.367-.095.136-.571-.265.523.34-.095.156-.578-.251.544.313-.088.163a3.276 3.276 0 00-.116.238c-.04.074-.073.152-.102.231-.034.08-.063.162-.088.245-.041.109-.061.177-.082.245-.02.068-.047.183-.068.251l-.047.252c0 .102-.034.177-.048.258-.014.082 0 .17 0 .245v.517A5.223 5.223 0 0034 35.829h.728l.244-.04.463-.177zM34 32.205a1.645 1.645 0 01-1.672-1.653A1.653 1.653 0 1134 32.198v.007zm0-2.04a.38.38 0 00-.32.163.401.401 0 00.14.58.388.388 0 00.5-.124.401.401 0 000-.456.38.38 0 00-.32-.163zm23.616 1.006a.626.626 0 01-.625-.625 23.004 23.004 0 00-3.074-11.506.625.625 0 01.225-.857.632.632 0 01.856.231 24.2 24.2 0 013.244 12.111.626.626 0 01-.626.626v.02zm-47.232 0a.625.625 0 01-.626-.625A24.256 24.256 0 0146.192 9.595a.632.632 0 01-.632 1.088 22.997 22.997 0 00-34.55 19.863.626.626 0 01-.626.625zm5.433 3.325H4.937a.632.632 0 010-1.258h10.88a.632.632 0 010 1.258zm47.233 0H52.17a.632.632 0 010-1.258h10.88a.632.632 0 010 1.258z" fill="#424242"/>
    <path d="M57.616 32.246a.626.626 0 01-.442-.184l-3.046-3.046a.632.632 0 010-.891.626.626 0 01.884 0l2.604 2.604 2.605-2.604a.633.633 0 01.89 0 .68.68 0 010 .89l-3.053 3.047a.62.62 0 01-.442.184zm-47.232 0a.619.619 0 01-.442-.184l-3.047-3.046a.64.64 0 010-.891.632.632 0 01.891 0l2.604 2.604 2.605-2.604a.626.626 0 011.067.445.632.632 0 01-.183.446l-3.047 3.046a.62.62 0 01-.448.184z" fill="#424242"/>
</svg>
