<svg width="68" height="68" fill="none" xmlns="http://www.w3.org/2000/svg">
    <g clip-path="url(#clip0)">
        <path d="M58.596-.034H9.404A9.404 9.404 0 000 9.37v49.192a9.404 9.404 0 009.404 9.404h49.192A9.404 9.404 0 0068 58.562V9.37a9.404 9.404 0 00-9.404-9.404z" fill="#56C0EF"/>
        <path d="M57.861 24.1a33.646 33.646 0 00-23.698 9.737 33.653 33.653 0 009.745-23.698 3.23 3.23 0 00-6.46 0c0 .51 0 1.02-.048 1.523a3.203 3.203 0 00-1.421-.496A22.169 22.169 0 0012.002 35.93c.062.504.247.985.537 1.401a28.09 28.09 0 01-2.4.109 3.23 3.23 0 100 6.46 33.646 33.646 0 0023.698-9.738 33.654 33.654 0 00-9.745 23.698 3.23 3.23 0 106.46 0 27.2 27.2 0 01.184-3.087c.46.323.997.518 1.557.564.571.041 1.143.062 1.707.062a22.154 22.154 0 0022.14-23.168 3.217 3.217 0 00-.51-1.578 26.799 26.799 0 012.231-.095 3.23 3.23 0 000-6.46zM32.062 48.96l.04-.13.096.11-.136.02zM24.65 33.252a9.343 9.343 0 018.602-8.602 27.477 27.477 0 01-8.602 8.602zm15.994 7.392a9.377 9.377 0 01-5.896 2.72 27.41 27.41 0 018.602-8.616 9.377 9.377 0 01-2.706 5.896z" fill="#fff"/>
        <path d="M10.139 41.303a.632.632 0 010-1.258 29.92 29.92 0 0029.92-29.92.633.633 0 011.258 0 31.198 31.198 0 01-31.178 31.178z" fill="#424242"/>
        <path d="M27.322 58.48a.624.624 0 01-.625-.626A31.198 31.198 0 0157.86 26.697a.633.633 0 010 1.258 29.92 29.92 0 00-29.92 29.92.626.626 0 01-.619.605zm-5.929-24.378a.633.633 0 01-.605-.68A13.246 13.246 0 0133.449 20.76a.64.64 0 01.68.606.627.627 0 01-.605.68 11.995 11.995 0 00-11.506 11.458.625.625 0 01-.625.598z" fill="#424242"/>
        <path d="M34.462 47.24a.632.632 0 01-.632-.606.64.64 0 01.612-.68 11.982 11.982 0 0011.56-11.56.64.64 0 01.632-.612.633.633 0 01.606.68A13.24 13.24 0 0134.483 47.24h-.02zM15.205 36.17a.619.619 0 01-.619-.552 19.556 19.556 0 0121.162-21.862.632.632 0 11-.116 1.258A18.299 18.299 0 0015.83 35.462a.625.625 0 01-.544.68l-.081.027z" fill="#424242"/>
        <path d="M34 52.802c-.496 0-1 0-1.503-.061a.628.628 0 11.095-1.251 18.305 18.305 0 0019.72-19.081.633.633 0 011.258-.061A19.555 19.555 0 0134 52.802z" fill="#424242"/>
    </g>
    <defs>
        <clipPath id="clip0">
            <path fill="#fff" d="M0 0h68v68H0z"/>
        </clipPath>
    </defs>
</svg>
