<svg xmlns="http://www.w3.org/2000/svg" viewBox="0 0 500 500">
    <rect width="500" height="500" rx="80" fill="#f382c4"/>
    <path fill="#fff" d="M500 419.61V219.75l-89.32 29-.07-.1-3.58-5 .78-2.14a21.48 21.48 0 00.68-2.2l2.34-9.11c.19-.74.35-1.49.47-2.25l1.44-9.42a22.9 22.9 0 00.24-2.34l.49-9.72a22.83 22.83 0 000-2.34l-.49-9.72a22.7 22.7 0 00-.24-2.33l-1.44-9.43c-.12-.76-.28-1.51-.47-2.25l-2.34-9.11a21.13 21.13 0 00-.68-2.18l-3.19-8.74a22.52 22.52 0 00-.88-2.09l-4-8.3c-.33-.68-.7-1.35-1.09-2l-4.77-7.83a20.71 20.71 0 00-1.23-1.82l-5.47-7.33a20.83 20.83 0 00-1.41-1.7l-6.13-6.75c-.5-.55-1-1.07-1.57-1.57l-6.75-6.12a20.66 20.66 0 00-1.68-1.39l-7.3-5.47c-.6-.45-1.22-.87-1.85-1.26l-7.84-4.74c-.64-.39-1.31-.75-2-1.08l-8.31-4a22.26 22.26 0 00-2.08-.87l-8.73-3.2c-.71-.26-1.44-.49-2.18-.68l-9.1-2.34c-.75-.19-1.51-.35-2.28-.47l-9.44-1.43a22.32 22.32 0 00-2.31-.24l-9.71-.49a22.83 22.83 0 00-2.34 0l-9.73.49a22.8 22.8 0 00-2.32.24l-9.42 1.43a22.12 22.12 0 00-2.26.47l-9.1 2.33a21 21 0 00-2.21.69L250.41 96c-.71.26-1.41.56-2.09.88l-4.67 2.25a29.9 29.9 0 00-17.51-13.52l-42.47-12.28a29.88 29.88 0 00-14.73-.51V-.39H80a80 80 0 00-80 80v340a80 80 0 0080 80h340a80 80 0 0080-80z"/>
    <g>
        <path d="M500 394.88a47.49 47.49 0 010-94v-56.79l-90.8 29.51-.88.13-.93.13-1.15.12-1.23.09h-1.22l-1.12-.08-.9-.21-1-.41-.77-.37-.74-.52-.66-.58-.6-.66-.56-.72-.57-.8-5.11-7.6-8.19-11.55-.34-.54-.3-.54-.25-.54-.21-.57-.16-.57-.13-.62-.09-.65-.05-.64v-1.17l.09-.56.13-.55v-.07l.59-1.24 3.19-8.73 2.34-9.11 1.45-9.42.49-9.72-.49-9.72-1.45-9.42-2.34-9.1-3.19-8.74-4-8.3-4.77-7.83-5.47-7.31-6.13-6.75-6.71-6.16-7.31-5.48-7.83-4.76-8.31-4-8.73-3.19-9.1-2.34-9.43-1.44-9.71-.49-9.73.49-9.42 1.44-9.1 2.33-8.73 3.2-8.31 4-7.84 4.76-7.3 5.46-4.38 4-2.24 1.9-2.37 1.29-2.62.81-2.82.28-2.81-.28-2.63-.81-1.77-1-4.79-2.25-8.85-3.87-8.95-3.66-9.06-3.39-9.16-3.23-9.27-3-5.69-1.68-3.22-.89-2.37-1.28-2.07-1.71-1.71-2.07-1.29-2.37-.81-2.62-.24-3.2V-.39H91A47.48 47.48 0 018.86 43 79.59 79.59 0 000 79.61v340a80 80 0 0080 80h340a79.62 79.62 0 0044.12-13.28l-.42-10.43v-1.11l.06-1.07.15-1 .24-1 .32-1 .47-1 .59-1 .55-.64.72-.62.87-.61.89-.56.83-.48.69-.37.66-.32 18.87-6.12A79.71 79.71 0 00500 419.61zM296.6 254.17a47.5 47.5 0 1147.51-47.5 47.52 47.52 0 01-47.51 47.5z" fill="#e1e2e3"/>
        <path d="M120.3 145.44H0v66.19h120.3a5.56 5.56 0 005.56-5.56V151a5.56 5.56 0 00-5.56-5.56z" fill="#b1b3b5"/>
        <path d="M88.72 145.44H12.3a5.74 5.74 0 00-5.74 5.74V170a5.73 5.73 0 005.74 5.73h76.42a5.73 5.73 0 005.74-5.73v-18.82a5.74 5.74 0 00-5.74-5.74z" fill="#878a8e"/>
        <rect x="6.68" y="145.44" width="35.4" height="30.3" rx="6.71" fill="#606060"/>
        <path fill="#b3b5b7" d="M296.66 134.8a70.43 70.43 0 1070.42 70.43 70.51 70.51 0 00-70.42-70.43m-.06 119.37a47.5 47.5 0 1147.51-47.5 47.52 47.52 0 01-47.51 47.5"/>
        <path d="M227.56 191.54a94.11 94.11 0 1098.1 94 95.38 95.38 0 00-1.28-15.6 70.44 70.44 0 01-96.82-78.43" fill="#7cbccf"/>
        <path d="M251 193.46A47.52 47.52 0 00318.27 249 94.29 94.29 0 00251 193.46" fill="#8dd4e8"/>
        <path d="M231.56 191.46c-1.34 0-2.68 0-4 .08A70.43 70.43 0 00324.38 270a93.88 93.88 0 00-6.11-21 47.52 47.52 0 01-69.17-42.28 47.27 47.27 0 011.9-13.26 94.81 94.81 0 00-19.41-2" fill="#6396a6"/>
        <path d="M172 280.74l20.58-20.55a6.39 6.39 0 018.81 0l53.77 54.38a6.24 6.24 0 010 8.82l-20.59 20.55a6.09 6.09 0 01-2.79 1.61 6.27 6.27 0 01-6-1.61L172 289.54a6.23 6.23 0 010-8.8z" fill="#e4e4e4"/>
        <path fill="#fff" d="M185.2 294.4l20.58-20.55a6.4 6.4 0 018.81 0l27.15 26.69a6.22 6.22 0 010 8.82l-20.59 20.54a6.11 6.11 0 01-2.79 1.62 6.3 6.3 0 01-6-1.61l-27.15-26.71a6.23 6.23 0 010-8.81z"/>
        <path fill="#b3b5b7" d="M500 394.88a47.49 47.49 0 010-94V277l-1.29.42-13.24 4.34-6.44 2.1-.47.27-.52.15-5.62 2.86-.27.21-.34.13-5.2 3.35-.25.24-.32.17-4.79 3.81-.24.29-.26.16-4.37 4.24-.2.28-.26.2-3.93 4.61-.18.32-.25.23-3.45 5-.14.31-.21.25-2.94 5.24-.11.32-.19.27-2.46 5.51-.08.35-.16.27-1.92 5.73v.35l-.14.31-1.36 5.91v.34l-.11.32-.79 6.05v.33l-.07.34-.2 6.09.06.36v.33l.43 6.19.08.33v.35l1.06 6.22.14.37v.3l1.6 5.8.07.14.08.17.06.32 2.42 6.37.21.36.09.31 2.85 5.6.19.2.15.41 3.36 5.23h.05l.19.21.18.33 3.8 4.78.24.19.2.32 4.25 4.39.28.19.21.28 4.61 3.92.32.18.21.23 5 3.46.36.18.21.19 5.26 2.95.27.08.31.22 5.5 2.44.32.06.3.18 5.72 1.91.36.06.28.12 5.89 1.36h.47l.21.08H495l5 .64zM115.2-.39H91A47.48 47.48 0 018.86 43a79.4 79.4 0 00-7.79 23.56l.13.09.16.17.06.07 4.84 3.59.34.18.23.21L12.05 74l.28.08.31.22 5.51 2.63.31.06.33.21 5.78 2.07.39.06.28.13 6 1.51.47.06.22.08 6.27.89h.7l6.05.26h.67l6.64-.26h.94l6.16-1h.05l.25-.1h.43l6-1.59.29-.14.38-.06 5.7-2.1.31-.2.3-.07 5.46-2.67.47-.37.26-.07 5.14-3.18.2-.19.34-.18 4.83-3.64.21-.21.31-.19 4.43-4.08.19-.29.25-.17 4-4.5.18-.34.23-.16 3.58-4.85.14-.33.19-.2 3.12-5.21.12-.33.21-.29 1-2 1.65-3.49v-.27l.2-.34 2.22-5.9v-.34l.09-.22.06-.11 1.54-6v-.32l.1-.35.94-6.26v-.33l.09-.37.31-6.91v-.29z"/>
        <path d="M224.47 116.5a7 7 0 00-4.76-8.64l-42.49-12.3a7 7 0 00-8.64 4.76l-8.38 28.94a7 7 0 004.8 8.64l42.48 12.3a7 7 0 008.65-4.76zm-99.09 277.43H0v25.68a80 80 0 0080 80h51V399.52a5.6 5.6 0 00-5.62-5.59z" fill="#646769"/>
    </g>
    <g>
        <path fill="#424242" d="M504.39 242.66a4.63 4.63 0 00-5.83-3l-90.45 29.39-2.29.29-1.94.1h-.52l-.95-.42-.59-.46-.72-.86-5.53-8.2-.07-.1-8.13-11.45-.2-.32-.34-.74-.2-1.21v-.47l.39-.94a3 3 0 00.18-.41l3.19-8.73c0-.14.1-.29.14-.44l2.34-9.1a3.58 3.58 0 00.09-.45l1.44-9.43a3.59 3.59 0 00.05-.46l.49-9.73a3.68 3.68 0 000-.47l-.49-9.71a3.75 3.75 0 00-.05-.47l-1.4-9.43a3.58 3.58 0 00-.09-.45l-2.34-9.11c0-.14-.09-.29-.14-.43l-3.19-8.74a3.79 3.79 0 00-.18-.42l-4-8.3c-.07-.13-.14-.27-.22-.4l-4.77-7.83a2.82 2.82 0 00-.24-.36l-5.47-7.32c-.09-.11-.18-.23-.28-.34l-6.14-6.74c-.1-.11-.21-.22-.32-.32l-6.74-6.12-.34-.28-7.31-5.47a3.41 3.41 0 00-.37-.25l-7.86-4.77a3 3 0 00-.4-.21l-8.31-4-.41-.17-8.73-3.2-.44-.14-9.09-2.34-.46-.09-9.44-1.44a3.42 3.42 0 00-.46 0l-9.71-.5h-.47l-9.72.5a3.73 3.73 0 00-.47 0l-9.42 1.44c-.15 0-.3.06-.45.09l-9.1 2.34a3.88 3.88 0 00-.45.14l-8.73 3.19a3 3 0 00-.41.18l-8.31 4a2.93 2.93 0 00-.39.21l-7.84 4.76-.37.25-7.31 5.46c-.12.09-.23.19-.34.29l-4.32 3.93-1.78 1.52-1.55.84h-.15l4.95-17.12a11.6 11.6 0 00-7.92-14.31l-42.49-12.3A11.62 11.62 0 00164.13 99l-4 14-1.36-.41-2.71-.74-1.5-.82-1.38-1.13-1.18-1.4-.86-1.57-.52-1.69-.19-2.5V-.39A4.63 4.63 0 00145.8-5a4.63 4.63 0 00-4.63 4.63v103.66l.25 3.19a4.37 4.37 0 00.19 1l.81 2.62a4.43 4.43 0 00.36.84l1.29 2.37a4.05 4.05 0 00.49.73l1.7 2.07a4.69 4.69 0 00.63.63l2.07 1.71a4.58 4.58 0 00.74.5l2.37 1.28a4.39 4.39 0 001 .4l3.14.86 1.32.39-1.77 6.1a11.63 11.63 0 007.93 14.37l42.48 12.3a11.76 11.76 0 003.25.46 11.61 11.61 0 0011.13-8.38l.55-1.9 2.68-.26a4.18 4.18 0 00.92-.19l2.61-.81a4.6 4.6 0 00.82-.35l2.38-1.28a5 5 0 00.81-.55l2.23-1.91.12-.1 4.21-3.84 6.95-5.19 7.45-4.53 7.9-3.8 8.3-3 8.66-2.22 9-1.37 9.26-.47 9.24.47 9 1.37 8.64 2.22 8.3 3 7.91 3.8 7.44 4.53 7 5.21 6.42 5.83 5.83 6.42 5.2 6.95 4.53 7.45 3.8 7.89 3 8.31 2.22 8.66 1.38 9 .46 9.25-.46 9.25-1.38 9-2.22 8.66-3 8.3-.5 1a7 7 0 00-.32.87 1 1 0 010 .17l-.12.54a3.4 3.4 0 00-.07.34l-.08.56a2.45 2.45 0 000 .38v1.85l.05.63a2.28 2.28 0 000 .26l.09.65c0 .11 0 .21.05.32l.13.61a3.59 3.59 0 00.08.35l.17.57c0 .12.07.24.11.36l.22.57a2.24 2.24 0 00.12.29l.24.54a3.24 3.24 0 00.17.32l.3.54.13.24.34.53.14.21 8.16 11.5 5.07 7.55.07.1.57.8.15.19.57.72.19.24.6.65a4.31 4.31 0 00.37.37l.66.58a4 4 0 00.4.32l.73.52.46.28.83.45a3.42 3.42 0 00.43.21l1 .4a4.34 4.34 0 00.72.24l.9.21a6 6 0 00.74.11l1.12.08h1.87l1.23-.09h.18l1.14-.13H408l1.89-.28a4.55 4.55 0 00.73-.17l90.8-29.5a4.64 4.64 0 002.97-5.92zm-292.74-98.51a2.33 2.33 0 01-2.91 1.6l-42.49-12.29a2.36 2.36 0 01-1.6-2.91l8.35-28.94a2.34 2.34 0 012.25-1.7 2.05 2.05 0 01.65.1l42.49 12.29a2.34 2.34 0 011.61 2.91z"/>
        <path fill="#424242" d="M296.6 154.55a52.13 52.13 0 1052.14 52.12 52.19 52.19 0 00-52.14-52.12zm0 95a42.87 42.87 0 1142.88-42.87 42.92 42.92 0 01-42.88 42.86zm-49.96 49.81a10.79 10.79 0 00-1.66-2.11l-15.64-15.38-24.67-25a11.06 11.06 0 00-15.36 0l-20.56 20.54a10.85 10.85 0 00-.05 15.34l11.8 11.94a11 11 0 001.44 1.78l11.47 11.28 29.11 29.45A11 11 0 00233 350a10.84 10.84 0 004.87-2.81l20.6-20.56a10.86 10.86 0 000-15.34zM239 305a1.55 1.55 0 01-.47 1.14l-20.62 20.58a1.57 1.57 0 01-.69.39 1.68 1.68 0 01-1.58-.44l-15.65-15.4-11.89-12a1.75 1.75 0 01-.05-.4 1.55 1.55 0 01.46-1.11L209 277.14a1.69 1.69 0 011.15-.41 1.66 1.66 0 011.17.43l11.47 11.27 16.1 16.3a1.46 1.46 0 01.11.27zm-64.14-19.81a1.48 1.48 0 01.46-1.11l20.56-20.53a1.66 1.66 0 011.17-.43 1.62 1.62 0 011.1.39l5.87 5.94a9.88 9.88 0 00-1.47 1.2l-20.57 20.54a10.32 10.32 0 00-.88 1l-5.79-5.86a1.5 1.5 0 01-.5-1.19zm77.1 35l-20.62 20.58a1.48 1.48 0 01-.69.39 1.62 1.62 0 01-1.53-.39l-6.18-6.24a11 11 0 001.54-1.26L245 312.64a10.06 10.06 0 00.81-.92l6.07 6.14a1.56 1.56 0 01.47 1.11 1.54 1.54 0 01-.44 1.14zM88.07 12.53a42.84 42.84 0 01-76.81 26.14 79.13 79.13 0 00-4.59 8.93A52 52 0 0045.2 64.66a52.12 52.12 0 0050.5-65h-9.63a42.74 42.74 0 012 12.87zM500 390.19l-.5-.08c-.32-.06-.65-.11-1-.18s-.67-.14-1-.21-.67-.15-1-.24l-1-.26-.95-.27c-.35-.1-.69-.22-1-.33l-.82-.28-1.14-.42-.63-.25-1.29-.54-.37-.16a43.32 43.32 0 01-24.53-31.16c0-.15-.05-.3-.08-.45-.08-.46-.16-.92-.22-1.39 0-.31-.09-.63-.13-1s-.08-.65-.11-1c-.05-.56-.09-1.11-.13-1.67v-.34c0-.71-.05-1.43-.05-2.16s0-1.44.05-2.15v-.38q0-.81.12-1.62c0-.34.08-.68.12-1s.07-.6.11-.9q.1-.72.24-1.44c0-.12 0-.25.07-.38a43.29 43.29 0 0124.67-31.24l.14-.06q.74-.33 1.5-.63l.4-.16 1.35-.5.59-.19c.42-.14.84-.28 1.26-.4l.7-.2 1.23-.33.71-.17c.43-.09.85-.19 1.28-.27l.6-.11.8-.14v-9.36l-.66.09c-.64.09-1.28.21-1.91.32l-.57.1-1.71.38-.69.16-1.67.44-.66.19q-.86.25-1.71.54l-.52.18c-.61.21-1.22.43-1.83.67l-.28.11a52.3 52.3 0 00-32.12 38.9c0 .13 0 .26-.07.38-.1.61-.21 1.22-.29 1.84-.05.32-.09.66-.13 1s-.11.89-.16 1.33c-.06.61-.1 1.22-.13 1.82 0 .21 0 .41-.05.61 0 .87-.07 1.73-.07 2.61s0 1.74.07 2.6v.56c0 .63.08 1.25.15 1.88 0 .43.09.85.14 1.28s.09.7.14 1.05c.08.6.18 1.19.29 1.78 0 .15.05.3.08.44a52.28 52.28 0 0030 38l.19.09c.59.26 1.18.51 1.78.75l.54.21c.53.2 1.06.4 1.59.58.26.1.53.18.79.27.48.16 1 .32 1.46.46.31.1.63.18.95.27s.92.26 1.39.37l1 .24c.46.1.92.21 1.39.3l1 .18c.49.09 1 .18 1.49.25h.15l.6.08zm-8.22 64.73a4.68 4.68 0 00-3.61-.32l-18.86 6.13a4.6 4.6 0 00-.61.25l-.66.33-.16.08-.69.37-.09.05-.83.47-.19.12-.88.56-.18.12-.87.6c-.12.09-.24.18-.35.28l-.73.62a4.62 4.62 0 00-.5.49l-.55.64a4.15 4.15 0 00-.46.64l-.59 1c-.08.13-.15.26-.22.4l-.46 1c-.08.18-.16.37-.22.55l-.32 1c0 .12-.07.24-.1.36l-.24 1c0 .15-.06.29-.09.44l-.14 1v.35l-.06 1.07a2 2 0 000 .25v1.33l.43 10.44a4.49 4.49 0 00.7 2.24 80.22 80.22 0 008.42-5.64l-.29-7.3.05-1.63.09-.64.15-.61.17-.53.24-.5.27-.45.35-.32 1.3-.86 1.26-.7 13.56-4.44a80.82 80.82 0 005.96-10.24zm-366.4-65.63H0v9.26h125.38a1 1 0 011 1v100.06h9.26V399.52a10.24 10.24 0 00-10.26-10.23zm-5.08-248.48H0v9.26h2c0 .36-.06.73-.06 1.11V170a10.38 10.38 0 0010.36 10.37h76.42A10.38 10.38 0 0099.09 170v-18.82a10 10 0 00-.07-1.11h21.28a.93.93 0 01.93.93v55.07a.93.93 0 01-.93.93H0v9.26h120.3a10.2 10.2 0 0010.19-10.19V151a10.2 10.2 0 00-10.19-10.19zM37.45 169a2.09 2.09 0 01-2.08 2.09h-22a2.09 2.09 0 01-2.06-2.09v-16.85a2.08 2.08 0 012.08-2.08h22a2.08 2.08 0 012.08 2.08zm52.38 1a1.11 1.11 0 01-1.11 1.11H46.51a11.13 11.13 0 00.2-2.09v-16.87a11 11 0 00-.2-2.08h42.21a1.11 1.11 0 011.11 1.11z"/>
    </g>
</svg>
