<svg xmlns="http://www.w3.org/2000/svg" viewBox="0 0 500 500">
    <rect x="-.01" y="-.39" width="500" height="500" rx="80" fill="#f382c4"/>
    <path d="M439.52 197c-10.12-22.45-35.71-33.55-59.51-25.82l-29.81 9.69a56.88 56.88 0 00-52.41-37.7v-32c0-25.17-19.39-46.33-44.14-48.17a47.19 47.19 0 00-36 12.53 48.76 48.76 0 00-15.4 35.66v32a57 57 0 00-52.43 37.72L119.41 171a48.32 48.32 0 10-29.87 91.9l38.93 12.65a122.16 122.16 0 0016.58 50.92L121 359.6a48.32 48.32 0 1078.18 56.8l24.05-33.1a122.2 122.2 0 0053.6 0l24 33.08a48.47 48.47 0 0039.11 19.93A48.32 48.32 0 00379 359.6l-24.08-33.14a122.08 122.08 0 0016.6-50.94l38.91-12.64A48.34 48.34 0 00439.52 197z" fill="#fff"/>
    <g fill="#333">
        <path d="M339.94 418a30.07 30.07 0 01-24.26-12.36l-31.58-43.49a103.45 103.45 0 01-68.22 0l-31.59 43.47a30 30 0 01-53.84-12.92 29.75 29.75 0 015.36-22.3l31.62-43.52a103.69 103.69 0 01-21.14-62.66v-2.17l-51.08-16.62a30 30 0 0118.53-57l51.18 16.63c.1-.13.19-.27.29-.41a40.73 40.73 0 01-.27-4.75 38.57 38.57 0 0154.9-34.78l.81-.24v-53.67A30.34 30.34 0 01230.19 89a28.91 28.91 0 0122.11-7.67c15.22 1.11 27.14 14.23 27.14 29.86v53.69l.79.24a39.74 39.74 0 0116.5-3.63 38.45 38.45 0 0138.41 38.41 38.06 38.06 0 01-.3 4.77c.09.13.18.25.26.38l50.58-16.43c14.88-4.84 30.84 2 37.11 15.9a30 30 0 01-18 40.91L353.68 262v2.18a103.7 103.7 0 01-21.15 62.67l31.61 43.51a30 30 0 01-24.2 47.64zm-50.89-72.83l38 52.25a16 16 0 0012.89 6.58 16 16 0 0012.9-25.35l-38-52.28 3.55-4.2a89.63 89.63 0 0021.3-57.93c0-2-.09-4.11-.28-6.67l-.4-5.47 61.41-19.95a16 16 0 009.58-21.87c-3.28-7.27-12.07-10.93-20-8.35l-60.85 19.77-2.89-4.7a89.184 89.184 0 00-4.41-6.42l-1.91-2.54.66-3.11a24.06 24.06 0 00.54-5.07 24.44 24.44 0 00-24.41-24.41 25.22 25.22 0 00-12.39 3.25l-2.75 1.59-3-1a76.45 76.45 0 00-7.71-2.2l-5.44-1.24v-64.66c0-8.33-6.22-15.32-14.16-15.9a15.13 15.13 0 00-11.56 4 16.31 16.31 0 00-5.07 12v64.67l-5.45 1.23a76.24 76.24 0 00-7.72 2.19l-3 1-2.75-1.59a25 25 0 00-12.3-3.25 24.59 24.59 0 00-24 29.48l.66 3.1-1.9 2.55c-1.74 2.32-3.19 4.43-4.43 6.43l-2.9 4.66-61.45-20a16 16 0 00-9.87 30.37l61.43 20-.4 5.47c-.19 2.55-.28 4.67-.28 6.66a89.69 89.69 0 0021.28 57.92l3.56 4.2-38 52.29A16 16 0 00160 404a16 16 0 0013-6.61l38-52.26 5.09 2.09a89.4 89.4 0 0067.94 0z"/>
        <path d="M299.12 213.89a14.19 14.19 0 1111.59-11.57 14.19 14.19 0 01-11.59 11.57zm-93.46 0a14.19 14.19 0 1111.59-11.58 14.2 14.2 0 01-11.59 11.58z"/>
    </g>
</svg>
