<svg xmlns="http://www.w3.org/2000/svg" viewBox="0 0 500 500">
    <rect width="500" height="500" rx="80" fill="#56c2f1"/>
    <path d="M421.65 314.25l-36.31-36.31a24.89 24.89 0 007.86-13.58A150.48 150.48 0 10245.78 383.8a152.16 152.16 0 0031.22-3.26 24.94 24.94 0 0013.59-7.86L326.91 409a25.23 25.23 0 1035.68-35.69l-15.52-15.52 23.37-23.38L386 349.93a25.23 25.23 0 1035.68-35.68z" fill="#fff"/>
    <g fill="#333">
        <path d="M408.61 327.28L280.26 198.93a48.55 48.55 0 00-68.66 68.67L340 396a6.8 6.8 0 009.61-9.61L221.21 258a35 35 0 0149.44-49.45L399 336.89a6.8 6.8 0 009.61-9.61z"/>
        <path d="M300.18 179a76.17 76.17 0 0121.32 41 6.8 6.8 0 0013.39-2.34 90.31 90.31 0 10-104.54 104.57 6.8 6.8 0 002.33-13.39A76.72 76.72 0 11300.18 179z"/>
        <path d="M270.43 349.2a118.48 118.48 0 1191.43-91.44 6.8 6.8 0 0013.3 2.8 132 132 0 10-129.36 104.8 133.24 133.24 0 0027.42-2.86 6.79 6.79 0 10-2.79-13.3z"/>
        <path d="M246.07 203.35a30.1 30.1 0 00-21.29 51.38L246.07 276l42.57-42.57-21.29-21.28a29.87 29.87 0 00-21.28-8.8zm0 53.45l-11.68-11.67a16.51 16.51 0 0123.35-23.36l11.68 11.68zm101.32 35.1a6.8 6.8 0 00-9.61 0l-33 33a6.8 6.8 0 009.61 9.61l33-33a6.8 6.8 0 000-9.61zm5.32 14.94l-33 33a6.8 6.8 0 009.61 9.61l33-33a6.8 6.8 0 00-9.61-9.61z"/>
    </g>
</svg>
