<svg xmlns="http://www.w3.org/2000/svg" viewBox="0 0 500 500">
    <rect width="500" height="500" rx="80" fill="#56c2f1"/>
    <path d="M500 191.73l-147.28.1L338 105a19.79 19.79 0 00-.43-2l-1.08-4.15a23.2 23.2 0 00-1.43-3.94l-1.78-3.81a22.72 22.72 0 00-2-3.45l-2.38-3.4a23.89 23.89 0 00-2.54-3l-2.91-2.92a22.43 22.43 0 00-3.08-2.6L317 73.3a23.71 23.71 0 00-3.41-2l-3.74-1.77a22.26 22.26 0 00-3.8-1.42L302 67a22.42 22.42 0 00-4.07-.74l-4.28-.38a23.9 23.9 0 00-2.07-.1h-84.07c-.67 0-1.33 0-2 .1l-4.28.38a22.42 22.42 0 00-4.07.74l-4.06 1.11a23.33 23.33 0 00-3.79 1.41l-3.75 1.78a23.23 23.23 0 00-3.4 2l-3.36 2.37a22.85 22.85 0 00-3.1 2.62l-2.9 2.92a23.2 23.2 0 00-2.51 3l-2.38 3.39a22 22 0 00-2 3.55L164.1 95a22.31 22.31 0 00-1.41 3.89L161.6 103c-.17.66-.31 1.33-.43 2l-17.83 105.23a83 83 0 00-1.74 128.5l-.26 1a20.56 20.56 0 00-.53 2.57l-.18 1.22a19.87 19.87 0 00-.22 2l-.07 1.23V496.6a23.76 23.76 0 00.25 3.4H420a80 80 0 0080-80z" fill="#fff" id="circuit-touch_white"/>
    <g>
        <path d="M500 214.88l-304.74.2a60.13 60.13 0 00.09 120.26l304.65-.2z" fill="#dbc6bb"/>
        <path d="M335.73 500V348.13l-.06-1.23-.19-1.22-.33-1.17-.43-1.15-.54-1.1-.66-1-.75-1-4.32-4.46-3.06-3.87-2.62-4.14-2.18-4.38-1.72-4.59-1.26-4.73-.76-4.86-.26-4.95.26-5 .76-4.88 1.25-4.74 1.72-4.57 2.18-4.37 2.63-4.14 3.06-3.86 4.32-4.47.77-1 .65-1 .54-1.09.44-1.15.31-1.18.19-1.22.06-1.23v-30.27l-20.56-121.24-1.09-4.15-1.78-3.81-2.37-3.4-2.93-2.92-3.36-2.37-3.75-1.78-4.05-1.11-4.29-.39h-84l-4.28.39-4.06 1.11-3.74 1.78-3.37 2.37-2.9 2.92-2.38 3.4-1.78 3.81-1.04 4.15-20.55 121.24v30.32l.07 1.23.18 1.22.32 1.18.43 1.15.56 1.09.64 1 .77 1 4.32 4.47 3 3.86 2.63 4.14 2.19 4.37 1.73 4.58 1.25 4.74.76 4.87.26 5-.26 4.95-.76 4.86-1.25 4.73-1.73 4.59-2.19 4.38-2.63 4.14-3 3.87-4.32 4.46-.77 1-.64 1-.56 1.1-.43 1.15-.32 1.17-.18 1.22-.07 1.23V500m86.2-40.12a40.68 40.68 0 1140.67-40.68 40.67 40.67 0 01-40.67 40.68m0-239.27a40.68 40.68 0 1140.67-40.67 40.67 40.67 0 01-40.67 40.67" fill="#e1e2e3"/>
        <path d="M309.53 338.85l-.2-1-.12-.9L292 284l-.38-.67-.19-.5-.1-.22-13.75-21.17-.41-.43-.86-.86-.37-.4-.57-.24-1-.43-1.23-.25-.58-.11H226.9l-.55.12-1.28.25-1 .41-.59.27-.39.39-.82.84-.42.45-13.76 21.18-.28.72-.39.69-17.27 53-.1.91-.12.66-.07.3v56.4l.07 23.89v5.84l.05.2v.7l.85 5.33.11.3v.29l1.34 5.15.14.3v.28l1.84 4.91.16.3.06.25 2.29 4.68.17.17.1.33 2.72 4.42.18.19.13.26 3.11 4.13.19.16.16.28 3.5 3.8.23.15.18.23 3.83 3.46.24.16.14.14.05.06 4.15 3.08.29.15.19.18 4.45 2.67.24.07.27.19 4.72 2.26h.26l.28.18 5 1.76.33.05.24.1 5.16 1.3.4.05.19.07 5.35.79h.6l5.18.23h1l5.64-.3h.8l5.28-.84.21-.09h.37l5.16-1.36.25-.12h.32l4.88-1.81.27-.17.25-.05 4.67-2.28.29-.21.23-.05 4.4-2.73.17-.16.29-.15 4.13-3.12.18-.18.26-.17 3.8-3.49.16-.25.22-.15 3.46-3.85.31-.27.2-.15 3.06-4.16.12-.28.16-.17 2.68-4.46.1-.28.18-.25.82-1.7 1.4-3v-.24l.18-.29 1.78-4.95v-.29l.08-.19.05-.1 1.32-5.15v-.27l.08-.3.81-5.36v-.29l.08-.31.26-5.92v-.25zm-59.88 121a40.68 40.68 0 1140.67-40.68 40.67 40.67 0 01-40.67 40.71z" fill="#b3b5b7"/>
        <path d="M500 376.34l-214.48-72.19a78.9 78.9 0 00-50.23 149.59L372.72 500H420a80 80 0 0080-80z" fill="#e6d3c8"/>
        <path d="M246.78 420.89a44 44 0 01-26.71-58.51c8.89-21.71 33.93-32 56.17-24.5l30.7 10.3a10.16 10.16 0 016.39 12.82l-21.58 64.26a10.14 10.14 0 01-12.84 6.39z" fill="#dbc1b4"/>
    </g>
    <g>
        <path fill="#424242" d="M295 179.94a45.3 45.3 0 10-45.3 45.3 45.36 45.36 0 0045.3-45.3zm-81.34 0a36 36 0 1136 36 36.08 36.08 0 01-36.05-36zm94.75 163.85l-30.7-10.3c-25-8.41-52.25 3.51-61.93 27.13a48.27 48.27 0 00.76 38.76 48.82 48.82 0 0028.76 25.9l32.13 10.79a14.81 14.81 0 0018.71-9.31l21.58-64.26a14.78 14.78 0 00-9.31-18.71zm.53 15.77l-21.58 64.25a5.52 5.52 0 01-7 3.48l-32.11-10.79a39.43 39.43 0 01-23.9-52.37c7.83-19.12 30-28.73 50.42-21.87l30.7 10.31a5.53 5.53 0 013.47 6.99zM406 376.48a4.63 4.63 0 00-6.36 1.55c-13.51 22.24-25 56.52-28.67 85.32a4.63 4.63 0 004 5.17 3.9 3.9 0 00.59 0 4.63 4.63 0 004.58-4.05c3.49-27.62 14.5-60.44 27.4-81.67a4.63 4.63 0 00-1.54-6.32zm-.53 102.38a5.63 5.63 0 00.58 0 4.64 4.64 0 004.59-4.05c3.49-27.62 14.5-60.44 27.4-81.67a4.63 4.63 0 10-7.92-4.8c-13.51 22.24-25 56.52-28.67 85.31a4.64 4.64 0 004.02 5.21zm-43.73-161.31a4.5 4.5 0 001.4.22 4.63 4.63 0 004.41-3.23c.42-1.32 10.11-32.83.1-77.65a4.63 4.63 0 10-9 2c9.42 42.25.19 72.55.1 72.84a4.63 4.63 0 002.99 5.82z"/>
        <path fill="#424242" d="M500 371.45l-93.94-31.62 93.94-.06v-9.26l-121.36.08-56.72-19.09-.43-2.75-.24-4.47.24-4.48.69-4.41 1.13-4.29 1.55-4.12 2-3.94 2.37-3.73 2.76-3.5 4.17-4.29.3-.35.77-1c.1-.13.2-.27.29-.41l.65-1c.08-.14.16-.27.23-.42l.54-1.09c.07-.13.12-.26.18-.4l.43-1.14a3.22 3.22 0 00.16-.5L340 264a3.12 3.12 0 00.09-.44l.19-1.21a3.75 3.75 0 00.05-.47l.07-1.23v-30.54a4.9 4.9 0 00-.06-.77l-1.65-9.72 161.31-.11v-9.26l-162.92.11-17.34-102.27-.09-.4-1.09-4.14a4.11 4.11 0 00-.28-.79L316.5 99a5.3 5.3 0 00-.4-.7l-2.38-3.39a4.92 4.92 0 00-.5-.61l-2.91-2.92a4.3 4.3 0 00-.61-.52l-3.37-2.37a3.57 3.57 0 00-.68-.4l-3.74-1.78a4.93 4.93 0 00-.76-.28l-4.06-1.12a4.43 4.43 0 00-.81-.14l-4.28-.44h-84.81l-4.28.39a4.43 4.43 0 00-.81.14L198 86a4.93 4.93 0 00-.76.28L193.52 88a3.91 3.91 0 00-.68.4l-3.37 2.37a4.38 4.38 0 00-.62.52L186 94.25a5.68 5.68 0 00-.5.6l-2.38 3.4a4.13 4.13 0 00-.41.7l-1.77 3.82a5.2 5.2 0 00-.29.78l-1.08 4.14a3.24 3.24 0 00-.09.4l-19.08 112.6a65.13 65.13 0 00-29.8 54.58 64.35 64.35 0 0036.15 58.06l-3.66 3.67-.31.36-.76 1c-.1.12-.19.26-.28.39l-.65 1c-.08.13-.15.26-.22.39l-.55 1.1c-.07.14-.14.29-.2.44l-.43 1.15a3.26 3.26 0 00-.15.44l-.31 1.18a4.59 4.59 0 00-.1.51l-.19 1.22v.42l-.07 1.23V500h9.26V347.38l.11-.75.19-.7.27-.7.34-.69.4-.63.46-.58 4.16-4.29c.12-.12.22-.24.32-.36l3.05-3.87a3.39 3.39 0 00.27-.39l2.63-4.13c.08-.14.16-.28.23-.42l2.19-4.38c.07-.14.13-.29.19-.44l1.73-4.58a3.88 3.88 0 00.14-.45l1.26-4.73c0-.16.07-.31.1-.47l.76-4.86v-.48l.26-4.94v-.49l-.26-5v-.48l-.76-4.86c0-.16-.06-.32-.1-.47l-1.26-4.74a3.5 3.5 0 00-.14-.46l-1.73-4.57c-.06-.15-.12-.29-.19-.43l-2.19-4.38c-.07-.14-.15-.28-.23-.42l-2.63-4.13c-.08-.13-.18-.26-.27-.38l-3.05-3.87-.31-.36-4.17-4.29-.45-.58-.45-.63-.35-.69-.26-.69-.18-.71-.12-.75V230.5l1-5.8a3.9 3.9 0 00.13-.76l19.34-114.1.93-3.55 1.42-3.06 1.92-2.73 2.34-2.36 2.71-1.91 3-1.43 3.26-.9 3.67-.33h83.57l3.67.33 3.27.9 3 1.43 2.68 1.91 2.33 2.35 1.92 2.74 1.43 3.07.93 3.54L331.1 230.5v30.68l-.12.76-.19.71-.26.7-.34.69-.4.62-.46.59-4.17 4.29c-.11.12-.21.23-.31.36l-3.05 3.87a3.28 3.28 0 00-.27.38l-2.63 4.13a4.49 4.49 0 00-.24.42l-2.18 4.37a4 4 0 00-.19.43l-1.72 4.57a4.11 4.11 0 00-.15.46l-1.24 4.75c0 .15-.07.3-.1.45l-.77 4.87v.49l-.25 5a3.84 3.84 0 000 .48l.19 3.7-25.25-8.51a83.52 83.52 0 00-70.56 150.18 3.07 3.07 0 00.27.36 44.9 44.9 0 0033 14.21 4.61 4.61 0 001.89-.41l79.56 26.78V500h9.26v-6l17.85 6h29l-150.5-50.64A74.27 74.27 0 01284 308.54l216 72.68zm-330-92.13l2.38 3.73 2 3.95 1.56 4.13 1.13 4.28.69 4.4.24 4.48-.24 4.47-.69 4.39-1.13 4.27-1.56 4.14-2 4-.12.19a55.16 55.16 0 01-32.45-50.45 55.85 55.85 0 0119-41.85v27.26l.07 1.24v.42l.19 1.21a4 4 0 00.1.5l.31 1.19a4 4 0 00.15.45l.43 1.15c.06.15.13.3.2.44l.55 1.1.21.37.65 1c.09.14.19.28.29.41l.76 1 .31.36 4.16 4.29z"/>
    </g>
</svg>
