<svg xmlns="http://www.w3.org/2000/svg" viewBox="0 0 500 500">
    <rect width="500" height="500" rx="80" fill="#f382c4"/>
    <path d="M429.32 172.85a2.39 2.39 0 01.22-.23c1-1 1.9-1.94 2.81-2.94l.46-.53c.82-.92 1.64-1.85 2.42-2.8a.64.64 0 01.1-.13 86.13 86.13 0 00.24-108.59c-.83-1-1.68-2-2.55-3l-.32-.37c-1-1.08-2-2.15-3-3.19a84.7 84.7 0 00-6.38-5.81l-.13-.11-.44-.35a86.23 86.23 0 00-114.83 5.91l-66.1 65.71c-18.87-3-30.14 4.44-35.68 9.94l-8.83 8.78c-7.62 7.58-18.18 25.12-3.23 57.4.59 1.28 1.23 2.58 1.89 3.88l-89.21 89.21a23.09 23.09 0 1032.66 32.66l83.47-83.46q5 5.67 10.6 11.3 6 6 12 11.31L69.07 433.78a23.1 23.1 0 1032.67 32.66L283.8 284.38c1 .51 2 1 3 1.48 12 5.65 22 7.73 30.18 7.73 13.75 0 22.45-5.88 27.23-10.63l8.83-8.78c5.53-5.5 13-16.73 10.15-35.62l30.36-30.19z" fill="#fff"/>
    <path d="M326.58 242.41L413 156.47a63 63 0 00-88.86-89.38L237.72 153c-7.84 7.8 5.35 32.89 30.68 58.37s50.34 38.81 58.18 31" fill="#e6e7e6"/>
    <path d="M320 123.05a35 35 0 00-10.2 2.84 35.38 35.38 0 1049.6 36.55 35.81 35.81 0 01-4.26.26A35.39 35.39 0 01320 123.05" fill="#d95552"/>
    <path d="M355.07 91.92A35.41 35.41 0 00320 123.05a33.78 33.78 0 014.25-.26 35.4 35.4 0 0135.15 39.65 35.39 35.39 0 00-4.3-70.52" fill="#7fc0d1"/>
    <path d="M324.22 122.79a33.78 33.78 0 00-4.25.26 35.39 35.39 0 0035.14 39.65 35.81 35.81 0 004.26-.26 35.4 35.4 0 00-35.15-39.65" fill="#78474b"/>
    <path d="M326.58 242.41c-7.84 7.8-32.85-5.53-58.18-31s-38.52-50.58-30.68-58.41l10.92-10.85c-11.64-4.52-21-4.63-26.24.56l-8.83 8.78c-11.93 11.85 3.66 45.53 36.27 78.33S316 278.44 328 266.58l8.82-8.77c5.22-5.19 5.16-14.57.71-26.23z" fill="#c6c8c8"/>
    <path d="M418.67 157.25c.11-.11.2-.23.31-.34.67-.75 1.32-1.51 2-2.28a67.65 67.65 0 00.22-85.33c-.64-.79-1.3-1.56-2-2.32-.1-.1-.18-.21-.28-.32-.77-.85-1.56-1.69-2.37-2.51a67.63 67.63 0 00-95.65-.28l-73.46 73c-15.72-5.36-24.05-1.62-28.32 2.62l-8.83 8.78c-9.67 9.61-5.9 28.78 8.64 51.29l-99.14 99.14a4.62 4.62 0 006.53 6.53l98-98a225.32 225.32 0 0022.29 25.83A224.45 224.45 0 00272.94 256L82.14 446.85a4.62 4.62 0 006.53 6.53l191.74-191.74c.09-.09.15-.19.23-.28 13.87 9 26.45 13.76 36.26 13.76 5.86 0 10.74-1.71 14.31-5.26l8.83-8.78c4.27-4.25 8.06-12.56 2.79-28.31l73.46-73c.82-.84 1.61-1.67 2.38-2.52zm-6.61-84.48l.29.33c.56.64 1.12 1.29 1.65 1.94l.06.07a58.52 58.52 0 01-.23 73.62v.05c-.55.67-1.12 1.32-1.7 2l-.26.3c-.66.73-1.35 1.45-2.05 2.15l-77.67 77.22-8.78 8.73c-3.76 3.74-24.24-3.42-51.66-31s-34.49-48.13-30.71-51.87l86.45-85.95a58.4 58.4 0 0182.59.25c.68.7 1.36 1.39 2.02 2.16zm-78.53 181.76l-8.83 8.77c-1.77 1.76-4.45 2.65-7.91 2.65-13.13 0-37.3-12.82-63.67-39.36-33.32-33.51-44.78-63.36-36.3-71.8l8.83-8.77c2.75-2.73 7.72-3.31 14.33-1.75l-5.51 5.49c-11.77 11.69 6.92 41 30.65 64.9 18.76 18.86 40.94 34.59 55.22 34.59a13 13 0 009.5-3.56l5.51-5.48c1.53 6.62.92 11.59-1.82 14.32z" fill="#414141"/>
</svg>
