<svg xmlns="http://www.w3.org/2000/svg" viewBox="0 0 500 500">
    <rect width="500" height="500" rx="80" fill="#f382c4"/>
    <path d="M436.43 296.38V167.44c0-16.63-7.83-33.11-22.59-47.58l-29-28.73A62.3 62.3 0 00374.49 81a23.16 23.16 0 00-2.55-1.87 61.39 61.39 0 00-35.31-11.1h-210.3A62 62 0 0064.4 130v210.3a61.44 61.44 0 0018 43.68l.52.52 35 34.58c.36.35.73.7 1.12 1 10.93 9.47 24.34 19.58 45.13 19.58h160.69l59.94 59.94H420a80 80 0 0080-80v-59.66z" fill="#fff"/>
    <path d="M397.6 136.28l-38-37.62v42.51H176.35A38.84 38.84 0 00137.51 180v178.91l-38.31 9.14 35 34.58c9.89 8.57 17.92 13.94 30 13.94h169.27l79.87-77.71V167.44c0-12.78-8.09-23.66-15.74-31.16z" fill="#cacaca"/>
    <path d="M375.46 301.4V130a38.84 38.84 0 00-38.84-38.83H126.33A38.83 38.83 0 0087.5 130v210.3a38.82 38.82 0 0038.83 38.83h169.26" fill="#eaeaea"/>
    <path d="M500 419.61v-27L338.71 231.32A67 67 0 00244 326.09l173.47 173.52H420a80 80 0 0080-80z" fill="#e6d3c8"/>
    <path d="M265.11 305.45a37.41 37.41 0 01.82-53.7c14.91-14 38.7-12.57 53.18 1.91l35.11 35.12a9.61 9.61 0 010 13.6l-39.29 39.29a9.61 9.61 0 01-13.6 0z" fill="#dbc1b4"/>
    <path d="M262.76 248.39a42 42 0 00-.92 60.32l36.22 36.23a14.26 14.26 0 0020.13 0l39.3-39.29a14.26 14.26 0 000-20.14l-35.12-35.11c-16.51-16.51-43.25-17.4-59.61-2.01zM351 299.11l-39.3 39.3a5 5 0 01-7.06 0l-36.23-36.22a32.77 32.77 0 01.73-47.06 31.76 31.76 0 0121.86-8.52 35.14 35.14 0 0124.8 10.32l35.2 35.12a5 5 0 010 7.06zm74.24 61.14a4.62 4.62 0 10-5.54-7.4 281.33 281.33 0 00-53.86 53.88 4.62 4.62 0 107.48 5.42c.21-.28 20.98-28.72 51.92-51.9zM393.54 438a4.59 4.59 0 003.57-1.68c.26-.32 26.22-31.76 52.18-52.2a4.62 4.62 0 10-5.71-7.26C416.82 398 391.06 429.15 390 430.47a4.61 4.61 0 003.56 7.55zM162.31 123.57a4.34 4.34 0 00-.57-1.06l-.06-.08a4.07 4.07 0 00-.51-.59l-.14-.12a3.8 3.8 0 00-.55-.42 1.71 1.71 0 00-.23-.13c-.14-.08-.26-.17-.41-.24h-.14l-.31-.1c-.19-.06-.37-.12-.55-.16h-.36a4.38 4.38 0 00-.51 0 3.73 3.73 0 00-.47 0h-.4c-.18 0-.35.1-.53.15a3 3 0 00-.32.11h-.15c-.15.07-.27.16-.41.24l-.23.13a3.8 3.8 0 00-.55.42l-.13.12a3.61 3.61 0 00-.52.59l-.06.08a4.71 4.71 0 00-.57 1.06l-27.7 62.85-11.73 26.61a4.62 4.62 0 108.45 3.73l10.55-23.94h49.54l10.57 24a4.62 4.62 0 004.23 2.76 4.55 4.55 0 001.86-.4 4.61 4.61 0 002.36-6.09zm-25.05 60.05l20.71-47 20.71 47z" fill="#424242"/>
    <path d="M335.45 234.59L500 399.13v-13.06l-82-82V167.44c0-11.72-5.76-23.31-17.11-34.44l-29.77-29.45a43.93 43.93 0 00-8.82-8.62l-.27-.19a43.16 43.16 0 00-25.36-8.21H126.33A43.5 43.5 0 0082.88 130v210.3a43.33 43.33 0 0013 30.93 1.27 1.27 0 00.11.13l35 34.58.22.2c9.17 7.94 18.6 15.07 33 15.07h168.31l78.41 78.42H420c1.31 0 2.61 0 3.91-.1l-176.7-176.71a62.39 62.39 0 0188.24-88.23zm58.92-95c9.52 9.34 14.35 18.71 14.35 27.86V294.8L379.87 266h.21V130a42.55 42.55 0 00-.28-4.81zM323.28 412H164.21c-10.26 0-17.12-4.28-26.88-12.71l-16-15.8a45.64 45.64 0 005 .29h168.73zm-82.6-82.6l45.14 45.14H126.33a34.25 34.25 0 01-34.21-34.21V130a34.25 34.25 0 0134.21-34.21h210.3a34 34 0 0120 6.48l7.52 7.44a34 34 0 016.69 20.29v126.92L342 228.06a71.63 71.63 0 00-101.3 101.29z" fill="#414141"/>
</svg>
