<svg xmlns="http://www.w3.org/2000/svg" viewBox="0 0 500 500">
    <rect width="500" height="500" rx="80" fill="#56c2f1"/>
    <path d="M427.56 148.7C419.63 131.58 406 113 388.06 95s-36.41-31.79-53.49-39.82C302.31 40 284.67 50.47 277 58.07c-.57.57-1.16 1.2-1.76 1.89l-52.46 52.46c-.44.37-.93.81-1.43 1.3l-.07.07c-7.64 7.6-18.23 25.17-3.24 57.52.59 1.28 1.22 2.57 1.88 3.86l-89.43 89.42a23.15 23.15 0 0032.74 32.74l83.66-83.66q5 5.7 10.65 11.36c4 4 8 7.75 12 11.31L92.79 413.08a23.15 23.15 0 1032.73 32.74L308 263.35c1 .52 2.05 1 3.06 1.5 12 5.66 22 7.75 30.24 7.75 13.8 0 22.54-5.91 27.36-10.7l57-57a23 23 0 004.31-6c5.61-9.64 8.95-25.67-2.41-50.2z" fill="#fff"/>
    <path d="M294.37 73.6l-56.19 56.18c-.17.16-.38.26-.55.42-11.95 11.89 3.68 45.64 36.36 78.51s66.33 48.7 78.29 36.82l57-57z" fill="#4d4d4d"/>
    <path d="M408 189.81c11.95-11.88-3.68-45.64-36.36-78.51s-66.34-48.7-78.29-36.81S297 120.12 329.7 153s66.3 48.69 78.3 36.81z" fill="#666"/>
    <path d="M298.47 113l-56 56a172.76 172.76 0 0020.15 28l55.94-55.94A172.09 172.09 0 01298.47 113z" fill="gray"/>
    <path d="M410.76 156.48c-6.93-15-19.66-32.17-35.84-48.44-35.67-35.89-70.56-51-84.84-36.84-.42.42-.81.86-1.18 1.31l-53.74 53.75a5.93 5.93 0 00-.79.66c-9.69 9.63-5.91 28.83 8.64 51.38l-99.39 99.39a4.63 4.63 0 006.55 6.55l98.18-98.19A226.55 226.55 0 00270.7 212a226.68 226.68 0 0026.41 23L105.88 426.17a4.63 4.63 0 106.55 6.55L304.6 240.55c.09-.09.15-.19.23-.28 13.9 9 26.52 13.82 36.37 13.82 5.87 0 10.76-1.72 14.35-5.29l57-57a4.55 4.55 0 001-1.6c3.8-5.86 5.37-16.09-2.79-33.72zM304.54 75.12c13.16 0 37.38 12.85 63.82 39.45 15.43 15.52 27.51 31.79 34 45.8 5.74 12.41 6.61 21.94 2.37 26.16-1.77 1.76-4.46 2.65-7.92 2.65-13.17 0-37.39-12.86-63.82-39.45-32.31-32.5-44.11-61.56-37.14-71.07l1.6-1.6a11.78 11.78 0 017.09-1.94zM349 242.24c-8.51 8.46-38.36-3.2-71.75-36.79-33.17-33.36-44.72-63.1-36.56-71.77.19-.14.37-.28.54-.43l.21-.19L285 89.55c2 17.39 16.72 41.83 41.46 66.71s49.31 39.92 66.7 41.88z" fill="#424242"/>
</svg>
