<svg xmlns="http://www.w3.org/2000/svg" viewBox="0 0 500 500">
    <rect width="500" height="500" rx="80" fill="#f382c4"/>
    <path d="M449.89 226.58v-92.37a28.07 28.07 0 00-28-28h-58.51a28.07 28.07 0 00-28 28v24.25h-40.55a36.44 36.44 0 00-35.21 27.24V120a24.2 24.2 0 00-1-6.86l-3.88-22.48a31.05 31.05 0 00-30.68-25.88h-18.45a31.05 31.05 0 00-30.69 25.86l-4.13 24a25.29 25.29 0 00-.42 5.79v39.17h-4.71v-24.3a28.07 28.07 0 00-28-28h-58.5a28.07 28.07 0 00-28 28v92.38a27.77 27.77 0 00-20.91 26.87V289a27.76 27.76 0 0020.91 26.87v92.39a28.07 28.07 0 0028 28h58.46a28.07 28.07 0 0028-28V384h40.51a36.46 36.46 0 0035.4-28l18.12-.09a36.44 36.44 0 0035.14 27h40.52v24.25a28.07 28.07 0 0028 28h58.47a28.07 28.07 0 0028-28v-92.34a27.77 27.77 0 0021-26.89v-34.46a27.77 27.77 0 00-20.89-26.89z" fill="#fff"/>
    <g>
        <path fill="#606060" d="M151.96 333.45V210.42l194.73-1.04v123.04l-194.73 1.03z"/>
        <path fill="#606060" d="M273.42 241h-12a56.21 56.21 0 100 61.83h12a30.92 30.92 0 000-61.83z"/>
        <circle cx="215" cy="271.93" r="10.24" fill="#b1b3b5"/>
        <circle cx="215" cy="271.93" r="5.47" fill="#e6e7e6"/>
        <path fill="#eaeaea" d="M281.55 346.56a13.28 13.28 0 0013.28 13.28h132V181.56h-132a13.28 13.28 0 00-13.28 13.28 13.29 13.29 0 0013.28 13.28h51.39v125.16h-51.39a13.28 13.28 0 00-13.28 13.28zm92.77-88.13a12.42 12.42 0 11-12.41 12.41 12.41 12.41 0 0112.41-12.41z"/>
        <path fill="#e4e4e4" d="M363.38 359.84h58.47a4.94 4.94 0 014.94 4.94v47.35h-68.35v-47.35a4.94 4.94 0 014.94-4.94z" transform="rotate(180 392.615 385.985)"/>
        <path fill="#e4e4e4" d="M358.44 129.27h68.35v47.35a4.94 4.94 0 01-4.94 4.94h-58.47a4.94 4.94 0 01-4.94-4.94v-47.35z" transform="rotate(180 392.615 155.41)"/>
        <path fill="#eaeaea" d="M219.45 195.93a13.27 13.27 0 00-13.28-13.28H74.22v178.28h132a13.27 13.27 0 0013.28-13.28 13.28 13.28 0 00-13.28-13.28h-51.44V209.21h51.39a13.28 13.28 0 0013.28-13.28zm-92.76 88.13a12.42 12.42 0 1112.41-12.42 12.41 12.41 0 01-12.41 12.42z"/>
        <path fill="#e4e4e4" d="M79.16 130.36h58.47a4.94 4.94 0 014.94 4.94v47.35H74.22V135.3a4.94 4.94 0 014.94-4.94zm-4.94 230.57h68.35v47.35a4.94 4.94 0 01-4.94 4.94H79.16a4.94 4.94 0 01-4.94-4.94v-47.35z"/>
        <path fill="#c6c8c8" d="M420 260.21h34.47a4.62 4.62 0 014.62 4.62v16.36h-43.66v-16.36a4.62 4.62 0 014.57-4.62z" transform="rotate(90 437.28 270.7)"/>
        <path fill="#c6c8c8" d="M41.94 261.3h43.71v16.36a4.62 4.62 0 01-4.65 4.62H46.56a4.62 4.62 0 01-4.62-4.62V261.3z" transform="rotate(90 63.79 271.79)"/>
        <path fill="#eaeaea" d="M197.68 94.54L193.47 119a4 4 0 000 .85v5.47a5.17 5.17 0 001.23 3.62 10.8 10.8 0 01.19 14.65 5.28 5.28 0 00-1.42 3.6v96.34a6 6 0 01-1.84 4.32 33.34 33.34 0 00-10.09 23.94v2.28c0 .39 0 .78.09 1.17 0 .19 0 .38.07.57.05.37.09.75.15 1.12 0 .18.07.36.1.54.06.38.12.75.2 1.13 0 .16.08.33.12.5.08.38.16.76.26 1.13 0 .15.09.3.13.45.1.39.21.78.33 1.16 0 .13.09.26.13.39.13.39.27.79.41 1.18l.13.33c.16.41.32.81.49 1.21l.12.28c.18.41.37.82.56 1.22l.12.23c.21.42.42.83.64 1.23l.11.19q.34.63.72 1.23l.1.15c.26.42.52.82.8 1.22a.91.91 0 00.08.13c.28.4.57.81.87 1.2l.08.1c.31.4.62.79.94 1.17l.07.08c.33.39.67.77 1 1.15l.07.06c.35.38.7.74 1.07 1.1a33.43 33.43 0 0046.86-.05c.35-.34.69-.69 1-1l.14-.15c.31-.34.62-.69.91-1l.18-.21c.28-.34.56-.68.83-1l.19-.26c.26-.34.51-.68.75-1l.21-.31q.34-.51.66-1c.08-.12.16-.24.23-.36.2-.33.4-.67.59-1l.23-.41c.18-.33.35-.67.52-1 .08-.15.15-.3.23-.46.15-.32.3-.66.45-1 .08-.17.15-.33.22-.5.14-.33.27-.66.4-1 .07-.18.14-.35.2-.54s.23-.65.34-1l.19-.57c.1-.33.19-.66.28-1s.12-.41.17-.61.16-.66.23-1 .1-.42.14-.63.13-.66.19-1 .08-.42.11-.64.09-.7.13-1.05c0-.2.06-.41.08-.61 0-.43.07-.86.1-1.29v-.4c0-.57.05-1.15.05-1.74a33.34 33.34 0 00-10.07-23.91 6.12 6.12 0 01-1.87-4.39V147a5.08 5.08 0 00-1.58-3.45 10.75 10.75 0 010-14.63 5.94 5.94 0 001.58-3.79V120a4 4 0 00-.34-1L232 94.54a8 8 0 00-7.92-6.69h-18.47a8.05 8.05 0 00-7.93 6.69zM215.91 266a5.81 5.81 0 11-6.66 6.66 5.86 5.86 0 016.66-6.66z"/>
    </g>
    <g>
        <path fill="#333" d="M374.32 287.88a17 17 0 10-17-17 17.05 17.05 0 0017 17zm0-24.83a7.8 7.8 0 11-7.79 7.79 7.8 7.8 0 017.79-7.79zm-247.63-8.44a17 17 0 1017 17 17 17 0 00-17-17zm0 24.83a7.8 7.8 0 117.79-7.8 7.81 7.81 0 01-7.79 7.8z"/>
        <path fill="#333" d="M443.15 244.22h-11.74v-110a9.57 9.57 0 00-9.56-9.56h-58.47a9.57 9.57 0 00-9.56 9.56v42.73h-59a17.86 17.86 0 00-15.47 26.86h-38.21V147a9.55 9.55 0 00-2.81-6.6 6.15 6.15 0 010-8.33 10.45 10.45 0 002.82-6.94V120a5.92 5.92 0 00-.51-2.36l-4.11-23.86a12.63 12.63 0 00-12.47-10.53h-18.45a12.65 12.65 0 00-12.49 10.53l-4.19 24.34a5.87 5.87 0 00-.08 1.7v5.47a9.74 9.74 0 002.46 6.76 6.19 6.19 0 01.19 8.37 9.86 9.86 0 00-2.65 6.74V178h-41.67v-42.7a9.57 9.57 0 00-9.56-9.56H79.16a9.57 9.57 0 00-9.56 9.56v110H57.92a9.26 9.26 0 00-9.24 9.24V289a9.25 9.25 0 009.24 9.24H69.6v110a9.57 9.57 0 009.56 9.56h58.46a9.57 9.57 0 009.56-9.56v-42.69h59a17.89 17.89 0 0015.7-26.48h56.72a17.85 17.85 0 0016.23 25.39h59v42.73a9.57 9.57 0 009.56 9.56h58.47a9.57 9.57 0 009.56-9.56v-110h11.74a9.24 9.24 0 009.24-9.24v-34.48a9.25 9.25 0 00-9.25-9.25zm-80.09-110a.32.32 0 01.32-.32h58.47a.32.32 0 01.32.32v42.73h-59.11zm-21 78.83v116.78H233.13a60.73 60.73 0 0030.73-22.37h9.56a35.53 35.53 0 000-71.06h-9.56a61 61 0 00-22.72-19.13V213zM177 273.73v.73c0 .4.06.8.1 1.21a3.78 3.78 0 00.06.47v.3c0 .38.09.76.15 1.15l.09.47v.21c.07.41.14.81.23 1.22 0 .15.06.29.1.44v.11c.1.44.2.88.31 1.31 0 .13.07.26.11.39v.11c.13.45.25.89.38 1.3l.15.47c.15.45.31.91.47 1.34 0 .11.08.22.15.39.18.46.36.92.54 1.35 0 .1.09.2.16.35q.3.69.63 1.38l.13.26c.24.47.48.94.74 1.41l.12.21c.27.47.54.94.82 1.39l.11.18c.29.47.6.94.91 1.4l.1.13c.32.46.65.92 1 1.36l.09.11c.35.46.71.91 1 1.31l.11.12c.38.45.76.88 1.15 1.31l.08.07c.39.43.8.84 1.21 1.25a38.07 38.07 0 0053.35-.06c.39-.39.78-.79 1.14-1.17l.17-.19c.36-.39.71-.78 1.05-1.18l.19-.24c.33-.39.64-.78 1-1.19l.21-.28c.29-.39.57-.77.86-1.18l.23-.35c.26-.38.51-.77.75-1.14l.26-.42c.23-.38.46-.76.69-1.17l.24-.45c.21-.38.41-.76.59-1.13.09-.17.18-.35.26-.53.18-.37.36-.75.52-1.12v-.1c.08-.16.15-.33.22-.48l.45-1.12.24-.63c.13-.36.25-.73.38-1.13l.22-.64c.11-.37.21-.74.31-1.1v-.17q.08-.25.15-.54c.09-.35.17-.7.26-1.12v-.19l.12-.53c.07-.34.13-.69.21-1.13v-.19c0-.18.07-.36.09-.54.06-.35.1-.7.14-1v-.31c0-.18.05-.35.07-.54.05-.48.08-1 .12-1.53v-2.38a37.79 37.79 0 00-11.45-27.22 1.48 1.48 0 01-.48-1.08v-15.68a51.7 51.7 0 0116.44 15.78 4.61 4.61 0 003.85 2.07h12a26.3 26.3 0 010 52.59h-12a4.61 4.61 0 00-3.85 2.07 51.58 51.58 0 11-68.73-73.13v16.31a1.43 1.43 0 01-.45 1 37.79 37.79 0 00-11.48 27.24c.38.68.39 1.34.46 2.01zm11.88-57a60.93 60.93 0 00-32.27 36.64V213h32.27zm-32.27 73.7a61.1 61.1 0 0039.29 39.35h-39.32zm45.62-195.1a3.42 3.42 0 013.38-2.85h18.44a3.42 3.42 0 013.37 2.86l4.21 24.41a4.83 4.83 0 00.27 1v4.35a1.66 1.66 0 01-.35.69 15.43 15.43 0 000 20.91 2.71 2.71 0 01.34.44v96.34a10.81 10.81 0 003.26 7.69 28.63 28.63 0 018.68 20.61c0 .5 0 1-.05 1.58v.27c0 .37-.05.74-.08 1.1l-.09.69c0 .25-.06.51-.1.75l-.11.65c0 .26-.09.52-.14.77l-.14.61c-.06.26-.12.53-.18.77l-.15.53-.24.84-.16.5c-.1.29-.19.57-.29.84l-.18.47c-.11.29-.23.57-.35.87l-.18.41c-.13.29-.26.57-.4.86l-.19.39c-.15.29-.29.57-.46.88l-.18.33-.51.86-.2.33c-.19.29-.38.59-.58.88l-.17.26c-.21.3-.43.59-.66.91l-.16.2c-.23.3-.46.6-.71.89l-.15.18c-.26.31-.52.6-.79.9a.74.74 0 00-.12.13c-.29.31-.59.61-.89.91a28.82 28.82 0 01-40.39 0c-.31-.3-.62-.62-.9-.92l-.08-.08c-.3-.32-.59-.65-.88-1l-.05-.06c-.28-.33-.55-.67-.8-1l-.08-.11c-.26-.34-.51-.69-.75-1l-.08-.1c-.24-.35-.46-.7-.67-1l-.1-.15c-.21-.35-.42-.71-.61-1.05l-.1-.17c-.19-.35-.38-.71-.57-1.1l-.08-.16c-.17-.35-.33-.7-.49-1.07l-.11-.23c-.14-.34-.28-.69-.42-1.06l-.11-.27c-.12-.33-.24-.67-.35-1l-.11-.35c-.11-.33-.2-.67-.29-1l-.11-.38c-.08-.32-.15-.64-.23-1l-.1-.42c-.06-.29-.11-.59-.17-1l-.08-.45c-.05-.28-.08-.56-.11-.83l-.08-.64c0-.29-.05-.59-.07-.88l-.05-.6v-1.5a28.6 28.6 0 018.7-20.63 10.76 10.76 0 003.23-7.63v-96.36a.67.67 0 01.18-.45 15.47 15.47 0 00-.13-20.88 2.84 2.84 0 010-.54v-5.86zM79.16 135h58.46a.33.33 0 01.33.33V178H78.83v-42.7a.33.33 0 01.33-.3zM57.92 289v-34.45H69.6V289zm80 119.25a.32.32 0 01-.33.32H79.16a.32.32 0 01-.33-.32v-42.7H138zm76.88-60.63a8.66 8.66 0 01-8.66 8.66H78.83v-62a3.51 3.51 0 00.07-.66v-43.69a3.7 3.7 0 00-.07-.66v-62h110v16.53H152a4.61 4.61 0 00-4.61 4.62v126a4.61 4.61 0 004.61 4.62h55.32a8.66 8.66 0 017.51 8.61zm71.34-1.09a8.61 8.61 0 014.2-7.43l.09-.06h56.23a4.62 4.62 0 004.62-4.62v-126a4.62 4.62 0 00-4.62-4.62h-50.23a4.46 4.46 0 00-1.6-.3 8.66 8.66 0 110-17.32h127.34v169H294.83a8.67 8.67 0 01-8.66-8.62zm135.68 60.95h-58.44a.32.32 0 01-.32-.32v-42.7h59.11v42.73a.32.32 0 01-.32.32zm21.3-119.57h-11.71v-34.45h11.74z"/>
        <path fill="#333" d="M213.38 282.05a11.3 11.3 0 001.63.13 10.44 10.44 0 0010.29-12.05 10.46 10.46 0 00-8.69-8.69 10.43 10.43 0 00-11.92 11.92 10.48 10.48 0 008.69 8.69zm.77-11.15a1.16 1.16 0 01.85-.35h.21a1.23 1.23 0 011 .95 1.2 1.2 0 01-1.39 1.4 1.24 1.24 0 01-1-1 1.21 1.21 0 01.33-1z"/>
    </g>
</svg>
