<svg id="Layer_1" xmlns="http://www.w3.org/2000/svg" viewBox="0 0 150 150">
    <style>
        .line{stroke:#333;stroke-width:3;stroke-linecap:round;stroke-linejoin:round;stroke-miterlimit:10}
    </style>
    <path class="line" fill="#fff" d="M116.54 126.978H31.507V10.643h58.76l26.273 26.273z"/>
    <path class="line" fill="#fff" d="M116.54 36.916L90.267 10.643v26.273z"/>
    <circle class="line" fill="#fff" cx="109.343" cy="119.781" r="19.576"/>
    <path class="line" fill="#fff" d="M98.704 119.781h21.278M109.343 109.142v21.278"/>
    <g>
        <path d="M31.507 61.903a.92.92 0 0 1-.647-.269l-2.98-2.98a1.501 1.501 0 0 0-1.054-.437h-3.862c-.762 0-1.381-.62-1.381-1.381v-8.799c0-.399.18-.782.494-1.048l.171-.12c6.686-4.735 14.483-7.215 22.608-7.215a38.89 38.89 0 0 1 21.479 6.438 3.348 3.348 0 0 0 1.847.563h24.235c.762 0 1.382.62 1.382 1.381v8.799c0 .762-.62 1.381-1.382 1.381H42.26a1.48 1.48 0 0 0-1.054.437l-2.98 2.981a.91.91 0 0 1-.647.268h-6.072z" fill="#ffdf24"/>
        <path d="M44.855 40.154a38.393 38.393 0 0 1 21.204 6.355 3.847 3.847 0 0 0 2.122.646h24.235c.486 0 .881.395.881.881v8.799a.883.883 0 0 1-.882.882H42.26c-.532 0-1.032.207-1.408.583l-2.981 2.981a.415.415 0 0 1-.294.122h-6.07a.412.412 0 0 1-.294-.122l-2.98-2.981a1.978 1.978 0 0 0-1.408-.583h-3.862a.882.882 0 0 1-.881-.881v-8.799c0-.321.172-.535.292-.644l.155-.111.068-.048a38.306 38.306 0 0 1 22.258-7.08m0-1a39.383 39.383 0 0 0-22.837 7.264c-.089.063-.178.125-.266.189a1.87 1.87 0 0 0-.671 1.429v8.799a1.88 1.88 0 0 0 1.881 1.881h3.862a.99.99 0 0 1 .701.29l2.981 2.981c.265.265.625.415 1.001.415h6.07c.375 0 .735-.149 1.001-.415l2.981-2.981a.99.99 0 0 1 .701-.29H92.417a1.882 1.882 0 0 0 1.882-1.882v-8.799a1.88 1.88 0 0 0-1.881-1.881H68.183a2.852 2.852 0 0 1-1.572-.481 39.387 39.387 0 0 0-21.756-6.519z" fill="#ffb012"/>
        <path d="M31.507 97.027a.908.908 0 0 1-.647-.268l-2.981-2.981a1.503 1.503 0 0 0-1.054-.437h-3.862a1.382 1.382 0 0 1-1.381-1.381v-13.8c0-.762.62-1.382 1.381-1.382h3.862c.129 0 .256.053.347.144l2.981 2.981c.361.361.842.561 1.354.561h6.07c.512 0 .993-.199 1.354-.561l2.98-2.981a.496.496 0 0 1 .347-.144h62.898c.762 0 1.381.62 1.381 1.382v13.8c0 .762-.619 1.382-1.381 1.382H42.26c-.397 0-.772.155-1.054.436l-2.981 2.982a.908.908 0 0 1-.647.268h-6.071z" fill="#82d5ef"/>
        <path d="M26.819 77.277l2.981 2.981a2.4 2.4 0 0 0 1.708.707h6.07a2.4 2.4 0 0 0 1.708-.707l2.974-2.978h62.898c.486 0 .881.395.881.881V91.96a.883.883 0 0 1-.882.882H42.26c-.532 0-1.032.207-1.408.583l-2.981 2.981a.415.415 0 0 1-.294.122h-6.07a.412.412 0 0 1-.294-.122l-2.981-2.981a1.978 1.978 0 0 0-1.408-.583h-3.862a.882.882 0 0 1-.881-.881v-13.8c0-.486.395-.881.881-.881l3.857-.003m78.339-.998H42.26a.99.99 0 0 0-.701.29l-2.981 2.981a1.415 1.415 0 0 1-1.001.414h-6.07c-.375 0-.735-.149-1.001-.414l-2.981-2.981a.99.99 0 0 0-.701-.29h-3.862a1.88 1.88 0 0 0-1.881 1.881v13.8a1.88 1.88 0 0 0 1.881 1.881h3.862a.99.99 0 0 1 .701.29l2.981 2.981c.265.265.625.414 1.001.414h6.07c.375 0 .735-.149 1.001-.415l2.981-2.981a.99.99 0 0 1 .701-.29h62.898a1.882 1.882 0 0 0 1.882-1.882V78.161a1.883 1.883 0 0 0-1.882-1.882z" fill="#2ab7d8"/>
        <path d="M31.507 79.465a.906.906 0 0 1-.647-.268l-2.981-2.981a1.503 1.503 0 0 0-1.054-.437h-3.862c-.762 0-1.381-.62-1.381-1.381V60.599c0-.762.62-1.382 1.381-1.382h3.862c.129 0 .256.052.347.144l2.981 2.981c.362.362.843.561 1.354.561h6.07c.511 0 .992-.199 1.354-.561l2.981-2.981a.491.491 0 0 1 .347-.144h83.806c.762 0 1.381.62 1.381 1.382v13.799c0 .762-.619 1.381-1.381 1.381H42.26c-.397 0-.772.155-1.054.436l-2.981 2.982a.908.908 0 0 1-.647.268h-6.071z" fill="#f382c4"/>
        <path d="M26.819 59.714l2.981 2.981a2.4 2.4 0 0 0 1.708.707h6.07a2.4 2.4 0 0 0 1.708-.707l2.974-2.978h83.806c.486 0 .881.395.881.881v13.799a.883.883 0 0 1-.882.882H42.26c-.532 0-1.032.207-1.408.583l-2.981 2.981a.415.415 0 0 1-.294.122h-6.07a.412.412 0 0 1-.294-.122l-2.981-2.981a1.978 1.978 0 0 0-1.408-.583h-3.862a.882.882 0 0 1-.881-.881v-13.8c0-.486.395-.881.881-.881l3.857-.003m99.246-.997H42.26a.99.99 0 0 0-.701.29l-2.981 2.981a1.416 1.416 0 0 1-1.001.415h-6.07c-.375 0-.735-.149-1.001-.415l-2.981-2.981a.99.99 0 0 0-.701-.29h-3.862a1.88 1.88 0 0 0-1.881 1.881v13.8a1.88 1.88 0 0 0 1.881 1.881h3.862a.99.99 0 0 1 .701.29l2.981 2.981c.265.265.625.414 1.001.414h6.07c.375 0 .735-.149 1.001-.415l2.981-2.981a.99.99 0 0 1 .701-.29h83.805a1.882 1.882 0 0 0 1.882-1.882V60.598a1.882 1.882 0 0 0-1.882-1.881z" fill="#ef43ad"/>
        <g>
            <path d="M44.855 39.154a39.374 39.374 0 0 1 21.755 6.52 2.852 2.852 0 0 0 1.572.481h24.235a1.88 1.88 0 0 1 1.881 1.881v8.799a1.882 1.882 0 0 1-1.882 1.882h33.649c1.039 0 1.881.843 1.881 1.881v13.799a1.882 1.882 0 0 1-1.882 1.882h-20.907c1.039 0 1.881.843 1.881 1.881v13.8a1.883 1.883 0 0 1-1.882 1.882H42.26a.995.995 0 0 0-.701.29l-2.981 2.981a1.416 1.416 0 0 1-1.001.415h-6.07c-.375 0-.735-.149-1.001-.415l-2.981-2.981a.99.99 0 0 0-.701-.29h-3.862a1.88 1.88 0 0 1-1.881-1.881v-13.8a1.88 1.88 0 0 1 1.881-1.881 1.881 1.881 0 0 1-1.881-1.881v-13.8a1.88 1.88 0 0 1 1.881-1.881 1.881 1.881 0 0 1-1.881-1.881v-8.799c0-.575.264-1.084.671-1.429a39.363 39.363 0 0 1 23.103-7.455m-7.277 23.249c.376 0 .735-.149 1.001-.414v-.001a1.42 1.42 0 0 1-1.001.415m1 17.148a1.42 1.42 0 0 1-1 .414 1.421 1.421 0 0 0 1-.414m6.277-43.397a42.294 42.294 0 0 0-24.571 7.816l-.293.209-.091.066-.086.073a4.868 4.868 0 0 0-1.732 3.718v8.799c0 .666.134 1.302.377 1.881a4.85 4.85 0 0 0-.377 1.881v13.8c0 .666.134 1.302.377 1.881a4.85 4.85 0 0 0-.377 1.881v13.8a4.886 4.886 0 0 0 4.881 4.881h3.03l2.392 2.392a4.386 4.386 0 0 0 3.122 1.293h6.07a4.386 4.386 0 0 0 3.122-1.293l2.393-2.393h62.066a4.887 4.887 0 0 0 4.882-4.882V79.279h16.025a4.887 4.887 0 0 0 4.882-4.882V60.598a4.886 4.886 0 0 0-4.881-4.881H97.298v-7.681a4.886 4.886 0 0 0-4.881-4.881H68.24a42.388 42.388 0 0 0-23.385-7.001z" fill="#333"/>
        </g>
        <path fill="#fff" d="M105.069 71.385H65.858a3.911 3.911 0 0 1-3.9-3.9c0-2.145 1.755-3.9 3.9-3.9h39.211c2.145 0 3.9 1.755 3.9 3.9s-1.755 3.9-3.9 3.9zM54.66 88.902h-2.785a3.911 3.911 0 0 1-3.9-3.9c0-2.145 1.755-3.9 3.9-3.9h2.785c2.145 0 3.9 1.755 3.9 3.9s-1.755 3.9-3.9 3.9z"/>
    </g>
</svg>
