<svg id="Layer_1" xmlns="http://www.w3.org/2000/svg" viewBox="0 0 150 150">
    <path fill="#fff" d="M118.866 126.978H33.833V10.643h58.76l26.273 26.273z"/>
    <path fill="#333" d="M118.866 128.478H33.833a1.5 1.5 0 0 1-1.5-1.5V10.643a1.5 1.5 0 0 1 1.5-1.5h58.76c.397 0 .779.158 1.061.439l26.273 26.273a1.5 1.5 0 0 1 .439 1.061v90.062a1.5 1.5 0 0 1-1.5 1.5zm-83.533-3h82.034v-87.94L91.972 12.143H35.333v113.335z"/>
    <path fill="#fff" d="M118.866 36.916L92.593 10.643v26.273z"/>
    <path fill="#333" d="M118.866 38.416H92.593a1.5 1.5 0 0 1-1.5-1.5V10.643a1.499 1.499 0 0 1 2.561-1.061l26.273 26.273a1.499 1.499 0 0 1-1.061 2.561zm-24.773-3h21.152L94.093 14.264v21.152z"/>
    <g>
        <circle fill="#fff" cx="111.669" cy="119.781" r="19.576"/>
        <path fill="#333" d="M111.669 140.857c-11.621 0-21.076-9.455-21.076-21.076s9.455-21.075 21.076-21.075 21.075 9.454 21.075 21.075-9.454 21.076-21.075 21.076zm0-39.151c-9.967 0-18.076 8.108-18.076 18.075s8.109 18.076 18.076 18.076 18.075-8.109 18.075-18.076-8.108-18.075-18.075-18.075z"/>
    </g>
    <g>
        <path fill="#fff" d="M101.03 119.781h21.278"/>
        <path fill="#333" d="M122.308 121.281H101.03a1.5 1.5 0 0 1 0-3h21.277a1.5 1.5 0 0 1 .001 3z"/>
    </g>
    <g>
        <path fill="#fff" d="M111.669 109.142v21.278"/>
        <path fill="#333" d="M111.669 131.92a1.5 1.5 0 0 1-1.5-1.5v-21.277a1.5 1.5 0 0 1 3 0v21.277a1.5 1.5 0 0 1-1.5 1.5z"/>
    </g>
    <g>
        <path d="M42.721 89.018H24.539a7.389 7.389 0 0 1-7.389-7.389V53.765a7.389 7.389 0 0 1 7.389-7.389h18.182a7.389 7.389 0 0 1 7.389 7.389V81.63a7.388 7.388 0 0 1-7.389 7.388z" fill="#56c2f1"/>
        <path fill="#333" d="M42.722 90.518H24.54c-4.901 0-8.889-3.988-8.889-8.89V53.765c0-4.901 3.988-8.889 8.889-8.889h18.182c4.901 0 8.889 3.988 8.889 8.889v27.864c-.001 4.901-3.988 8.889-8.889 8.889zM24.54 47.875a5.896 5.896 0 0 0-5.889 5.889v27.864a5.896 5.896 0 0 0 5.889 5.89h18.182a5.896 5.896 0 0 0 5.889-5.89V53.765a5.896 5.896 0 0 0-5.889-5.889H24.54z"/>
        <path d="M84.442 96.943H66.26a7.389 7.389 0 0 1-7.389-7.389V61.689A7.389 7.389 0 0 1 66.26 54.3h18.182a7.389 7.389 0 0 1 7.389 7.389v27.865a7.39 7.39 0 0 1-7.389 7.389z" fill="#87d98c"/>
        <path fill="#333" d="M84.442 98.442H66.26c-4.901 0-8.889-3.987-8.889-8.889V61.689c0-4.901 3.988-8.889 8.889-8.889h18.182c4.901 0 8.889 3.987 8.889 8.889v27.865c0 4.901-3.987 8.888-8.889 8.888zM66.26 55.8a5.896 5.896 0 0 0-5.889 5.889v27.865a5.896 5.896 0 0 0 5.889 5.889h18.182a5.896 5.896 0 0 0 5.889-5.889V61.689a5.896 5.896 0 0 0-5.889-5.889H66.26z"/>
        <path d="M125.461 75.972h-18.182a7.389 7.389 0 0 1-7.389-7.389V40.719a7.389 7.389 0 0 1 7.389-7.389h18.182a7.389 7.389 0 0 1 7.389 7.389v27.865a7.39 7.39 0 0 1-7.389 7.388z" fill="#f382c4"/>
        <path fill="#333" d="M125.461 77.473h-18.183c-4.901 0-8.889-3.988-8.889-8.89V40.719c0-4.901 3.987-8.889 8.889-8.889h18.183c4.901 0 8.889 3.988 8.889 8.889v27.864c0 4.902-3.988 8.89-8.889 8.89zM107.278 34.83a5.896 5.896 0 0 0-5.889 5.889v27.864a5.896 5.896 0 0 0 5.889 5.89h18.183a5.896 5.896 0 0 0 5.889-5.89V40.719a5.896 5.896 0 0 0-5.889-5.889h-18.183z"/>
        <path fill="#333" d="M91.83 77.121a1.501 1.501 0 0 1-1.335-2.183l8.059-15.767a1.5 1.5 0 1 1 2.672 1.365l-8.059 15.767a1.5 1.5 0 0 1-1.337.818zM58.87 77.121c-.203 0-.41-.041-.608-.129l-8.761-3.891a1.5 1.5 0 0 1 1.218-2.742l8.761 3.891a1.5 1.5 0 0 1-.61 2.871z"/>
    </g>
</svg>
