<svg width="68" height="68" fill="none" xmlns="http://www.w3.org/2000/svg">
    <path d="M58.596 0H9.404A9.404 9.404 0 000 9.404v49.192A9.404 9.404 0 009.404 68h49.192A9.404 9.404 0 0068 58.596V9.404A9.404 9.404 0 0058.596 0z" fill="#F181C2"/>
    <path d="M42.415 54.74A8.84 8.84 0 0054.74 42.415a22.284 22.284 0 000-16.83A8.84 8.84 0 0042.415 13.26a22.294 22.294 0 00-16.833 0A8.84 8.84 0 0013.26 25.585a22.297 22.297 0 000 16.83A8.84 8.84 0 0025.585 54.74a22.284 22.284 0 0016.83 0z" fill="#fff"/>
    <path d="M25.13 51.68a19.72 19.72 0 0017.74 0 6.236 6.236 0 108.81-8.81 19.72 19.72 0 000-17.74 6.235 6.235 0 10-8.81-8.81 19.72 19.72 0 00-17.74 0 6.235 6.235 0 10-8.81 8.81 19.72 19.72 0 000 17.74 6.237 6.237 0 006.785 10.282 6.235 6.235 0 002.024-1.472zm-9.646-4.145a4.94 4.94 0 012.012-3.998.625.625 0 00.184-.799 18.466 18.466 0 010-17.476.645.645 0 00.075-.296.629.629 0 00-.259-.486 4.978 4.978 0 116.963-6.984.63.63 0 00.803.184 18.465 18.465 0 0117.476 0 .626.626 0 00.799-.18 4.977 4.977 0 116.967 6.963.629.629 0 00-.184.799 18.465 18.465 0 010 17.476.626.626 0 00.18.799 4.98 4.98 0 11-6.967 6.967.625.625 0 00-.799-.18 18.466 18.466 0 01-17.476 0 .629.629 0 00-.802.18 4.933 4.933 0 01-3.998 2.009 4.984 4.984 0 01-4.974-4.978z" fill="#424242"/>
    <path d="M47.535 21.75a1.285 1.285 0 100-2.57 1.285 1.285 0 000 2.57zm0 27.07a1.285 1.285 0 100-2.57 1.285 1.285 0 000 2.57zM20.461 21.75a1.285 1.285 0 100-2.57 1.285 1.285 0 000 2.57zm0 27.07a1.285 1.285 0 100-2.57 1.285 1.285 0 000 2.57zM48.164 34A14.164 14.164 0 1034 48.164 14.181 14.181 0 0048.164 34zM21.08 34a12.92 12.92 0 1125.841 0 12.92 12.92 0 01-25.841 0z" fill="#424242"/>
    <path d="M39.1 34a5.1 5.1 0 10-10.2 0 5.1 5.1 0 0010.2 0zm-8.962 0A3.852 3.852 0 1134 37.852 3.856 3.856 0 0130.148 34h-.01z" fill="#424242"/>
</svg>
