<svg width="68" height="68" fill="none" xmlns="http://www.w3.org/2000/svg">
    <path d="M55.08 24.534v-.32c0-.101-.054-.217-.082-.326-.027-.108 0-.142-.054-.21l-3.4-9.12-.04-.08v-.096l-.103-.17a2.716 2.716 0 00-.136-.238l-.061-.102a2.043 2.043 0 00-.156-.184c-.055-.06-.11-.129-.17-.19l-.075-.082a1.422 1.422 0 00-.197-.156 1.267 1.267 0 00-.19-.143l-.096-.129-.224-.116-.211-.102-.116-.054h-.04c-.062 0-.13-.034-.191-.054l-.231-.062h-1.36l-.204.062-.177.047-.095.041h-.082l-10.2 4.495V15.64a3.135 3.135 0 10-6.27 0v3.284a4.461 4.461 0 00-.999 1.537l-11.805 5.161h-.034l-.156.089-.272.15-.102.067-.082.075-.047.041-.238.197-.089.089-.068.088-.027.102a2.191 2.191 0 00-.184.238l-.074.095-.089.177c-.038.059-.072.12-.102.184v.088l-.04.082v.034l-3.435 9.112a2.143 2.143 0 00-.06.224c0 .095-.062.197-.082.3-.01.114-.015.23-.014.346a1.778 1.778 0 000 .19v.157c0 6.936 3.516 8.405 6.46 8.405s6.46-1.47 6.46-8.385v-.346a3.372 3.372 0 00-.034-.368c0-.102-.054-.197-.082-.299-.027-.102 0-.15-.054-.224l-2.346-6.352 7.528-3.304v22.351h-8.16a3.135 3.135 0 000 6.27H45.26a3.135 3.135 0 000-6.27H37.1V25.208a4.36 4.36 0 001-1.53l4.99-2.197-.802 2.19a2.273 2.273 0 00-.061.231c0 .095-.061.19-.082.3a3.223 3.223 0 00-.034.557v.156c.048 6.916 3.57 8.405 6.508 8.405s6.46-1.49 6.494-8.405v-.156c.007-.075-.034-.15-.034-.225z" fill="#fff"/>
    <path d="M45.26 25.384a.585.585 0 01-.217 0 .633.633 0 01-.374-.809l3.4-9.119a.627.627 0 111.177.436l-3.4 9.118a.62.62 0 01-.585.374z" fill="#424242"/>
    <path d="M51.986 25.384a.64.64 0 01-.592-.408l-3.359-9.118a.626.626 0 01.367-.803.64.64 0 01.81.367l3.366 9.12a.632.632 0 01-.374.808.604.604 0 01-.218.034zM16.014 38.236a.603.603 0 01-.218 0 .633.633 0 01-.374-.836l3.366-9.112a.625.625 0 111.177.428l-3.36 9.112a.638.638 0 01-.591.408z" fill="#424242"/>
    <path d="M22.74 38.236a.62.62 0 01-.586-.408l-3.366-9.118a.626.626 0 011.177-.429l3.4 9.112a.632.632 0 01-.374.81.586.586 0 01-.252.033zM34 52.986a.625.625 0 01-.626-.626V23.372a.626.626 0 111.252 0V52.36a.626.626 0 01-.626.626z" fill="#424242"/>
    <path d="M34 24.004a1.939 1.939 0 11-.013-3.878A1.939 1.939 0 0134 24.004zm0-2.611a.68.68 0 100 1.36.68.68 0 000-1.36z" fill="#424242"/>
    <path d="M34 21.393a.632.632 0 01-.626-.633v-5.12a.626.626 0 011.252 0v5.12a.632.632 0 01-.626.633zm1.306.727a.626.626 0 01-.252-1.196l13.314-5.855a.629.629 0 11.51 1.149l-13.32 5.848a.567.567 0 01-.252.054zM19.38 29.124a.626.626 0 01-.258-1.203l13.32-5.855a.625.625 0 01.824.326.619.619 0 01-.32.823L19.632 29.07a.68.68 0 01-.252.054zm0 14.518c-3.992 0-3.992-4.222-3.992-6.031a.626.626 0 111.252 0c0 2.87.469 4.76 2.72 4.76 2.25 0 2.72-1.911 2.72-4.76a.626.626 0 111.25 0c.035 1.829.035 6.031-3.95 6.031zM48.62 30.79c-3.985 0-3.985-4.222-3.985-6.031a.626.626 0 111.251 0c0 2.87.47 4.76 2.72 4.76 2.251 0 2.72-1.911 2.72-4.76a.626.626 0 111.252 0c.034 1.809.034 6.031-3.958 6.031z" fill="#424242"/>
    <path d="M22.74 38.236h-6.726a.625.625 0 110-1.25h6.725a.626.626 0 110 1.25zm29.246-12.852h-6.725a.626.626 0 010-1.25h6.725a.626.626 0 010 1.25zM45.26 52.986H22.74a.632.632 0 010-1.258h22.52a.632.632 0 010 1.258z" fill="#424242"/>
</svg>
