<svg width="68" height="68" fill="none" xmlns="http://www.w3.org/2000/svg">
    <path d="M58.596 0H9.404A9.404 9.404 0 000 9.404v49.192A9.404 9.404 0 009.404 68h49.192A9.404 9.404 0 0068 58.596V9.404A9.404 9.404 0 0058.596 0z" fill="#6BBC40"/>
    <path d="M58.514 32.116a3.136 3.136 0 00-5.61 1.449l-.04.279v.163H48.17l-.04-.265v-.184c-.742-5.256-1.503-10.69-2.51-14.593a2.318 2.318 0 00-.102-.279l-.075-.204a2.307 2.307 0 00-.197-.36l-.102-.163a1.922 1.922 0 00-.265-.279l-.136-.15a4.41 4.41 0 00-.286-.238c-.095-.074-.129-.102-.197-.142a3.06 3.06 0 00-.292-.157 2.218 2.218 0 00-.259-.122 4.074 4.074 0 00-.584-.163 2.76 2.76 0 00-.334-.034h-5.637v-4.658a3.135 3.135 0 10-6.27 0v21.603c-.516 3.652-1.42 10.071-2.393 14.015-.972-3.971-1.884-10.431-2.394-14.07-1.958-13.844-3.134-22.208-8.608-22.208s-6.658 8.364-8.61 22.202a2.516 2.516 0 002.136 2.836l.49.068.272.034.482.068a2.495 2.495 0 002.83-2.129c.55-3.638 1.427-10.098 2.4-14.035.972 3.971 1.883 10.431 2.4 14.07 1.952 13.81 3.128 22.174 8.602 22.174a4.291 4.291 0 002.394-.68 3.135 3.135 0 006.27 0V34.061c.557-3.937 1.128-7.949 1.78-11.179h1.123c.68 3.332 1.265 7.48 1.836 11.56.15 1.06.299 2.122.449 3.162v.095c0 .089.04.177.06.265.025.102.057.202.096.3.034.095.075.176.116.265l.136.251c.054.089.108.17.17.252l.163.197.224.231c.06.056.124.108.19.157.15.124.315.229.49.313.182.106.38.184.585.23l.252.076c.195.035.393.053.591.054h10.2a3.51 3.51 0 00.53-.054c.096 0 .184-.055.273-.082.088-.027.19-.048.278-.082.089-.034.204-.095.3-.15l.21-.108c.096-.061.184-.136.272-.204l.184-.17c.084-.072.161-.152.231-.238l.163-.19a3.04 3.04 0 00.17-.259c.054-.077.1-.159.136-.245.041-.088.082-.17.116-.265.039-.097.07-.197.095-.299 0-.088.048-.177.068-.265v-.095c.123-.87.252-1.748.374-2.632l.075-.524a3.108 3.108 0 00-.578-2.312z" fill="#fff"/>
    <path d="M28.492 54.142c-3.135 0-4.366-7.623-6.12-20.054-1.129-8.01-2.68-18.972-4.882-18.972-2.204 0-3.754 10.962-4.883 18.972a.619.619 0 01-.68.53.626.626 0 01-.537-.68c1.754-12.43 2.992-20.052 6.12-20.052s4.372 7.622 6.12 20.053c1.129 8.01 2.68 18.972 4.882 18.972 2.204 0 3.754-10.962 4.883-18.972a.618.618 0 01.68-.53.626.626 0 01.537.68c-1.748 12.43-2.985 20.053-6.12 20.053z" fill="#424242"/>
    <path d="M34 56.617a.626.626 0 01-.626-.626V12.016a.626.626 0 011.252 0V55.99a.626.626 0 01-.626.626zM42.554 20.4h-6.12a.633.633 0 010-1.258h6.12a.632.632 0 010 1.258zm13.009 17.374H45.45a.635.635 0 01-.698-.629.632.632 0 01.698-.629h10.112a.632.632 0 010 1.258z" fill="#424242"/>
    <path d="M55.563 37.774h-.095a.632.632 0 01-.53-.68l.387-2.72.061-.422a.629.629 0 111.244.177l-.06.422-.388 2.72a.633.633 0 01-.62.503zm-10.112 0a.632.632 0 01-.625-.537c-.15-1.04-.3-2.095-.442-3.149-.728-5.154-1.483-10.485-2.428-14.184a.626.626 0 011.21-.313c.966 3.767 1.714 9.132 2.455 14.32.15 1.057.3 2.104.449 3.142a.633.633 0 01-.53.68l-.089.041zM34 34.626h-.088a.626.626 0 01-.538-.68c.735-5.182 1.49-10.547 2.455-14.28a.628.628 0 111.217.306c-.952 3.706-1.7 9.03-2.427 14.184a.626.626 0 01-.619.47z" fill="#424242"/>
</svg>
