<svg width="68" height="67" fill="none" xmlns="http://www.w3.org/2000/svg">
    <path d="M58.67 32.16a2.48 2.48 0 00-.711-.659 2.52 2.52 0 00-.914-.34l-1.237-.2a2.538 2.538 0 00-1.322.135 2.5 2.5 0 00-1.065.783c-.939-5.488-1.877-9.675-5.658-9.675-3.577 0-4.61 3.745-5.501 8.79-.864-4.87-1.863-8.509-5.148-8.763V11.839a3.046 3.046 0 00-.195-1.226 3.082 3.082 0 00-.668-1.05 3.137 3.137 0 00-1.035-.708 3.175 3.175 0 00-3.5.707 3.047 3.047 0 00-.864 2.276V30.82c-.87-2.184-2.258-4.482-5.107-4.482-3.325 0-4.658 3.115-5.501 5.54-.837-2.425-2.176-5.54-5.495-5.54-3.645 0-4.896 3.752-5.732 6.224a3.047 3.047 0 00.174 2.354 3.121 3.121 0 001.811 1.545c.687.23 1.434.217 2.112-.037a3.102 3.102 0 001.601-1.356c.843 2.445 2.17 5.661 5.542 5.661 3.373 0 4.658-3.115 5.495-5.54.809 2.324 2.074 5.272 5.1 5.514V55.16a3.067 3.067 0 00.863 2.276 3.14 3.14 0 001.035.708 3.174 3.174 0 003.5-.708 3.045 3.045 0 00.864-2.276V37.895c.85 4.06 2.04 6.894 5.148 6.894 3.577 0 4.61-3.745 5.501-8.79.891 5.045 1.925 8.79 5.501 8.79 4.033 0 4.835-4.757 5.842-10.78a2.43 2.43 0 00-.436-1.849z" fill="#fff"/>
    <path d="M31.28 38.224c-1.83 0-2.604-2.305-3.352-4.53-.578-1.728-1.231-3.678-2.156-3.678s-1.584 1.95-2.162 3.678a.62.62 0 01-.314.358.635.635 0 01-.842-.275.61.61 0 01-.034-.471c.7-2.225 1.496-4.496 3.325-4.496 1.829 0 2.604 2.305 3.345 4.53.578 1.728 1.238 3.677 2.163 3.677.925 0 1.577-1.95 2.155-3.678a.62.62 0 01.314-.357.636.636 0 01.479-.035.625.625 0 01.363.31.61.61 0 01.034.47c-.748 2.192-1.516 4.497-3.318 4.497z" fill="#424242"/>
    <path d="M20.257 38.224c-1.829 0-2.604-2.305-3.345-4.53-.585-1.728-1.238-3.678-2.163-3.678-.925 0-1.577 1.95-2.155 3.678a.628.628 0 01-.322.323.641.641 0 01-.812-.264.615.615 0 01-.063-.447c.748-2.225 1.523-4.496 3.352-4.496 1.83 0 2.605 2.305 3.353 4.53.578 1.728 1.23 3.677 2.155 3.677.925 0 1.578-1.95 2.156-3.678a.627.627 0 01.321-.322.641.641 0 01.812.263.62.62 0 01.064.448c-.748 2.19-1.524 4.495-3.353 4.495zm22.005 4.093c-1.816 0-2.468-3.31-3.4-8.71-.415-2.492-1.285-7.685-2.135-7.685-.85 0-1.714 5.193-2.129 7.685a.617.617 0 01-.253.402.634.634 0 01-.875-.142.611.611 0 01-.11-.46c.905-5.408 1.551-8.71 3.367-8.71 1.815 0 2.468 3.309 3.4 8.71.415 2.492 1.292 7.684 2.135 7.684.843 0 1.714-5.186 2.128-7.678l1.238.2c-.904 5.394-1.55 8.704-3.366 8.704z" fill="#424242"/>
    <path d="M53.264 42.317c-1.815 0-2.461-3.31-3.4-8.71-.414-2.492-1.285-7.685-2.128-7.685-.843 0-1.714 5.193-2.135 7.685a.605.605 0 01-.252.405.624.624 0 01-.469.104.634.634 0 01-.406-.25.617.617 0 01-.11-.46c.91-5.407 1.556-8.71 3.4-8.71 1.842 0 2.46 3.31 3.4 8.71.42 2.493 1.291 7.685 2.134 7.685.844 0 1.714-5.192 2.136-7.685a.61.61 0 01.24-.433.63.63 0 011 .382.607.607 0 01-.01.252c-.904 5.4-1.584 8.71-3.4 8.71zM34 55.784a.637.637 0 01-.445-.18.619.619 0 01-.187-.436v-43.33a.615.615 0 01.159-.48.633.633 0 01.47-.207.64.64 0 01.47.206.62.62 0 01.159.482v43.329a.62.62 0 01-.186.434.637.637 0 01-.44.182z" fill="#424242"/>
</svg>
