<svg width="68" height="68" fill="none" xmlns="http://www.w3.org/2000/svg">
    <g clip-path="url(#clip0)">
        <path d="M56.195 45.635a8.151 8.151 0 00-.741-.64c.239-.245.436-.527.585-.836a24.33 24.33 0 00-39.29-27.41 24.337 24.337 0 0027.703 39.154c.211-.107.412-.235.598-.381.181.238.377.465.585.68a7.48 7.48 0 0010.56-10.567z" fill="#fff"/>
        <path d="M33.946 41.61a7.663 7.663 0 115.44-2.245 7.61 7.61 0 01-5.44 2.244zm0-14.063a6.405 6.405 0 104.528 10.927 6.4 6.4 0 00-4.528-10.927z" fill="#424242"/>
        <path d="M33.946 48.634a14.682 14.682 0 1110.39-4.298 14.62 14.62 0 01-10.39 4.298zm0-28.118a13.437 13.437 0 10.034 26.873 13.437 13.437 0 00-.034-26.873z" fill="#424242"/>
        <path d="M34 55.672a21.72 21.72 0 1119.72-12.6.626.626 0 01-.83.305.633.633 0 01-.312-.836 20.468 20.468 0 00-33.103-23.066 20.461 20.461 0 000 28.948 20.516 20.516 0 0023.31 3.998.626.626 0 11.545 1.129A21.65 21.65 0 0134 55.672z" fill="#424242"/>
        <path d="M50.912 55.76a4.862 4.862 0 11.01-9.723 4.862 4.862 0 01-.01 9.723zm0-8.466a3.604 3.604 0 102.55 1.054 3.611 3.611 0 00-2.55-1.04v-.014z" fill="#424242"/>
    </g>
    <defs>
        <clipPath id="clip0">
            <path fill="#fff" d="M0 0h68v68H0z"/>
        </clipPath>
    </defs>
</svg>
