<svg width="68" height="67" fill="none" xmlns="http://www.w3.org/2000/svg">
    <path d="M58.834 15.845A10.607 10.607 0 0057.01 9.87a10.847 10.847 0 00-4.892-3.963 11.031 11.031 0 00-6.304-.607 10.93 10.93 0 00-5.578 2.955l-8.956 8.858a3.792 3.792 0 00-1.822-.462 3.76 3.76 0 00-1.44.278c-.457.186-.872.46-1.22.807l-1.638 1.581a3.684 3.684 0 00-1.102 2.623c0 .984.396 1.927 1.102 2.623l.775.764-11.2 11.028a3.066 3.066 0 00-.918 2.184c0 .82.33 1.605.919 2.185a3.16 3.16 0 002.216.904c.832 0 1.63-.325 2.217-.904l11.193-11.029 3.522 3.471-23.8 23.45a3.061 3.061 0 00-.771 2.137c.027.783.355 1.527.918 2.08a3.158 3.158 0 002.112.902 3.163 3.163 0 002.168-.764l23.8-23.45.905.898a3.796 3.796 0 002.662 1.085c.998 0 1.956-.39 2.662-1.085l1.612-1.568a3.667 3.667 0 00.537-4.576l8.955-8.824a10.65 10.65 0 002.367-3.48c.547-1.304.827-2.7.823-4.111" fill="#fff"/>
    <path d="M16.953 39.155a.64.64 0 01-.45-.181.612.612 0 010-.871l13.5-13.313a.63.63 0 01.884 0 .619.619 0 010 .878L17.395 38.974a.63.63 0 01-.442.18zm-4.659 20.261a.632.632 0 01-.577-.381.608.608 0 01.135-.671l26.024-25.641a.63.63 0 01.884 0 .619.619 0 010 .877L12.743 59.236a.633.633 0 01-.449.18z" fill="#424242"/>
    <path d="M43.942 33.781L29.866 19.92a.63.63 0 00-.884 0L27.37 21.5a.619.619 0 000 .878L41.44 36.24a.637.637 0 00.89 0l1.612-1.588a.625.625 0 000-.87z" fill="#D5D5D5"/>
    <path d="M41.888 37.038a1.267 1.267 0 01-.89-.362l-14.07-13.863a1.23 1.23 0 010-1.748l1.632-1.588a1.264 1.264 0 011.768 0l14.076 13.869a1.23 1.23 0 010 1.742l-1.632 1.588a1.246 1.246 0 01-.884.362zM29.424 20.355l-1.612 1.58 14.076 13.87 1.632-1.588-14.096-13.862z" fill="#424242"/>
    <path d="M53.428 10.439a7.638 7.638 0 011.683 2.48 7.548 7.548 0 010 5.853 7.638 7.638 0 01-1.683 2.48L42.323 32.194 36.836 26.8l16.592-16.348" fill="#EAEAEA"/>
    <path d="M42.323 32.83a.63.63 0 01-.442-.18l-5.487-5.408a.618.618 0 01.442-1.058.63.63 0 01.442.18l5.045 4.972 10.663-10.52a6.983 6.983 0 002.088-4.97 6.983 6.983 0 00-2.088-4.972.618.618 0 01.442-1.058.63.63 0 01.442.18 8.25 8.25 0 011.822 2.681 8.15 8.15 0 010 6.33 8.25 8.25 0 01-1.822 2.68L42.765 32.63a.619.619 0 01-.442.201z" fill="#424242"/>
    <path d="M36.836 26.8l-5.488-5.427 11.104-10.934A7.767 7.767 0 0144.97 8.78a7.86 7.86 0 015.94 0 7.767 7.767 0 012.518 1.658L36.836 26.8z" fill="#F4F4F4"/>
    <path d="M36.836 27.403a.626.626 0 01-.442-.18l-5.488-5.415a.612.612 0 010-.87L42.004 9.995a8.476 8.476 0 015.933-2.412c2.223 0 4.356.867 5.933 2.412a.619.619 0 01-.442 1.058.63.63 0 01-.442-.18A7.201 7.201 0 0047.94 8.82a7.202 7.202 0 00-5.046 2.055L32.232 21.373l5.046 4.971a.619.619 0 01-.442 1.059z" fill="#424242"/>
    <path d="M30.9 21.814l-1.606 1.583 5.895 5.808 1.606-1.582-5.895-5.809z" fill="#EAEAEA"/>
    <path d="M40.367 31.144l-1.606 1.582 3.081 3.038 1.607-1.582-3.082-3.038z" fill="#BFBFBF"/>
    <path d="M41.888 37.038a1.267 1.267 0 01-.89-.362l-14.07-13.863a1.23 1.23 0 010-1.748l1.632-1.588a1.264 1.264 0 011.768 0l14.076 13.869a1.23 1.23 0 010 1.742l-1.632 1.588a1.246 1.246 0 01-.884.362zM29.424 20.355l-1.612 1.58 14.076 13.87 1.632-1.588-14.096-13.862z" fill="#424242"/>
    <path d="M41.48 14.995c-.556 0-1.1.163-1.561.468a2.783 2.783 0 00-1.036 1.242 2.736 2.736 0 00-.162 1.6 2.76 2.76 0 00.767 1.42 2.839 2.839 0 001.965.733 2.835 2.835 0 001.933-.811c.514-.507.81-1.19.824-1.905a2.751 2.751 0 00-.744-1.937 2.824 2.824 0 00-1.986-.81z" fill="#E65A57"/>
    <path d="M46.124 19.584c-.651 0-1.283.221-1.787.628-.504.407-.85.973-.977 1.603s-.03 1.283.278 1.85a2.8 2.8 0 001.405 1.255 2.854 2.854 0 001.896.092 2.812 2.812 0 001.523-1.114 2.742 2.742 0 00-.352-3.503 2.83 2.83 0 00-1.986-.81z" fill="#00A8D2"/>
</svg>
