<svg width="67" height="67" fill="none" xmlns="http://www.w3.org/2000/svg">
    <path d="M55.168 33.299h-7.029a4.91 4.91 0 100 6.177h7.029a3.09 3.09 0 000-6.177z" fill="#fff"/>
    <path d="M43.852 29.976a3.088 3.088 0 00-4.02-4.02l-14.808 6.137a4.843 4.843 0 00-4.454-.12 4.899 4.899 0 00-1.696 1.346h-7.042a3.09 3.09 0 000 6.177h7.028a4.899 4.899 0 008.516-1.701l14.834-6.15a3.057 3.057 0 001.642-1.67z" fill="#fff"/>
    <path d="M22.666 38.86a2.445 2.445 0 11-.013-4.89 2.445 2.445 0 01.013 4.89zm0-3.645a1.206 1.206 0 101.206 1.206 1.205 1.205 0 00-1.206-1.24v.034zm21.668 3.645a2.446 2.446 0 112.439-2.439 2.452 2.452 0 01-2.44 2.439zm0-3.645a1.206 1.206 0 101.206 1.206 1.205 1.205 0 00-1.206-1.24v.034z" fill="#424242"/>
    <path d="M20.844 37.004h-9.012a.623.623 0 010-1.24h9.012a.623.623 0 010 1.24zm34.324 0h-9.012a.623.623 0 010-1.24h9.012a.623.623 0 010 1.24zm-30.813-.697a.623.623 0 01-.235-1.192l16.643-6.895a.617.617 0 11.476 1.14l-16.65 6.9a.77.77 0 01-.234.047z" fill="#424242"/>
</svg>
