<svg width="68" height="68" fill="none" xmlns="http://www.w3.org/2000/svg">
    <g clip-path="url(#clip0)">
        <path d="M53.003 29.78V10.174a3.23 3.23 0 10-6.46 0v17.122a7.48 7.48 0 00-4.05 5.1A24.354 24.354 0 0018.227 9.687a3.23 3.23 0 100 6.46h.422a.309.309 0 01.265.289.289.289 0 01-.296.278h.164-.34a3.213 3.213 0 00-.422 6.406h-.126a.34.34 0 01.269.34c0 .156-.126.34-.282.34l.292-.02a3.23 3.23 0 00.068 6.46 3.804 3.804 0 010 7.605 3.23 3.23 0 00-.068 6.46l-.303-.023c.16 0 .28.183.286.34a.34.34 0 01-.269.323h.136a3.217 3.217 0 00.422 6.405h.279-.099a.289.289 0 01.293.279.303.303 0 01-.266.289h-.411a3.23 3.23 0 100 6.46A24.354 24.354 0 0042.5 35.652a7.479 7.479 0 004.05 5.1v17.126a3.23 3.23 0 006.46 0V29.781h-.007z" fill="#fff"/>
        <path d="M50.402 29.78V10.174a.63.63 0 00-1.258 0v19.04a4.858 4.858 0 000 9.639v19.04a.629.629 0 001.258 0V29.78zM18.227 40.42a.63.63 0 000 1.257 7.663 7.663 0 000-15.324.63.63 0 000 1.258 6.405 6.405 0 010 12.808z" fill="#424242"/>
        <path d="M18.227 12.288a.629.629 0 100 1.258 20.47 20.47 0 010 40.94.629.629 0 100 1.257 21.73 21.73 0 000-43.455z" fill="#424242"/>
        <path d="M18.431 47.454a.63.63 0 000 1.258c7.99 0 14.491-6.593 14.491-14.695s-6.5-14.695-14.49-14.695a.63.63 0 000 1.258c7.296 0 13.232 6.028 13.232 13.437s-5.936 13.437-13.233 13.437z" fill="#424242"/>
    </g>
    <defs>
        <clipPath id="clip0">
            <path fill="#fff" d="M0 0h68v68H0z"/>
        </clipPath>
    </defs>
</svg>
