<svg width="68" height="68" fill="none" xmlns="http://www.w3.org/2000/svg">
    <path d="M57.705 28.206l-.102-.115-.163-.211-.32-.292-3.264-3.264-.136-.13-.082-.081a3.466 3.466 0 00-.292-.259 6.797 6.797 0 00-1.49-.945 6.947 6.947 0 00-.917-1.462l-.102-.115-.164-.184-.312-.32-3.285-3.277-.108-.109-.048-.088a6.832 6.832 0 00-1.782-1.204 6.948 6.948 0 00-.938-1.462l-.095-.109-.157-.177a11.16 11.16 0 00-.326-.326l-3.298-3.284-.102-.102-.102-.096a2.148 2.148 0 00-.3-.258 6.684 6.684 0 00-4.317-1.578h-20a6.752 6.752 0 00-6.745 6.746V35.51a6.685 6.685 0 001.823 4.61c.032.046.069.09.109.13l3.495 3.494.102.102c.04.043.083.081.129.116a6.658 6.658 0 001.734 1.156 6.841 6.841 0 001.176 1.754c.041.041.075.096.123.136l3.495 3.496.068.068c.046.048.096.094.15.136.516.48 1.106.875 1.747 1.17a6.801 6.801 0 001.19 1.767l.109.123 3.475 3.474a.924.924 0 00.088.089l.163.15a6.698 6.698 0 004.556 1.781h20.006a6.752 6.752 0 006.745-6.746V32.49a6.8 6.8 0 00-1.536-4.284z" fill="#fff"/>
    <path d="M41.69 16.742l-.135-.15a2.738 2.738 0 00-.197-.197l-3.516-3.516-1.36 2.577h-17.51a3.523 3.523 0 00-3.516 3.516v18.972h-2.482l3.496 3.495.047.048a3.488 3.488 0 002.435.986h20.026a3.508 3.508 0 003.515-3.516V18.972a3.482 3.482 0 00-.802-2.23z" fill="gray"/>
    <path d="M38.978 43.119H18.972a4.134 4.134 0 01-2.829-1.115l-.04-.041-.082-.082-3.495-3.488a.68.68 0 01-.136-.68.633.633 0 01.584-.388h1.857v-18.36a4.141 4.141 0 014.141-4.141h17.143l1.17-2.244a.626.626 0 01.462-.326.639.639 0 01.544.17l3.515 3.522c.076.068.146.14.211.218l.143.156c.606.743.938 1.673.938 2.632v20.026a4.141 4.141 0 01-4.12 4.14zM16.946 41.03a2.876 2.876 0 001.992.81h20.04a2.897 2.897 0 002.89-2.89V18.971a2.89 2.89 0 00-.68-1.822l-.123-.136a1.812 1.812 0 00-.163-.157l-2.924-2.93-.952 1.822a.632.632 0 01-.558.34H18.972a2.883 2.883 0 00-2.883 2.883v18.972a.632.632 0 01-.626.632h-.972l2.42 2.414.035.041z" fill="#424242"/>
    <path d="M35.51 11.988H15.504a3.516 3.516 0 00-3.516 3.516V35.51a3.516 3.516 0 003.516 3.515H35.51a3.516 3.516 0 003.515-3.515V15.504a3.516 3.516 0 00-3.515-3.516z" fill="#999"/>
    <path d="M35.51 39.65H15.504a4.142 4.142 0 01-4.141-4.14V15.504a4.141 4.141 0 014.141-4.141H35.51a4.142 4.142 0 014.14 4.141V35.51a4.142 4.142 0 01-4.14 4.14zM15.504 12.62a2.883 2.883 0 00-2.883 2.884V35.51a2.883 2.883 0 002.883 2.883H35.51a2.883 2.883 0 002.883-2.883V15.504a2.883 2.883 0 00-2.883-2.883H15.504z" fill="#424242"/>
    <path d="M48.45 23.5l-.136-.149-.197-.197-3.516-3.516-1.36 2.578h-17.51a3.523 3.523 0 00-3.515 3.515v18.972H19.72l3.488 3.495c.02.013.036.029.048.048a3.488 3.488 0 002.434.986h20.047a3.522 3.522 0 003.515-3.516V25.731a3.482 3.482 0 00-.802-2.23z" fill="#999"/>
    <path d="M45.737 49.878H25.73a4.127 4.127 0 01-2.836-1.122l-.04-.04-.082-.082-3.488-3.489a.632.632 0 01-.136-.68.626.626 0 01.584-.387h1.857v-18.36a4.141 4.141 0 014.141-4.142h17.143l1.17-2.244a.634.634 0 011.006-.156l3.516 3.516.21.217.143.157a4.17 4.17 0 01.939 2.631v20.04a4.141 4.141 0 01-4.121 4.141zm-22.073-2.122l.068.062a2.89 2.89 0 002 .802h20.005a2.883 2.883 0 002.883-2.883V25.73a2.883 2.883 0 00-.68-1.822l-.122-.136-.164-.157-2.924-2.93-.952 1.822a.632.632 0 01-.557.34H25.73a2.883 2.883 0 00-2.883 2.883v18.972a.632.632 0 01-.633.626h-.965l2.42 2.42-.006.007z" fill="#424242"/>
    <path d="M42.269 18.748H22.263a3.516 3.516 0 00-3.515 3.515V42.27a3.516 3.516 0 003.515 3.515H42.27a3.516 3.516 0 003.515-3.515V22.263a3.516 3.516 0 00-3.515-3.515z" fill="#CACACA"/>
    <path d="M42.269 46.41H22.263a4.141 4.141 0 01-4.141-4.141V22.263a4.142 4.142 0 014.141-4.141H42.27a4.141 4.141 0 014.14 4.141V42.27a4.141 4.141 0 01-4.14 4.141zM22.263 19.38a2.883 2.883 0 00-2.883 2.883V42.27a2.883 2.883 0 002.883 2.883H42.27a2.883 2.883 0 002.883-2.883V22.263a2.883 2.883 0 00-2.883-2.883H22.263z" fill="#424242"/>
    <path d="M55.21 30.26l-.137-.15a2.726 2.726 0 00-.197-.19l-3.516-3.516L50 28.982H32.49a3.522 3.522 0 00-3.515 3.515V51.47H26.52l3.488 3.495c.02.013.036.029.048.048a3.488 3.488 0 002.434.986h20.006a3.522 3.522 0 003.515-3.516V32.49a3.468 3.468 0 00-.802-2.23z" fill="#CACACA"/>
    <path d="M52.496 56.637H32.49a4.08 4.08 0 01-2.829-1.122l-.047-.04-3.57-3.57a.639.639 0 01-.136-.68.633.633 0 01.578-.388h1.863v-18.36a4.14 4.14 0 014.141-4.141h17.15l1.176-2.244a.681.681 0 01.463-.334.613.613 0 01.537.177l3.515 3.516c.062.054.143.136.218.217l.143.157c.611.74.945 1.671.945 2.631v20.04a4.142 4.142 0 01-4.141 4.141zm-22.073-2.121l.068.054a2.87 2.87 0 002 .81h20.005a2.883 2.883 0 002.883-2.884V32.49a2.924 2.924 0 00-.68-1.822l-.122-.136-.157-.156-2.93-2.931-.925 1.795a.619.619 0 01-.558.34H32.49a2.883 2.883 0 00-2.883 2.883v18.972a.632.632 0 01-.632.626h-.966l2.42 2.42-.006.035z" fill="#424242"/>
    <path d="M49.028 25.507H29.022a3.516 3.516 0 00-3.515 3.515v20.006a3.516 3.516 0 003.515 3.516h20.006a3.516 3.516 0 003.516-3.516V29.022a3.516 3.516 0 00-3.516-3.515z" fill="#EAEAEA"/>
    <path d="M49.028 53.17H29.022a4.148 4.148 0 01-4.148-4.142V29.022a4.148 4.148 0 014.148-4.14h20.006a4.141 4.141 0 014.141 4.14v20.006a4.141 4.141 0 01-4.141 4.141zM29.022 26.14a2.89 2.89 0 00-2.89 2.882v20.006a2.89 2.89 0 002.89 2.883h20.006a2.883 2.883 0 002.883-2.883V29.022a2.883 2.883 0 00-2.883-2.883H29.022z" fill="#424242"/>
    <path d="M28.846 38.08a.428.428 0 01-.177 0 .435.435 0 01-.218-.571l3.713-8.432a.442.442 0 01.716-.128.428.428 0 01.08.475L29.24 37.8a.435.435 0 01-.394.28z" fill="#424242"/>
    <path d="M28.846 38.23a.571.571 0 01-.238-.048.625.625 0 01-.327-.333.605.605 0 010-.463l3.72-8.432a.612.612 0 01.795-.312.6.6 0 01.306.795L29.39 37.87a.612.612 0 01-.544.36zm3.72-9.296a.265.265 0 00-.246.156l-3.712 8.432a.238.238 0 000 .204.265.265 0 00.142.143.279.279 0 00.347-.136l3.72-8.432a.265.265 0 00-.136-.347.306.306 0 00-.116-.02z" fill="#424242"/>
    <path d="M36.278 38.08a.428.428 0 01-.395-.258l-3.72-8.453a.436.436 0 01.7-.487c.042.04.074.088.096.14l3.72 8.432a.435.435 0 01-.224.572.394.394 0 01-.177.054z" fill="#424242"/>
    <path d="M36.278 38.23a.598.598 0 01-.55-.354l-3.72-8.439a.605.605 0 010-.462.59.59 0 01.32-.333.605.605 0 01.795.306l3.713 8.452a.598.598 0 01-.558.843v-.013zm-3.713-9.296a.28.28 0 00-.109 0 .293.293 0 00-.142.143.3.3 0 000 .204l3.726 8.452a.265.265 0 00.347.136.265.265 0 00.136-.347l-3.72-8.432a.259.259 0 00-.238-.156z" fill="#424242"/>
    <path d="M34.843 35.557h-4.89a.436.436 0 010-.87h4.89a.435.435 0 010 .87z" fill="#424242"/>
    <path d="M34.843 35.727h-4.889a.605.605 0 110-1.21h4.89a.605.605 0 010 1.21zm-4.889-.87a.259.259 0 00-.265.265.265.265 0 00.265.265h4.89a.265.265 0 00.264-.265.259.259 0 00-.265-.265h-4.889z" fill="#424242"/>
</svg>
