<svg width="67" height="68" fill="none" xmlns="http://www.w3.org/2000/svg">
    <path d="M57.968 16.082a10.996 10.996 0 00-1.796-6.065 10.756 10.756 0 00-4.82-4.023 10.573 10.573 0 00-6.212-.615 10.673 10.673 0 00-5.496 2.999l-8.824 8.99a3.649 3.649 0 00-1.796-.47 3.61 3.61 0 00-1.419.283c-.45.189-.858.467-1.2.819l-1.615 1.604a3.796 3.796 0 00-1.086 2.663c0 .998.39 1.955 1.086 2.662l.764.775-11.035 11.193a3.159 3.159 0 00-.905 2.217c0 .831.326 1.628.905 2.216.58.588 1.365.919 2.184.919.82 0 1.605-.33 2.184-.919l11.029-11.192 3.47 3.522-23.45 23.8a3.163 3.163 0 00-.76 2.169c.026.795.35 1.55.904 2.111a3.067 3.067 0 002.082.915 3.061 3.061 0 002.136-.775l23.45-23.8.89.911a3.684 3.684 0 002.624 1.102c.984 0 1.927-.396 2.623-1.102l1.588-1.591a3.813 3.813 0 00.53-4.644l8.823-8.956c1-1.01 1.793-2.21 2.332-3.533.54-1.322.815-2.74.81-4.171" fill="#fff"/>
    <path d="M16.703 39.74a.616.616 0 01-.442-.184.63.63 0 010-.884l13.3-13.512a.612.612 0 01.87 0 .637.637 0 010 .89L17.14 39.557a.612.612 0 01-.436.183zm-4.589 20.562a.61.61 0 01-.57-.386.635.635 0 01.134-.681L37.32 33.21a.612.612 0 01.871 0 .637.637 0 010 .891L12.556 60.119a.623.623 0 01-.442.183z" fill="#424242"/>
    <path d="M43.295 34.286l-13.869-14.07a.612.612 0 00-.87 0l-1.588 1.605a.637.637 0 000 .891l13.862 14.07a.619.619 0 00.878 0l1.587-1.612a.644.644 0 000-.884z" fill="#D5D5D5"/>
    <path d="M41.272 37.59a1.217 1.217 0 01-.878-.367L26.532 23.154a1.268 1.268 0 010-1.775l1.608-1.611a1.23 1.23 0 01.871-.368c.327.002.64.134.871.368l13.869 14.076a1.268 1.268 0 010 1.768l-1.608 1.611a1.225 1.225 0 01-.871.367zM28.991 20.658l-1.588 1.605L41.272 36.34l1.608-1.611-13.89-14.07z" fill="#424242"/>
    <path d="M52.642 10.594a7.769 7.769 0 011.658 2.518 7.86 7.86 0 010 5.94 7.769 7.769 0 01-1.658 2.518L41.7 32.674 36.294 27.2l16.348-16.592" fill="#EAEAEA"/>
    <path d="M41.7 33.32a.612.612 0 01-.435-.184l-5.407-5.487a.637.637 0 010-.891.612.612 0 01.871 0l4.972 5.046 10.505-10.676a7.195 7.195 0 002.058-5.046c0-1.892-.74-3.707-2.058-5.046a.637.637 0 010-.89.612.612 0 01.871 0 8.385 8.385 0 011.796 2.72 8.487 8.487 0 010 6.425 8.387 8.387 0 01-1.796 2.72l-10.94 11.105a.612.612 0 01-.436.204z" fill="#424242"/>
    <path d="M36.294 27.2l-5.407-5.508 10.941-11.098a7.638 7.638 0 012.48-1.682 7.548 7.548 0 015.853 0 7.64 7.64 0 012.48 1.682L36.295 27.2z" fill="#F4F4F4"/>
    <path d="M36.294 27.812a.604.604 0 01-.436-.184l-5.406-5.494a.63.63 0 010-.884l10.934-11.104a8.226 8.226 0 015.846-2.45c2.19 0 4.292.881 5.845 2.45a.637.637 0 010 .89.612.612 0 01-.87 0 6.99 6.99 0 00-4.972-2.085 6.99 6.99 0 00-4.971 2.085L31.758 21.692l4.971 5.046a.637.637 0 01-.2 1.027.604.604 0 01-.235.047z" fill="#424242"/>
    <path d="M30.446 22.14l-1.583 1.606 5.809 5.895 1.582-1.606-5.808-5.895z" fill="#EAEAEA"/>
    <path d="M39.773 31.61l-1.582 1.605 3.036 3.082 1.583-1.605-3.037-3.083z" fill="#BFBFBF"/>
    <path d="M41.272 37.59a1.217 1.217 0 01-.878-.367L26.532 23.154a1.268 1.268 0 010-1.775l1.608-1.611a1.23 1.23 0 01.871-.368c.327.002.64.134.871.368l13.869 14.076a1.268 1.268 0 010 1.768l-1.608 1.611a1.225 1.225 0 01-.871.367zM28.991 20.658l-1.588 1.605L41.272 36.34l1.608-1.611-13.89-14.07z" fill="#424242"/>
    <path d="M45.714 17.625l-4.73 4.76a3.315 3.315 0 004.379-.315 3.437 3.437 0 00.311-4.444" fill="#00A8D2"/>
    <path d="M43.37 16.646a3.267 3.267 0 00-1.282.255c-.406.17-.774.422-1.084.738a3.427 3.427 0 00-.958 2.38c0 .89.344 1.745.958 2.38l4.73-4.76a3.325 3.325 0 00-2.345-.979" fill="#00AFDB"/>
</svg>
