<svg width="68" height="67" fill="none" xmlns="http://www.w3.org/2000/svg">
    <g clip-path="url(#clip0)">
        <path d="M50.429 27.41a1.23 1.23 0 010 1.748l-8.31 8.188a1.268 1.268 0 01-1.775 0l-2.72-2.714-25.955 25.54a.627.627 0 01-.694.155.626.626 0 01-.347-.342.608.608 0 01.157-.683L36.72 33.755 29.634 26.8 16.32 39.912a.63.63 0 01-1.02-.2.611.611 0 01.136-.671L28.75 25.922l-2.475-2.472a1.226 1.226 0 01-.368-.871 1.212 1.212 0 01.368-.871l8.31-8.16a1.247 1.247 0 01.884-.364 1.261 1.261 0 01.884.363L50.429 27.41z" fill="#fff"/>
        <path d="M11.227 62.826c-.62 0-1.226-.181-1.742-.52a3.1 3.1 0 01-1.155-1.387 3.046 3.046 0 01-.178-1.784c.12-.6.42-1.15.858-1.582l24.147-23.798-3.523-3.464-11.56 11.39a3.16 3.16 0 01-2.216.904 3.16 3.16 0 01-2.217-.904 3.05 3.05 0 010-4.368l11.56-11.39-.68-.67a3.678 3.678 0 01-1.101-2.62c0-.983.396-1.925 1.1-2.62l8.29-8.214a3.803 3.803 0 012.659-1.08c.996 0 1.952.388 2.659 1.08l14.076 13.869a3.684 3.684 0 011.098 2.62 3.69 3.69 0 01-1.098 2.62l-8.31 8.186c-.35.346-.764.62-1.221.806a3.808 3.808 0 01-4.103-.806l-.98-.971-24.146 23.798a3.169 3.169 0 01-2.217.904zM39.338 32.83l1.897 1.87 6.535-6.44-12.301-12.093-6.535 6.439L39.338 32.83zM49.436 9.119a.613.613 0 01.16-.482.632.632 0 01.469-.206.64.64 0 01.47.206.622.622 0 01.159.482 4.2 4.2 0 00.321 1.638c.216.52.534.992.936 1.39a4.35 4.35 0 003.067 1.253.63.63 0 01.443.18.612.612 0 010 .872.63.63 0 01-.442.18 5.626 5.626 0 01-3.945-1.608 5.46 5.46 0 01-1.638-3.885v-.02z" fill="#fff"/>
        <path d="M55.019 17.085a8.198 8.198 0 01-3.097-.604 8.1 8.1 0 01-2.627-1.727 7.965 7.965 0 01-1.756-2.585 7.871 7.871 0 01-.619-3.05c0-.82.33-1.605.918-2.184a3.159 3.159 0 012.217-.905c.831 0 1.629.325 2.216.905.588.579.919 1.364.919 2.184a1.72 1.72 0 00.53 1.266 1.791 1.791 0 001.285.523 3.175 3.175 0 012.217.904 3.05 3.05 0 010 4.368 3.14 3.14 0 01-1.017.67c-.38.155-.788.235-1.2.235h.014z" fill="#fff"/>
        <path d="M42.54 7.202a13.84 13.84 0 001.021 5.433 14.007 14.007 0 003.07 4.622 14.245 14.245 0 004.645 3.095 14.416 14.416 0 005.497 1.088.63.63 0 01.443.18.612.612 0 010 .872.63.63 0 01-.443.18 15.662 15.662 0 01-5.938-1.163 15.5 15.5 0 01-5.032-3.319 15.24 15.24 0 01-3.355-4.966 15.06 15.06 0 01-1.165-5.854v-.208a.62.62 0 01.205-.398.638.638 0 01.847 0 .62.62 0 01.206.398v.04z" fill="#fff"/>
        <path d="M56.773 25.118a18.227 18.227 0 01-6.896-1.345 18.013 18.013 0 01-5.847-3.847 17.713 17.713 0 01-3.904-5.76A17.502 17.502 0 0138.76 7.37v-.201c.009-.813.343-1.59.93-2.162a3.159 3.159 0 012.205-.893 3.171 3.171 0 012.19.92c.58.578.907 1.356.91 2.168a11.407 11.407 0 00.845 4.49 11.544 11.544 0 002.542 3.817 11.744 11.744 0 003.845 2.549c1.44.59 2.986.89 4.546.883.832 0 1.629.325 2.217.905.588.579.918 1.364.918 2.184 0 .819-.33 1.604-.918 2.184a3.159 3.159 0 01-2.217.904z" fill="#fff"/>
        <path d="M45.363 8.22a.61.61 0 01.183-.435.63.63 0 01.885 0 .612.612 0 01.183.436c0 2.425.98 4.75 2.72 6.465a9.325 9.325 0 006.535 2.68.638.638 0 01.443.185.619.619 0 01.182.439.619.619 0 01-.187.436.637.637 0 01-.445.18 10.727 10.727 0 01-7.395-3.087 10.415 10.415 0 01-3.104-7.298z" fill="#fff"/>
        <path d="M55.896 21.105a13.25 13.25 0 01-9.207-3.797 12.863 12.863 0 01-3.849-9.074 3.07 3.07 0 01.915-2.177 3.165 3.165 0 012.206-.911c.415-.015.828.057 1.214.209a2.98 2.98 0 011.023.675 3.022 3.022 0 01.925 2.177 6.725 6.725 0 002.013 4.717 6.926 6.926 0 004.787 1.984 3.16 3.16 0 012.217.904c.588.58.918 1.365.918 2.184 0 .82-.33 1.605-.918 2.184a3.159 3.159 0 01-2.217.905l-.027.02z" fill="#fff"/>
        <path d="M15.878 40.1a.64.64 0 01-.575-.386.614.614 0 01.133-.673l13.498-13.293a.625.625 0 01.447-.198.634.634 0 01.455.18.614.614 0 01.128.689.617.617 0 01-.146.2L16.32 39.92a.638.638 0 01-.442.18zm-4.651 20.26a.626.626 0 01-.442-.18.618.618 0 010-.878l26.023-25.635a.631.631 0 01.867.018.612.612 0 01.017.853L11.67 60.18a.62.62 0 01-.442.181z" fill="#424242"/>
        <path d="M40.8 36.91L26.717 23.041a.612.612 0 010-.87l8.31-8.188a.63.63 0 01.884 0l14.076 13.869a.612.612 0 010 .87l-8.31 8.188a.638.638 0 01-.89 0" fill="#4D4D4D"/>
        <path d="M41.235 37.708a1.263 1.263 0 01-.89-.362l-14.07-13.862a1.23 1.23 0 010-1.75l8.31-8.187a1.232 1.232 0 01.884-.361 1.272 1.272 0 01.89.361L50.43 27.41a1.23 1.23 0 010 1.748l-8.31 8.188a1.239 1.239 0 01-.884.362zm-5.766-23.29l-8.31 8.188 14.076 13.869 8.31-8.188-14.076-13.869z" fill="#424242"/>
        <path d="M38.299 17.21l-8.3 8.177 3.256 3.207 8.3-8.177-3.256-3.208z" fill="gray"/>
        <path d="M46.294 25.085l-8.302 8.174 3.25 3.202 8.303-8.174-2.645-2.6-.606-.602z" fill="#474747"/>
        <path d="M49.538 28.287l-8.296 8.174 8.296-8.18v.006zm-3.244-3.209l.606.603-.606-.603zm8.63-10.552a5.64 5.64 0 01-3.944-1.615 5.474 5.474 0 01-1.64-3.886.62.62 0 01.206-.398.638.638 0 01.847 0 .62.62 0 01.206.398 4.201 4.201 0 001.265 3.015c.401.396.878.71 1.404.924a4.374 4.374 0 001.656.322c.155.016.3.088.404.203a.618.618 0 010 .834.636.636 0 01-.404.203zm1.754 8.033a15.56 15.56 0 01-5.929-1.152 15.378 15.378 0 01-5.019-3.317 15.124 15.124 0 01-3.37-4.944 14.94 14.94 0 01-1.172-5.843.615.615 0 01.159-.482.633.633 0 01.47-.206.64.64 0 01.47.206.62.62 0 01.159.482 13.92 13.92 0 004.17 9.912 14.34 14.34 0 0010.062 4.104h.19a.63.63 0 01.443.18.612.612 0 010 .873.63.63 0 01-.443.18l-.19.007z" fill="#424242"/>
        <path d="M55.835 18.539a10.716 10.716 0 01-7.44-3.057 10.403 10.403 0 01-3.127-7.321c0-.165.065-.322.182-.439a.637.637 0 01.443-.185c.167 0 .327.065.445.18a.619.619 0 01.188.437 9.186 9.186 0 002.757 6.45 9.462 9.462 0 006.552 2.702.63.63 0 01.442.18.612.612 0 010 .872.63.63 0 01-.442.18z" fill="#424242"/>
    </g>
    <defs>
        <clipPath id="clip0">
            <path fill="#fff" d="M0 0h68v67H0z"/>
        </clipPath>
    </defs>
</svg>
