<svg width="67" height="67" fill="none" xmlns="http://www.w3.org/2000/svg">
    <path d="M50.176 22.854V11.832a3.096 3.096 0 00-3.088-3.088H36.073a3.089 3.089 0 00-3.089 3.088v2.104l-4.288-4.281a3.089 3.089 0 10-4.368 4.361l.234.242h-4.65a3.09 3.09 0 00-2.983 4.3 3.09 3.09 0 002.983 1.87h4.65l-.234.241a3.089 3.089 0 004.368 4.369l4.288-4.288v2.104a3.075 3.075 0 001.38 2.566 3.095 3.095 0 00-1.38 2.573v11.014a3.095 3.095 0 001.38 2.573 3.076 3.076 0 00-1.38 2.566v11.015a3.088 3.088 0 003.089 3.129h11.015a3.095 3.095 0 003.088-3.095V44.146a3.077 3.077 0 00-1.38-2.566 3.096 3.096 0 001.38-2.573V27.993a3.096 3.096 0 00-1.38-2.573 3.076 3.076 0 001.38-2.566z" fill="#fff"/>
    <path d="M47.088 23.45H36.073a.616.616 0 01-.617-.616V11.832a.616.616 0 01.617-.616h11.015a.618.618 0 01.616.616v11.022a.617.617 0 01-.616.596zm-10.399-1.22h9.782v-9.775H36.69v9.776zm10.399 17.394H36.073a.616.616 0 01-.617-.617V27.993a.616.616 0 01.617-.617h11.015a.616.616 0 01.616.617v11.014a.617.617 0 01-.616.617zM36.689 38.39h9.782v-9.782H36.69v9.782zm10.399 17.394H36.073a.616.616 0 01-.617-.616V44.146a.616.616 0 01.617-.616h11.015a.616.616 0 01.616.616v11.022a.617.617 0 01-.616.616zm-10.399-1.24h9.782V44.77H36.69v9.776zM32.02 17.963H19.911a.623.623 0 010-1.24H32.02a.623.623 0 010 1.24z" fill="#424242"/>
    <path d="M32.02 17.963a.609.609 0 01-.436-.181l-5.508-5.508a.623.623 0 010-.877.617.617 0 01.871 0l5.508 5.507a.623.623 0 01-.2 1.012.608.608 0 01-.236.047z" fill="#424242"/>
    <path d="M26.512 23.45a.609.609 0 01-.436-.18.623.623 0 010-.879l5.508-5.507a.617.617 0 011.052.439.623.623 0 01-.181.439l-5.508 5.507a.61.61 0 01-.435.181z" fill="#424242"/>
</svg>
