<svg width="68" height="67" fill="none" xmlns="http://www.w3.org/2000/svg">
    <path d="M58.596 0H9.404C4.21 0 0 4.149 0 9.266v48.468C0 62.85 4.21 67 9.404 67h49.192C63.79 67 68 62.851 68 57.734V9.266C68 4.15 63.79 0 58.596 0z" fill="#6BBC40"/>
    <path d="M55.991 30.411H53.04a8.402 8.402 0 00-3.119-3.927 8.595 8.595 0 00-4.83-1.486h-5.597a3.124 3.124 0 00-1.883.636l-.741-.904a6.622 6.622 0 00-2-1.645 6.715 6.715 0 00-2.488-.76 4.21 4.21 0 00-4.522-.717l-8.956-4.416-.088-.033-.313-.114-.279-.087-.3-.047h-.632a3.29 3.29 0 00-.625.107l-.245.074a2.74 2.74 0 00-.313.14l-.238.128c-.088.053-.17.114-.251.174a2.12 2.12 0 00-.238.194c-.071.062-.137.13-.198.201a2.274 2.274 0 00-.367.496 1.232 1.232 0 00-.109.174l-.04.094c-.041.087-.075.18-.11.275a3.92 3.92 0 00-.094.301c-.028.1 0 .174-.041.262v.067h-2.414a3.152 3.152 0 00-1.932.644 3.072 3.072 0 00-1.115 1.682 3.034 3.034 0 00.177 2.002 3.094 3.094 0 001.394 1.467 3.1 3.1 0 00-1.388 1.47 3.04 3.04 0 00-.175 2c.17.667.56 1.259 1.111 1.681a3.16 3.16 0 001.928.651h2.4c0 .1 0 .195.048.295.047.1.061.188.088.281.027.094.075.201.116.295l.04.094a2.848 2.848 0 00.558.757l.048.04c.122.124.257.237.401.335h.048l.244.148a3.077 3.077 0 00-1.088.967c-.28.403-.456.866-.516 1.35h-2.387a3.158 3.158 0 00-1.928.652A3.078 3.078 0 008.97 38.09a3.04 3.04 0 00.175 2 3.1 3.1 0 001.388 1.47 3.095 3.095 0 00-1.394 1.466 3.034 3.034 0 00-.177 2.002c.17.668.563 1.26 1.115 1.682a3.151 3.151 0 001.932.645h2.407c.097.74.465 1.42 1.034 1.914.57.493 1.302.765 2.06.766h5.61a8.623 8.623 0 004.42-1.225 8.453 8.453 0 003.135-3.305 4.231 4.231 0 001.965-1.112 6.674 6.674 0 003.142-2.124l1.217-1.48c.288.376.661.68 1.09.891.428.21.9.32 1.378.321h5.617a8.596 8.596 0 004.834-1.485 8.402 8.402 0 003.122-3.928h2.93c.832 0 1.63-.326 2.217-.905.588-.58.919-1.365.919-2.184 0-.82-.33-1.605-.919-2.184a3.158 3.158 0 00-2.216-.905h.02z" fill="#fff"/>
    <path d="M45.111 39.53h-5.617a.637.637 0 01-.442-.185.619.619 0 01-.183-.438v-10.82a.62.62 0 01.183-.439.637.637 0 01.442-.185h5.617a6.064 6.064 0 014.244 1.74 5.886 5.886 0 011.76 4.183v.228a5.886 5.886 0 01-1.762 4.18 6.064 6.064 0 01-4.242 1.736zm-4.991-1.233h4.984c.626 0 1.244-.121 1.822-.357a4.763 4.763 0 001.544-1.017 4.686 4.686 0 001.032-1.521c.24-.569.362-1.179.362-1.795v-.228a4.655 4.655 0 00-1.394-3.316 4.796 4.796 0 00-3.366-1.374H40.12v9.608z" fill="#424242"/>
    <path d="M55.991 34.116H50.49a.63.63 0 01-.442-.18.612.612 0 010-.872.63.63 0 01.442-.18h5.501a.63.63 0 01.443.18.612.612 0 010 .872.63.63 0 01-.443.18zM23.12 47.657h-5.61a.633.633 0 01-.442-.18.617.617 0 01-.184-.436V36.18c0-.163.066-.32.184-.436a.63.63 0 01.442-.18h5.61c.794 0 1.58.156 2.312.457a6.023 6.023 0 011.956 1.298c.559.556 1 1.215 1.3 1.939.299.724.45 1.5.443 2.282v.221a5.886 5.886 0 01-1.772 4.169 6.064 6.064 0 01-4.239 1.727zm-4.984-1.233h4.984a4.796 4.796 0 003.366-1.373 4.655 4.655 0 001.394-3.317v-.194a4.655 4.655 0 00-1.394-3.316 4.796 4.796 0 00-3.366-1.374h-4.984v9.574z" fill="#424242"/>
    <path d="M17.51 39.53h-5.501a.635.635 0 01-.405-.203.618.618 0 010-.834.636.636 0 01.405-.203h5.501c.155.017.3.089.404.203a.618.618 0 010 .834.635.635 0 01-.404.203zm0 5.42h-5.501a.63.63 0 01-.443-.18.612.612 0 010-.872.63.63 0 01.443-.18h5.501a.63.63 0 01.442.18.612.612 0 010 .872.63.63 0 01-.442.18zm12.05-1.668a1.703 1.703 0 01-.928-.297 1.667 1.667 0 01-.607-.753 1.64 1.64 0 01.39-1.8 1.71 1.71 0 011.836-.341c.306.127.567.341.75.615a1.644 1.644 0 01-.23 2.104 1.69 1.69 0 01-1.211.472zm0-2.084a.438.438 0 00-.304.128.419.419 0 000 .6.439.439 0 00.608 0 .426.426 0 00.13-.299.426.426 0 00-.127-.303.439.439 0 00-.307-.126zM17.51 23.282h-5.501a.63.63 0 01-.443-.18.612.612 0 010-.872.63.63 0 01.443-.18h5.501a.63.63 0 01.442.18.612.612 0 010 .872.63.63 0 01-.442.18zm0 5.421h-5.501a.635.635 0 01-.405-.203.618.618 0 010-.834.636.636 0 01.405-.203h5.501c.155.016.3.088.404.203a.618.618 0 010 .834.635.635 0 01-.404.203zm10.996-2.707a.633.633 0 01-.286-.067l-10.989-5.42a.629.629 0 01-.4-.347.609.609 0 01.19-.733.629.629 0 01.768.001l10.995 5.414a.62.62 0 01.295.29.607.607 0 01-.18.752.632.632 0 01-.393.13v-.02z" fill="#424242"/>
    <path d="M17.51 31.41a.647.647 0 01-.564-.342.614.614 0 01-.031-.473.626.626 0 01.316-.358l10.989-5.413a.635.635 0 01.843.274.611.611 0 01-.279.831L17.79 31.343a.592.592 0 01-.279.067z" fill="#424242"/>
    <path d="M17.51 31.41a.633.633 0 01-.442-.18.617.617 0 01-.184-.437V19.96c0-.163.066-.32.184-.436a.63.63 0 01.884 0 .612.612 0 01.184.436v10.86a.612.612 0 01-.193.419.63.63 0 01-.433.17zm12.05-4.375a1.704 1.704 0 01-.928-.297 1.666 1.666 0 01-.606-.752 1.639 1.639 0 01.387-1.8 1.71 1.71 0 011.834-.345c.306.127.567.34.751.612.184.273.282.593.282.92a1.645 1.645 0 01-.508 1.185 1.695 1.695 0 01-1.212.477zm0-2.084a.437.437 0 00-.272.142.425.425 0 000 .567.437.437 0 00.614.038.43.43 0 00.147-.322.423.423 0 00-.147-.321.437.437 0 00-.342-.104zm1.04 17.292a.636.636 0 01-.404-.202.618.618 0 010-.834.636.636 0 01.404-.203 2.94 2.94 0 001.255-.28 2.898 2.898 0 001.01-.785l2.311-2.821a4.14 4.14 0 011.445-1.128 4.2 4.2 0 011.799-.4h1.054a.63.63 0 01.442.18.612.612 0 010 .873.63.63 0 01-.442.18H38.44a2.913 2.913 0 00-1.257.28 2.868 2.868 0 00-1.007.792l-2.319 2.82c-.39.482-.886.87-1.45 1.134a4.18 4.18 0 01-1.807.395z" fill="#424242"/>
    <path d="M39.494 31.41a4.185 4.185 0 01-1.795-.4 4.123 4.123 0 01-1.441-1.128l-2.32-2.82a2.885 2.885 0 00-1.008-.788 2.927 2.927 0 00-1.256-.278H30.6a.633.633 0 01-.341-.222.617.617 0 010-.762.633.633 0 01.341-.222h1.054a4.199 4.199 0 011.799.4 4.14 4.14 0 011.445 1.128l2.312 2.82c.279.327.63.588 1.025.763.395.175.826.26 1.26.249a.63.63 0 01.442.18.612.612 0 010 .872.63.63 0 01-.443.18v.028z" fill="#424242"/>
</svg>
