<svg width="68" height="68" fill="none" xmlns="http://www.w3.org/2000/svg">
    <g clip-path="url(#clip0)">
        <path d="M33.952 15.042a7.704 7.704 0 107.705 7.704 7.717 7.717 0 00-7.705-7.704zm2.89 35.434l-.17-.156-.768-.884-.911-.122a7.13 7.13 0 00-1.04-.075 7.705 7.705 0 107.704 7.697 7.153 7.153 0 00-.068-.958l-.109-.857-4.638-4.645z" fill="#fff"/>
        <path d="M49.402 31.008V29.92c0-.175-.013-.35-.04-.524L46.41 12.002l-.17-.782a3.113 3.113 0 00-.197-.558l-.252-.53a2.94 2.94 0 00-.279-.483l-.367-.53a3.03 3.03 0 00-.32-.374l-.441-.449a3.951 3.951 0 00-.388-.326l-.476-.334a2.721 2.721 0 00-.462-.272l-.524-.251a3.86 3.86 0 00-.524-.197l-.57-.116a3.17 3.17 0 00-.613-.116l-.68-.054H28.111l-1.115.075c-.175.017-.347.05-.517.095l-.544.15c-.19.046-.375.115-.55.204l-.545.251a3.218 3.218 0 00-.455.272l-.456.32a3.225 3.225 0 00-.442.374l-.408.408a3.115 3.115 0 00-.347.415l-.346.496c-.106.151-.199.31-.28.476l-.224.496a2.92 2.92 0 00-.217.585l-.17.646-2.965 17.483c-.03.178-.045.357-.048.537v4.373l.068.761c.017.122.04.242.068.36l.3.878.36.632c.061.089.122.184.197.272l.816.891.252.32.197.32.17.34.136.353.095.36.061.374v.761l-.06.375-.096.36-.136.36-.17.334-.197.32-.238.299-.517.537-.415.503-.496.884-.245.728c0 .136-.061.265-.082.4l-.054.402v21.604H54.4l-10.037-10.01v7.48H23.521V46.852l.476-.49.565-.68.49-.748.407-.795.381-.85.238-.857.15-.884.068-1.034-.041-.775-.123-.884-.217-.877-.306-.836-.381-.803-.47-.761-.543-.68-.68-.714v-4.08l2.897-17.062.095-.374.109-.238.15-.21.183-.19.217-.15.232-.116.244-.068h12.573l.259.068.238.116.21.15.184.183.15.217.116.238.081.327 2.91 17.115v4.509l1.775.55a9.05 9.05 0 013.747 2.231L68 55.502v-7.12L53.468 33.85a14.234 14.234 0 00-4.066-2.842z" fill="#fff"/>
        <path d="M46.24 68V46.43l-.068-.19-.061-.163-.075-.157-.095-.142-.109-.143-.619-.633-.435-.557-.374-.592-.313-.625-.245-.68-.183-.68-.109-.68v-1.36l.109-.68.183-.68.245-.68.313-.626.374-.592.435-.55.619-.66.109-.136.095-.15.075-.156.061-.163.048-.17V29.92l-2.904-17.333-.156-.592-.252-.544-.34-.49-.408-.414-.483-.34-.53-.252-.585-.163-.612-.054H27.941l-.612.054-.578.163-.537.252-.483.34-.415.415-.34.49-.251.543-.157.592-2.937 17.333v4.685l.04.17.062.163.081.157.096.15.108.135.62.64.434.55.374.592.313.626.245.68.184.68.108.68.034.68-.034.68-.108.68-.184.68-.245.68-.313.625-.374.592-.435.557-.619.633-.108.143-.096.142-.081.157-.061.163-.041.17V68H46.24zm-12.288-5.25a5.814 5.814 0 110-11.628 5.814 5.814 0 010 11.628zm0-34.197a5.815 5.815 0 115.814-5.807 5.808 5.808 0 01-5.814 5.814" fill="#E1E2E3"/>
        <path d="M42.507 45.451v-.258l-2.51-7.582-.054-.095v-.075l-1.965-3.026-.061-.061-.123-.123-.047-.061-.082-.034-.15-.061-.217-.075H30.6l-.184.034-.136.061-.081.041-.055.054-.122.116-.061.068-1.945 3.026-.04.102-.055.102-2.469 7.589V57.84l.123.761v.088l.19.735v.081l.265.68v.048l.327.68v.048l.387.632v.041l.45.592v.04l.496.545h.034l.544.496.591.435h.041l.64.381h.04l.68.32h.074l.68.251h.048l.742.184h.054l.768.109H34l.81-.041h.115l.755-.123h.054l.734-.197h.089l.68-.258h.163l.68-.327.04-.034.626-.387h.048l.592-.449h.034l.544-.496v-.034l.496-.551v-.041l.442-.592v-.04l.38-.64v-.04l.123-.245.204-.429v-.073l.259-.68v-.041l.183-.735v.082-.04l.415-.776V45.451h.04zm-8.555 17.3a5.814 5.814 0 110-11.63 5.814 5.814 0 010 11.63z" fill="#B3B5B7"/>
        <path d="M51.245 36.074a11.132 11.132 0 00-15.742 15.742L51.68 68h6.875A9.445 9.445 0 0068 58.555v-5.726L51.245 36.074z" fill="#E6D3C8"/>
        <path d="M38.114 49.076a7.344 7.344 0 01.163-10.547c2.924-2.761 7.603-2.475 10.452.374l3.631 3.658a1.897 1.897 0 010 2.673l-7.698 7.724a1.897 1.897 0 01-2.672 0l-3.876-3.882z" fill="#DBC1B4"/>
        <path d="M43.323 54.135a2.523 2.523 0 01-1.782-.735l-3.876-3.876a7.989 7.989 0 01.177-11.444 8.207 8.207 0 0111.329.388l3.658 3.658a2.51 2.51 0 010 3.563L45.104 53.4a2.51 2.51 0 01-1.781.735zm-.116-16.898a6.535 6.535 0 00-4.501 1.747 6.725 6.725 0 00-.15 9.65l3.876 3.876a1.265 1.265 0 001.782 0l7.724-7.725a1.265 1.265 0 000-1.782l-3.658-3.658a7.181 7.181 0 00-5.073-2.108zm6.576 22.807a.62.62 0 01-.503-.993 46.301 46.301 0 018.914-8.921.632.632 0 01.755 1.006 45.908 45.908 0 00-8.629 8.65.632.632 0 01-.537.258zm3.189 2.842a.633.633 0 01-.49-1.006 68.923 68.923 0 018.881-8.901.632.632 0 01.782.993 68.959 68.959 0 00-8.69 8.683.598.598 0 01-.483.231z" fill="#424242"/>
        <path d="M51.68 35.632a11.757 11.757 0 00-16.62 16.626L50.804 68h1.781L35.952 51.367a10.5 10.5 0 0114.844-14.844L68 53.72v-1.775L51.68 35.632zM40.392 22.746a6.44 6.44 0 10-6.44 6.44 6.453 6.453 0 006.44-6.44zm-6.44 5.182a5.189 5.189 0 11-.013-10.378 5.189 5.189 0 01.013 10.378z" fill="#424242"/>
        <path d="M38.794 55.08a5.195 5.195 0 11-3.006-3.006l-.285-.278a11.56 11.56 0 01-1.095-1.3h-.456a6.447 6.447 0 106.44 6.44v-.244l-1.598-1.612z" fill="#424242"/>
        <path d="M39.889 10.363l.557.055.47.129.435.204.394.279.34.34.272.394.211.449.13.483 2.93 17.272v3.08c.413.09.822.201 1.224.333l.068-3.461v-.102L43.928 12.43l-.156-.598-.041-.102-.252-.55-.054-.096-.34-.483-.068-.081-.415-.415-.088-.075-.476-.34-.096-.054-.537-.252-.102-.04-.578-.157h-.109l-.68-.055H28.125l-.85.062h-.109l-.585.156-.102.04-.537.252-.088.055-.483.34-.082.075-.415.414-.068.082-.34.483-.06.102-.252.544-.041.102-.163.68-2.938 17.292v4.475l.068.394v.075l.156.449.238.414.728.776.401.503.34.53.286.571.231.592.163.612.102.632.041.64-.034.646-.095.632-.157.612-.224.598-.279.572-.34.537-.394.503-.68.68-.15.19-.224.422-.109.374v.068l-.034.231V68a.634.634 0 001.099.489.631.631 0 00.159-.489V46.546l.095-.265.782-.87.476-.606.408-.68.34-.68.265-.68.19-.741.116-.762.041-.775-.061-.775-.122-.762-.198-.74-.272-.68-.346-.68-.415-.64-.476-.605-.571-.585-.136-.184-.136-.34v-4.494l2.876-17.259.143-.537.204-.442.279-.394.333-.34.394-.28.435-.203.476-.13.497-.047 11.968-.007zm5.732 51.565V68a.65.65 0 001.299 0v-4.808l-1.299-1.264z" fill="#424242"/>
    </g>
    <defs>
        <clipPath id="clip0">
            <path fill="#fff" d="M0 0h68v68H0z"/>
        </clipPath>
    </defs>
</svg>
