<svg width="68" height="67" fill="none" xmlns="http://www.w3.org/2000/svg">
    <path d="M16.816 25.755h3.054v3.008c0 .82.33 1.605.918 2.184.588.58 1.385.905 2.216.905.832 0 1.63-.326 2.217-.905.588-.58.918-1.365.918-2.184v-3.008h3.053c.832 0 1.63-.326 2.217-.905.588-.58.918-1.365.918-2.184 0-.819-.33-1.605-.918-2.184a3.158 3.158 0 00-2.217-.905H26.14v-3.001c0-.82-.33-1.605-.918-2.184a3.158 3.158 0 00-2.217-.905c-.831 0-1.628.325-2.216.905a3.066 3.066 0 00-.918 2.184v3.001h-3.054a3.16 3.16 0 00-2.216.905 3.066 3.066 0 00-.918 2.184c0 .82.33 1.605.918 2.184.588.58 1.385.905 2.216.905zm34.368-6.178H38.828c-.831 0-1.629.326-2.217.905a3.066 3.066 0 00-.918 2.184c0 .82.33 1.605.918 2.184.588.58 1.386.905 2.217.905h12.356a3.16 3.16 0 002.216-.905c.588-.58.918-1.365.918-2.184 0-.82-.33-1.605-.918-2.184a3.158 3.158 0 00-2.216-.905zM29.192 35.148a3.155 3.155 0 00-2.216.905L14.613 48.24a3.076 3.076 0 00-.858 1.581c-.12.6-.059 1.22.178 1.785.238.565.64 1.047 1.155 1.386a3.168 3.168 0 002.94.287 3.104 3.104 0 001.012-.67L31.41 40.42c.438-.432.736-.982.857-1.581.121-.6.06-1.22-.178-1.785a3.099 3.099 0 00-1.155-1.386 3.169 3.169 0 00-1.742-.52zM51.34 38.09a3.174 3.174 0 00-4.434 0l-1.91 1.875-1.904-1.876a3.161 3.161 0 00-2.19-.825 3.158 3.158 0 00-2.16.902 3.067 3.067 0 00-.919 2.126 3.067 3.067 0 00.835 2.16l1.91 1.882-1.91 1.896a3.066 3.066 0 00-.918 2.184c0 .82.33 1.605.918 2.184.588.58 1.385.905 2.217.905a3.16 3.16 0 002.217-.905l1.904-1.876 1.924 1.856a3.165 3.165 0 004.233-.178 3.068 3.068 0 00.917-2.049 3.06 3.06 0 00-.73-2.121l-1.91-1.876 1.91-1.883a3.058 3.058 0 000-4.382z" fill="#fff"/>
    <path d="M23.004 29.38a.63.63 0 01-.442-.181.612.612 0 01-.183-.436V16.576c0-.164.066-.32.183-.436a.63.63 0 01.885 0 .612.612 0 01.183.436v12.187c0 .164-.066.32-.183.436a.63.63 0 01-.443.18z" fill="#424242"/>
    <path d="M29.192 23.282H16.816a.63.63 0 01-.442-.18.612.612 0 010-.872.63.63 0 01.442-.18h12.376a.63.63 0 01.443.18.612.612 0 010 .872.63.63 0 01-.443.18zm21.992 0H38.828a.63.63 0 01-.442-.18.612.612 0 010-.872.63.63 0 01.442-.18h12.356a.63.63 0 01.442.18.612.612 0 010 .872.63.63 0 01-.442.18zM16.83 51.04a.685.685 0 01-.449-.174.618.618 0 010-.877L28.751 37.8a.639.639 0 01.852.038.618.618 0 01.038.84L17.272 50.866a.686.686 0 01-.442.175zm32.293-2.03a.686.686 0 01-.449-.18l-8.241-8.12a.618.618 0 01.442-1.059.63.63 0 01.442.18l8.248 8.128a.614.614 0 01.136.67.633.633 0 01-.577.38z" fill="#424242"/>
    <path d="M40.875 49.01a.632.632 0 01-.578-.38.608.608 0 01.136-.671l8.241-8.128a.638.638 0 01.853.038.618.618 0 01.038.84l-8.248 8.12a.62.62 0 01-.442.181z" fill="#424242"/>
</svg>
