<svg width="68" height="67" fill="none" xmlns="http://www.w3.org/2000/svg">
    <path d="M51.428 22.854V11.832c0-.407-.081-.81-.24-1.185a3.086 3.086 0 00-.683-1.004 3.176 3.176 0 00-2.225-.9H37.114a3.165 3.165 0 00-2.201.914A3.073 3.073 0 0034 11.832v11.022a3.046 3.046 0 00.355 1.45c.237.447.582.83 1.005 1.116a3.117 3.117 0 00-1.004 1.12c-.237.448-.36.947-.356 1.453v11.014a3.064 3.064 0 00.356 1.453c.237.448.582.833 1.004 1.12a3.098 3.098 0 00-1.005 1.116 3.049 3.049 0 00-.355 1.45v2.868a3.05 3.05 0 00-.66-1.576 3.12 3.12 0 00-1.41-.989 3.166 3.166 0 00-1.727-.096 3.134 3.134 0 00-1.514.825l-.238.235V40.77a3.047 3.047 0 00-.415-1.48 3.104 3.104 0 00-1.088-1.1c.461-.283.84-.678 1.1-1.148.259-.47.391-.997.383-1.532v-6.928a3.042 3.042 0 00-.47-1.611 3.105 3.105 0 00-1.257-1.13 3.121 3.121 0 001.256-1.133 3.062 3.062 0 00.47-1.613V16.14a3.07 3.07 0 00-.917-2.184 3.158 3.158 0 00-2.217-.904 3.16 3.16 0 00-2.217.904 3.066 3.066 0 00-.918 2.184v6.955c.002.57.164 1.128.467 1.613.304.484.738.877 1.254 1.134a3.099 3.099 0 00-1.255 1.13 3.035 3.035 0 00-.466 1.61v6.928c-.01.535.121 1.064.381 1.534s.64.864 1.102 1.146a3.083 3.083 0 00-1.088 1.116c-.26.457-.395.973-.395 1.497v4.65l-.245-.241a3.159 3.159 0 00-2.216-.905c-.832 0-1.63.325-2.217.905a3.066 3.066 0 00-.918 2.184c0 .819.33 1.605.918 2.184l5.596 5.507c.268.269.587.483.939.63h.06c.155.063.314.113.477.148l.109.033c.415.08.842.08 1.258 0l.108-.033a2.79 2.79 0 00.476-.148h.068c.35-.15.668-.364.939-.63l5.59-5.507c.512-.5.83-1.162.897-1.87v7.451a3.056 3.056 0 00.898 2.201 3.183 3.183 0 002.216.928H48.28a3.174 3.174 0 002.215-.91 3.05 3.05 0 00.913-2.186V44.147a3.04 3.04 0 00-.372-1.457 3.092 3.092 0 00-1.029-1.109c.43-.282.784-.664 1.028-1.113.244-.449.372-.95.373-1.46V27.993c0-.51-.129-1.011-.373-1.46a3.112 3.112 0 00-1.028-1.113 3.095 3.095 0 001.04-1.106c.248-.448.38-.95.381-1.46z" fill="#fff"/>
    <path d="M48.28 23.45H37.114a.637.637 0 01-.44-.182.62.62 0 01-.185-.434V11.832a.619.619 0 01.185-.434.638.638 0 01.44-.182H48.28a.637.637 0 01.44.182.618.618 0 01.186.434v11.022a.619.619 0 01-.192.42.638.638 0 01-.434.176zm-10.533-1.22h9.921v-9.775h-9.921v9.776zM48.28 39.624H37.114a.63.63 0 01-.442-.18.612.612 0 01-.183-.437V27.993c0-.164.066-.32.183-.436a.63.63 0 01.442-.18H48.28a.63.63 0 01.442.18.612.612 0 01.184.436v11.014a.61.61 0 01-.184.436.63.63 0 01-.442.18zM37.747 38.39h9.921v-9.782h-9.921v9.782zM48.28 55.784H37.114a.637.637 0 01-.44-.182.619.619 0 01-.185-.434V44.146a.619.619 0 01.185-.434.638.638 0 01.44-.182H48.28a.637.637 0 01.44.182.618.618 0 01.186.434v11.022a.618.618 0 01-.186.434.636.636 0 01-.44.182zm-10.533-1.24h9.921V44.77h-9.921v9.776zm-12.451-1.051a.637.637 0 01-.447-.183.619.619 0 01-.185-.44v-12.1a.613.613 0 01.159-.482.632.632 0 01.47-.206.64.64 0 01.47.206.622.622 0 01.159.482v12.1a.618.618 0 01-.183.438.637.637 0 01-.443.185zm0-29.775a.637.637 0 01-.447-.183.618.618 0 01-.185-.44V16.14a.613.613 0 01.159-.481.633.633 0 01.47-.206.64.64 0 01.47.206.623.623 0 01.159.481v6.955a.618.618 0 01-.183.438.637.637 0 01-.443.185zm0 12.462a.637.637 0 01-.447-.182.618.618 0 01-.185-.441v-6.975a.613.613 0 01.159-.482.633.633 0 01.47-.205.64.64 0 01.47.206.623.623 0 01.159.481v6.928a.615.615 0 01-.166.469.633.633 0 01-.46.201z" fill="#424242"/>
    <path d="M25.296 53.493a.64.64 0 01-.58-.383.614.614 0 01.131-.676l5.59-5.534a.63.63 0 01.457-.223.642.642 0 01.475.182.62.62 0 01.12.717.624.624 0 01-.161.202l-5.59 5.507a.625.625 0 01-.442.208z" fill="#424242"/>
    <path d="M25.296 53.493a.642.642 0 01-.449-.181l-5.59-5.508a.632.632 0 01-.194-.442.621.621 0 01.181-.449.64.64 0 01.695-.146.64.64 0 01.21.133l5.589 5.507a.62.62 0 01.133.673.625.625 0 01-.575.386v.027z" fill="#424242"/>
</svg>
