<svg width="68" height="68" fill="none" xmlns="http://www.w3.org/2000/svg">
    <g clip-path="url(#clip0)">
        <path d="M49.722 6.922a3.23 3.23 0 00-3.23 3.23v.68a24.482 24.482 0 00-7.018-1.122h-.367a24.324 24.324 0 000 48.648h.367a24.233 24.233 0 007.018-1.17v.68a3.23 3.23 0 106.46 0V10.152a3.23 3.23 0 00-3.23-3.23z" fill="#fff"/>
        <path d="M49.722 9.52a.626.626 0 00-.626.626v4.522a21.76 21.76 0 00-9.656-2.387h-.272a21.72 21.72 0 000 43.438h.272a21.82 21.82 0 009.656-2.393v4.522a.626.626 0 101.251 0V10.152a.624.624 0 00-.625-.632zM39.256 54.468a20.467 20.467 0 119.208-38.706 21.76 21.76 0 00-4.76 4.216 14.22 14.22 0 00-4.318-.68.446.446 0 00-.102 0 .618.618 0 00-.11 0 14.695 14.695 0 10.11 29.39.446.446 0 00.102 0 14.438 14.438 0 004.318-.68 21.569 21.569 0 004.76 4.21 20.44 20.44 0 01-9.208 2.25zm.68-28.09H39.1a7.657 7.657 0 000 15.3h.843a22.097 22.097 0 002.897 5.242 12.86 12.86 0 01-3.461.49.446.446 0 00-.102 0 13.437 13.437 0 11.102-26.874c1.173.023 2.337.206 3.461.544a21.995 21.995 0 00-2.897 5.297h-.007zm.864 1.427a6.398 6.398 0 010 12.39 20.086 20.086 0 010-12.39zm-1.258 12.58h-.245a6.399 6.399 0 110-12.797h.245a21.311 21.311 0 000 12.77v.027zm1.673.993a7.637 7.637 0 004.8-3.917 14.722 14.722 0 002.89 5.862 13.321 13.321 0 01-4.76 3.21 20.814 20.814 0 01-2.95-5.155h.02zm0-14.763a20.652 20.652 0 012.897-5.147 13.321 13.321 0 014.76 3.21 14.722 14.722 0 00-2.89 5.86 7.67 7.67 0 00-4.78-3.923h.013zm7.881 24.528a20.4 20.4 0 01-4.148-3.584 14.633 14.633 0 004.148-2.679v6.263zm0-9.656a13.511 13.511 0 010-14.96v14.96zm0-18.36a14.636 14.636 0 00-4.148-2.659 20.4 20.4 0 014.148-3.584v6.243z" fill="#424242"/>
    </g>
    <defs>
        <clipPath id="clip0">
            <path fill="#fff" d="M0 0h68v68H0z"/>
        </clipPath>
    </defs>
</svg>
