<svg width="68" height="68" fill="none" xmlns="http://www.w3.org/2000/svg">
    <path d="M50.49 28.193a3.142 3.142 0 00-3.135 3.135v7.65a3.087 3.087 0 00-4.719 0v-4.386a3.127 3.127 0 00-5.501-2.04v-7.317A3.142 3.142 0 0034 22.1a3.101 3.101 0 00-2.36 1.095v-1.578a3.135 3.135 0 00-6.27 0V33.77a3.1 3.1 0 00-4.76 0v-4.917a3.135 3.135 0 00-6.269 0v17.53a3.121 3.121 0 005.882 1.476 3.107 3.107 0 005.501 0 3.1 3.1 0 005.495 0 3.1 3.1 0 005.494 0 3.108 3.108 0 005.501 0 3.1 3.1 0 005.495 0 3.121 3.121 0 005.882-1.475V31.328a3.141 3.141 0 00-3.101-3.135z" fill="#fff"/>
    <path d="M44.996 47.008a.626.626 0 01-.626-.625v-5.365a.626.626 0 111.251 0v5.365a.626.626 0 01-.625.625zm-10.996 0a.626.626 0 01-.626-.625V25.235a.626.626 0 111.252 0v21.148a.626.626 0 01-.626.625zm16.49 0a.626.626 0 01-.626-.625V31.328a.626.626 0 111.252 0v15.055a.625.625 0 01-.626.625zm-27.486 0a.626.626 0 01-.625-.625V35.809a.626.626 0 111.251 0v10.574a.625.625 0 01-.626.625zm5.502 0a.632.632 0 01-.633-.625V21.617a.632.632 0 011.258 0v24.766a.626.626 0 01-.625.625zm-10.996 0a.626.626 0 01-.626-.625v-17.53a.626.626 0 011.252 0v17.53a.626.626 0 01-.626.625zm21.984 0a.626.626 0 01-.625-.625V34.592a.632.632 0 011.258 0v11.79a.632.632 0 01-.633.626z" fill="#424242"/>
</svg>
