<svg width="68" height="68" fill="none" xmlns="http://www.w3.org/2000/svg">
    <path d="M34 12.315A21.685 21.685 0 1055.685 34 21.706 21.706 0 0034 12.315z" fill="#fff"/>
    <path d="M34 53.176A19.183 19.183 0 1153.183 34 19.197 19.197 0 0134 53.176zm0-37.1A17.925 17.925 0 1051.925 34 17.945 17.945 0 0034 16.075z" fill="#424242"/>
    <path d="M34 34.626a.619.619 0 01-.442-.184l-7.97-7.97a.626.626 0 01.884-.884l7.97 7.97A.626.626 0 0134 34.626z" fill="#424242"/>
    <path d="M34 34.626a.619.619 0 01-.442-.184.626.626 0 010-.884L43.84 23.27a.632.632 0 01.89.89L34.442 34.442a.618.618 0 01-.442.184z" fill="#424242"/>
</svg>
