<svg width="68" height="68" fill="none" xmlns="http://www.w3.org/2000/svg">
    <path d="M58.596 0H9.404A9.404 9.404 0 000 9.404v49.192A9.404 9.404 0 009.404 68h49.192A9.404 9.404 0 0068 58.596V9.404A9.404 9.404 0 0058.596 0z" fill="#F181C2"/>
    <path d="M44.526 31.443v-.279a3.23 3.23 0 00-.4-1.203c-.048-.082-.11-.15-.164-.231a1.998 1.998 0 00-.204-.286c-.075-.082-.156-.15-.238-.231-.082-.082-.136-.136-.218-.197a3.13 3.13 0 00-.49-.313h-.101a3.02 3.02 0 00-.537-.204 3.239 3.239 0 00-.354-.068c-.088 0-.177-.034-.265-.041-.14-.01-.281-.01-.422 0h-.21a3.338 3.338 0 00-.626.143l-7.235 2.373.244-.483 4.08-8.16a3.23 3.23 0 003.033 2.135c.347 0 .692-.058 1.02-.17a3.23 3.23 0 002.04-4.08l-2.448-7.29a3.22 3.22 0 00-.265-.584c-.04-.075-.102-.143-.15-.218a3.062 3.062 0 00-.21-.292c-.075-.088-.157-.15-.232-.218a2.366 2.366 0 00-.23-.217 3.356 3.356 0 00-.45-.286l-.054-.054-.102-.034a3.054 3.054 0 00-.49-.19l-.34-.062-.285-.04a2.459 2.459 0 00-.388 0 1.37 1.37 0 00-.238 0 3.79 3.79 0 00-.625.135l-7.344 2.455a3.23 3.23 0 001.965 6.12L23.8 34.993a3.69 3.69 0 00-.231.591c0 .096 0 .19-.048.286a2.734 2.734 0 00-.054.34 3.113 3.113 0 000 .354v.272c.026.215.076.428.15.632.059.179.134.351.224.517 0 .054.061.095.088.143.072.118.151.232.238.34.041.047.089.095.13.15.04.054.19.19.292.278l.143.116c.156.123.325.23.503.32.133.066.272.121.415.162l.108.034.34.082h.123c.148.024.298.037.449.04.156.01.313.01.469 0h.143l.333-.088h.068l7.228-2.407-7.765 15.525a3.231 3.231 0 105.78 2.883L44.2 33.007a3.47 3.47 0 00.231-.598c0-.089 0-.184.048-.279a2.71 2.71 0 00.054-.34 2.93 2.93 0 00-.007-.347z" fill="#fff"/>
    <path d="M41.915 31.396a.061.061 0 000-.034v-.041a.612.612 0 00-.782-.354l-7.33 2.435-5.875 1.958 3.053-6.12 6.868-13.743 1.958 5.875a.625.625 0 001.009.273.627.627 0 00.181-.674l-2.434-7.29v-.047a.572.572 0 00-.288-.315.624.624 0 00-.236-.066.577.577 0 00-.217 0l-7.372 2.469a.625.625 0 00.204 1.224.525.525 0 00.198-.034l5.868-1.952-10.594 21.196a.598.598 0 00-.068.238.542.542 0 000 .21.061.061 0 000 .035c.02.07.058.136.108.19l.041.047a.68.68 0 00.136.102h.034a.58.58 0 00.245.062.736.736 0 00.177 0l7.31-2.435 5.963-1.965-10.6 21.202a.632.632 0 00.278.844c.09.04.187.06.286.06a.624.624 0 00.564-.346l11.274-22.556a.599.599 0 00.069-.238.545.545 0 00-.028-.21z" fill="#424242"/>
</svg>
