<svg width="67" height="68" fill="none" xmlns="http://www.w3.org/2000/svg">
    <g clip-path="url(#clip0)">
        <path d="M67 57.65a9.476 9.476 0 01-2.714 6.65 9.197 9.197 0 01-6.552 2.755H9.266A9.197 9.197 0 012.714 64.3 9.476 9.476 0 010 57.65V8.46c0-2.495.976-4.887 2.714-6.65A9.198 9.198 0 019.266-.946h48.468c2.457 0 4.814.99 6.552 2.754A9.476 9.476 0 0167 8.46" fill="#6BBC40"/>
        <path d="M55.188 30.865h-5.762a4.086 4.086 0 00-1.741.326 4.14 4.14 0 00-1.448 1.034c-.67-2.543-2.727-4.223-5.092-4.08-2.365.143-4.389 2.455-4.643 5.393l-1.34 18.06a3.705 3.705 0 01-.087.524 3.433 3.433 0 01-.08-.503L32.83 15.926c-.308-4.012-2.981-7.052-6.231-7.072-3.25-.02-6.03 3.128-6.244 7.282l-.999 17.11a4.76 4.76 0 00-1.75-1.757 4.669 4.669 0 00-2.384-.624h-3.41c-.82 0-1.605.33-2.184.918A3.159 3.159 0 008.723 34c0 .831.326 1.629.905 2.217a3.07 3.07 0 002.184.918h2.627c.353 1.135.589 2.304.703 3.488l.047.395a6.04 6.04 0 00.775 2.375c.42.728.987 1.358 1.664 1.847a4.373 4.373 0 003.645.626c2.164-.578 3.711-2.76 3.865-5.44l1.34-23.95c.01-.197.038-.392.08-.584a3.1 3.1 0 01.068.455l2.184 35.707c.308 4.04 2.995 7.106 6.244 7.106 3.257 0 5.876-2.958 6.225-7.038l.777-10.322c.387.576.91 1.043 1.523 1.358a4.017 4.017 0 001.981.444c3.9 0 4.65-4.08 4.965-5.787 0-.136.073-.408.134-.68h4.529c.82 0 1.605-.33 2.184-.918.58-.588.905-1.386.905-2.217 0-.831-.326-1.629-.905-2.217a3.066 3.066 0 00-2.184-.918z" fill="#fff"/>
        <path d="M35.048 56.637c-1.943 0-3.565-2.04-3.78-4.76l-2.163-35.666c-.154-2.006-1.267-3.59-2.526-3.597-1.313 0-2.459 1.666-2.553 3.706l-1.34 23.956c-.087 1.578-.898 2.836-2.01 3.142a1.98 1.98 0 01-1.641-.292 3.473 3.473 0 01-.928-1.094 3.527 3.527 0 01-.412-1.382l-.054-.387c-.221-1.693-.737-5.665-2.365-5.665h-3.464a.612.612 0 01-.436-.183.63.63 0 010-.884.612.612 0 01.436-.184h3.41c2.68 0 3.283 4.393 3.592 6.753l.046.38c.024.31.11.61.251.885.142.275.337.517.574.713a.744.744 0 00.63.13c.596-.164 1.065-1.007 1.118-2.04l1.34-23.95c.161-2.808 1.782-4.916 3.78-4.916 1.929 0 3.543 2.04 3.751 4.76l2.164 35.645c.154 2.04 1.273 3.618 2.546 3.618 1.253 0 2.372-1.578 2.54-3.577l1.34-18.081c.14-1.687 1.139-2.972 2.371-3.067 1.233-.095 2.466 1.17 2.68 2.965l.275 2.475c.107 1.034.395 3.794 1.34 3.794.764 0 1.018-1.074 1.34-2.72.322-1.645.67-3.753 2.546-3.753h5.762c.163 0 .32.066.436.183a.63.63 0 010 .885.612.612 0 01-.436.183h-5.762c-.77 0-1.025 1.081-1.34 2.72-.315 1.639-.67 3.74-2.533 3.74-2.083 0-2.418-3.196-2.6-4.916v-.143l-.18-2.285c-.114-1.054-.717-1.877-1.34-1.836-.623.04-1.166.911-1.253 1.938l-1.34 18.081c-.234 2.72-1.816 4.72-3.765 4.76l-.047-.034z" fill="#424242"/>
    </g>
    <defs>
        <clipPath id="clip0">
            <path fill="#fff" d="M0 0h67v68H0z"/>
        </clipPath>
    </defs>
</svg>
